<svg width="486" height="68" viewBox="0 0 486 68" fill="none" xmlns="http://www.w3.org/2000/svg">
<path d="M18.5459 28.6265H21.762V31.2501H18.5459V28.6265Z" fill="#004A6E"/>
<path d="M11.7842 28.6265H17.3918V31.2501H11.7842V28.6265Z" fill="#004A6E"/>
<path d="M29.1277 21.7606L28.466 17.3312L28.4662 17.3309C28.3714 16.6798 28.0507 16.0858 27.5635 15.6575C27.0764 15.2295 26.455 14.9958 25.8135 15.0001H9.17642C8.5323 14.9976 7.90907 15.234 7.42171 15.6657C6.93398 16.0973 6.61443 16.6952 6.52222 17.3493L5.87723 21.7561C5.83658 22.0499 5.59537 22.2705 5.30645 22.2787H4.04416C3.62653 22.2718 3.22361 22.4377 2.92678 22.7391C2.62961 23.0407 2.4635 23.4524 2.46585 23.881V38.6074C2.4632 39.0372 2.62872 39.4505 2.9256 39.7539C3.22218 40.0574 3.62537 40.2257 4.04419 40.2212H31.8234V22.2781H29.6981C29.4104 22.2709 29.1694 22.052 29.1276 21.76L29.1277 21.7606ZM22.8347 31.8426C22.8347 31.9997 22.7741 32.1503 22.6657 32.2615C22.5573 32.3727 22.4106 32.435 22.2575 32.435H11.2073C10.8886 32.435 10.6301 32.1696 10.6301 31.8426V28.034C10.6301 27.7069 10.8886 27.4415 11.2073 27.4415H22.2575C22.5761 27.4415 22.8347 27.7069 22.8347 28.034L22.8347 31.8426ZM24.9667 21.9935C24.8569 22.1211 24.6993 22.1939 24.5335 22.1939H9.57099C9.39546 22.1939 9.22935 22.1117 9.11979 21.9708C9.01023 21.8297 8.96929 21.6453 9.00846 21.4694L9.80012 17.9146C9.86021 17.6453 10.0935 17.4543 10.3629 17.4543H24.0987C24.3897 17.4543 24.6354 17.6768 24.6716 17.973L25.1066 21.5277H25.1063C25.1272 21.6964 25.0762 21.866 24.9667 21.9935L24.9667 21.9935Z" fill="#004A6E"/>
<path d="M32.9775 21.2838C33.055 21.3845 33.1425 21.5114 33.1425 21.6499V40.8396C33.1425 40.978 33.055 41.105 32.9775 41.2056V41.4066H39.7397V20.8403H32.9775V21.2838Z" fill="#004A6E"/>
<path d="M0.267365 51.1226C0.253228 51.1299 0.238207 51.1356 0.222598 51.1396C0.207577 51.1435 0.191968 51.1456 0.175475 51.1456C0.125112 51.1456 0.0850588 51.1317 0.0553072 51.1033C0.0261497 51.0743 0.0117188 51.0353 0.0117188 50.986C0.0117188 50.9361 0.0261505 50.8971 0.0553072 50.8687C0.0850535 50.8397 0.125108 50.8252 0.175475 50.8252C0.191968 50.8252 0.207577 50.8273 0.222598 50.8312C0.238207 50.8355 0.253228 50.8409 0.267365 50.8482V50.9122C0.253228 50.9026 0.239091 50.8953 0.224954 50.8905C0.211406 50.8856 0.196975 50.8832 0.181365 50.8832C0.15368 50.8832 0.131886 50.8926 0.115393 50.911C0.099489 50.9289 0.0918317 50.954 0.0918317 50.986C0.0918317 51.0174 0.099489 51.0425 0.115393 51.061C0.131886 51.0788 0.15368 51.0876 0.181365 51.0876C0.196975 51.0876 0.211406 51.0858 0.224954 51.0815C0.239091 51.0767 0.253228 51.0691 0.267365 51.0585V51.1226Z" fill="#004A6E"/>
<path d="M0.496589 50.9713C0.49011 50.9682 0.483925 50.9658 0.47774 50.964C0.471261 50.9625 0.465076 50.9616 0.458891 50.9616C0.440042 50.9616 0.425316 50.9682 0.415303 50.9809C0.405878 50.993 0.401166 51.0106 0.401166 51.0329V51.1393H0.328125V50.9084H0.401166V50.9459C0.409707 50.9308 0.420015 50.9199 0.431796 50.9132C0.444165 50.906 0.458892 50.9023 0.475384 50.9023H0.483631C0.486576 50.9023 0.490699 50.9029 0.495412 50.9036L0.496589 50.9713Z" fill="#004A6E"/>
<path d="M0.757132 51.0233V51.0438H0.588665C0.591021 51.0616 0.597206 51.0749 0.607514 51.0837C0.617528 51.0919 0.632253 51.0958 0.651103 51.0958C0.666712 51.0958 0.682321 51.094 0.698226 51.0898C0.713835 51.0849 0.730034 51.0777 0.746526 51.068V51.1248C0.730033 51.1321 0.712951 51.1375 0.695869 51.1405C0.678492 51.1436 0.661705 51.1454 0.645211 51.1454C0.604273 51.1454 0.572465 51.1351 0.549789 51.1139C0.526816 51.0922 0.515625 51.0619 0.515625 51.0232C0.515625 50.9864 0.526522 50.9568 0.548611 50.935C0.571289 50.9132 0.601919 50.9023 0.640505 50.9023C0.675847 50.9023 0.704121 50.9132 0.725326 50.935C0.746532 50.9568 0.757135 50.9864 0.757135 51.0232L0.757132 51.0233ZM0.684091 50.9979C0.684091 50.9843 0.679673 50.9734 0.671132 50.9652C0.66318 50.9565 0.652871 50.9519 0.640502 50.9519C0.626365 50.9519 0.614879 50.9561 0.606338 50.964C0.597502 50.9722 0.592201 50.9834 0.589845 50.9979L0.684091 50.9979Z" fill="#004A6E"/>
<path d="M0.912725 51.0353C0.897704 51.0353 0.886218 51.0384 0.878561 51.0438C0.871493 51.0486 0.867959 51.0565 0.867959 51.0668C0.867959 51.0758 0.870609 51.0831 0.876206 51.0885C0.882391 51.0934 0.890931 51.0958 0.902123 51.0958C0.915377 51.0958 0.926863 51.091 0.936287 51.0813C0.945712 51.0716 0.950424 51.0592 0.950424 51.0438V51.0353H0.912725ZM1.02347 51.0075V51.1393H0.950427V51.1055C0.941002 51.1194 0.929811 51.1293 0.917441 51.1357C0.90566 51.142 0.890934 51.1454 0.873853 51.1454C0.850291 51.1454 0.830853 51.1387 0.816127 51.1248C0.80199 51.1103 0.794922 51.0922 0.794922 51.0704C0.794922 51.0432 0.803758 51.0229 0.822018 51.01C0.839984 50.9973 0.868552 50.9906 0.908016 50.9906H0.950426V50.9858C0.950426 50.9737 0.945714 50.9652 0.936289 50.9604C0.927454 50.9549 0.913906 50.9519 0.895056 50.9519C0.879152 50.9519 0.864721 50.9537 0.851468 50.9568C0.83792 50.9601 0.825845 50.9646 0.814947 50.9701V50.9144C0.829673 50.9105 0.844988 50.9078 0.860893 50.906C0.876502 50.9036 0.892111 50.9023 0.908016 50.9023C0.948659 50.9023 0.978111 50.9108 0.996373 50.9277C1.01434 50.9441 1.02347 50.9707 1.02347 51.0075L1.02347 51.0075Z" fill="#004A6E"/>
<path d="M1.16873 50.8423V50.9088H1.24295V50.9608H1.16873V51.0599C1.16873 51.0705 1.1705 51.0778 1.17462 51.0817C1.17933 51.085 1.18787 51.0865 1.20054 51.0865H1.23706V51.1397H1.1758C1.14664 51.1397 1.12632 51.1337 1.11454 51.1216C1.10276 51.1095 1.09687 51.0889 1.09687 51.0599V50.9608H1.06152V50.9088H1.09687V50.8423L1.16873 50.8423Z" fill="#004A6E"/>
<path d="M1.51201 51.0233V51.0438H1.34355C1.3459 51.0616 1.35209 51.0749 1.3624 51.0837C1.37241 51.0919 1.38714 51.0958 1.40599 51.0958C1.42159 51.0958 1.4372 51.094 1.45311 51.0898C1.46872 51.0849 1.48492 51.0777 1.50141 51.068V51.1248C1.48492 51.1321 1.46783 51.1375 1.45075 51.1405C1.43337 51.1436 1.41659 51.1454 1.40009 51.1454C1.35916 51.1454 1.32735 51.1351 1.30467 51.1139C1.2817 51.0922 1.27051 51.0619 1.27051 51.0232C1.27051 50.9864 1.2814 50.9568 1.30349 50.935C1.32617 50.9132 1.3568 50.9023 1.39539 50.9023C1.43073 50.9023 1.459 50.9132 1.48021 50.935C1.50141 50.9568 1.51202 50.9864 1.51202 51.0232L1.51201 51.0233ZM1.43897 50.9979C1.43897 50.9843 1.43456 50.9734 1.42601 50.9652C1.41806 50.9565 1.40775 50.9519 1.39538 50.9519C1.38125 50.9519 1.36976 50.9561 1.36122 50.964C1.35238 50.9722 1.34708 50.9834 1.34473 50.9979L1.43897 50.9979Z" fill="#004A6E"/>
<path d="M1.72042 50.9424V50.8179H1.79229V51.1395H1.72042V51.1056C1.71012 51.1195 1.69922 51.1295 1.68744 51.1359C1.67566 51.1422 1.66182 51.1455 1.64621 51.1455C1.61793 51.1455 1.59467 51.1343 1.5767 51.1117C1.55932 51.0893 1.55078 51.0597 1.55078 51.0234C1.55078 50.988 1.55932 50.959 1.5767 50.9364C1.59466 50.914 1.61793 50.9025 1.64621 50.9025C1.66093 50.9025 1.67448 50.9058 1.68626 50.9122C1.69863 50.9188 1.71012 50.9288 1.72042 50.9424L1.72042 50.9424ZM1.67212 51.0923C1.68773 51.0923 1.69951 51.0869 1.70747 51.0754C1.71601 51.0633 1.72043 51.0461 1.72043 51.0234C1.72043 51.0017 1.71601 50.9853 1.70747 50.9738C1.69951 50.9618 1.68773 50.9557 1.67212 50.9557C1.6571 50.9557 1.64532 50.9618 1.63678 50.9738C1.62883 50.9853 1.625 51.0017 1.625 51.0234C1.625 51.0461 1.62883 51.0633 1.63678 51.0754C1.64532 51.0869 1.6571 51.0923 1.67212 51.0923Z" fill="#004A6E"/>
<path d="M2.12505 51.0923C2.14066 51.0923 2.15244 51.0869 2.16039 51.0754C2.16893 51.0633 2.17335 51.0461 2.17335 51.0234C2.17335 51.0016 2.16893 50.9853 2.16039 50.9738C2.15244 50.9617 2.14066 50.9557 2.12505 50.9557C2.11003 50.9557 2.09825 50.9617 2.0897 50.9738C2.08175 50.9853 2.07792 51.0016 2.07792 51.0234C2.07792 51.0461 2.08175 51.0633 2.0897 51.0754C2.09825 51.0869 2.11003 51.0923 2.12505 51.0923ZM2.07792 50.9424C2.08735 50.9288 2.09795 50.9188 2.10973 50.9122C2.1221 50.9058 2.13624 50.9025 2.15214 50.9025C2.17953 50.9025 2.20221 50.914 2.22047 50.9364C2.23844 50.959 2.24757 50.988 2.24757 51.0234C2.24757 51.0597 2.23844 51.0893 2.22047 51.1117C2.20221 51.1343 2.17953 51.1455 2.15214 51.1455C2.13624 51.1455 2.1221 51.1422 2.10973 51.1359C2.09795 51.1295 2.08735 51.1195 2.07792 51.1056V51.1395H2.00488V50.8179H2.07792V50.9424Z" fill="#004A6E"/>
<path d="M2.27148 50.9087H2.34335L2.40461 51.0647L2.45644 50.9087H2.5283L2.43288 51.1614C2.42346 51.1871 2.41227 51.2052 2.3999 51.2158C2.38723 51.2261 2.37044 51.2315 2.34924 51.2315H2.30801V51.1819H2.33039C2.34276 51.1819 2.35189 51.1798 2.35749 51.1759C2.36279 51.1717 2.3672 51.165 2.37044 51.1553L2.3728 51.1481L2.27148 50.9087Z" fill="#004A6E"/>
<path d="M2.7168 50.8311H2.79455V50.9435L2.90647 50.8311H2.996L2.85109 50.9774L3.01131 51.1394H2.91353L2.79455 51.0185V51.1394H2.7168V50.8311Z" fill="#004A6E"/>
<path d="M3.03223 50.9086H3.10527V51.1395H3.03223V50.9086ZM3.03223 50.8179H3.10527V50.8783H3.03223V50.8179Z" fill="#004A6E"/>
<path d="M3.34229 50.9713C3.33581 50.9682 3.32963 50.9658 3.32344 50.964C3.31696 50.9625 3.31078 50.9616 3.30459 50.9616C3.28574 50.9616 3.27102 50.9682 3.26101 50.9809C3.25158 50.993 3.24687 51.0106 3.24687 51.0329V51.1393H3.17383V50.9084H3.24687V50.9459C3.25541 50.9308 3.26572 50.9199 3.2775 50.9132C3.28987 50.906 3.30459 50.9023 3.32109 50.9023H3.32933C3.33228 50.9023 3.3364 50.9029 3.34111 50.9036L3.34229 50.9713Z" fill="#004A6E"/>
<path d="M3.47815 51.0353C3.46313 51.0353 3.45165 51.0384 3.44399 51.0438C3.43692 51.0486 3.43339 51.0565 3.43339 51.0668C3.43339 51.0758 3.43604 51.0831 3.44164 51.0885C3.44782 51.0934 3.45636 51.0958 3.46755 51.0958C3.48081 51.0958 3.49229 51.091 3.50172 51.0813C3.51114 51.0716 3.51585 51.0592 3.51585 51.0438V51.0353H3.47815ZM3.5889 51.0075V51.1393H3.51586V51.1055C3.50643 51.1194 3.49524 51.1293 3.48287 51.1357C3.47109 51.142 3.45636 51.1454 3.43928 51.1454C3.41572 51.1454 3.39628 51.1387 3.38156 51.1248C3.36742 51.1103 3.36035 51.0922 3.36035 51.0704C3.36035 51.0432 3.36919 51.0229 3.38745 51.01C3.40541 50.9973 3.43398 50.9906 3.47345 50.9906H3.51586V50.9858C3.51586 50.9737 3.51114 50.9652 3.50172 50.9604C3.49288 50.9549 3.47934 50.9519 3.46049 50.9519C3.44458 50.9519 3.43015 50.9537 3.4169 50.9568C3.40335 50.9601 3.39127 50.9646 3.38038 50.9701V50.9144C3.3951 50.9105 3.41042 50.9078 3.42632 50.906C3.44193 50.9036 3.45754 50.9023 3.47345 50.9023C3.51409 50.9023 3.54354 50.9108 3.5618 50.9277C3.57977 50.9441 3.5889 50.9707 3.5889 51.0075L3.5889 51.0075Z" fill="#004A6E"/>
<path d="M3.88264 50.9979V51.1393H3.8096V51.0317C3.8096 51.0118 3.80901 50.9979 3.80842 50.9906C3.80754 50.9827 3.80607 50.977 3.80371 50.9737C3.80135 50.9688 3.79723 50.9652 3.79193 50.9628C3.78722 50.9598 3.78192 50.958 3.77662 50.958C3.76071 50.958 3.74864 50.964 3.74009 50.9761C3.73214 50.9882 3.72831 51.0048 3.72831 51.0257V51.1393H3.65527V50.9084H3.72831V50.9422C3.73833 50.9286 3.74981 50.9187 3.76248 50.912C3.77485 50.9057 3.7884 50.9023 3.80253 50.9023C3.82845 50.9023 3.84789 50.9108 3.86144 50.9277C3.87557 50.9441 3.88264 50.9673 3.88264 50.9979L3.88264 50.9979Z" fill="#004A6E"/>
<path d="M4.30583 50.8409V50.9062C4.28934 50.8983 4.27314 50.8926 4.25753 50.8893C4.24163 50.8853 4.2269 50.8832 4.21277 50.8832C4.19392 50.8832 4.18007 50.8863 4.17153 50.8917C4.1627 50.8965 4.15857 50.9047 4.15857 50.9159C4.15857 50.924 4.16122 50.9304 4.16682 50.9352C4.173 50.9395 4.1839 50.9431 4.19981 50.9461L4.23279 50.9534C4.26637 50.9606 4.28993 50.9712 4.30348 50.9848C4.31761 50.9987 4.32468 51.0186 4.32468 51.0452C4.32468 51.0791 4.31467 51.1045 4.29523 51.1214C4.2755 51.1377 4.24575 51.1456 4.2057 51.1456C4.18685 51.1456 4.16741 51.1435 4.14797 51.1396C4.12912 51.1365 4.10968 51.1311 4.09025 51.1238V51.0561C4.10968 51.0667 4.12824 51.0749 4.14562 51.0803C4.16358 51.0851 4.18125 51.0876 4.19863 51.0876C4.21512 51.0876 4.22749 51.0848 4.23633 51.0791C4.24575 51.0737 4.25046 51.0655 4.25046 51.0549C4.25046 51.0452 4.24722 51.038 4.24104 51.0332C4.23456 51.0277 4.22249 51.0229 4.20452 51.0186L4.17507 51.0114C4.14444 51.005 4.12205 50.9945 4.10792 50.98C4.09437 50.9654 4.08789 50.9458 4.08789 50.9207C4.08789 50.8902 4.09732 50.8669 4.11616 50.8506C4.1356 50.8337 4.16358 50.8252 4.19981 50.8252C4.21689 50.8252 4.23427 50.827 4.25164 50.83C4.26873 50.8324 4.28699 50.8361 4.30584 50.8409L4.30583 50.8409Z" fill="#004A6E"/>
<path d="M4.61702 50.998V51.1395H4.54398V51.0319C4.54398 51.0119 4.54339 50.998 4.5428 50.9908C4.54191 50.9829 4.54044 50.9772 4.53809 50.9738C4.53573 50.969 4.53161 50.9654 4.52631 50.963C4.52159 50.9599 4.51629 50.9581 4.51099 50.9581C4.49509 50.9581 4.48301 50.9642 4.47447 50.9763C4.46652 50.9883 4.46269 51.005 4.46269 51.0258V51.1395H4.38965V50.8179H4.46269V50.9424C4.4727 50.9288 4.48419 50.9188 4.49685 50.9122C4.50922 50.9058 4.52277 50.9025 4.53691 50.9025C4.56283 50.9025 4.58226 50.911 4.59581 50.9279C4.60995 50.9442 4.61702 50.9675 4.61702 50.998L4.61702 50.998Z" fill="#004A6E"/>
<path d="M4.78382 51.0353C4.7688 51.0353 4.75731 51.0384 4.74965 51.0438C4.74259 51.0486 4.73905 51.0565 4.73905 51.0668C4.73905 51.0758 4.7417 51.0831 4.7473 51.0885C4.75348 51.0934 4.76203 51.0958 4.77322 51.0958C4.78647 51.0958 4.79796 51.091 4.80738 51.0813C4.81681 51.0716 4.82152 51.0592 4.82152 51.0438V51.0353H4.78382ZM4.89456 51.0075V51.1393H4.82152V51.1055C4.8121 51.1194 4.8009 51.1293 4.78853 51.1357C4.77675 51.142 4.76203 51.1454 4.74495 51.1454C4.72138 51.1454 4.70195 51.1387 4.68722 51.1248C4.67308 51.1103 4.66602 51.0922 4.66602 51.0704C4.66602 51.0432 4.67485 51.0229 4.69311 51.01C4.71108 50.9973 4.73965 50.9906 4.77911 50.9906H4.82152V50.9858C4.82152 50.9737 4.81681 50.9652 4.80738 50.9604C4.79855 50.9549 4.785 50.9519 4.76615 50.9519C4.75025 50.9519 4.73582 50.9537 4.72256 50.9568C4.70901 50.9601 4.69694 50.9646 4.68604 50.9701V50.9144C4.70077 50.9105 4.71608 50.9078 4.73199 50.906C4.7476 50.9036 4.76321 50.9023 4.77911 50.9023C4.81975 50.9023 4.84921 50.9108 4.86747 50.9277C4.88543 50.9441 4.89456 50.9707 4.89456 51.0075L4.89456 51.0075Z" fill="#004A6E"/>
<path d="M5.13792 50.9156V50.9713C5.12201 50.9649 5.10729 50.9601 5.09315 50.9568C5.07901 50.9537 5.06517 50.9519 5.05192 50.9519C5.03837 50.9519 5.02835 50.9537 5.02129 50.9568C5.01481 50.9601 5.01186 50.9652 5.01186 50.9725C5.01186 50.9791 5.01422 50.984 5.01893 50.987C5.02423 50.9903 5.03366 50.9927 5.0472 50.9942L5.05898 50.9954C5.0958 51.0003 5.12054 51.0084 5.1332 51.0196C5.14646 51.0302 5.15323 51.0474 5.15323 51.0716C5.15323 51.0958 5.1441 51.1145 5.12613 51.1272C5.10876 51.1393 5.08255 51.1454 5.0472 51.1454C5.03218 51.1454 5.01657 51.1442 5.00008 51.1417C4.98417 51.1393 4.96827 51.1357 4.95178 51.1309V51.0752C4.96591 51.0819 4.98035 51.087 4.99537 51.091C5.01098 51.0943 5.02658 51.0958 5.04249 51.0958C5.05663 51.0958 5.06723 51.094 5.0743 51.0898C5.08137 51.0858 5.0849 51.0801 5.0849 51.0728C5.0849 51.0656 5.08195 51.0604 5.07665 51.0571C5.07194 51.0541 5.06252 51.0517 5.04838 51.0499L5.03542 51.0486C5.00302 51.0447 4.98034 51.0372 4.96709 51.0257C4.95443 51.0145 4.94824 50.9976 4.94824 50.9749C4.94824 50.9501 4.95649 50.932 4.97298 50.9205C4.98947 50.9084 5.01451 50.9023 5.04838 50.9023C5.06163 50.9023 5.07547 50.9036 5.08961 50.906C5.10434 50.9078 5.12054 50.9108 5.13791 50.9156L5.13792 50.9156Z" fill="#004A6E"/>
<path d="M5.28592 50.8423V50.9088H5.36013V50.9608H5.28592V51.0599C5.28592 51.0705 5.28768 51.0778 5.29181 51.0817C5.29652 51.085 5.30506 51.0865 5.31772 51.0865H5.35424V51.1397H5.29298C5.26383 51.1397 5.24351 51.1337 5.23172 51.1216C5.21994 51.1095 5.21405 51.0889 5.21405 51.0599V50.9608H5.17871V50.9088H5.21405V50.8423L5.28592 50.8423Z" fill="#004A6E"/>
<path d="M5.57178 50.9713C5.56531 50.9682 5.55912 50.9658 5.55294 50.964C5.54646 50.9625 5.54027 50.9616 5.53409 50.9616C5.51524 50.9616 5.50051 50.9682 5.4905 50.9809C5.48107 50.993 5.47636 51.0106 5.47636 51.0329V51.1393H5.40332V50.9084H5.47636V50.9459C5.4849 50.9308 5.49521 50.9199 5.50699 50.9132C5.51936 50.906 5.53409 50.9023 5.55058 50.9023H5.55883C5.56177 50.9023 5.56589 50.9029 5.57061 50.9036L5.57178 50.9713Z" fill="#004A6E"/>
<path d="M5.57715 50.9087H5.64901L5.71027 51.0647L5.76211 50.9087H5.83397L5.73855 51.1614C5.72912 51.1871 5.71793 51.2052 5.70556 51.2158C5.6929 51.2261 5.67611 51.2315 5.6549 51.2315H5.61367V51.1819H5.63605C5.64842 51.1819 5.65755 51.1798 5.66315 51.1759C5.66845 51.1717 5.67287 51.165 5.67611 51.1553L5.67846 51.1481L5.57715 50.9087Z" fill="#004A6E"/>
<path d="M0.174355 51.2412V51.2896H0.135479C0.12517 51.2896 0.117807 51.2917 0.113095 51.2956C0.108972 51.2999 0.107204 51.3062 0.107204 51.315V51.3319H0.169642V51.3839H0.107204V51.5628H0.0353423V51.3839H0V51.3319H0.0353423V51.315C0.0353423 51.2902 0.0418216 51.2714 0.0553692 51.2593C0.0695061 51.2473 0.0910062 51.2412 0.120164 51.2412L0.174355 51.2412Z" fill="#004A6E"/>
<path d="M0.373543 51.3946C0.367063 51.3916 0.360878 51.3892 0.354693 51.3873C0.348214 51.3858 0.342029 51.3849 0.335844 51.3849C0.316995 51.3849 0.302269 51.3916 0.292256 51.4043C0.282831 51.4164 0.278119 51.4339 0.278119 51.4563V51.5627H0.205078V51.3317H0.278119V51.3692C0.28666 51.3541 0.296968 51.3432 0.308749 51.3366C0.321118 51.3293 0.335845 51.3257 0.352337 51.3257H0.360584C0.363529 51.3257 0.367653 51.3263 0.372365 51.3269L0.373543 51.3946Z" fill="#004A6E"/>
<path d="M0.516274 51.3789C0.50037 51.3789 0.488295 51.3849 0.479753 51.397C0.471801 51.4085 0.467973 51.4248 0.467973 51.4466C0.467973 51.4693 0.471801 51.4865 0.479753 51.4986C0.488294 51.5101 0.50037 51.5155 0.516274 51.5155C0.531884 51.5155 0.543959 51.5101 0.552795 51.4986C0.561336 51.4865 0.565754 51.4693 0.565754 51.4466C0.565754 51.4248 0.561336 51.4085 0.552795 51.397C0.543959 51.3849 0.531884 51.3789 0.516274 51.3789ZM0.516274 51.3257C0.555445 51.3257 0.585781 51.3366 0.606984 51.3583C0.628778 51.3795 0.63997 51.4088 0.63997 51.4466C0.63997 51.4853 0.628778 51.5155 0.606984 51.5373C0.585779 51.5584 0.555444 51.5687 0.516274 51.5687C0.477692 51.5687 0.447357 51.5584 0.425564 51.5373C0.403475 51.5155 0.392578 51.4853 0.392578 51.4466C0.392578 51.4088 0.403475 51.3795 0.425564 51.3583C0.447358 51.3366 0.477694 51.3257 0.516274 51.3257Z" fill="#004A6E"/>
<path d="M0.901104 51.3692C0.909645 51.3556 0.920248 51.345 0.932912 51.3378C0.945282 51.3299 0.959419 51.3257 0.975323 51.3257C1.00036 51.3257 1.0195 51.3341 1.03305 51.3511C1.04719 51.3674 1.05425 51.3907 1.05425 51.4212V51.5627H0.981213V51.4418C0.981802 51.4402 0.982391 51.4387 0.982391 51.4369V51.4285C0.982391 51.4115 0.980035 51.3994 0.975323 51.3922C0.97061 51.3849 0.962953 51.3813 0.952939 51.3813C0.938802 51.3813 0.92761 51.3873 0.919953 51.3994C0.912884 51.4109 0.909351 51.4272 0.909351 51.449V51.5627H0.83631V51.4418C0.83631 51.4161 0.833954 51.3994 0.829241 51.3922C0.825118 51.3849 0.817756 51.3813 0.806858 51.3813C0.79331 51.3813 0.782707 51.3873 0.775049 51.3994C0.767981 51.4109 0.764447 51.4272 0.764447 51.449V51.5627H0.691406V51.3317H0.764447V51.3656C0.772988 51.352 0.782707 51.342 0.793898 51.3354C0.805679 51.329 0.818638 51.3257 0.832775 51.3257C0.848384 51.3257 0.862226 51.3299 0.874008 51.3378C0.885788 51.345 0.894624 51.3556 0.901104 51.3692L0.901104 51.3692Z" fill="#004A6E"/>
<path d="M1.34451 51.2651V51.3316H1.41873V51.3836H1.34451V51.4828C1.34451 51.4933 1.34628 51.5006 1.3504 51.5045C1.35511 51.5079 1.36365 51.5094 1.37632 51.5094H1.41284V51.5626H1.35158C1.32242 51.5626 1.3021 51.5565 1.29032 51.5444C1.27854 51.5323 1.27265 51.5118 1.27265 51.4828V51.3836H1.2373V51.3316H1.27265V51.2651L1.34451 51.2651Z" fill="#004A6E"/>
<path d="M1.68928 51.4214V51.5628H1.61624V51.4552C1.61624 51.4353 1.61565 51.4214 1.61506 51.4141C1.61418 51.4062 1.61271 51.4005 1.61035 51.3972C1.608 51.3923 1.60387 51.3887 1.59857 51.3863C1.59386 51.3833 1.58856 51.3815 1.58326 51.3815C1.56735 51.3815 1.55528 51.3875 1.54674 51.3996C1.53878 51.4117 1.53495 51.4283 1.53495 51.4492V51.5628H1.46191V51.2412H1.53495V51.3657C1.54497 51.3521 1.55645 51.3422 1.56912 51.3355C1.58149 51.3292 1.59504 51.3258 1.60917 51.3258C1.63509 51.3258 1.65453 51.3343 1.66808 51.3512C1.68221 51.3676 1.68928 51.3908 1.68928 51.4214L1.68928 51.4214Z" fill="#004A6E"/>
<path d="M1.98076 51.4466V51.4671H1.8123C1.81465 51.485 1.82084 51.4983 1.83115 51.507C1.84116 51.5152 1.85589 51.5191 1.87474 51.5191C1.89034 51.5191 1.90595 51.5173 1.92186 51.5131C1.93747 51.5083 1.95367 51.501 1.97016 51.4913V51.5482C1.95367 51.5554 1.93658 51.5608 1.9195 51.5639C1.90212 51.5669 1.88534 51.5687 1.86884 51.5687C1.82791 51.5687 1.7961 51.5584 1.77342 51.5373C1.75045 51.5155 1.73926 51.4853 1.73926 51.4466C1.73926 51.4097 1.75015 51.3801 1.77224 51.3583C1.79492 51.3366 1.82555 51.3257 1.86414 51.3257C1.89948 51.3257 1.92775 51.3366 1.94896 51.3583C1.97016 51.3801 1.98077 51.4097 1.98077 51.4466L1.98076 51.4466ZM1.90772 51.4212C1.90772 51.4076 1.90331 51.3967 1.89476 51.3886C1.88681 51.3798 1.8765 51.3753 1.86413 51.3753C1.85 51.3753 1.83851 51.3795 1.82997 51.3873C1.82113 51.3955 1.81583 51.4067 1.81348 51.4212L1.90772 51.4212Z" fill="#004A6E"/>
<path d="M2.18262 51.2544H2.26979L2.37817 51.466V51.2544H2.45239V51.5627H2.36522L2.25684 51.3511V51.5627H2.18262V51.2544Z" fill="#004A6E"/>
<path d="M2.63151 51.3789C2.6156 51.3789 2.60353 51.3849 2.59499 51.397C2.58704 51.4085 2.58321 51.4248 2.58321 51.4466C2.58321 51.4693 2.58704 51.4865 2.59499 51.4986C2.60353 51.5101 2.6156 51.5155 2.63151 51.5155C2.64712 51.5155 2.65919 51.5101 2.66803 51.4986C2.67657 51.4865 2.68099 51.4693 2.68099 51.4466C2.68099 51.4248 2.67657 51.4085 2.66803 51.397C2.65919 51.3849 2.64712 51.3789 2.63151 51.3789ZM2.63151 51.3257C2.67068 51.3257 2.70102 51.3366 2.72222 51.3583C2.74401 51.3795 2.7552 51.4088 2.7552 51.4466C2.7552 51.4853 2.74401 51.5155 2.72222 51.5373C2.70101 51.5584 2.67068 51.5687 2.63151 51.5687C2.59293 51.5687 2.56259 51.5584 2.5408 51.5373C2.51871 51.5155 2.50781 51.4853 2.50781 51.4466C2.50781 51.4088 2.51871 51.3795 2.5408 51.3583C2.56259 51.3366 2.59293 51.3257 2.63151 51.3257Z" fill="#004A6E"/>
<path d="M2.80469 51.4718V51.3315H2.87773V51.3545V51.4017V51.4392C2.87773 51.4579 2.87802 51.4715 2.87891 51.4803C2.8795 51.4884 2.88126 51.4942 2.88362 51.4972C2.88656 51.502 2.89069 51.5063 2.8954 51.5093C2.90011 51.5117 2.90541 51.5129 2.91189 51.5129C2.92662 51.5129 2.9384 51.5069 2.94723 51.4948C2.95578 51.4827 2.96019 51.4664 2.96019 51.4452V51.3315H3.03206V51.5625H2.96019V51.5286C2.949 51.5425 2.93722 51.5525 2.92485 51.5589C2.91307 51.5652 2.89952 51.5685 2.8848 51.5685C2.85888 51.5685 2.83885 51.5607 2.82471 51.5443C2.81117 51.5274 2.80469 51.5032 2.80469 51.4718L2.80469 51.4718Z" fill="#004A6E"/>
<path d="M3.32795 51.4212V51.5627H3.25491V51.4551C3.25491 51.4351 3.25432 51.4212 3.25374 51.4139C3.25285 51.4061 3.25138 51.4003 3.24902 51.397C3.24667 51.3922 3.24254 51.3886 3.23724 51.3861C3.23253 51.3831 3.22723 51.3813 3.22193 51.3813C3.20602 51.3813 3.19395 51.3873 3.18541 51.3994C3.17746 51.4115 3.17363 51.4282 3.17363 51.449V51.5627H3.10059V51.3317H3.17363V51.3656C3.18364 51.352 3.19513 51.342 3.20779 51.3354C3.22016 51.329 3.23371 51.3257 3.24784 51.3257C3.27376 51.3257 3.2932 51.3341 3.30675 51.3511C3.32089 51.3674 3.32795 51.3907 3.32795 51.4212L3.32795 51.4212Z" fill="#004A6E"/>
<path d="M3.54199 51.2544H3.6704C3.70869 51.2544 3.73814 51.2635 3.75876 51.281C3.77908 51.2979 3.78939 51.3227 3.78939 51.3547C3.78939 51.3871 3.77908 51.4122 3.75876 51.4297C3.73814 51.4466 3.70869 51.4551 3.6704 51.4551H3.61974V51.5627H3.54199L3.54199 51.2544ZM3.61974 51.3124V51.3983H3.66215C3.67688 51.3983 3.68836 51.3946 3.69632 51.3874C3.70486 51.3795 3.70928 51.3687 3.70928 51.3547C3.70928 51.3411 3.70486 51.3306 3.69632 51.3233C3.68836 51.3161 3.67688 51.3124 3.66215 51.3124L3.61974 51.3124Z" fill="#004A6E"/>
<path d="M4.00831 51.3946C4.00183 51.3916 3.99564 51.3892 3.98946 51.3873C3.98298 51.3858 3.97679 51.3849 3.97061 51.3849C3.95176 51.3849 3.93703 51.3916 3.92702 51.4043C3.9176 51.4164 3.91288 51.4339 3.91288 51.4563V51.5627H3.83984V51.3317H3.91288V51.3692C3.92143 51.3541 3.93173 51.3432 3.94351 51.3366C3.95588 51.3293 3.97061 51.3257 3.9871 51.3257H3.99535C3.99829 51.3257 4.00242 51.3263 4.00713 51.3269L4.00831 51.3946Z" fill="#004A6E"/>
<path d="M4.15104 51.3789C4.13514 51.3789 4.12306 51.3849 4.11452 51.397C4.10657 51.4085 4.10274 51.4248 4.10274 51.4466C4.10274 51.4693 4.10657 51.4865 4.11452 51.4986C4.12306 51.5101 4.13514 51.5155 4.15104 51.5155C4.16665 51.5155 4.17872 51.5101 4.18756 51.4986C4.1961 51.4865 4.20052 51.4693 4.20052 51.4466C4.20052 51.4248 4.1961 51.4085 4.18756 51.397C4.17872 51.3849 4.16665 51.3789 4.15104 51.3789ZM4.15104 51.3257C4.19021 51.3257 4.22055 51.3366 4.24175 51.3583C4.26354 51.3795 4.27474 51.4088 4.27474 51.4466C4.27474 51.4853 4.26354 51.5155 4.24175 51.5373C4.22054 51.5584 4.19021 51.5687 4.15104 51.5687C4.11246 51.5687 4.08212 51.5584 4.06033 51.5373C4.03824 51.5155 4.02734 51.4853 4.02734 51.4466C4.02734 51.4088 4.03824 51.3795 4.06033 51.3583C4.08212 51.3366 4.11246 51.3257 4.15104 51.3257Z" fill="#004A6E"/>
<path d="M4.32662 51.3319H4.39966V51.5592C4.39966 51.5897 4.39201 51.613 4.37728 51.6293C4.36314 51.6463 4.34223 51.6547 4.31484 51.6547H4.27832V51.6051H4.29128C4.30453 51.6051 4.31366 51.6018 4.31838 51.5955C4.32368 51.5897 4.32662 51.5776 4.32662 51.5592L4.32662 51.3319ZM4.32662 51.2412H4.39966V51.3017H4.32662V51.2412Z" fill="#004A6E"/>
<path d="M4.69268 51.4466V51.4671H4.52421C4.52657 51.485 4.53275 51.4983 4.54306 51.507C4.55307 51.5152 4.5678 51.5191 4.58665 51.5191C4.60226 51.5191 4.61787 51.5173 4.63377 51.5131C4.64938 51.5083 4.66558 51.501 4.68207 51.4913V51.5482C4.66558 51.5554 4.6485 51.5608 4.63142 51.5639C4.61404 51.5669 4.59725 51.5687 4.58076 51.5687C4.53982 51.5687 4.50801 51.5584 4.48534 51.5373C4.46236 51.5155 4.45117 51.4853 4.45117 51.4466C4.45117 51.4097 4.46207 51.3801 4.48416 51.3583C4.50684 51.3366 4.53747 51.3257 4.57605 51.3257C4.61139 51.3257 4.63967 51.3366 4.66087 51.3583C4.68208 51.3801 4.69268 51.4097 4.69268 51.4466L4.69268 51.4466ZM4.61964 51.4212C4.61964 51.4076 4.61522 51.3967 4.60668 51.3886C4.59873 51.3798 4.58842 51.3753 4.57605 51.3753C4.56191 51.3753 4.55043 51.3795 4.54188 51.3873C4.53305 51.3955 4.52775 51.4067 4.52539 51.4212L4.61964 51.4212Z" fill="#004A6E"/>
<path d="M4.93054 51.339V51.3982C4.92111 51.3919 4.9111 51.387 4.90109 51.3837C4.89078 51.3807 4.88047 51.3789 4.87046 51.3789C4.84984 51.3789 4.83423 51.3849 4.82333 51.397C4.81214 51.4091 4.80684 51.4257 4.80684 51.4466C4.80684 51.4684 4.81214 51.4853 4.82333 51.4974C4.83423 51.5095 4.84984 51.5155 4.87046 51.5155C4.88135 51.5155 4.89196 51.514 4.90226 51.5107C4.91228 51.5076 4.9217 51.5022 4.93054 51.495V51.5554C4.91935 51.5602 4.90815 51.5633 4.89637 51.5651C4.88459 51.5675 4.87281 51.5687 4.86103 51.5687C4.82009 51.5687 4.78829 51.5584 4.76561 51.5373C4.74264 51.5155 4.73145 51.4853 4.73145 51.4466C4.73145 51.4088 4.74264 51.3795 4.76561 51.3583C4.78829 51.3366 4.8201 51.3257 4.86103 51.3257C4.87281 51.3257 4.88459 51.3269 4.89637 51.3293C4.90815 51.3311 4.91935 51.3341 4.93054 51.339H4.93054Z" fill="#004A6E"/>
<path d="M5.07107 51.2651V51.3316H5.14529V51.3836H5.07107V51.4828C5.07107 51.4933 5.07284 51.5006 5.07696 51.5045C5.08167 51.5079 5.09022 51.5094 5.10288 51.5094H5.1394V51.5626H5.07814C5.04898 51.5626 5.02866 51.5565 5.01688 51.5444C5.0051 51.5323 4.99921 51.5118 4.99921 51.4828V51.3836H4.96387V51.3316H4.99921V51.2651L5.07107 51.2651Z" fill="#004A6E"/>
<path d="M485.104 0L40.1035 21.3714V41.2857L485.104 68V0Z" fill="url(#paint0_linear_186_22991)" fill-opacity="0.6"/>
<defs>
<linearGradient id="paint0_linear_186_22991" x1="35.683" y1="31.5" x2="478.437" y2="36.9277" gradientUnits="userSpaceOnUse">
<stop stop-color="#01A2BB" stop-opacity="0.4"/>
<stop offset="1" stop-color="white" stop-opacity="0"/>
</linearGradient>
</defs>
</svg>
