<svg width="370" height="355" viewBox="0 0 370 355" fill="none" xmlns="http://www.w3.org/2000/svg">
<g clip-path="url(#clip0_438_6304)">
<path d="M435 309.4H-65V309.65H435V309.4Z" fill="#EBEBEB"/>
<path d="M384.9 325.49H351.78V325.74H384.9V325.49Z" fill="#EBEBEB"/>
<path d="M266.22 328.21H257.53V328.46H266.22V328.21Z" fill="#EBEBEB"/>
<path d="M350.78 316.21H331.59V316.46H350.78V316.21Z" fill="#EBEBEB"/>
<path d="M30.65 317.89H-12.54V318.14H30.65V317.89Z" fill="#EBEBEB"/>
<path d="M45.89 317.89H39.56V318.14H45.89V317.89Z" fill="#EBEBEB"/>
<path d="M160.15 322.11H66.47V322.36H160.15V322.11Z" fill="#EBEBEB"/>
<path d="M172 264.8H-21.09C-22.6027 264.797 -24.0525 264.195 -25.1211 263.124C-26.1898 262.053 -26.79 260.603 -26.79 259.09V-12.34C-26.7768 -13.844 -26.1708 -15.282 -25.1036 -16.3418C-24.0363 -17.4015 -22.594 -17.9974 -21.09 -18H172C173.514 -18 174.967 -17.3984 176.038 -16.3276C177.108 -15.2567 177.71 -13.8044 177.71 -12.29V259.09C177.71 260.604 177.108 262.057 176.038 263.128C174.967 264.198 173.514 264.8 172 264.8ZM-21.09 -17.8C-22.5364 -17.7974 -23.9226 -17.2209 -24.9443 -16.1973C-25.9661 -15.1736 -26.54 -13.7864 -26.54 -12.34V259.09C-26.54 260.536 -25.9661 261.924 -24.9443 262.947C-23.9226 263.971 -22.5364 264.547 -21.09 264.55H172C173.447 264.547 174.835 263.971 175.858 262.948C176.881 261.924 177.457 260.537 177.46 259.09V-12.34C177.457 -13.7873 176.881 -15.1745 175.858 -16.1979C174.835 -17.2213 173.447 -17.7974 172 -17.8H-21.09Z" fill="#EBEBEB"/>
<path d="M388.31 264.8H195.21C193.696 264.797 192.246 264.195 191.175 263.125C190.105 262.054 189.503 260.604 189.5 259.09V-12.34C189.516 -13.8449 190.124 -15.2829 191.193 -16.3424C192.262 -17.4019 193.705 -17.9975 195.21 -18H388.31C389.812 -17.9948 391.252 -17.3978 392.317 -16.3383C393.382 -15.2788 393.987 -13.8422 394 -12.34V259.09C394 260.601 393.401 262.05 392.335 263.121C391.268 264.191 389.821 264.795 388.31 264.8ZM195.21 -17.8C193.763 -17.7974 192.375 -17.2213 191.352 -16.1979C190.329 -15.1745 189.753 -13.7873 189.75 -12.34V259.09C189.753 260.537 190.329 261.924 191.352 262.948C192.375 263.971 193.763 264.547 195.21 264.55H388.31C389.757 264.547 391.145 263.971 392.168 262.948C393.191 261.924 393.767 260.537 393.77 259.09V-12.34C393.767 -13.7873 393.191 -15.1745 392.168 -16.1979C391.145 -17.2213 389.757 -17.7974 388.31 -17.8H195.21Z" fill="#EBEBEB"/>
<path d="M369.69 -1.03027H60.95V141.22H369.69V-1.03027Z" fill="#E6E6E6"/>
<path d="M378.3 -1.03027H62.95V141.22H378.3V-1.03027Z" fill="#F0F0F0"/>
<path d="M369.69 141.22H60.95V145.07H373.71L369.69 141.22Z" fill="#E6E6E6"/>
<path d="M382.31 141.22H70.06L71.91 145.07H384.17L382.31 141.22Z" fill="#F0F0F0"/>
<path d="M372.19 134.78V5.42969L69.06 5.42969V134.78L372.19 134.78Z" fill="#FAFAFA"/>
<path d="M115.03 134.77L158.08 5.41992H199.2L156.14 134.77H115.03Z" fill="white"/>
<path d="M164.98 134.77L208.03 5.41992H224.06L181 134.77H164.98Z" fill="white"/>
<path d="M3 309.4H19.66L19.66 206.22H3L3 309.4Z" fill="#F0F0F0"/>
<path d="M221.45 206.21H19.66V309.39H221.45V206.21Z" fill="#F5F5F5"/>
<path d="M222.78 254.62H38.79V298.14H222.78V254.62Z" fill="#FAFAFA"/>
<path d="M222.78 224.75H38.79V247.34H222.78V224.75Z" fill="#FAFAFA"/>
<g style="mix-blend-mode:multiply" opacity="0.7">
<path d="M37.65 298.13H38.79L38.79 254.61H37.65L37.65 298.13Z" fill="#E6E6E6"/>
</g>
<g style="mix-blend-mode:multiply" opacity="0.7">
<path d="M37.65 247.34H38.79V224.75H37.65V247.34Z" fill="#E6E6E6"/>
</g>
<g style="mix-blend-mode:multiply" opacity="0.7">
<path d="M2.98999 214.52L221.82 214.52V211.62L2.98999 211.62V214.52Z" fill="#E6E6E6"/>
</g>
<path d="M1.03999 212.85H19.65V204.46H1.03999V212.85Z" fill="#F0F0F0"/>
<path d="M223.4 204.46H19.66V212.85H223.4V204.46Z" fill="#F5F5F5"/>
<path d="M323.3 283.47C321.888 280.25 320.79 276.901 320.02 273.47C319.202 270.019 318.584 266.523 318.17 263C317.342 255.965 317.138 248.871 317.56 241.8C318.424 227.64 321.241 213.668 325.93 200.28L327.73 195.28L329.68 190.36C330.34 188.73 331.07 187.12 331.8 185.52C332.53 183.92 333.22 182.29 334.01 180.72C335.64 177.59 337.12 174.4 338.92 171.38L341.53 166.8L344.34 162.35C351.799 150.491 360.794 139.671 371.09 130.17C369.69 133.4 368.2 136.53 366.67 139.62C365.14 142.71 363.67 145.83 362.21 148.92C359.29 155.11 356.33 161.21 353.59 167.38L351.51 172L349.51 176.63C348.15 179.7 346.91 182.82 345.62 185.9L343.77 190.56C343.15 192.12 342.53 193.66 341.99 195.24L340.22 199.92L338.59 204.64C334.205 217.219 330.667 230.078 328 243.13C326.67 249.67 325.54 256.28 324.75 262.99C323.865 269.782 323.38 276.621 323.3 283.47Z" fill="#E6E6E6"/>
<path d="M257.64 259.29C258.642 247.758 258.367 236.151 256.82 224.68C256.67 223.29 256.41 221.9 256.18 220.52C255.95 219.14 255.72 217.76 255.45 216.4C255.18 215.04 254.87 213.67 254.57 212.31L254.12 210.31L253.59 208.31C252.23 202.943 250.527 197.669 248.49 192.52C244.375 182.111 239.183 172.16 233 162.83L230.66 159.25C229.84 158.09 228.99 156.93 228.19 155.74L226.93 154C226.52 153.41 226.06 152.86 225.64 152.27L223.05 148.77C222.23 147.55 221.27 146.46 220.39 145.29C219.51 144.12 218.59 142.97 217.71 141.77C215.86 139.46 213.98 137.15 212.21 134.66C223.17 140.005 233.025 147.367 241.26 156.36C249.749 165.441 256.446 176.044 261 187.61C265.57 199.251 267.723 211.7 267.33 224.2C267.119 230.367 266.24 236.493 264.71 242.47C263.928 245.426 262.966 248.331 261.83 251.17C260.71 254.011 259.306 256.731 257.64 259.29Z" fill="#E6E6E6"/>
<path d="M260.65 259.29C260.84 252.19 260.86 245.24 260.7 238.29C260.54 231.34 260.27 224.53 259.7 217.73C258.721 204.242 256.816 190.837 254 177.61C253.25 174.34 252.56 171.04 251.64 167.81C250.88 164.54 249.84 161.35 248.93 158.1C246.93 151.7 244.74 145.32 242.21 139.04C237.21 126.42 230.9 114.3 224.06 101.82C229.653 106.259 234.771 111.265 239.33 116.76C243.959 122.27 248.088 128.18 251.67 134.42L254.3 139.15C255.15 140.74 255.88 142.39 256.68 144.02L257.85 146.46C258.24 147.28 258.55 148.13 258.9 148.96L260.95 153.96C262.17 157.36 263.39 160.78 264.39 164.25C265.39 167.72 266.24 171.25 267.09 174.75C270.098 188.856 271.144 203.309 270.2 217.7C269.724 224.838 268.721 231.93 267.2 238.92C266.44 242.4 265.53 245.86 264.46 249.26C263.423 252.688 262.15 256.039 260.65 259.29Z" fill="#E6E6E6"/>
<path d="M319.71 267.82C317.93 263.75 316.3 259.61 314.81 255.45C314.05 253.36 313.34 251.27 312.61 249.18L310.61 242.87C307.94 234.43 305.61 225.87 303.51 217.33C299.359 200.139 296.177 182.728 293.98 165.18C291.79 147.599 290.738 129.896 290.83 112.18C290.937 107.753 291.09 103.32 291.29 98.8799C291.39 94.4599 291.95 90.0298 292.34 85.6098C292.73 81.1898 293.21 76.7899 294.05 72.4099C294.89 68.0299 295.63 63.6698 296.57 59.3398C298.27 77.0498 299.57 94.3399 301.35 111.71C303.13 129.08 305.12 146.29 307.27 163.55L313.83 215.43C316 232.77 318.14 250.13 319.71 267.82Z" fill="#E6E6E6"/>
<path d="M316.79 265C314.69 261.11 312.73 257.14 310.9 253.13C309.97 251.13 309.09 249.13 308.19 247.13L305.62 241C302.26 232.86 299.22 224.61 296.37 216.28C290.747 199.603 286.027 182.635 282.23 165.45C278.415 148.219 275.666 130.769 274 113.2C273.653 108.8 273.35 104.397 273.09 99.9901C272.76 95.6001 272.84 91.16 272.76 86.75C272.68 82.34 272.7 77.93 273.04 73.5C273.38 69.07 273.64 64.68 274.1 60.29C277.78 77.62 280.88 94.66 284.42 111.67C287.96 128.68 291.54 145.6 295.28 162.54L306.47 213.44C310.14 230.47 313.8 247.53 316.79 265Z" fill="#E6E6E6"/>
<path d="M328.22 286.92C325.68 283.746 323.273 280.49 321 277.15C319.85 275.49 318.73 273.8 317.62 272.15L314.38 267C312.23 263.57 310.22 260.08 308.2 256.59C307.2 254.85 306.25 253.07 305.28 251.3C304.31 249.53 303.35 247.76 302.42 245.97C295.001 231.645 288.495 216.865 282.94 201.72C277.347 186.556 272.855 171.009 269.5 155.2C268.72 151.2 267.977 147.223 267.27 143.27C266.57 139.27 266.16 135.27 265.65 131.27L265 125.27C264.81 123.27 264.74 121.22 264.65 119.2C264.45 115.153 264.36 111.106 264.38 107.06C269.81 122.37 274.38 137.51 279.66 152.48C284.94 167.45 290 182.3 295.52 197.13L312 241.71C317.53 256.63 323.11 271.54 328.22 286.92Z" fill="#E6E6E6"/>
<path d="M311 261.78C308.458 259.042 306.058 256.175 303.81 253.19C301.51 250.25 299.41 247.19 297.27 244.13C295.13 241.07 293.18 237.91 291.27 234.72C290.27 233.13 289.38 231.53 288.44 229.92C287.5 228.31 286.55 226.71 285.7 225.06C283.96 221.77 282.16 218.51 280.54 215.16C278.92 211.81 277.35 208.44 275.77 205.07C274.19 201.7 272.89 198.21 271.44 194.78L270.44 192.19L269.44 189.57L267.52 184.33C264.93 177.33 262.88 170.18 260.8 163.03C259.92 159.41 258.99 155.8 258.16 152.17C257.77 150.35 257.27 148.56 256.95 146.72L255.95 141.22C255.61 139.39 255.32 137.55 255.01 135.71C254.7 133.87 254.34 132.06 254.18 130.19C253.76 126.484 253.387 122.777 253.06 119.07C252.93 117.21 252.7 115.37 252.65 113.5C252.6 111.63 252.54 109.77 252.53 107.91C252.47 104.184 252.513 100.457 252.66 96.7305C257.66 110.86 261.47 124.88 266.17 138.67C268.27 145.67 270.76 152.44 272.94 159.34L276.51 169.6C277.1 171.31 277.63 173.04 278.24 174.74L280.11 179.84C282.45 186.69 285.06 193.44 287.5 200.27C288.79 203.66 290.1 207.03 291.33 210.45L295.21 220.64L303.07 241.09C305.76 247.92 308.41 254.78 311 261.78Z" fill="#E6E6E6"/>
<path d="M324.76 277.86C322.751 275.122 321.031 272.183 319.63 269.09C318.187 266.002 316.942 262.825 315.9 259.58C313.847 253.065 312.43 246.367 311.67 239.58C310.904 232.785 310.686 225.939 311.02 219.11C311.13 215.69 311.52 212.3 311.85 208.9C312.18 205.5 312.78 202.14 313.43 198.8C315.99 185.465 320.213 172.504 326 160.22C331.601 147.962 338.844 136.524 347.53 126.22C346.63 129.48 345.65 132.676 344.59 135.81C343.64 139 342.59 142.12 341.59 145.24L338.65 154.6C337.76 157.74 336.65 160.8 335.84 163.92C332.142 176.198 329.062 188.653 326.61 201.24C325.383 207.493 324.403 213.77 323.67 220.07C322.937 226.37 322.437 232.703 322.17 239.07C321.93 245.44 321.97 251.85 322.36 258.3C322.692 264.869 323.494 271.405 324.76 277.86Z" fill="#E6E6E6"/>
<path d="M319.55 259.42C317.837 256.379 316.317 253.233 315 250C313.64 246.77 312.47 243.48 311.37 240.16C309.222 233.484 307.522 226.672 306.28 219.77C305.037 212.828 304.238 205.814 303.89 198.77C303.82 197.01 303.79 195.24 303.75 193.47C303.71 191.7 303.75 189.93 303.75 188.16C303.75 186.39 303.88 184.62 303.97 182.85C304.06 181.08 304.16 179.31 304.35 177.54C304.54 175.77 304.7 174 304.94 172.24L305.71 166.96C306 165.2 306.4 163.46 306.71 161.71C306.89 160.84 307.05 159.96 307.24 159.1C307.43 158.24 307.68 157.36 307.91 156.5C309.61 149.567 311.953 142.808 314.91 136.31C320.76 123.31 329.25 111.47 340.01 102.53C339.27 104.14 338.46 105.67 337.71 107.23L336.53 109.51L335.46 111.86L333.3 116.47L331.35 121.14C328.82 127.296 326.65 133.593 324.85 140L324.14 142.37L323.55 144.77C323.15 146.37 322.69 147.95 322.33 149.56C321.97 151.17 321.66 152.78 321.28 154.38C320.9 155.98 320.67 157.61 320.36 159.23C320.21 160.03 320.07 160.84 319.9 161.65C319.73 162.46 319.65 163.27 319.52 164.08C319.28 165.71 318.99 167.33 318.8 168.97L318.17 173.86C317.97 175.5 317.86 177.15 317.69 178.79C317.52 180.43 317.38 182.07 317.27 183.72C317.16 185.37 317.02 187.02 316.96 188.67C316.9 190.32 316.75 191.98 316.71 193.67C316.67 195.36 316.64 196.99 316.56 198.67C316.42 205.32 316.5 211.99 316.71 218.67C317.14 232.05 318.2 245.54 319.55 259.42Z" fill="#E6E6E6"/>
<path d="M305.82 245.76L261.88 159.08L263.64 244.08L305.82 245.76Z" fill="#E6E6E6"/>
<path d="M339.64 222.65H251.31L262.87 309.4H328.07L339.64 222.65Z" fill="#F5F5F5"/>
<path d="M284.46 222.65H251.31L262.87 309.4H280.28L284.46 222.65Z" fill="#EBEBEB"/>
<path d="M61.11 191.67H32.44V204.46H61.11V191.67Z" fill="#E0E0E0"/>
<path d="M126.4 204.46H61.11V191.67H126.4C126.854 191.67 127.288 191.85 127.609 192.171C127.93 192.491 128.11 192.926 128.11 193.38V202.76C128.107 203.212 127.926 203.644 127.606 203.963C127.285 204.281 126.852 204.46 126.4 204.46Z" fill="#F0F0F0"/>
<path d="M59.19 193.33H32.44V202.79H59.19V193.33Z" fill="#F0F0F0"/>
<path d="M66.88 182.33H38.21V191.66H66.88V182.33Z" fill="#E6E6E6"/>
<path d="M117.63 191.67H66.88V182.34H117.63C118.083 182.34 118.518 182.52 118.839 182.841C119.16 183.161 119.34 183.596 119.34 184.05V190C119.33 190.446 119.145 190.871 118.825 191.183C118.506 191.495 118.077 191.67 117.63 191.67Z" fill="#FAFAFA"/>
<path d="M102.85 182.33H81.1V191.66H102.85V182.33Z" fill="#F5F5F5"/>
<path d="M64.96 184H38.21V190H64.96V184Z" fill="#F5F5F5"/>
<path d="M185 354.56C292.082 354.56 378.89 349.492 378.89 343.24C378.89 336.988 292.082 331.92 185 331.92C77.9175 331.92 -8.89001 336.988 -8.89001 343.24C-8.89001 349.492 77.9175 354.56 185 354.56Z" fill="#F5F5F5"/>
<path d="M305.32 77.9002C307.79 69.9002 282.52 68.0802 276.43 82.4502C267.9 102.58 280.34 113.9 280.34 113.9C287.59 110.01 301.77 109.43 309.52 112L305.32 77.9002Z" fill="#263238"/>
<path d="M307.27 334.98L299.47 335.28L299.43 326.85L307.22 326.55L307.27 334.98Z" fill="#B55B52"/>
<path d="M299.16 333.67H308C308.157 333.671 308.31 333.723 308.434 333.819C308.559 333.915 308.649 334.048 308.69 334.2L310.61 341.2C310.659 341.365 310.668 341.538 310.637 341.707C310.606 341.876 310.535 342.036 310.431 342.172C310.327 342.309 310.192 342.418 310.037 342.493C309.882 342.567 309.712 342.604 309.54 342.6C306.45 342.54 304.95 342.36 301.07 342.36C298.68 342.36 292.52 342.61 289.22 342.61C285.92 342.61 285.32 339.35 286.66 339.06C292.66 337.73 296.08 335.91 297.93 334.17C298.26 333.851 298.701 333.672 299.16 333.67Z" fill="#01A2BB"/>
<path opacity="0.2" d="M299.43 326.86L299.45 331.2L307.25 331.24L307.23 326.55L299.43 326.86Z" fill="black"/>
<path d="M281.61 170.82C280.34 180.42 284.67 225.96 288.32 245.82C293.17 272.21 297.76 329.43 297.76 329.43L308.27 328.8C308.27 328.8 309.54 266.07 306.32 244.8C306.11 216.89 306.61 168.01 306.61 168.01L281.61 170.82Z" fill="#263238"/>
<path opacity="0.2" d="M306.37 198.43C306.37 191.35 301.13 185.76 299.82 199.28C298.99 207.89 302.34 222.33 306.27 232.33C306.26 221.44 306.31 209.24 306.37 198.43Z" fill="black"/>
<path d="M353.67 335.851L346.52 336.041L343.15 326.291L350.31 326.101L353.67 335.851Z" fill="#B55B52"/>
<path d="M353.5 333.67H344.68C344.61 333.665 344.541 333.676 344.476 333.701C344.411 333.726 344.352 333.766 344.304 333.816C344.256 333.867 344.22 333.928 344.199 333.994C344.177 334.061 344.171 334.131 344.18 334.2L344.83 341.2C344.897 341.579 345.091 341.924 345.38 342.178C345.669 342.432 346.036 342.581 346.42 342.6C349.48 342.54 350.92 342.36 354.8 342.36C357.19 342.36 360.33 342.61 363.63 342.61C366.93 342.61 366.33 339.35 364.89 339.06C358.42 337.73 357.41 335.91 354.89 334.17C354.488 333.867 354.003 333.693 353.5 333.67Z" fill="#01A2BB"/>
<path opacity="0.2" d="M343.16 326.301L344.89 331.321L352.19 331.531L350.32 326.101L343.16 326.301Z" fill="black"/>
<path d="M293.61 169.47C293.61 169.47 309.82 228.82 317.96 246.33C323.25 273.38 342.18 330.07 342.18 330.07L353.18 329.31C353.18 329.31 341.18 271.95 333.8 245.31C329.8 220.56 327.19 179.31 315.8 166.97L293.61 169.47Z" fill="#263238"/>
<path d="M277.9 126.681C277.69 131.681 277.26 136.531 276.67 141.441C276.08 146.351 275.36 151.211 274.41 156.081L274.04 157.911L273.84 158.911C273.716 159.5 273.524 160.074 273.27 160.621C272.884 161.48 272.29 162.23 271.54 162.801C270.608 163.484 269.475 163.836 268.32 163.801C267.571 163.771 266.832 163.609 266.14 163.321C265.663 163.122 265.204 162.881 264.77 162.601C263.514 161.745 262.369 160.737 261.36 159.601C260.45 158.601 259.62 157.601 258.83 156.601C255.817 152.606 253.141 148.368 250.83 143.931C250.587 143.462 250.525 142.921 250.655 142.411C250.786 141.9 251.099 141.454 251.536 141.159C251.973 140.864 252.503 140.74 253.026 140.81C253.548 140.881 254.027 141.141 254.37 141.541C257.45 145.181 260.56 148.911 263.82 152.191C264.62 153.011 265.44 153.801 266.26 154.501C266.94 155.13 267.692 155.677 268.5 156.131C268.63 156.181 268.75 156.241 268.76 156.221C268.77 156.201 268.7 156.151 268.35 156.121C267.808 156.111 267.277 156.28 266.84 156.601C266.562 156.792 266.333 157.045 266.17 157.341C266.11 157.471 266.17 157.341 266.17 157.341L266.29 156.511L266.54 154.741C267.17 150.031 267.67 145.271 268.13 140.511C268.59 135.751 268.94 130.931 269.26 126.231V126.171C269.324 125.026 269.839 123.954 270.694 123.19C271.548 122.425 272.671 122.032 273.815 122.096C274.959 122.159 276.032 122.675 276.796 123.529C277.56 124.383 277.954 125.506 277.89 126.651L277.9 126.681Z" fill="#B55B52"/>
<path d="M274.23 120C266.81 123.63 267.97 133.25 267.97 133.25L279.84 141.61C279.84 141.61 284.18 131.16 283.28 126.15C282.35 121 279.73 117.35 274.23 120Z" fill="#01A2BB"/>
<path opacity="0.2" d="M273 128.06C274.74 125.32 277.73 125.98 281.21 128.16C282.019 128.861 282.696 129.701 283.21 130.64C282.464 134.403 281.359 138.087 279.91 141.64L271.54 135.75C271.207 133.097 271.718 130.406 273 128.06Z" fill="black"/>
<path d="M254.93 142.9L253.16 136.13L247.16 141.53C247.16 141.53 249.33 145.15 252.82 145.64L254.93 142.9Z" fill="#B55B52"/>
<path d="M248.56 133.37L247.34 134.58C246.413 135.488 245.875 136.72 245.839 138.017C245.804 139.314 246.274 140.574 247.15 141.53L253.15 136.13L251.47 133.66C251.313 133.43 251.107 133.237 250.867 133.095C250.628 132.953 250.36 132.865 250.083 132.838C249.805 132.81 249.525 132.843 249.262 132.935C248.999 133.027 248.76 133.176 248.56 133.37Z" fill="#B55B52"/>
<path d="M251.6 133.83C250.085 131.797 248.711 129.662 247.49 127.44C247.11 126.68 245.88 127.74 246.49 128.85C247.1 129.96 248.23 133.58 249.43 134.9C250.63 136.22 251.6 133.83 251.6 133.83Z" fill="#B55B52"/>
<path d="M271.48 125.49C273.59 144.81 279.89 158.28 281.61 170.82L315.75 167C313.82 154.45 312.84 146.24 315.24 123C315.346 121.989 315.24 120.968 314.929 120C314.618 119.033 314.109 118.141 313.435 117.381C312.76 116.621 311.935 116.009 311.011 115.586C310.088 115.162 309.086 114.935 308.07 114.92C305.99 114.92 303.69 114.92 301.37 115.07C296.168 115.275 290.988 115.857 285.87 116.81C282.27 117.55 278.44 118.59 275.7 119.39C274.397 119.757 273.263 120.567 272.492 121.681C271.722 122.794 271.364 124.141 271.48 125.49Z" fill="#01A2BB"/>
<path d="M285.87 116.79C285.87 116.79 280.39 122.72 288.56 130.79C291.601 124.645 295.978 119.257 301.37 115.021L285.87 116.79Z" fill="white"/>
<path d="M297.88 97.7598C297.46 102.86 297.51 112.11 301.37 115.05C301.37 115.05 292.84 119.69 288.24 127.85C282.24 121.85 285.87 116.79 285.87 116.79C291.28 114.79 290.68 110.72 289.27 106.96L297.88 97.7598Z" fill="#B55B52"/>
<path opacity="0.2" d="M296.94 98.7705C297.199 101.746 296.821 104.743 295.83 107.561C295.14 109.501 292.76 110.611 290.24 111.081C290.119 109.664 289.782 108.275 289.24 106.961L296.94 98.7705Z" fill="black"/>
<path d="M305.12 90.6304C303.64 98.8904 303.18 102.42 298.48 106.2C291.4 111.88 281.58 108.25 280.57 99.7104C279.66 92.0204 282.25 79.8004 290.78 77.4404C292.66 76.9124 294.643 76.8737 296.542 77.3281C298.44 77.7824 300.191 78.7148 301.628 80.0364C303.065 81.3581 304.14 83.0253 304.751 84.8795C305.363 86.7337 305.489 88.7134 305.12 90.6304Z" fill="#B55B52"/>
<path d="M298.75 84.0003C296.75 88.4203 298.5 95.9203 304.84 95.4603C299.71 101.31 300.93 114.14 300.93 114.14C304.138 114.369 307.344 113.675 310.17 112.14C310.17 112.14 308.17 100.01 310.28 91.5003C312 84.5803 311.75 71.1503 296.75 74.0703C295 74.4103 283.6 77.4003 282.45 83.3903C282.36 83.9303 294.62 87.4803 298.75 84.0003Z" fill="#263238"/>
<path d="M307 95.3206C306.822 96.1045 306.491 96.8455 306.026 97.5011C305.561 98.1566 304.971 98.7138 304.29 99.1406C302.46 100.271 300.95 98.7806 300.96 96.7406C300.96 94.9006 301.96 92.1006 304.01 91.8006C304.465 91.741 304.928 91.7964 305.357 91.9617C305.785 92.127 306.166 92.397 306.463 92.747C306.76 93.097 306.965 93.5159 307.059 93.9654C307.153 94.415 307.132 94.8809 307 95.3206Z" fill="#B55B52"/>
<path opacity="0.2" d="M309.87 128.54C309.738 130.246 310.057 131.957 310.794 133.501C311.531 135.046 312.661 136.369 314.07 137.34C314.25 133.88 314.55 130 314.99 125.54C313.25 123.67 310.28 125.3 309.87 128.54Z" fill="black"/>
<path d="M316 164.93L317.88 167.81C318.03 168.04 317.78 168.31 317.38 168.35L281.58 172.35C281.27 172.35 281 172.26 280.96 172.07L280.3 169.07C280.3 168.86 280.51 168.65 280.84 168.61L315.42 164.73C315.526 164.711 315.635 164.719 315.736 164.754C315.838 164.789 315.929 164.85 316 164.93Z" fill="#263238"/>
<path d="M311.83 169.32L312.76 169.21C312.94 169.21 313.07 169.08 313.05 168.97L312.17 165.04C312.17 164.93 311.97 164.85 311.78 164.87L310.86 164.98C310.67 164.98 310.54 165.11 310.57 165.22L311.45 169.14C311.47 169.26 311.65 169.34 311.83 169.32Z" fill="#01A2BB"/>
<path d="M284.26 172.41L285.18 172.31C285.37 172.31 285.5 172.17 285.47 172.06L284.59 168.14C284.59 168.02 284.39 167.95 284.21 167.97L283.28 168.07C283.1 168.07 282.97 168.2 282.99 168.32L283.87 172.24C283.9 172.35 284.07 172.43 284.26 172.41Z" fill="#01A2BB"/>
<path d="M298 170.86L298.93 170.76C299.11 170.76 299.24 170.63 299.22 170.51L298.34 166.59C298.34 166.48 298.14 166.4 297.96 166.42L297.03 166.52C296.85 166.52 296.72 166.65 296.74 166.77L297.62 170.69C297.69 170.81 297.86 170.88 298 170.86Z" fill="#01A2BB"/>
<path d="M291 91.4698C290.92 92.1498 290.5 92.6598 290.06 92.6098C289.62 92.5598 289.32 91.9598 289.4 91.2898C289.48 90.6198 289.9 90.0998 290.35 90.1498C290.8 90.1998 291.11 90.7998 291 91.4698Z" fill="#263238"/>
<path d="M283.37 90.5704C283.29 91.2504 282.87 91.7604 282.43 91.7104C281.99 91.6604 281.69 91.0604 281.77 90.3904C281.85 89.7204 282.27 89.2004 282.77 89.2504C283.27 89.3004 283.45 89.9004 283.37 90.5704Z" fill="#263238"/>
<path d="M282.91 89.3104L281.33 88.6504C281.33 88.6504 282 90.0004 282.91 89.3104Z" fill="#263238"/>
<path d="M285.26 92C284.473 93.46 283.491 94.8057 282.34 96C282.656 96.2873 283.031 96.5017 283.439 96.6279C283.847 96.754 284.277 96.7889 284.7 96.73L285.26 92Z" fill="#A02724"/>
<path d="M286.6 99.1197C286.568 99.0979 286.543 99.0677 286.527 99.0324C286.511 98.9971 286.505 98.9581 286.51 98.9197C286.514 98.8933 286.523 98.8679 286.536 98.845C286.55 98.8221 286.568 98.8022 286.589 98.7863C286.611 98.7705 286.635 98.7591 286.661 98.7528C286.687 98.7465 286.714 98.7455 286.74 98.7497C287.576 98.8959 288.435 98.8425 289.246 98.594C290.058 98.3455 290.799 97.9089 291.41 97.3197C291.428 97.3 291.449 97.284 291.473 97.2726C291.497 97.2612 291.523 97.2546 291.549 97.2532C291.576 97.2518 291.602 97.2556 291.627 97.2645C291.652 97.2733 291.675 97.287 291.695 97.3047C291.715 97.3225 291.731 97.3439 291.742 97.3678C291.754 97.3917 291.76 97.4177 291.762 97.4441C291.763 97.4706 291.759 97.4971 291.75 97.5221C291.741 97.547 291.728 97.57 291.71 97.5897C291.061 98.2291 290.269 98.7043 289.399 98.9757C288.529 99.247 287.607 99.3067 286.71 99.1497L286.6 99.1197Z" fill="#263238"/>
<path d="M294.67 87.9099C294.61 87.8792 294.561 87.8301 294.53 87.7699C294.286 87.3288 293.942 86.9514 293.525 86.6682C293.108 86.3851 292.63 86.204 292.13 86.1398C292.024 86.1398 291.922 86.0977 291.847 86.0227C291.772 85.9477 291.73 85.8459 291.73 85.7399C291.73 85.6338 291.772 85.532 291.847 85.457C291.922 85.382 292.024 85.3398 292.13 85.3398C292.76 85.4076 293.366 85.6242 293.896 85.972C294.426 86.3197 294.867 86.7886 295.18 87.3398C295.207 87.3851 295.225 87.4353 295.233 87.4875C295.24 87.5397 295.237 87.5929 295.224 87.644C295.211 87.6951 295.188 87.7431 295.157 87.7853C295.125 87.8275 295.085 87.863 295.04 87.8898C294.984 87.9206 294.921 87.9383 294.857 87.9417C294.793 87.9452 294.729 87.9343 294.67 87.9099Z" fill="#263238"/>
<path d="M281.35 86.5905L281.29 86.5405C281.253 86.5041 281.223 86.4606 281.202 86.4125C281.182 86.3644 281.172 86.3127 281.172 86.2605C281.172 86.2082 281.182 86.1566 281.202 86.1085C281.223 86.0604 281.253 86.0168 281.29 85.9805C281.691 85.4867 282.205 85.0957 282.787 84.8401C283.37 84.5844 284.005 84.4714 284.64 84.5105C284.746 84.5237 284.843 84.5786 284.908 84.663C284.974 84.7474 285.003 84.8544 284.99 84.9605C284.977 85.0666 284.922 85.163 284.838 85.2287C284.753 85.2943 284.646 85.3237 284.54 85.3105C284.037 85.2824 283.534 85.3759 283.075 85.583C282.615 85.7901 282.212 86.1048 281.9 86.5005C281.837 86.582 281.745 86.6366 281.643 86.6533C281.541 86.67 281.436 86.6475 281.35 86.5905Z" fill="#263238"/>
<path d="M314.85 120.19C317.79 123.19 320.58 126.19 323.3 129.36C324.66 130.94 326.03 132.53 327.3 134.21C328.683 135.94 329.962 137.75 331.13 139.63C331.501 140.216 331.835 140.824 332.13 141.45C332.342 141.934 332.51 142.436 332.63 142.95C332.675 143.158 332.709 143.369 332.73 143.58V143.97C332.74 144.144 332.74 144.317 332.73 144.49V144.76V144.88V144.98L332.68 145.18C332.42 146.26 332.23 147.35 331.89 148.41C331.291 150.572 330.505 152.676 329.54 154.7C328.55 156.755 327.325 158.688 325.89 160.46C325.153 161.359 324.344 162.195 323.47 162.96C323.03 163.35 322.58 163.72 322.09 164.08C321.85 164.25 321.59 164.42 321.33 164.58C321.07 164.74 320.83 164.88 320.41 165.1L318.24 161.41C318.24 161.36 318.46 161.18 318.57 161.04L318.99 160.57C319.27 160.24 319.54 159.89 319.8 159.57C320.314 158.832 320.785 158.064 321.21 157.27C322.063 155.669 322.772 153.996 323.33 152.27C323.58 151.37 323.86 150.5 324.05 149.57C324.24 148.64 324.45 147.75 324.6 146.83C324.75 145.91 324.86 144.96 325 144.03V143.85V143.77V143.95C325 144.06 325 144.21 325 144.28C324.995 144.344 324.995 144.407 325 144.47V144.72C325 144.92 325 144.86 325 144.78C325 144.7 324.68 144.26 324.45 143.93C323.45 142.56 322.19 141.01 320.91 139.54C319.63 138.07 318.29 136.54 316.91 135.07L308.66 126.21L314.85 120.19Z" fill="#B55B52"/>
<path d="M322.57 163.761L316.57 169.331L312.68 163.001C312.68 163.001 316.42 160.311 319.78 161.321L322.57 163.761Z" fill="#B55B52"/>
<path d="M312 170.5L310 168.41C309.62 168.009 309.413 167.475 309.425 166.923C309.436 166.371 309.664 165.845 310.06 165.46L312.62 162.95L316.5 169.33L314.83 170.7C314.418 171.025 313.9 171.184 313.376 171.147C312.853 171.11 312.362 170.879 312 170.5Z" fill="#B55B52"/>
<path d="M301.32 119.91C300.86 123.48 310.37 133.91 310.37 133.91L319.27 122.77C319.27 122.77 315.12 116.95 311.95 115.63C306.86 113.48 301.84 115.84 301.32 119.91Z" fill="#01A2BB"/>
<path d="M290.57 90.2098L288.99 89.5498C288.99 89.5498 289.68 90.9198 290.57 90.2098Z" fill="#263238"/>
<path d="M63.62 83.21C59.93 87.3 55.34 99.56 69.56 97.1C83.78 94.64 63.62 83.21 63.62 83.21Z" fill="#263238"/>
<path d="M68.15 71.9402C69.02 66.5002 59.07 54.0102 55.15 61.7202C50.34 71.0002 68.15 71.9402 68.15 71.9402Z" fill="#263238"/>
<path d="M68.18 75.2404C72.69 72.0804 74.71 56.2404 66.42 58.7804C56.43 61.8304 68.18 75.2404 68.18 75.2404Z" fill="#263238"/>
<path d="M91 123.76C90.91 124.6 90.83 125.65 90.76 126.61C90.69 127.57 90.65 128.61 90.62 129.61C90.62 131.61 90.5 133.61 90.56 135.56C90.6439 139.51 91.0014 143.45 91.63 147.35C91.77 148.35 91.99 149.27 92.17 150.23L92.23 150.56C92.228 150.597 92.228 150.634 92.23 150.67C92.23 150.67 92.23 150.67 92.23 150.76C92.23 150.85 92.71 151.09 93.39 151.16C94.1839 151.254 94.9861 151.254 95.78 151.16C99.6232 150.54 103.382 149.476 106.98 147.99L108.92 151.44C107.99 152.11 107.1 152.67 106.16 153.23C105.22 153.79 104.29 154.33 103.3 154.81C101.283 155.856 99.1615 156.684 96.97 157.28C95.7292 157.612 94.4538 157.796 93.17 157.83C91.4926 157.879 89.8357 157.452 88.39 156.6C87.5204 156.061 86.7797 155.337 86.22 154.48C85.9539 154.078 85.7294 153.649 85.55 153.2C85.4585 152.992 85.3784 152.778 85.31 152.56L85.21 152.24L85.16 152.04C84.89 150.98 84.57 149.91 84.34 148.84C83.3816 144.567 82.8093 140.216 82.63 135.84C82.52 133.67 82.48 131.51 82.56 129.34C82.56 128.25 82.65 127.17 82.73 126.08C82.81 124.99 82.91 123.95 83.07 122.73L91 123.76Z" fill="#FFB573"/>
<path d="M90 114.331C93 115.691 93 129.141 93 129.141L79.42 135.301C79.42 135.301 77.1 118.951 80.15 115.881C83.2 112.811 85.61 112.351 90 114.331Z" fill="#263238"/>
<path opacity="0.2" d="M89.25 117.2L91.29 129.95L83.92 133.28L89.25 117.2Z" fill="black"/>
<path d="M105.24 149.67L110.91 143.46L112.69 150.3C112.69 150.3 109.06 153.77 105.97 152.77L105.24 149.67Z" fill="#FFB573"/>
<path d="M114.56 143.26L115.4 146.65C115.463 146.917 115.456 147.195 115.378 147.458C115.301 147.721 115.157 147.96 114.96 148.15L112.69 150.3L110.91 143.46L112.01 142.46C112.21 142.279 112.454 142.153 112.718 142.095C112.982 142.038 113.256 142.05 113.514 142.131C113.771 142.211 114.004 142.358 114.187 142.556C114.371 142.754 114.499 142.997 114.56 143.26Z" fill="#FFB573"/>
<path d="M91.71 117.431C91.33 122.001 89.04 133.141 79.71 160.141L48.41 154.731C51 142.731 52.36 135.071 51.16 111.151C51.1311 110.611 51.2136 110.071 51.4025 109.564C51.5913 109.057 51.8824 108.595 52.2576 108.206C52.6328 107.816 53.0841 107.509 53.5834 107.301C54.0827 107.094 54.6194 106.992 55.16 107.001C58.2983 107.029 61.4328 107.226 64.55 107.591C69.3375 108.058 74.0859 108.864 78.76 110.001C82.58 111.001 86.67 112.461 89.14 113.361C89.959 113.658 90.6558 114.219 91.121 114.956C91.5862 115.693 91.7934 116.563 91.71 117.431Z" fill="#263238"/>
<path opacity="0.2" d="M51.75 117.841C54.46 119.041 56.55 122.581 55.25 128.221C54.6282 130.78 53.2932 133.11 51.4 134.941C51.66 130.471 51.7 125.241 51.49 118.501L51.75 117.841Z" fill="black"/>
<path d="M68.71 91.8301C68.82 96.5601 68.27 105.09 64.54 107.59C64.54 107.59 67.25 110.98 74.82 116.82C82.04 112.82 78.76 110.04 78.76 110.04C73.87 107.95 74.65 104.19 76.15 100.79L68.71 91.8301Z" fill="#FFB573"/>
<path opacity="0.2" d="M71.75 95.4902L76.15 100.78C75.7879 101.569 75.4968 102.389 75.28 103.23C73.38 102.61 70.6 100.42 70.55 98.2302C70.52 97.2002 71.5 95.9302 71.75 95.4902Z" fill="black"/>
<path d="M65 83.1204C65.43 90.8704 65.44 94.1204 69.33 98.1204C75.18 104.12 84.6 101.92 86.5 94.2004C88.21 87.2004 87.22 75.7404 79.66 72.6104C77.9922 71.9109 76.173 71.6501 74.3758 71.853C72.5787 72.0559 70.8634 72.7156 69.3935 73.7694C67.9236 74.8232 66.7481 76.2359 65.979 77.8728C65.2099 79.5097 64.8729 81.3163 65 83.1204Z" fill="#FFB573"/>
<path d="M64.93 88.3108C68.27 88.4808 72.1 82.0408 70.55 79.1308C72.3 78.7408 79.76 79.5808 79.73 76.8308C83.1 79.1808 90.5 79.3008 91.73 76.1108C92.96 72.9208 90.16 69.9508 86.52 71.1108C83.89 64.3308 71.24 62.9308 66.52 69.3708C60.54 69.2208 47.55 79.0008 64.93 88.3108Z" fill="#263238"/>
<path d="M78.4 85.2601C78.4 85.8901 78.72 86.4001 79.14 86.4001C79.56 86.4001 79.88 85.9001 79.89 85.2701C79.9 84.6401 79.56 84.1201 79.15 84.1201C78.74 84.1201 78.4 84.6301 78.4 85.2601Z" fill="#263238"/>
<path d="M85.52 85.3003C85.52 85.9303 85.85 86.4403 86.26 86.4503C86.67 86.4603 87.01 85.9403 87.02 85.3103C87.03 84.6803 86.69 84.1703 86.28 84.1603C85.87 84.1503 85.53 84.6703 85.52 85.3003Z" fill="#263238"/>
<path d="M86.1 84.2005L87.61 83.7705C87.61 83.7705 86.83 85.0005 86.1 84.2005Z" fill="#263238"/>
<path d="M83.32 86.4199C83.8724 87.849 84.6195 89.1951 85.54 90.4199C85.2172 90.6475 84.8487 90.8021 84.4602 90.8729C84.0716 90.9437 83.6723 90.929 83.29 90.8299L83.32 86.4199Z" fill="#ED893E"/>
<path d="M79.62 93.32C79.9274 93.3697 80.2386 93.3931 80.55 93.39C80.5745 93.3914 80.599 93.3877 80.622 93.3793C80.645 93.3708 80.666 93.3578 80.6838 93.3409C80.7016 93.3241 80.7157 93.3038 80.7254 93.2813C80.7351 93.2588 80.74 93.2345 80.74 93.21C80.7376 93.1604 80.7168 93.1135 80.6817 93.0783C80.6465 93.0432 80.5996 93.0224 80.55 93.02C79.7637 93.0294 78.9862 92.8532 78.2807 92.5057C77.5753 92.1582 76.9618 91.6492 76.49 91.02C76.4778 90.9981 76.461 90.9789 76.4409 90.9638C76.4208 90.9487 76.3978 90.938 76.3733 90.9323C76.3488 90.9267 76.3234 90.9262 76.2987 90.931C76.274 90.9358 76.2506 90.9456 76.23 90.96C76.197 90.9952 76.1786 91.0417 76.1786 91.09C76.1786 91.1383 76.197 91.1848 76.23 91.22C76.6295 91.7755 77.1345 92.2469 77.7161 92.6072C78.2978 92.9675 78.9447 93.2097 79.62 93.32Z" fill="#263238"/>
<path d="M78.57 94.3804C78.8354 94.5388 79.1129 94.6759 79.4 94.7904C79.4223 94.8001 79.4463 94.8052 79.4706 94.8054C79.4948 94.8057 79.5189 94.801 79.5414 94.7916C79.5638 94.7823 79.5841 94.7685 79.601 94.7511C79.618 94.7337 79.6312 94.713 79.64 94.6904C79.6497 94.6681 79.6549 94.6441 79.6551 94.6198C79.6553 94.5955 79.6506 94.5715 79.6412 94.549C79.6319 94.5266 79.6181 94.5063 79.6007 94.4893C79.5833 94.4724 79.5627 94.4591 79.54 94.4504C78.8131 94.165 78.1631 93.7134 77.6421 93.1317C77.1212 92.5499 76.7437 91.8543 76.54 91.1004C76.5353 91.0765 76.5258 91.0537 76.512 91.0336C76.4983 91.0134 76.4806 90.9963 76.46 90.9832C76.4394 90.9701 76.4164 90.9614 76.3924 90.9574C76.3683 90.9535 76.3437 90.9545 76.32 90.9604C76.2732 90.9701 76.2317 90.9971 76.2039 91.036C76.1761 91.0749 76.164 91.1229 76.17 91.1704C76.3383 91.8374 76.637 92.4644 77.049 93.0154C77.4609 93.5663 77.9779 94.0303 78.57 94.3804Z" fill="#263238"/>
<path d="M62.63 89.1607C63.0609 90.5966 64.0374 91.8064 65.35 92.5307C67.1 93.4707 68.41 92.0007 68.29 90.1207C68.18 88.4307 67.13 85.9007 65.19 85.7407C64.7667 85.7133 64.3432 85.7918 63.958 85.9693C63.5727 86.1469 63.2378 86.4177 62.9836 86.7573C62.7294 87.0969 62.5639 87.4945 62.5022 87.9142C62.4405 88.3338 62.4844 88.7623 62.63 89.1607Z" fill="#FFB573"/>
<path d="M75.16 81.7407C75.2309 81.7748 75.3108 81.7854 75.3881 81.771C75.4654 81.7566 75.5361 81.718 75.59 81.6607C76.8 80.4507 78.98 80.8007 79 80.8007C79.0965 80.8155 79.195 80.7926 79.275 80.7367C79.3551 80.6808 79.4106 80.5963 79.43 80.5007C79.4385 80.452 79.4373 80.4021 79.4262 80.354C79.4152 80.3058 79.3946 80.2603 79.3657 80.2203C79.3368 80.1802 79.3002 80.1463 79.258 80.1206C79.2158 80.0949 79.1689 80.0779 79.12 80.0707C79.02 80.0707 76.54 79.6607 75.07 81.1407C75.0346 81.1751 75.0065 81.2164 74.9873 81.2619C74.9681 81.3074 74.9582 81.3563 74.9582 81.4057C74.9582 81.4551 74.9681 81.504 74.9873 81.5495C75.0065 81.595 75.0346 81.6362 75.07 81.6707L75.16 81.7407Z" fill="#263238"/>
<path d="M87.93 81.8804C87.993 81.8889 88.0572 81.8814 88.1166 81.8587C88.176 81.836 88.2287 81.7988 88.27 81.7504C88.3322 81.6747 88.3618 81.5775 88.3525 81.48C88.3431 81.3826 88.2955 81.2928 88.22 81.2304C87.7773 80.8439 87.2487 80.5688 86.6782 80.4279C86.1076 80.287 85.5117 80.2844 84.94 80.4204C84.8477 80.4502 84.7708 80.5152 84.7259 80.6013C84.681 80.6873 84.6717 80.7875 84.7 80.8804C84.7125 80.9278 84.7346 80.9721 84.7649 81.0106C84.7952 81.0492 84.833 81.0811 84.8761 81.1045C84.9192 81.1279 84.9666 81.1423 85.0154 81.1467C85.0642 81.1512 85.1134 81.1456 85.16 81.1304C85.6138 81.0268 86.0859 81.0335 86.5366 81.1501C86.9872 81.2667 87.4034 81.4897 87.75 81.8004C87.8017 81.8428 87.8639 81.8705 87.93 81.8804Z" fill="#263238"/>
<path d="M76.72 333.36H84.54L84.04 315.25H76.22L76.72 333.36Z" fill="#FFB573"/>
<path d="M85 332.451H76.21C76.0605 332.445 75.9148 332.499 75.8044 332.6C75.694 332.701 75.6278 332.841 75.62 332.991L74.97 339.941C74.9633 340.12 74.9927 340.299 75.0564 340.466C75.1201 340.634 75.2168 340.787 75.3409 340.917C75.4649 341.047 75.6137 341.15 75.7785 341.221C75.9432 341.292 76.1206 341.329 76.3 341.331C79.36 341.281 80.82 341.101 84.69 341.101C87.06 341.101 91.99 341.341 95.27 341.341C98.55 341.341 98.57 338.101 97.18 337.801C90.99 336.481 88.48 334.671 86.33 332.931C85.9535 332.625 85.4848 332.456 85 332.451Z" fill="#263238"/>
<g opacity="0.2">
<path d="M84.04 315.25L84.3 324.59H76.48L76.22 315.25H84.04Z" fill="black"/>
</g>
<path d="M79.73 160.14C79.73 160.14 84.61 208.97 86.13 232.79C87.71 257.56 85.64 322.79 85.64 322.79H75.07C75.07 322.79 68.54 249.31 68.54 234.65C64.38 208.08 52.91 180.56 56.81 156.19L79.73 160.14Z" fill="#01A2BB"/>
<path opacity="0.6" d="M79.73 160.14C79.73 160.14 84.61 208.97 86.13 232.79C87.71 257.56 85.64 322.79 85.64 322.79H75.07C75.07 322.79 68.54 249.31 68.54 234.65C64.38 208.08 52.91 180.56 56.81 156.19L79.73 160.14Z" fill="white"/>
<path opacity="0.2" d="M63.12 179.471C60.8964 180.068 58.9144 181.344 57.45 183.121C59.06 193.251 61.78 203.641 64.28 214.041C66.07 202.741 65 183.701 63.12 179.471Z" fill="#01A2BB"/>
<path d="M74.15 323.161H86.56L87.47 319.201L73.57 318.721L74.15 323.161Z" fill="#263238"/>
<path d="M88 333.82C88.6692 333.877 89.3383 333.708 89.9 333.34C90.026 333.23 90.1222 333.089 90.1799 332.932C90.2375 332.775 90.2548 332.606 90.23 332.44C90.2247 332.337 90.1935 332.237 90.1393 332.15C90.0851 332.063 90.0096 331.99 89.92 331.94C88.92 331.42 85.84 333.01 85.49 333.19C85.4559 333.207 85.4284 333.235 85.4121 333.269C85.3958 333.304 85.3915 333.343 85.4 333.38C85.4047 333.418 85.4206 333.453 85.4455 333.481C85.4705 333.51 85.5034 333.53 85.54 333.54C86.3497 333.708 87.1732 333.802 88 333.82ZM89.4 332.2C89.5176 332.193 89.635 332.217 89.74 332.27C89.7786 332.287 89.8114 332.315 89.8345 332.351C89.8575 332.386 89.8699 332.428 89.87 332.47C89.8854 332.579 89.8733 332.69 89.8349 332.793C89.7965 332.896 89.7329 332.988 89.65 333.06C89.18 333.49 87.89 333.56 86.16 333.28C87.1608 332.74 88.2464 332.375 89.37 332.2H89.4Z" fill="#01A2BB"/>
<path d="M85.55 333.541H85.6199C86.5599 333.121 88.3999 331.431 88.2599 330.541C88.2599 330.331 88.07 330.071 87.56 330.021C87.3804 330.005 87.1995 330.025 87.0278 330.08C86.8562 330.135 86.6971 330.224 86.56 330.341C85.56 331.161 85.4 333.261 85.39 333.341C85.3892 333.373 85.396 333.406 85.4099 333.435C85.4238 333.465 85.4443 333.491 85.47 333.511C85.4941 333.526 85.5214 333.537 85.55 333.541ZM87.41 330.371H87.52C87.86 330.371 87.88 330.541 87.89 330.581C87.98 331.121 86.73 332.441 85.78 333.021C85.8549 332.13 86.2043 331.285 86.78 330.601C86.9572 330.454 87.1797 330.373 87.41 330.371Z" fill="#01A2BB"/>
<path d="M11.91 321.08L19.14 324.06L26.53 307.52L19.31 304.54L11.91 321.08Z" fill="#FFB573"/>
<path d="M19.71 324L12.07 319.66C11.9404 319.584 11.787 319.558 11.6393 319.587C11.4916 319.617 11.3601 319.7 11.27 319.82L6.99999 325.33C6.89736 325.475 6.82622 325.639 6.7912 325.812C6.75618 325.985 6.75807 326.164 6.79674 326.337C6.83542 326.51 6.91002 326.672 7.01568 326.814C7.12134 326.956 7.25569 327.074 7.41 327.16C10.1 328.62 11.47 329.16 14.83 331.1C16.89 332.28 21.05 334.92 23.9 336.54C26.75 338.16 28.51 335.43 27.47 334.54C22.79 330.36 21.59 327.59 20.65 325.07C20.4786 324.611 20.144 324.23 19.71 324Z" fill="#263238"/>
<g opacity="0.2">
<path d="M26.53 307.53L22.72 316.05L15.49 313.07L19.3 304.54L26.53 307.53Z" fill="black"/>
</g>
<path d="M70.94 158.621C70.94 158.621 58.16 214.741 56 238.501C50.57 260.571 25 315.001 25 315.001L15.22 311.001C15.22 311.001 30.55 252.851 38.97 236.831C39.77 210.271 39.63 178.271 48.07 154.681L70.94 158.621Z" fill="#01A2BB"/>
<path opacity="0.6" d="M70.94 158.621C70.94 158.621 58.16 214.741 56 238.501C50.57 260.571 25 315.001 25 315.001L15.22 311.001C15.22 311.001 30.55 252.851 38.97 236.831C39.77 210.271 39.63 178.271 48.07 154.681L70.94 158.621Z" fill="white"/>
<path d="M14.18 310.98L25.65 315.71L28 312.4L15.34 306.65L14.18 310.98Z" fill="#263238"/>
<path d="M21.59 326.601C22.144 326.981 22.8095 327.164 23.48 327.121C23.6438 327.087 23.7965 327.012 23.924 326.904C24.0516 326.795 24.1499 326.657 24.21 326.501C24.259 326.412 24.2847 326.312 24.2847 326.211C24.2847 326.109 24.259 326.009 24.21 325.921C23.64 324.981 20.14 324.831 19.75 324.821C19.712 324.816 19.6735 324.824 19.6409 324.844C19.6082 324.864 19.5832 324.895 19.57 324.931C19.548 324.961 19.5362 324.998 19.5362 325.036C19.5362 325.073 19.548 325.11 19.57 325.141C20.1974 325.688 20.8735 326.177 21.59 326.601ZM23.59 325.881C23.6963 325.936 23.7886 326.014 23.86 326.111C23.8821 326.147 23.8938 326.188 23.8938 326.231C23.8938 326.273 23.8821 326.314 23.86 326.351C23.82 326.451 23.7565 326.541 23.6748 326.613C23.593 326.684 23.4954 326.735 23.39 326.761C22.76 326.891 21.61 326.321 20.24 325.221C21.3893 325.249 22.5254 325.472 23.6 325.881H23.59Z" fill="#01A2BB"/>
<path d="M19.62 325.161C19.62 325.161 19.62 325.161 19.69 325.161C20.69 325.251 23.15 324.691 23.46 323.851C23.53 323.651 23.53 323.351 23.11 323.051C22.9661 322.95 22.8037 322.878 22.632 322.841C22.4604 322.803 22.283 322.8 22.11 322.831C20.85 323.051 19.66 324.831 19.61 324.831C19.5932 324.858 19.5842 324.889 19.5842 324.921C19.5842 324.953 19.5932 324.984 19.61 325.011C19.5993 325.035 19.5945 325.061 19.5963 325.087C19.598 325.113 19.6062 325.138 19.62 325.161ZM22.8 323.331C22.8373 323.343 22.8714 323.364 22.9 323.391C23.17 323.581 23.13 323.711 23.11 323.751C22.92 324.261 21.18 324.751 20.11 324.831C20.6119 324.092 21.3322 323.529 22.17 323.221C22.3864 323.187 22.6077 323.226 22.8 323.331Z" fill="#01A2BB"/>
<path d="M79 84.1505L80.51 83.7305C80.51 83.7305 79.7 84.9005 79 84.1505Z" fill="#263238"/>
<path d="M48.28 152.82L47 155.48C46.85 155.68 47.07 155.94 47.43 156.01L79.64 161.57C79.92 161.62 80.18 161.57 80.23 161.34L81 158.59C81.05 158.4 80.83 158.19 80.52 158.14L48.83 152.67C48.7332 152.646 48.6317 152.647 48.5353 152.673C48.4389 152.699 48.351 152.75 48.28 152.82Z" fill="#263238"/>
<path d="M52 157.11L51.15 156.97C50.98 156.97 50.87 156.83 50.9 156.72L51.9 153.15C51.9 153.05 52.09 152.99 52.26 153.02L53.11 153.16C53.28 153.16 53.39 153.3 53.36 153.41L52.36 156.98C52.36 157.08 52.2 157.14 52 157.11Z" fill="#01A2BB"/>
<g opacity="0.6">
<path d="M52 157.11L51.15 156.97C50.98 156.97 50.87 156.83 50.9 156.72L51.9 153.15C51.9 153.05 52.09 152.99 52.26 153.02L53.11 153.16C53.28 153.16 53.39 153.3 53.36 153.41L52.36 156.98C52.36 157.08 52.2 157.14 52 157.11Z" fill="white"/>
</g>
<path d="M77.2 161.46L76.36 161.31C76.19 161.31 76.07 161.17 76.1 161.07L77.1 157.5C77.1 157.39 77.29 157.33 77.46 157.36L78.31 157.51C78.48 157.51 78.59 157.65 78.56 157.75L77.56 161.32C77.54 161.43 77.37 161.49 77.2 161.46Z" fill="#01A2BB"/>
<g opacity="0.6">
<path d="M77.2 161.46L76.36 161.31C76.19 161.31 76.07 161.17 76.1 161.07L77.1 157.5C77.1 157.39 77.29 157.33 77.46 157.36L78.31 157.51C78.48 157.51 78.59 157.65 78.56 157.75L77.56 161.32C77.54 161.43 77.37 161.49 77.2 161.46Z" fill="white"/>
</g>
<path d="M64.67 159.3L63.82 159.15C63.65 159.15 63.54 159.01 63.57 158.91L64.57 155.33C64.57 155.23 64.76 155.17 64.93 155.2L65.78 155.34C65.94 155.34 66.06 155.48 66.03 155.59L65.03 159.16C65 159.26 64.84 159.32 64.67 159.3Z" fill="#01A2BB"/>
<g opacity="0.6">
<path d="M64.67 159.3L63.82 159.15C63.65 159.15 63.54 159.01 63.57 158.91L64.57 155.33C64.57 155.23 64.76 155.17 64.93 155.2L65.78 155.34C65.94 155.34 66.06 155.48 66.03 155.59L65.03 159.16C65 159.26 64.84 159.32 64.67 159.3Z" fill="white"/>
</g>
<path d="M44.86 158.92L50.72 165L42.79 165.53C42.79 165.53 40.08 161.3 41.66 158.46L44.86 158.92Z" fill="#FFB573"/>
<path d="M53.26 117.58C51 121.18 48.66 124.76 46.32 128.31C43.98 131.86 41.59 135.46 39.45 138.9L39.11 139.44C39.11 139.44 39.11 139.5 39.03 139.57C38.9478 139.799 38.8973 140.038 38.88 140.28C38.8166 141.072 38.8536 141.868 38.99 142.65C39.3253 144.562 39.8204 146.442 40.47 148.27C41.11 150.19 41.86 152.12 42.69 154.03C43.52 155.94 44.38 157.88 45.25 159.75L41.89 161.85C39.2064 158.326 36.8626 154.556 34.89 150.59C33.8395 148.482 33.002 146.275 32.39 144C32.0444 142.694 31.863 141.351 31.85 140C31.8531 139.174 31.9572 138.351 32.16 137.55C32.2898 137.084 32.457 136.629 32.66 136.19L32.9 135.71L33.1 135.32C34.16 133.32 35.22 131.46 36.32 129.58C37.42 127.7 38.52 125.88 39.64 124.05C41.88 120.38 44.16 116.77 46.55 113.2L53.26 117.58Z" fill="#FFB573"/>
<path d="M55.38 107.181C47.7 105.861 41.93 117.711 41.93 117.711L50.93 128.791C50.93 128.791 56.7 122.341 57.98 118.211C59.34 113.911 59.12 107.831 55.38 107.181Z" fill="#263238"/>
<path d="M51.4 171.54L44.73 171.62L42.79 165.53L50.72 165L51.4 171.54Z" fill="#FFB573"/>
<path d="M315.12 28.6697C317.655 28.6723 320.165 29.1745 322.507 30.1475C324.848 31.1204 326.974 32.5452 328.765 34.3402C330.555 36.1353 331.975 38.2656 332.941 40.6093C333.908 42.9531 334.404 45.4644 334.4 47.9997V194.84C334.395 199.951 332.362 204.852 328.747 208.467C325.133 212.081 320.232 214.114 315.12 214.12H266.22C262.242 214.12 258.426 215.7 255.613 218.513C252.8 221.326 251.22 225.141 251.22 229.12V243.34L221.31 217.72C218.59 215.394 215.129 214.117 211.55 214.12H54.88C49.7683 214.114 44.8674 212.081 41.2528 208.467C37.6383 204.852 35.6053 199.951 35.6 194.84V47.9997C35.6053 42.888 37.6383 37.9871 41.2528 34.3726C44.8674 30.758 49.7683 28.725 54.88 28.7197H315.12M315.12 13.7197H54.88C45.7965 13.7461 37.0926 17.3662 30.6695 23.7892C24.2465 30.2123 20.6264 38.9162 20.6 47.9997V194.84C20.6264 203.923 24.2465 212.627 30.6695 219.05C37.0926 225.473 45.7965 229.093 54.88 229.12H211.55L266.22 275.94V229.12H315.12C324.203 229.093 332.907 225.473 339.33 219.05C345.754 212.627 349.374 203.923 349.4 194.84V47.9997C349.374 38.9162 345.754 30.2123 339.33 23.7892C332.907 17.3662 324.203 13.7461 315.12 13.7197Z" fill="#01A2BB"/>
<path d="M173.86 336.34C174.78 336.34 175.65 336.22 175.93 335.81C176.007 335.702 176.048 335.573 176.048 335.44C176.048 335.307 176.007 335.178 175.93 335.07C175.869 334.972 175.789 334.887 175.694 334.82C175.6 334.753 175.493 334.705 175.38 334.68C174.19 334.36 171.76 335.77 171.65 335.83C171.62 335.848 171.597 335.876 171.585 335.908C171.572 335.941 171.57 335.976 171.58 336.01C171.586 336.044 171.603 336.075 171.628 336.098C171.654 336.122 171.686 336.136 171.72 336.14C172.426 336.273 173.142 336.34 173.86 336.34ZM174.94 334.97C175.05 334.959 175.16 334.959 175.27 334.97C175.407 335.005 175.525 335.091 175.6 335.21C175.73 335.42 175.69 335.52 175.65 335.58C175.34 336.04 173.54 336.05 172.21 335.87C173.054 335.404 173.982 335.109 174.94 335V334.97Z" fill="#01A2BB"/>
<path d="M171.71 336.15H171.78C172.62 335.77 174.26 334.23 174.1 333.43C174.1 333.24 173.92 333 173.46 332.96C173.294 332.94 173.126 332.954 172.966 333.003C172.806 333.051 172.657 333.132 172.53 333.24C171.66 333.99 171.53 335.9 171.53 335.98C171.531 336.011 171.538 336.041 171.552 336.069C171.566 336.097 171.586 336.121 171.61 336.14C171.642 336.153 171.676 336.157 171.71 336.15ZM173.33 333.27H173.44C173.74 333.27 173.76 333.42 173.77 333.46C173.87 333.94 172.77 335.15 171.9 335.68C171.944 334.877 172.246 334.109 172.76 333.49C172.915 333.347 173.119 333.268 173.33 333.27Z" fill="#01A2BB"/>
<path d="M163.88 335.98H170.99L171.08 319.52H163.97L163.88 335.98Z" fill="#CE7A63"/>
<path d="M170.92 335.16H163.15C163.012 335.158 162.878 335.205 162.771 335.293C162.665 335.381 162.594 335.504 162.57 335.64L161.4 342C161.372 342.156 161.379 342.316 161.42 342.47C161.461 342.623 161.535 342.765 161.637 342.886C161.739 343.007 161.867 343.105 162.011 343.171C162.155 343.237 162.311 343.271 162.47 343.27C165.27 343.22 169.31 343.05 172.83 343.05C176.94 343.05 177.45 343.28 182.28 343.28C185.2 343.28 185.89 340.33 184.66 340.06C179.06 338.84 177.57 338.71 172.66 335.75C172.144 335.399 171.543 335.195 170.92 335.16Z" fill="#263238"/>
<path opacity="0.2" d="M171.08 319.52L171.04 328.01H163.92L163.97 319.52H171.08Z" fill="black"/>
<path d="M116.82 333.89C116.874 333.136 116.642 332.39 116.17 331.8C116.062 331.722 115.933 331.68 115.8 331.68C115.667 331.68 115.538 331.722 115.43 331.8C115.335 331.857 115.254 331.933 115.191 332.025C115.129 332.117 115.088 332.221 115.07 332.33C114.81 333.51 116.36 336 116.43 336.11C116.449 336.139 116.476 336.162 116.508 336.177C116.54 336.191 116.575 336.195 116.61 336.19C116.643 336.186 116.674 336.171 116.697 336.147C116.721 336.123 116.736 336.093 116.74 336.06C116.824 335.34 116.851 334.614 116.82 333.89ZM115.38 332.75C115.365 332.644 115.365 332.536 115.38 332.43C115.389 332.363 115.412 332.298 115.448 332.241C115.484 332.184 115.533 332.136 115.59 332.1C115.8 331.98 115.9 332.03 115.96 332.1C116.44 332.43 116.55 334.23 116.44 335.55C115.91 334.693 115.55 333.742 115.38 332.75Z" fill="#01A2BB"/>
<path d="M116.74 336C116.746 335.977 116.746 335.953 116.74 335.93C116.31 335.07 114.68 333.36 113.88 333.48C113.69 333.48 113.46 333.64 113.44 334.11C113.429 334.452 113.551 334.785 113.78 335.04C114.58 335.686 115.555 336.076 116.58 336.16C116.609 336.164 116.639 336.16 116.665 336.147C116.692 336.135 116.715 336.115 116.73 336.09C116.743 336.062 116.747 336.03 116.74 336ZM113.74 334.24V334.14C113.74 333.84 113.87 333.82 113.91 333.82C114.39 333.74 115.66 334.9 116.24 335.82C115.412 335.736 114.628 335.405 113.99 334.87C113.851 334.703 113.771 334.496 113.76 334.28L113.74 334.24Z" fill="#01A2BB"/>
<path d="M116.63 336.08L123.6 336.57L126.47 319.98L119.51 319.49L116.63 336.08Z" fill="#CE7A63"/>
<path d="M116.56 334.49L124.25 333.81C124.394 333.797 124.537 333.833 124.659 333.911C124.78 333.988 124.872 334.104 124.92 334.24L127.26 340.41C127.314 340.553 127.335 340.705 127.322 340.857C127.308 341.009 127.26 341.156 127.18 341.286C127.101 341.416 126.993 341.527 126.865 341.609C126.737 341.691 126.591 341.743 126.44 341.76C123.66 341.96 119.62 342.15 116.13 342.46C112.06 342.82 114.71 342.81 109.93 343.24C107.04 343.5 105.8 340.63 106.93 340.24C112.25 338.54 113.16 337.37 114.93 335.18C115.142 334.962 115.395 334.788 115.675 334.67C115.955 334.551 116.256 334.49 116.56 334.49Z" fill="#263238"/>
<path opacity="0.2" d="M126.47 319.99L124.99 328.54L118.02 328.05L119.5 319.49L126.47 319.99Z" fill="black"/>
<path d="M173.64 155.149C173.64 155.149 160.64 209.759 155.72 230.029C150.29 252.219 129 325.859 129 325.859L116.3 323.109C116.3 323.109 130.1 259.839 135.53 228.879C139.7 205.109 149.12 155.149 149.12 155.149H173.64Z" fill="#263238"/>
<path d="M131 322L130.06 326.89L114.89 325.27L114.68 320.79L131 322Z" fill="#01A2BB"/>
<path opacity="0.3" d="M166.15 180.46C157.15 181.65 155.52 213.19 155.31 231.69L155.72 230.02C158.42 218.96 163.51 197.63 167.59 180.56C167.123 180.42 166.631 180.386 166.15 180.46Z" fill="black"/>
<path d="M187.13 155.149C187.13 155.149 183.66 208.329 182.13 229.979C180.52 252.499 174.13 326.359 174.13 326.359H162C162 326.359 160.73 253.849 160.38 231.699C159.99 207.559 162.12 155.149 162.12 155.149H187.13Z" fill="#263238"/>
<path d="M175.76 321.57C175.81 321.57 175.27 326.57 175.27 326.57H160.62L160.05 322.1L175.76 321.57Z" fill="#01A2BB"/>
<path d="M153.5 104C151.56 107.93 149.59 112.06 147.77 116.12C145.95 120.18 144.16 124.29 142.77 128.39L142.23 129.92L141.75 131.44L141.53 132.13C141.548 131.967 141.548 131.803 141.53 131.64C141.462 130.967 141.14 130.344 140.63 129.9C140.24 129.64 140.23 129.75 140.38 129.83C140.658 129.959 140.95 130.056 141.25 130.12C142.147 130.308 143.056 130.432 143.97 130.49C148.347 130.625 152.729 130.494 157.09 130.1H157.21C157.856 130.051 158.497 130.237 159.017 130.623C159.536 131.009 159.899 131.569 160.039 132.201C160.179 132.833 160.086 133.495 159.778 134.064C159.469 134.633 158.966 135.072 158.36 135.3C153.819 137.131 149.059 138.362 144.2 138.96C142.804 139.103 141.398 139.116 140 139C139.155 138.931 138.318 138.784 137.5 138.56C136.299 138.248 135.184 137.666 134.24 136.86C133.557 136.275 132.997 135.562 132.59 134.76C132.181 133.928 131.936 133.025 131.87 132.1C131.828 131.362 131.886 130.622 132.04 129.9L132.26 128.9L132.68 127.09L133.16 125.32C134.474 120.72 136.06 116.202 137.91 111.79C139.75 107.41 141.7 103.2 143.97 98.9399C144.637 97.6934 145.766 96.7587 147.116 96.3371C148.465 95.9155 149.926 96.0408 151.183 96.6861C152.441 97.3313 153.395 98.4449 153.839 99.7867C154.284 101.129 154.184 102.591 153.56 103.86L153.5 104Z" fill="#CF7A64"/>
<path d="M157.29 130.37L161.71 128.63L161.49 136.85C159.706 136.725 157.984 136.143 156.49 135.16C156.124 134.894 155.848 134.523 155.699 134.095C155.551 133.668 155.537 133.205 155.66 132.77L155.91 131.87C156.004 131.528 156.179 131.214 156.419 130.953C156.659 130.692 156.957 130.492 157.29 130.37Z" fill="#CE7A63"/>
<path d="M168.99 127.7L167.4 134.82L161.49 136.84L161.71 128.63L168.99 127.7Z" fill="#CE7A63"/>
<path d="M177.22 67.2199C177.34 67.7799 177.73 68.1699 178.09 68.0999C178.45 68.0299 178.67 67.5099 178.55 66.9499C178.43 66.3899 178.05 65.9499 177.68 66.0599C177.31 66.1699 177.11 66.6499 177.22 67.2199Z" fill="#263238"/>
<path d="M177.67 68.1797C178.69 69.7632 179.925 71.197 181.34 72.4397C181.011 72.7925 180.608 73.0692 180.161 73.2505C179.714 73.4318 179.232 73.5135 178.75 73.4897L177.67 68.1797Z" fill="#BA4D3C"/>
<path d="M174.53 64.5097C174.445 64.5087 174.363 64.4767 174.3 64.4197C174.269 64.389 174.244 64.3524 174.227 64.3121C174.21 64.2718 174.202 64.2285 174.202 64.1847C174.202 64.141 174.21 64.0977 174.227 64.0574C174.244 64.017 174.269 63.9804 174.3 63.9497C174.654 63.5477 175.1 63.2363 175.599 63.0414C176.098 62.8466 176.637 62.774 177.17 62.8297C177.257 62.8468 177.334 62.897 177.384 62.9699C177.435 63.0427 177.455 63.1324 177.44 63.2197C177.434 63.2633 177.419 63.3052 177.397 63.343C177.374 63.3807 177.344 63.4136 177.309 63.4397C177.274 63.4658 177.233 63.4846 177.191 63.4949C177.148 63.5052 177.103 63.5068 177.06 63.4997C176.638 63.4587 176.212 63.5201 175.819 63.6785C175.425 63.8369 175.076 64.0877 174.8 64.4097C174.765 64.4446 174.722 64.4715 174.676 64.4888C174.629 64.506 174.58 64.5132 174.53 64.5097Z" fill="#263238"/>
<path d="M161.62 77.4395C162.62 82.6395 163.25 89.8495 159.62 93.3195C159.62 93.3195 161.05 98.5894 170.71 98.5894C181.33 98.5894 175.82 93.9595 175.82 93.9595C171.4 92.5895 171.44 87.5595 172.45 83.5195L161.62 77.4395Z" fill="#CE7A63"/>
<path d="M146.89 93.3399C140.22 94.8699 135.83 112.85 135.83 112.85L147 121.21C151.134 118.242 154.066 113.887 155.26 108.94C157.5 99.9999 153.7 91.7799 146.89 93.3399Z" fill="#01A2BB"/>
<path opacity="0.2" d="M152.6 105.85C148.793 109.902 146.577 115.193 146.36 120.75L146.95 121.21C151.081 118.238 154.012 113.885 155.21 108.94C155.34 108.41 155.46 107.87 155.56 107.35L152.6 105.85Z" fill="black"/>
<path d="M189 100.47C190.44 108.08 192.61 126.14 188.55 156.84C188.512 157.091 188.395 157.324 188.215 157.504C188.035 157.684 187.802 157.802 187.55 157.84C184.066 158.251 180.542 158.204 177.07 157.7C170.07 156.7 164.26 157.13 157.47 157.7C154.476 157.932 151.47 157.976 148.47 157.83C148.309 157.821 148.151 157.78 148.007 157.708C147.862 157.635 147.735 157.534 147.631 157.41C147.528 157.286 147.451 157.142 147.406 156.987C147.362 156.832 147.349 156.67 147.37 156.51C148.42 148.61 152.23 119.24 146.94 93.3696C151.141 92.5642 155.39 92.0298 159.66 91.7696C165.045 91.4544 170.445 91.4544 175.83 91.7696C177.61 91.9296 179.36 92.1896 180.92 92.4596C182.917 92.8259 184.756 93.7865 186.198 95.2157C187.64 96.6449 188.616 98.4761 189 100.47Z" fill="#01A2BB"/>
<path d="M158.24 69.8301C160.06 76.6501 160.79 80.7301 164.99 83.5601C171.32 87.8301 179.19 82.9301 179.44 75.7101C179.66 69.2101 176.64 59.1601 169.33 57.7801C167.719 57.4679 166.054 57.5732 164.495 58.0861C162.936 58.5989 161.533 59.5022 160.422 60.7099C159.31 61.9177 158.526 63.3898 158.144 64.9861C157.762 66.5825 157.795 68.25 158.24 69.8301Z" fill="#CE7A63"/>
<path d="M174.19 71.9199C176.32 76.6199 175.65 80.9199 173 82.9199C170 85.1999 161.59 85.5499 158.4 82.3199C159.61 81.1099 160.28 79.5999 158.73 77.4499C157.18 75.2999 151.49 71.9599 151.38 67.3699C151.27 62.7799 154.31 62.2599 154.13 62.2599C151.44 61.0599 151.61 56.7399 154.57 54.3599C157.71 51.8299 162.81 51.1299 168.88 52.3599C172.71 53.1199 176.47 53.0499 175.81 50.6299C180.32 53.2199 178.08 62.8099 173.72 64.0699C174.41 65.7999 177.43 68.5499 177.43 68.5499C177.43 68.5499 176.69 71.4099 174.19 71.9199Z" fill="#263238"/>
<path d="M154.57 61.3303C154.57 61.3303 152.93 62.3303 148.62 61.0703C149.78 63.2203 154.09 63.3003 155.13 62.8103C156.17 62.3203 154.57 61.3303 154.57 61.3303Z" fill="#263238"/>
<path d="M171.45 70.2004C171.842 71.8075 172.757 73.239 174.05 74.2704C175.76 75.6204 177.05 74.3804 177.05 72.4004C176.98 70.6204 176.05 67.7804 174.11 67.2004C172.17 66.6204 171 68.2604 171.45 70.2004Z" fill="#CE7A63"/>
<path d="M189.27 99.4294C190.16 101.499 191 103.589 191.86 105.669C192.72 107.749 193.56 109.839 194.39 111.929L199.33 124.419C200.16 126.479 200.99 128.529 201.83 130.499L202.47 131.919L202.63 132.269V132.349C202.63 132.349 202.63 132.349 202.57 132.249C202.427 131.999 202.263 131.762 202.08 131.539C201.708 131.129 201.264 130.79 200.77 130.539C200.408 130.337 200.017 130.192 199.61 130.109C199.36 130.053 199.106 130.02 198.85 130.009C198.693 129.999 198.536 129.999 198.38 130.009C198.224 130.02 198.07 130.046 197.92 130.089C197.835 130.105 197.754 130.136 197.68 130.179C197.98 130.122 198.27 130.021 198.54 129.879C198.94 129.699 199.39 129.479 199.83 129.239C201.65 128.239 203.57 127.149 205.48 126.039C207.39 124.929 209.37 123.809 211.35 122.749H211.41C211.965 122.45 212.607 122.354 213.226 122.477C213.844 122.6 214.4 122.935 214.799 123.424C215.197 123.914 215.411 124.526 215.406 125.157C215.401 125.788 215.176 126.397 214.77 126.879C211.779 130.508 208.428 133.825 204.77 136.779C204.28 137.159 203.77 137.539 203.2 137.929C202.521 138.405 201.798 138.814 201.04 139.149C200.716 139.288 200.381 139.401 200.04 139.489C199.755 139.564 199.464 139.614 199.17 139.639C198.94 139.654 198.71 139.654 198.48 139.639C198.143 139.634 197.808 139.593 197.48 139.519C197.009 139.415 196.555 139.247 196.13 139.019C195.569 138.72 195.07 138.316 194.66 137.829C194.452 137.582 194.265 137.317 194.1 137.039L194.01 136.869L193.95 136.769L193.73 136.359C193.42 135.809 193.16 135.289 192.87 134.749C191.78 132.649 190.79 130.579 189.87 128.499C187.94 124.349 186.13 120.209 184.36 116.049C183.48 113.969 182.613 111.883 181.76 109.789C180.91 107.699 180.06 105.609 179.25 103.509C178.71 102.183 178.719 100.697 179.275 99.3779C179.831 98.0585 180.889 97.0142 182.215 96.4744C183.541 95.9347 185.027 95.9439 186.347 96.4999C187.666 97.056 188.71 98.1134 189.25 99.4394L189.27 99.4294Z" fill="#CF7A64"/>
<path d="M215.37 118.61C214.093 119.342 212.973 120.318 212.074 121.483C211.174 122.648 210.514 123.979 210.13 125.4L212.6 128.57L218 126.9C218.428 126.765 218.797 126.49 219.05 126.12L221.82 122.03C222.036 121.632 222.133 121.18 222.101 120.729C222.07 120.277 221.909 119.844 221.64 119.48L218.71 115.54L215.37 118.61Z" fill="#CE7A63"/>
<path d="M174.59 104.419C175.21 112.349 183.94 122.709 183.94 122.709L196.25 113.479C196.25 113.479 194.38 102.329 188 96.2794C180.11 88.8094 174 96.9994 174.59 104.419Z" fill="#01A2BB"/>
<path d="M177.58 91.7397C176.44 88.3997 163.33 87.8197 155.43 88.6197C147.53 89.4197 151.51 95.5697 152.84 96.4297C149.26 97.7597 151.17 104.08 157.84 107.18C164.51 110.28 179 95.7697 177.58 91.7397Z" fill="#263238"/>
</g>
<defs>
<clipPath id="clip0_438_6304">
<rect width="370" height="355" fill="white"/>
</clipPath>
</defs>
</svg>
