<svg width="36" height="37" viewBox="0 0 36 37" fill="none" xmlns="http://www.w3.org/2000/svg">
<path d="M0 8.07012C0 4.09367 3.22355 0.870117 7.2 0.870117H28.8C32.7764 0.870117 36 4.09367 36 8.07012V29.6701C36 33.6466 32.7764 36.8701 28.8 36.8701H7.2C3.22355 36.8701 0 33.6466 0 29.6701V8.07012Z" fill="white"/>
<path d="M26 25.0923V23.6293C26 22.9023 25.5574 22.2486 24.8825 21.9787L23.0744 21.2554C22.2159 20.912 21.2375 21.284 20.824 22.111L20.6667 22.4257C20.6667 22.4257 18.4444 21.9812 16.6667 20.2035C14.8889 18.4257 14.4444 16.2035 14.4444 16.2035L14.7591 16.0461C15.5861 15.6326 15.9581 14.6542 15.6147 13.7958L14.8915 11.9876C14.6215 11.3127 13.9678 10.8701 13.2408 10.8701H11.7778C10.7959 10.8701 10 11.6661 10 12.6479C10 20.5026 16.3675 26.8701 24.2222 26.8701C25.2041 26.8701 26 26.0742 26 25.0923Z" fill="#043851"/>
</svg>
