<svg width="36" height="37" viewBox="0 0 36 37" fill="none" xmlns="http://www.w3.org/2000/svg">
<path d="M0 8.07012C0 4.09367 3.22355 0.870117 7.2 0.870117H28.8C32.7764 0.870117 36 4.09367 36 8.07012V29.6701C36 33.6466 32.7764 36.8701 28.8 36.8701H7.2C3.22355 36.8701 0 33.6466 0 29.6701V8.07012Z" fill="white"/>
<path d="M12.5273 9.87012C10.5876 9.87012 9 11.4577 9 13.3974V24.3434C9 26.2831 10.5875 27.8701 12.5273 27.8701H23.4732C25.413 27.8701 27 26.2831 27 24.3434V13.3974C27 11.4577 25.413 9.87012 23.4732 9.87012H12.5273ZM13.4145 12.8405C14.3446 12.8405 14.9175 13.4511 14.9351 14.2536C14.9351 15.0385 14.3445 15.6663 13.3965 15.6663H13.3791C12.4667 15.6663 11.877 15.0386 11.877 14.2536C11.877 13.4511 12.4845 12.8405 13.4145 12.8405H13.4145ZM21.4294 16.5917C23.2181 16.5917 24.559 17.7608 24.559 20.2732V24.9633H21.8407V20.5876C21.8407 19.488 21.4473 18.7379 20.4635 18.7379C19.7125 18.7379 19.2649 19.2435 19.0683 19.7319C18.9965 19.9067 18.9789 20.1508 18.9789 20.3952V24.9633H16.2606C16.2606 24.9633 16.2962 17.551 16.2606 16.7835H18.9795V17.9419C19.3407 17.3845 19.9869 16.5917 21.4294 16.5917V16.5917ZM12.0373 16.7841H14.7557V24.9633H12.0373V16.7841Z" fill="#043851"/>
</svg>
