<svg width="36" height="37" viewBox="0 0 36 37" fill="none" xmlns="http://www.w3.org/2000/svg">
<path d="M0 8.07012C0 4.09367 3.22355 0.870117 7.2 0.870117H28.8C32.7764 0.870117 36 4.09367 36 8.07012V29.6701C36 33.6466 32.7764 36.8701 28.8 36.8701H7.2C3.22355 36.8701 0 33.6466 0 29.6701V8.07012Z" fill="white"/>
<path d="M19.1531 18.8701C19.1531 21.6312 16.8806 23.8701 14.076 23.8701C13.4103 23.871 12.7509 23.7424 12.1356 23.4916C11.5202 23.2408 10.9609 22.8727 10.4895 22.4084C10.0182 21.9441 9.64403 21.3927 9.38846 20.7856C9.13288 20.1785 9.00089 19.5276 9 18.8701C9 16.1079 11.2725 13.8701 14.076 13.8701C14.7418 13.8691 15.4013 13.9976 16.0168 14.2484C16.6323 14.4991 17.1917 14.8671 17.6632 15.3314C18.1347 15.7957 18.5089 16.3472 18.7646 16.9544C19.0202 17.5616 19.1522 18.2125 19.1531 18.8701ZM24.7219 18.8701C24.7219 21.4701 23.5856 23.5768 22.1839 23.5768C20.7821 23.5768 19.6459 21.469 19.6459 18.8701C19.6459 16.2701 20.7821 14.1635 22.1839 14.1635C23.5856 14.1635 24.7219 16.2712 24.7219 18.8701ZM27 18.8701C27 21.199 26.6006 23.0868 26.1068 23.0868C25.614 23.0868 25.2146 21.1979 25.2146 18.8701C25.2146 16.5412 25.614 14.6535 26.1079 14.6535C26.6006 14.6535 27 16.5412 27 18.8701Z" fill="#043851"/>
</svg>
