<svg width="36" height="37" viewBox="0 0 36 37" fill="none" xmlns="http://www.w3.org/2000/svg">
<path d="M0 8.07012C0 4.09367 3.22355 0.870117 7.2 0.870117H28.8C32.7764 0.870117 36 4.09367 36 8.07012V29.6701C36 33.6466 32.7764 36.8701 28.8 36.8701H7.2C3.22355 36.8701 0 33.6466 0 29.6701V8.07012Z" fill="white"/>
<path d="M24 15.5186C23.5625 15.7139 23.0898 15.8467 22.582 15.917C23.1133 15.6045 23.4766 15.1475 23.6719 14.5459C23.1641 14.8428 22.6406 15.042 22.1016 15.1436C21.625 14.6279 21.0273 14.3701 20.3086 14.3701C19.6289 14.3701 19.0488 14.6104 18.5684 15.0908C18.0879 15.5713 17.8477 16.1514 17.8477 16.8311C17.8477 17.0576 17.8672 17.2451 17.9062 17.3936C16.8984 17.3389 15.9531 17.085 15.0703 16.6318C14.1875 16.1787 13.4375 15.5732 12.8203 14.8154C12.5938 15.2061 12.4805 15.6201 12.4805 16.0576C12.4805 16.9482 12.8359 17.6318 13.5469 18.1084C13.1797 18.1006 12.7891 17.999 12.375 17.8037V17.8271C12.375 18.4131 12.5703 18.9346 12.9609 19.3916C13.3516 19.8486 13.832 20.1318 14.4023 20.2412C14.1758 20.3037 13.9766 20.335 13.8047 20.335C13.7031 20.335 13.5508 20.3193 13.3477 20.2881C13.5117 20.7803 13.8027 21.1865 14.2207 21.5068C14.6387 21.8271 15.1133 21.9912 15.6445 21.999C14.7383 22.7021 13.7188 23.0537 12.5859 23.0537C12.3828 23.0537 12.1875 23.042 12 23.0186C13.1562 23.7529 14.4141 24.1201 15.7734 24.1201C16.6484 24.1201 17.4688 23.9814 18.2344 23.7041C19 23.4268 19.6562 23.0557 20.2031 22.5908C20.75 22.126 21.2207 21.5908 21.6152 20.9854C22.0098 20.3799 22.3027 19.7471 22.4941 19.0869C22.6855 18.4268 22.7812 17.7686 22.7812 17.1123C22.7812 16.9717 22.7773 16.8662 22.7695 16.7959C23.2617 16.4443 23.6719 16.0186 24 15.5186ZM27 13.2451V24.4951C27 25.4248 26.6699 26.2197 26.0098 26.8799C25.3496 27.54 24.5547 27.8701 23.625 27.8701H12.375C11.4453 27.8701 10.6504 27.54 9.99023 26.8799C9.33008 26.2197 9 25.4248 9 24.4951V13.2451C9 12.3154 9.33008 11.5205 9.99023 10.8604C10.6504 10.2002 11.4453 9.87012 12.375 9.87012H23.625C24.5547 9.87012 25.3496 10.2002 26.0098 10.8604C26.6699 11.5205 27 12.3154 27 13.2451Z" fill="#043851"/>
</svg>
