<svg width="36" height="37" viewBox="0 0 36 37" fill="none" xmlns="http://www.w3.org/2000/svg">
<path d="M0 8.07012C0 4.09367 3.22355 0.870117 7.2 0.870117H28.8C32.7764 0.870117 36 4.09367 36 8.07012V29.6701C36 33.6466 32.7764 36.8701 28.8 36.8701H7.2C3.22355 36.8701 0 33.6466 0 29.6701V8.07012Z" fill="white"/>
<path d="M12.2867 9.87012C10.466 9.87012 9 11.3361 9 13.1568V24.5834C9 26.4041 10.466 27.8701 12.2867 27.8701H18.4798V20.8332H16.6191V18.2997H18.4798V16.1352C18.4798 14.4347 19.5792 12.8733 22.1119 12.8733C23.1373 12.8733 23.8956 12.9717 23.8956 12.9717L23.8359 15.3376C23.8359 15.3376 23.0626 15.3303 22.2187 15.3303C21.3054 15.3303 21.159 15.7511 21.159 16.4497V18.2998H23.9085L23.7887 20.8332H21.159V27.8701H23.7133C25.534 27.8701 27 26.4041 27 24.5834V13.1568C27 11.3361 25.534 9.87014 23.7133 9.87014H12.2867L12.2867 9.87012Z" fill="#043851"/>
</svg>
