<svg width="36" height="37" viewBox="0 0 36 37" fill="none" xmlns="http://www.w3.org/2000/svg">
<path d="M0 8.07012C0 4.09367 3.22355 0.870117 7.2 0.870117H28.8C32.7764 0.870117 36 4.09367 36 8.07012V29.6701C36 33.6466 32.7764 36.8701 28.8 36.8701H7.2C3.22355 36.8701 0 33.6466 0 29.6701V8.07012Z" fill="white"/>
<path d="M26.6231 14.0667C26.5212 13.6428 26.3227 13.259 26.0487 12.9562C25.7669 12.644 25.4216 12.4207 25.0453 12.3073C23.637 11.8745 17.9948 11.8745 17.9948 11.8745C15.6426 11.8432 13.291 11.9805 10.9532 12.2854C10.5769 12.4072 10.2322 12.6355 9.94984 12.95C9.67237 13.2613 9.4714 13.6452 9.36641 14.0658C9.11422 15.6501 8.99168 17.2588 9.00046 18.8701C8.99146 20.48 9.1137 22.0881 9.36641 23.6744C9.46915 24.0932 9.66937 24.4754 9.94759 24.7841C10.2258 25.0928 10.5723 25.3157 10.9532 25.4338C12.3803 25.8658 17.9948 25.8658 17.9948 25.8658C20.3499 25.897 22.7045 25.7598 25.0453 25.4548C25.4216 25.3414 25.7669 25.1181 26.0487 24.8059C26.3226 24.5031 26.5209 24.1193 26.6223 23.6954C26.8811 22.1117 27.007 20.5024 26.998 18.8902C27.0175 17.2713 26.8918 15.6544 26.6231 14.0658V14.0667ZM16.201 21.8643V15.8768L20.8954 18.871L16.201 21.8643Z" fill="#043851"/>
</svg>
