<svg width="36" height="37" viewBox="0 0 36 37" fill="none" xmlns="http://www.w3.org/2000/svg">
<path d="M0 8.07012C0 4.09367 3.22355 0.870117 7.2 0.870117H28.8C32.7764 0.870117 36 4.09367 36 8.07012V29.6701C36 33.6466 32.7764 36.8701 28.8 36.8701H7.2C3.22355 36.8701 0 33.6466 0 29.6701V8.07012Z" fill="white"/>
<path d="M17.9976 15.8688C16.345 15.8688 14.9964 17.2175 14.9964 18.8701C14.9964 20.5227 16.345 21.8714 17.9976 21.8714C19.6502 21.8714 20.9988 20.5227 20.9988 18.8701C20.9988 17.2175 19.6502 15.8688 17.9976 15.8688ZM26.999 18.8701C26.999 17.6273 27.0103 16.3957 26.9405 15.1551C26.8707 13.7141 26.5419 12.4353 25.4883 11.3816C24.4323 10.3256 23.1557 9.99912 21.7148 9.92933C20.472 9.85953 19.2404 9.87079 17.9998 9.87079C16.757 9.87079 15.5255 9.85953 14.2849 9.92933C12.8439 9.99912 11.5651 10.3278 10.5114 11.3816C9.45547 12.4375 9.129 13.7141 9.05921 15.1551C8.98941 16.3979 9.00067 17.6295 9.00067 18.8701C9.00067 20.1107 8.98941 21.3445 9.05921 22.5851C9.129 24.0261 9.45772 25.305 10.5114 26.3587C11.5674 27.4146 12.8439 27.7411 14.2849 27.8109C15.5277 27.8807 16.7593 27.8694 17.9998 27.8694C19.2426 27.8694 20.4742 27.8807 21.7148 27.8109C23.1557 27.7411 24.4346 27.4124 25.4883 26.3587C26.5442 25.3027 26.8707 24.0261 26.9405 22.5851C27.0125 21.3445 26.999 20.113 26.999 18.8701ZM17.9976 23.488C15.4422 23.488 13.3798 21.4256 13.3798 18.8701C13.3798 16.3146 15.4422 14.2522 17.9976 14.2522C20.553 14.2522 22.6154 16.3146 22.6154 18.8701C22.6154 21.4256 20.553 23.488 17.9976 23.488ZM22.8045 15.1416C22.2078 15.1416 21.726 14.6598 21.726 14.0631C21.726 13.4665 22.2078 12.9846 22.8045 12.9846C23.4011 12.9846 23.8829 13.4665 23.8829 14.0631C23.8831 14.2048 23.8554 14.3451 23.8012 14.476C23.7471 14.607 23.6677 14.7259 23.5675 14.8261C23.4673 14.9263 23.3483 15.0057 23.2174 15.0599C23.0865 15.114 22.9462 15.1418 22.8045 15.1416Z" fill="#043851"/>
</svg>
