<svg width="172" height="126" viewBox="0 0 172 126" fill="none" xmlns="http://www.w3.org/2000/svg">
<g clip-path="url(#clip0_170_15194)">
<path d="M148.454 18.301L147.685 17.419C141.223 9.93083 129.544 5.41793 117.225 5.95301C115.638 6.02334 114.061 6.17664 112.506 6.41165C101.308 8.09627 91.5642 14.0556 87.5263 21.682C85.152 26.1684 84.4874 31.334 80.0023 34.8944C74.1503 39.5278 64.1768 39.6748 55.4197 39.4808C46.6626 39.2867 36.6975 39.4543 30.858 44.1054C27.2005 47.0189 26.0385 51.1614 26.3353 55.0657C27.1169 65.3969 37.3496 74.6344 50.3661 79.2266C63.3826 83.8189 78.7107 84.2246 92.9561 82.2107C112.916 79.3795 131.893 71.6091 143.3 59.608C154.707 47.6069 157.591 31.2664 148.454 18.301Z" fill="#004A6E"/>
<path d="M76.904 23.449C78.3256 19.1622 74.5373 14.8764 68.4424 13.8764C62.3475 12.8765 56.2542 15.5411 54.8325 19.8279C53.4108 24.1147 57.1992 28.4005 63.294 29.4004C69.3889 30.4003 75.4823 27.7358 76.904 23.449Z" fill="#004A6E"/>
<path d="M44.4012 98.7598C49.0553 98.7598 52.8281 96.1062 52.8281 92.8328C52.8281 89.5594 49.0553 86.9058 44.4012 86.9058C39.7472 86.9058 35.9744 89.5594 35.9744 92.8328C35.9744 96.1062 39.7472 98.7598 44.4012 98.7598Z" fill="#004A6E"/>
<path d="M157.512 65.6233C159.839 65.6233 161.725 64.2965 161.725 62.6598C161.725 61.0231 159.839 59.6963 157.512 59.6963C155.185 59.6963 153.299 61.0231 153.299 62.6598C153.299 64.2965 155.185 65.6233 157.512 65.6233Z" fill="#004A6E"/>
<path d="M143.618 59.4733C146.544 57.0184 148.237 56.3422 150.364 54.6782C152.153 53.2728 153.976 51.8322 155.029 50.0947C156.083 48.3572 156.237 46.2374 154.753 44.6645C152.045 44.2797 149.306 44.0097 146.552 43.856C143.054 43.7208 141.428 43.7414 141.428 43.7414L139.488 47.8574L142.991 48.8628L135.818 53.4287L130.154 58.0621L132.988 63.8098L136.8 64.0568L143.618 59.4733Z" fill="#FFBE9D"/>
<path d="M148.63 45.0645C148.346 45.3074 148.036 45.5345 147.702 45.7436L145.403 47.3312C144.5 47.9515 143.672 48.5072 143.053 48.8923C142.735 49.1096 142.389 49.3063 142.021 49.4803C142.307 49.2396 142.617 49.0137 142.949 48.8041L145.248 47.2136C146.151 46.5933 146.978 46.0376 147.597 45.6554C147.916 45.4379 148.262 45.2402 148.63 45.0645Z" fill="#EB996E"/>
<path d="M153.817 46.1519C153.788 46.1695 153.621 46.0401 153.286 45.902C152.856 45.7212 152.357 45.6381 151.857 45.6638C151.357 45.7016 150.885 45.8439 150.502 46.0725C150.21 46.2489 150.084 46.3988 150.047 46.387C150.009 46.3753 150.109 46.2048 150.398 45.9931C150.779 45.7156 151.291 45.5444 151.837 45.5109C152.384 45.4774 152.93 45.5839 153.374 45.8108C153.708 45.9813 153.834 46.143 153.817 46.1519Z" fill="#EB996E"/>
<path d="M141.06 45.6728C141.364 45.6 141.645 45.4848 141.884 45.3339C142.124 45.183 142.317 44.9996 142.453 44.7948C142.59 44.59 142.666 44.3679 142.677 44.1419C142.688 43.9159 142.634 43.6906 142.519 43.4796C142.22 43.108 141.872 42.7575 141.478 42.433C141.283 42.2304 141.118 42.0147 140.985 41.7891L140.408 40.5425C140.019 39.4959 139.697 38.4375 138.539 37.776C137.49 37.188 136.031 37.088 134.827 36.6617C133.945 36.353 133.206 35.8709 132.34 35.5387C131.475 35.2064 130.367 35.0447 129.527 35.4093C129.038 35.6239 128.691 35.9973 128.215 36.2002C127.191 36.6353 125.728 36.3119 124.791 36.8323C124.03 37.2586 123.955 38.0494 123.412 38.6139C122.818 39.2254 122.455 39.7899 121.51 40.1309C121.055 40.2867 120.671 40.5302 120.405 40.8331C120.139 41.136 120 41.4859 120.005 41.842C120.005 42.4947 119.871 42.7916 119.846 43.4443C119.755 43.9327 119.537 44.405 119.203 44.8379C118.935 45.273 118.429 46.9723 118.981 47.2487L125.284 49.2449C127.278 50.6209 129.339 52.0321 131.922 52.7729L132.42 53.2433C131.826 53.2963 138.727 52.8112 139.881 49.8917C140.002 49.4833 140.247 49.0982 140.6 48.7628C141.02 48.4607 141.386 48.1241 141.691 47.7602C141.916 47.4105 141.976 47.0192 141.863 46.6436C141.749 46.268 141.468 45.9279 141.06 45.6728Z" fill="#263238"/>
<path d="M134.401 50.5917C135.74 49.5439 136.946 48.4155 138.004 47.2195C139.07 46.0181 139.693 44.649 139.818 43.2358C139.818 43.0241 139.722 41.5394 139.434 41.4718C139.225 41.4277 139.062 42.736 138.886 42.8271C137.281 43.762 136.115 45.0164 135.542 46.4257C134.948 47.7788 134.568 49.174 134.409 50.5858" fill="#263238"/>
<path d="M121.936 59.6466C124.833 60.4345 130.672 56.9624 130.672 56.9624L137.49 45.6728C139.551 42.4388 138.602 38.9108 133.966 37.5613L133.548 37.4555C131.418 36.93 129.085 36.9882 127.014 37.6186C124.942 38.2491 123.284 39.4054 122.371 40.8571C120.607 43.6559 118.709 46.7665 117.965 48.3188C116.431 51.5322 120.732 53.1521 120.732 53.1521C120.732 53.1521 120.335 53.8842 119.809 54.8103C118.634 56.8859 120.766 59.3849 121.957 59.6466H121.936Z" fill="#FFBE9D"/>
<path d="M120.712 53.1523C122.815 53.665 125.084 53.7426 127.249 53.3758C127.249 53.3758 124.649 55.3485 120.252 53.9432L120.712 53.1523Z" fill="#EB996E"/>
<path d="M121.798 43.694C121.853 43.7734 122.471 43.6381 123.169 43.8116C123.867 43.985 124.256 44.3555 124.365 44.3143C124.473 44.2732 124.386 44.1703 124.219 43.9997C123.989 43.7783 123.668 43.612 123.299 43.5235C122.937 43.4334 122.543 43.4262 122.174 43.5029C121.899 43.5676 121.773 43.6558 121.798 43.694Z" fill="#263238"/>
<path d="M128.67 45.1759C128.72 45.2553 129.339 45.1201 130.037 45.2935C130.735 45.467 131.128 45.8404 131.232 45.7992C131.337 45.7581 131.253 45.6522 131.086 45.4846C130.858 45.2616 130.536 45.0941 130.167 45.0054C129.804 44.9161 129.41 44.9099 129.042 44.9878C128.77 45.0495 128.641 45.1407 128.67 45.1759Z" fill="#263238"/>
<path d="M125.021 47.4693C124.693 47.2983 124.336 47.1562 123.959 47.046C123.788 46.9901 123.629 46.9225 123.641 46.8314C123.692 46.6977 123.798 46.5779 123.947 46.4874L124.95 45.6612C126.363 44.4852 127.458 43.4915 127.378 43.4533C127.299 43.4151 126.124 44.3353 124.703 45.5113L123.721 46.3463C123.531 46.4694 123.411 46.6364 123.382 46.8167C123.386 46.8673 123.405 46.9167 123.44 46.9611C123.475 47.0054 123.524 47.0435 123.583 47.0724C123.673 47.1156 123.77 47.1511 123.871 47.1783C124.235 47.3106 124.621 47.4085 125.021 47.4693Z" fill="#263238"/>
<path d="M126.91 48.3188C126.797 48.2864 126.534 48.8215 125.694 49.0391C124.854 49.2566 124.076 49.0009 124.022 49.0744C123.968 49.1479 124.151 49.2214 124.49 49.3125C124.933 49.4255 125.418 49.4255 125.861 49.3125C126.286 49.2033 126.634 48.9818 126.831 48.6951C126.981 48.4805 126.965 48.3188 126.91 48.3188Z" fill="#263238"/>
<path d="M130.442 42.3241C130.442 42.474 131.174 42.5828 131.96 42.8533C132.746 43.1238 133.331 43.4413 133.498 43.3531C133.577 43.306 133.523 43.1532 133.318 42.9562C133.046 42.7047 132.692 42.503 132.286 42.3682C131.883 42.2295 131.439 42.16 130.99 42.1653C130.647 42.183 130.442 42.2506 130.442 42.3241Z" fill="#263238"/>
<path d="M123.763 40.8601C123.83 41.0042 124.369 41.0042 124.95 41.1541C125.531 41.3041 125.982 41.4922 126.154 41.404C126.233 41.3599 126.212 41.2276 126.049 41.0689C125.827 40.8689 125.522 40.723 125.176 40.6514C124.833 40.5732 124.465 40.5732 124.122 40.6514C123.859 40.6955 123.733 40.7925 123.763 40.8601Z" fill="#263238"/>
<path d="M135.939 47.9512C136.031 47.9512 139.392 48.0717 138.205 50.2356C137.018 52.3994 134.171 51.1175 134.2 51.0499C134.229 50.9823 135.939 47.9512 135.939 47.9512Z" fill="#FFBE9D"/>
<path d="M135.592 50.4855C135.592 50.4855 135.63 50.5267 135.705 50.5796C135.757 50.6161 135.819 50.6451 135.887 50.6647C135.956 50.6844 136.029 50.6944 136.102 50.6942C136.474 50.6942 136.938 50.4002 137.176 50.0239C137.287 49.8381 137.335 49.637 137.319 49.4359C137.328 49.3604 137.31 49.2845 137.268 49.2148C137.226 49.1451 137.16 49.0838 137.076 49.0361C137.021 49.0081 136.954 48.9946 136.886 48.9978C136.818 49.001 136.754 49.0208 136.704 49.0537C136.629 49.1037 136.625 49.1507 136.608 49.1507C136.591 49.1507 136.562 49.0978 136.633 49.0126C136.68 48.9644 136.75 48.9291 136.83 48.9126C136.883 48.9009 136.94 48.8969 136.996 48.9009C137.052 48.905 137.106 48.917 137.156 48.9361C137.271 48.9894 137.365 49.0618 137.431 49.1469C137.496 49.2321 137.531 49.3273 137.532 49.4242C137.56 49.6469 137.51 49.871 137.385 50.0768C137.126 50.509 136.587 50.8295 136.094 50.8001C136.002 50.7944 135.913 50.7743 135.833 50.7412C135.754 50.7082 135.686 50.663 135.634 50.609C135.567 50.5384 135.58 50.4855 135.592 50.4855Z" fill="#EB996E"/>
<path d="M126.346 37.8379C125.957 37.5086 128.081 36.7912 129.519 36.7442C131.692 36.6677 134.71 37.0911 136.207 37.9025C138.021 38.8816 139.317 40.0722 139.609 41.6657C139.844 43.2737 139.469 44.8968 138.522 46.3697C138.29 46.8354 137.885 47.2486 137.348 47.5663C136.65 47.925 135.676 47.9955 135.325 48.6629C135.269 48.7853 135.179 48.8987 135.061 48.9966C134.943 49.0945 134.798 49.175 134.635 49.2333C133.841 49.4949 133.381 48.9099 133.281 48.4277C133.084 47.3958 133.577 46.3697 134.062 45.3819C134.355 44.6693 134.811 43.995 135.412 43.3856C135.764 43.0681 136.198 42.7976 136.524 42.4654C136.702 42.3067 136.829 42.1229 136.896 41.9265C136.963 41.7301 136.969 41.5258 136.913 41.3276C136.873 41.2425 136.822 41.1599 136.763 41.0807C136.484 40.6995 136.066 40.3774 135.552 40.1475C135.038 39.9176 134.446 39.7881 133.837 39.7724C131.868 39.7224 128.557 39.5401 128.022 38.9139C127.249 38.0142 127.186 37.5527 127.186 37.5527L126.346 37.8379Z" fill="#263238"/>
<path d="M136.223 37.5673C135.503 37.1233 134.664 36.7846 133.755 36.5711C132.847 36.3576 131.887 36.2735 130.931 36.3237C130.424 36.3421 129.927 36.4327 129.471 36.5898C129.015 36.747 128.609 36.9675 128.277 37.238C127.663 37.8054 127.608 38.708 128.34 39.1931L128.386 39.2372C129.519 39.9105 130.438 40.0251 131.922 40.0692C133.176 40.1104 134.43 39.9046 135.659 39.9487C136.995 39.9955 138.281 40.3233 139.35 40.8895C138.742 39.6078 137.663 38.4618 136.223 37.5673Z" fill="#263238"/>
<path d="M140.642 42.2124C140.493 42.4169 140.293 42.6011 140.052 42.7563C139.502 43.1555 138.857 43.4839 138.146 43.7265C137.437 43.9706 136.674 44.1268 135.889 44.1881C135.567 44.2259 135.237 44.2259 134.915 44.1881C137.114 44.0775 139.167 43.3714 140.642 42.2183V42.2124Z" fill="#455A64"/>
<path d="M141.678 42.9179C141.657 43.0052 141.613 43.089 141.549 43.1649C141.403 43.3821 141.229 43.5898 141.03 43.7852C140.375 44.4382 139.5 44.9673 138.485 45.3258C137.465 45.6812 136.337 45.8568 135.199 45.8374C134.858 45.8296 134.518 45.8021 134.183 45.755C134.058 45.7412 133.937 45.7134 133.824 45.6727C133.824 45.6433 134.351 45.7256 135.203 45.7168C136.308 45.7082 137.395 45.5243 138.384 45.1788C139.365 44.8256 140.222 44.3235 140.892 43.7088C141.423 43.2472 141.645 42.9032 141.678 42.9179Z" fill="#455A64"/>
<path d="M101.099 66.8409L86.3016 55.9629L83.1206 59.4909L87.0456 64.7653C87.0456 64.7653 91.3218 69.6927 93.5246 71.4273C95.7275 73.1619 95.8863 72.7885 95.8863 72.7885L101.099 66.8409Z" fill="#FFBE9D"/>
<path d="M80.8342 52.8173C80.7841 52.7937 78.1925 52.5233 77.16 52.4204C76.8945 52.3918 76.6233 52.4337 76.3993 52.538L74.8443 53.2641L73.5694 55.1663L73.9498 55.3457L73.561 57.0626C73.6397 57.129 73.7398 57.1813 73.8529 57.2151C73.9661 57.2489 74.0891 57.2632 74.2117 57.2569C74.3343 57.2505 74.4529 57.2238 74.5579 57.1787C74.6628 57.1337 74.751 57.0717 74.815 56.9979C75.2515 56.5963 75.6296 56.1649 75.9436 55.7102L77.6156 55.6896L77.5404 55.7984L75.8141 56.1071L75.2372 57.1391L75.7514 58.2063L76.9134 58.953L77.415 58.9383L78.3597 59.3382C78.3597 59.3382 79.3169 58.7502 78.506 58.1622C78.506 58.1622 79.2876 58.7031 79.7182 58.4915L83.2294 59.6145L85.9924 57.7388L86.7406 56.2453C86.7406 56.2453 82.339 53.2112 82.0715 53.0672C81.6778 52.9435 81.2613 52.8593 80.8342 52.8173Z" fill="#FFBE9D"/>
<path d="M78.5226 58.1442C78.4892 58.1442 78.5226 57.9943 78.4933 57.7708C78.4367 57.4813 78.226 57.2176 77.904 57.0329L77.8413 56.9976L77.7786 56.9653L77.7995 56.9123C77.9212 56.643 77.9371 56.3555 77.8454 56.0803C77.7901 55.9659 77.7454 55.849 77.7117 55.7305C77.7326 55.7305 77.8747 55.8275 77.9876 56.0509C78.1334 56.3443 78.1407 56.6629 78.0085 56.9594L77.9667 56.8741L78.0377 56.9123C78.2207 57.0143 78.3698 57.1432 78.4745 57.29C78.5792 57.4368 78.637 57.5979 78.6438 57.762C78.648 58.0207 78.5435 58.1501 78.5226 58.1442Z" fill="#EB996E"/>
<path d="M77.2728 58.9381C77.4047 58.8331 77.5069 58.7114 77.5738 58.5794C77.6185 58.4146 77.6086 58.2448 77.5448 58.0832C77.481 57.9215 77.365 57.7724 77.206 57.6474C77.114 57.5563 77.0137 57.471 76.9175 57.3858L76.8799 57.3534V57.3123C76.9431 57.1918 76.9589 57.0617 76.9258 56.9354C76.8927 56.8092 76.8119 56.6916 76.6918 56.5949C76.5079 56.4479 76.3323 56.4038 76.3449 56.3832C76.3574 56.3626 76.5455 56.3832 76.7921 56.5273C76.9499 56.6326 77.061 56.7676 77.1122 56.9163C77.1633 57.0649 77.1523 57.2208 77.0805 57.3652L77.0596 57.2917C77.16 57.374 77.2603 57.4622 77.3606 57.5563C77.5392 57.7194 77.6687 57.9065 77.741 58.1061C77.8006 58.2747 77.786 58.452 77.6992 58.6147C77.5612 58.9028 77.2728 58.9557 77.2728 58.9381Z" fill="#EB996E"/>
<path d="M77.7785 56.9771C77.812 57.0124 77.6573 57.1212 77.4358 57.2182C77.2142 57.3152 77.0178 57.3682 76.9801 57.3299C76.9425 57.2917 77.1014 57.1859 77.3229 57.0889C77.5444 56.9918 77.7451 56.9419 77.7785 56.9771Z" fill="#EB996E"/>
<path d="M78.3346 58.3151C78.2719 58.3151 78.1799 58.1063 77.9166 57.8976C77.6533 57.6888 77.3941 57.5801 77.415 57.5389C77.4359 57.4977 77.8037 57.5565 78.088 57.8006C78.3722 58.0446 78.3931 58.3151 78.3346 58.3151Z" fill="#EB996E"/>
<path d="M79.4129 58.3148C79.3544 58.2942 79.6971 57.7503 79.8309 57.03C79.9647 56.3097 79.8309 55.7246 79.8894 55.7188C80.1091 56.145 80.1639 56.6046 80.0483 57.0506C79.9979 57.5039 79.7788 57.9399 79.4129 58.3148Z" fill="#EB996E"/>
<path d="M75.8392 54.1075C75.8685 54.1075 75.8392 54.2221 75.7514 54.3868C75.6405 54.6071 75.4733 54.8113 75.2582 54.9895C75.0337 55.1735 74.7246 55.2963 74.3846 55.3364C74.117 55.3599 73.9666 55.3041 73.9666 55.2864C73.9666 55.2688 74.1254 55.2864 74.3469 55.2306C74.6361 55.1658 74.8948 55.0469 75.0952 54.8866C75.292 54.7178 75.4642 54.5356 75.6093 54.3427C75.7221 54.1986 75.8141 54.0987 75.8392 54.1075Z" fill="#EB996E"/>
<path d="M77.6825 55.4718C77.6449 55.4395 77.7327 55.3483 77.8246 55.2395C77.9166 55.1308 77.996 55.0367 78.0587 55.0455C78.1214 55.0543 78.1298 55.1866 78.0127 55.3219C77.8957 55.4571 77.7159 55.5071 77.6825 55.4718Z" fill="#EB996E"/>
<path d="M66.8647 52.4171L66.9065 56.8712C66.9065 58.3677 75.4755 58.3177 75.3669 56.8301C75.3669 56.7419 75.3251 52.376 75.3251 52.376L66.8647 52.4171Z" fill="#455A64"/>
<path d="M75.1159 53.1582C75.6212 53.1009 76.1363 53.1009 76.6416 53.1582C77.0154 53.1834 77.3611 53.3086 77.6072 53.5081C77.756 53.6865 77.8353 53.8893 77.8371 54.0961C77.9247 54.4847 77.8686 54.8826 77.6741 55.2515C77.4388 55.577 77.0415 55.8302 76.558 55.963C76.0806 56.0929 75.5676 56.1452 75.0574 56.1159C75.0574 55.8895 75.0574 55.6631 75.0574 55.4367C75.358 55.4475 75.6595 55.4347 75.9561 55.3985C76.2568 55.3639 76.533 55.2605 76.7419 55.1045C77.0342 54.8158 77.1528 54.4577 77.0721 54.1079C77.0742 53.9685 77.0191 53.8317 76.9133 53.7139C76.8194 53.6447 76.7044 53.5912 76.577 53.5576C76.4496 53.524 76.3131 53.5111 76.1776 53.5199C75.8189 53.52 75.4638 53.57 75.1326 53.6669" fill="#455A64"/>
<path d="M72.1859 43.3353C72.1351 43.3656 72.0724 43.3841 72.0061 43.3882C71.9094 43.3912 71.8132 43.3775 71.7257 43.3483C71.6383 43.319 71.5624 43.2752 71.5045 43.2207C71.4131 43.1445 71.3537 43.0518 71.3331 42.9531C71.3198 42.8926 71.3269 42.8308 71.3537 42.7726C71.3806 42.7144 71.4265 42.6614 71.4878 42.618C71.6394 42.5174 71.8343 42.4553 72.0418 42.4414C72.2492 42.4276 72.4573 42.4628 72.6331 42.5415C72.8364 42.6433 72.9932 42.7845 73.0845 42.9479C73.1758 43.1113 73.1976 43.2898 73.1473 43.4617C73.0336 43.8426 72.7717 44.1938 72.3907 44.476C71.991 44.7679 71.6657 45.1061 71.4293 45.4756C71.324 45.6733 71.298 45.8875 71.354 46.0949C71.41 46.3023 71.546 46.4949 71.747 46.6516C72.165 46.9839 72.7251 47.2044 73.1682 47.5336C73.3972 47.6939 73.5529 47.8987 73.6154 48.1216C73.6678 48.3379 73.6163 48.5603 73.4691 48.7537C73.1883 49.0867 72.793 49.3647 72.3196 49.5622C71.9293 49.7302 71.5735 49.935 71.2621 50.1708C70.8412 50.5317 70.6016 50.9803 70.5807 51.4468C70.5827 51.6187 70.598 51.7905 70.6267 51.9613C70.5966 51.9207 70.5754 51.877 70.564 51.8319C70.5217 51.7057 70.4992 51.5765 70.4971 51.4468C70.4838 50.9595 70.713 50.4842 71.145 50.1032C71.454 49.8522 71.8147 49.6352 72.2151 49.4593C72.6572 49.2694 73.0261 49.0058 73.2894 48.692C73.4164 48.5256 73.4591 48.3338 73.4106 48.1481C73.3539 47.9535 73.2156 47.7753 73.0135 47.6365C72.5955 47.3425 72.0312 47.1191 71.5798 46.7545C71.3564 46.5777 71.2054 46.3615 71.1428 46.129C71.0802 45.8966 71.1084 45.6565 71.2245 45.4345C71.4734 45.0491 71.8173 44.6978 72.2402 44.3967C72.6011 44.135 72.8527 43.8085 72.9675 43.4529C73.0168 43.3042 73.0035 43.1485 72.9292 43.005C72.855 42.8615 72.7231 42.7362 72.5495 42.6444C72.4024 42.5753 72.2272 42.5419 72.0506 42.5493C71.874 42.5568 71.7057 42.6046 71.5714 42.6856C71.4821 42.7548 71.4326 42.8449 71.4326 42.9384C71.4326 43.0319 71.4821 43.122 71.5714 43.1913C71.6174 43.2408 71.6791 43.2823 71.7516 43.3123C71.8241 43.3424 71.9055 43.3603 71.9894 43.3647C72.1232 43.353 72.1775 43.3206 72.1859 43.3353Z" fill="#263238"/>
<path d="M75.722 53.5492L79.066 53.4375L82.8614 54.196L87.5974 57.039C87.5974 57.039 83.9817 58.9265 82.8113 58.1033C81.6409 57.2801 80.274 55.4573 80.274 55.4573L78.9281 55.0574C78.9281 55.0574 74.5098 55.0486 75.722 53.5492Z" fill="#FFBE9D"/>
<path d="M85.4196 55.7276C85.3522 55.7012 85.2892 55.6696 85.2315 55.6336L84.709 55.3396L82.828 54.24H82.8573L79.0535 53.4962H79.066L75.722 53.6108L75.814 53.5726L75.7847 53.6079C75.6777 53.7162 75.6204 53.845 75.6204 53.9769C75.6204 54.1088 75.6777 54.2375 75.7847 54.3458C76.0459 54.541 76.3809 54.6797 76.7503 54.7457C77.4587 54.8885 78.1912 54.9636 78.9281 54.9691H78.949L80.2907 55.3748H80.32V55.3954C80.8284 56.0819 81.3965 56.7456 82.0213 57.3829C82.247 57.6092 82.4393 57.7798 82.573 57.8944C82.6495 57.9493 82.7181 58.0094 82.7778 58.0738C82.6898 58.0287 82.6086 57.9775 82.5354 57.9209C82.3238 57.7628 82.1243 57.5969 81.9377 57.424C81.2784 56.7975 80.6847 56.1382 80.1612 55.4513L80.2071 55.4807L78.857 55.0867H78.8946C78.1354 55.0872 77.3799 55.013 76.65 54.8662C76.2396 54.7927 75.8681 54.6375 75.5799 54.4193C75.4345 54.2912 75.3602 54.1303 75.3709 53.9666C75.3891 53.808 75.4577 53.6543 75.5715 53.5168L75.5966 53.4756L75.6259 53.4403H75.722L79.066 53.3345H79.0994L82.8865 54.1077L84.7299 55.2455C84.9264 55.3719 85.0894 55.4777 85.2231 55.5601C85.3569 55.6424 85.428 55.7218 85.4196 55.7276Z" fill="#EB996E"/>
<path d="M75.3042 57.0154C75.3042 57.0154 75.2122 57.0713 75.02 57.1507C74.906 57.1987 74.7872 57.241 74.6647 57.2771C74.5045 57.3321 74.3398 57.3802 74.1714 57.4212C73.1972 57.6624 72.1694 57.7789 71.1367 57.7651C70.1062 57.7594 69.084 57.6352 68.1104 57.3976C67.8165 57.3268 67.5302 57.2413 67.2535 57.1419C67.0571 57.0713 66.9526 57.0272 66.9609 57.0154C66.9693 57.0037 67.4165 57.1389 68.1564 57.2947C69.1256 57.4971 70.13 57.604 71.1409 57.6123C72.1501 57.6241 73.1557 57.5249 74.1213 57.3183C74.8444 57.1566 75.2708 56.9919 75.3042 57.0154Z" fill="#263238"/>
<path d="M75.35 56.9771C75.2341 56.2136 75.1936 55.4454 75.2287 54.678C75.186 53.91 75.2181 53.1409 75.3249 52.376C75.4358 53.1397 75.4762 53.9077 75.4461 54.6751C75.4839 55.4431 75.4518 56.212 75.35 56.9771Z" fill="#263238"/>
<path d="M71.1534 52.0968C71.1534 52.0968 71.1241 52.0763 71.0823 52.0233C71.0321 51.9454 70.9956 51.8635 70.9737 51.7793C70.9142 51.4635 71.0022 51.1426 71.2245 50.865C71.5646 50.466 72.0152 50.119 72.5495 49.8448C73.1949 49.534 73.7125 49.1091 74.0501 48.6129C74.1988 48.3594 74.2136 48.0768 74.092 47.8162C73.9557 47.5756 73.7426 47.3604 73.4691 47.187C72.955 46.8401 72.4032 46.5373 72.165 46.158C72.0627 46.0134 72.014 45.8529 72.0235 45.6915C72.033 45.5301 72.1004 45.3731 72.2193 45.2349C72.2863 45.1624 72.3765 45.102 72.4826 45.0585C72.5579 45.0291 72.5997 45.0203 72.6039 45.0261C72.4811 45.0937 72.3752 45.1752 72.2904 45.2672C72.1933 45.3974 72.1426 45.5421 72.1426 45.6891C72.1426 45.8361 72.1933 45.9808 72.2904 46.111C72.5286 46.455 73.0553 46.7313 73.5987 47.0871C73.8977 47.2732 74.131 47.5057 74.28 47.7662C74.4225 48.0594 74.4092 48.379 74.2424 48.6659C73.8976 49.1863 73.3588 49.6313 72.6833 49.9536C72.1603 50.2113 71.7132 50.5377 71.3666 50.915C71.1434 51.1727 71.037 51.4721 71.0615 51.7734C71.0865 51.9851 71.1743 52.091 71.1534 52.0968Z" fill="#263238"/>
<path d="M16.1571 55.1337L8.00608 50.8031C8.00608 50.8031 11.5298 43.5266 10.1379 42.624L-2.3645 53.4285L9.92888 60.5404L16.1571 55.1337Z" fill="#01A2BB"/>
<g opacity="0.3">
<path d="M16.1571 55.1337L8.00608 50.8031C8.00608 50.8031 11.5298 43.5266 10.1379 42.624L-2.3645 53.4285L9.92888 60.5404L16.1571 55.1337Z" fill="black"/>
</g>
<path d="M4.81259 54.5254C4.64691 54.6033 4.44621 54.6356 4.24883 54.6161C4.05145 54.5966 3.8712 54.5266 3.74251 54.4195C3.62535 54.3068 3.57433 54.1667 3.6 54.0282C3.62568 53.8898 3.7261 53.7635 3.88045 53.6757C4.0546 53.5899 4.26867 53.554 4.47911 53.5753C4.68955 53.5966 4.88054 53.6735 5.01323 53.7904C5.11788 53.9174 5.14847 54.068 5.09859 54.2105C5.0487 54.353 4.92222 54.4764 4.74571 54.5548" fill="#E0E0E0"/>
<g opacity="0.6">
<path d="M-2.3645 53.4286L-1.08542 54.1106L10.4263 43.4972C10.4263 43.4972 10.6855 42.8446 10.1421 42.6152L-2.3645 53.4286Z" fill="white"/>
</g>
<path d="M8.29459 50.6706C8.21517 50.6295 7.87659 50.8735 7.33319 50.994C6.78979 51.1146 6.31745 51.0734 6.29237 51.1381C6.26729 51.2028 6.78979 51.3733 7.44187 51.2204C8.09395 51.0675 8.37401 50.7 8.29459 50.6706Z" fill="#263238"/>
<path d="M8.93814 49.157C8.87962 49.1041 8.48669 49.2599 7.96419 49.2569C7.44169 49.254 7.04459 49.1158 6.98607 49.1687C6.92755 49.2216 7.31211 49.4951 7.96419 49.4951C8.61627 49.4951 9.0092 49.2011 8.93814 49.157Z" fill="#263238"/>
<path d="M7.75524 47.4105C7.68418 47.4487 7.9726 47.7369 8.54108 47.8368C9.10956 47.9368 9.55682 47.7839 9.5192 47.7251C9.48158 47.6663 9.1012 47.6957 8.62468 47.6075C8.14816 47.5193 7.82212 47.3635 7.75524 47.4105Z" fill="#263238"/>
<path d="M9.99152 51.8059C9.89956 51.7883 9.724 52.0999 9.3478 52.3704C8.9716 52.6409 8.57032 52.8084 8.60376 52.8731C8.6372 52.9378 9.16388 52.8731 9.5986 52.5321C10.0333 52.191 10.096 51.8118 9.99152 51.8059Z" fill="#263238"/>
<path d="M20.1574 50.9355L12.8298 45.9375C12.8298 45.9375 17.6201 39.0168 16.3661 37.9995L2.07471 47.6427L13.0221 55.763L20.1574 50.9355Z" fill="#01A2BB"/>
<path d="M9.00514 49.3507C8.82702 49.4141 8.62193 49.4291 8.42911 49.3927C8.2363 49.3564 8.06932 49.2713 7.96014 49.1537C7.86446 49.0311 7.83886 48.8874 7.88857 48.7519C7.93827 48.6164 8.05954 48.4994 8.22766 48.4246C8.4159 48.3549 8.63483 48.3383 8.83985 48.3782C9.04488 48.4181 9.22058 48.5114 9.33118 48.6392C9.4103 48.776 9.41095 48.929 9.33299 49.066C9.25504 49.2031 9.10455 49.3136 8.91318 49.3742" fill="#E0E0E0"/>
<g opacity="0.6">
<path d="M2.07471 47.6427L3.22421 48.4306L16.5041 38.8903C16.5041 38.8903 16.8761 38.267 16.3745 38.0083L2.07471 47.6427Z" fill="white"/>
</g>
<path d="M13.1307 45.8285C13.0638 45.7815 12.6834 45.9932 12.1233 46.0667C11.5632 46.1402 11.1034 46.0667 11.0658 46.1225C11.0281 46.1784 11.5172 46.3989 12.1902 46.2989C12.8632 46.199 13.2101 45.8638 13.1307 45.8285Z" fill="#263238"/>
<path d="M14.0378 44.3821C13.9876 44.3233 13.5738 44.4439 13.0513 44.3821C12.5288 44.3204 12.1651 44.1587 12.0983 44.2087C12.0314 44.2586 12.3658 44.5644 13.0137 44.6173C13.6616 44.6702 14.1005 44.4292 14.0378 44.3821Z" fill="#263238"/>
<path d="M13.1685 42.5449C13.0891 42.5773 13.3273 42.8889 13.8749 43.0359C14.4225 43.1829 14.8906 43.0712 14.8656 43.0094C14.8405 42.9477 14.4476 42.9418 13.9961 42.8154C13.5447 42.689 13.2437 42.5038 13.1685 42.5449Z" fill="#263238"/>
<path d="M14.623 47.0985C14.531 47.075 14.3053 47.3573 13.8831 47.6042C13.4609 47.8512 13.0471 47.9717 13.0471 48.0393C13.0471 48.107 13.6031 48.0805 14.0921 47.7836C14.5812 47.4866 14.694 47.1132 14.623 47.0985Z" fill="#263238"/>
<path d="M16.9597 48.3984C16.9597 48.3984 38.9465 60.6141 43.0722 60.9758L47.7538 61.5108L57.163 64.3597L86.2098 75.1172L95.318 79.5918L99.9954 85.807L100.393 89.5408C100.393 89.5408 79.3797 91.3401 76.2865 90.0112C73.1933 88.6823 46.6795 74.7555 45.3043 73.6677C43.9291 72.5799 18.9285 65.2064 8.96338 53.1348L16.9597 48.3984Z" fill="#263238"/>
<path d="M5.63184 60.1082C5.63184 60.1082 21.5785 70.5246 32.7517 73.5469C39.7102 75.4524 46.4347 77.7563 52.8575 80.4353L71.5964 87.6119L95.669 79.9679L90.9164 73.9732L51.8292 67.5052L12.1401 53.355C12.1401 53.355 5.80322 57.9326 5.63184 60.1082Z" fill="#263238"/>
<path d="M84.8762 83.1343C85.801 81.9919 87.1638 81.0553 88.809 80.4315C90.4543 79.8077 92.3157 79.5218 94.1809 79.6063" fill="#263238"/>
<path d="M87.0082 77.0308C87.336 77.7644 87.3452 78.5502 87.0347 79.2876C86.7242 80.025 86.1081 80.6805 85.2651 81.1703" fill="#263238"/>
<path d="M73.1848 70.1338C73.3404 70.1675 73.4903 70.2128 73.6321 70.269C73.9121 70.366 74.3134 70.5101 74.8067 70.6953C75.7931 71.0628 77.1349 71.595 78.5687 72.2212C80.0024 72.8474 81.3066 73.4472 82.2178 73.8999C82.6734 74.1234 83.0538 74.3086 83.2879 74.4438C83.4249 74.5058 83.5512 74.5788 83.6641 74.6614C83.5159 74.616 83.3757 74.5587 83.2461 74.4909L82.1384 73.9881C81.2021 73.5618 79.9104 72.9768 78.46 72.3505C77.0095 71.7243 75.6845 71.1745 74.698 70.7894L73.5568 70.3219C73.4221 70.2704 73.2972 70.2072 73.1848 70.1338Z" fill="#455A64"/>
<path d="M77.3941 89.6701L77.206 89.5878L76.6668 89.3291L74.5768 88.3207L66.9859 84.5957L55.7417 79.0538L49.1039 75.7757L45.5969 74.0411C44.4181 73.4531 43.1975 72.8769 41.9352 72.3124C39.4063 71.2069 36.8648 70.1985 34.5031 69.1225C32.1414 68.0464 29.9051 66.9733 27.7775 65.9267C25.6499 64.8801 23.6602 63.8834 21.821 62.9132C20.1089 62.0156 18.4679 61.0527 16.9053 60.0291C14.641 58.5475 12.5976 56.9073 10.8067 55.134C10.489 54.8223 10.2173 54.546 9.97072 54.2902C9.7241 54.0344 9.55272 53.8345 9.39388 53.664C9.23504 53.4934 9.13054 53.37 9.04694 53.2729C8.96334 53.1759 8.93408 53.1348 8.93408 53.1348C8.93408 53.1348 8.98424 53.1789 9.06366 53.2641L9.42732 53.6463C9.58616 53.8168 9.78262 54.0226 10.0251 54.2667C10.2675 54.5107 10.5392 54.79 10.8611 55.0987C12.6732 56.8537 14.7272 58.4785 16.9931 59.9497C18.5593 60.9631 20.2002 61.918 21.9088 62.8103C23.7522 63.7746 25.7669 64.7625 27.8778 65.812C29.9887 66.8616 32.2292 67.9318 34.5993 68.9961C36.9693 70.0603 39.4982 71.0746 42.0313 72.183C43.2853 72.7387 44.5393 73.3208 45.7055 73.9176L49.2126 75.6522L55.842 78.9362L67.057 84.5075L74.6102 88.2736L76.6584 89.3026L77.1851 89.5731C77.2574 89.6025 77.3272 89.6349 77.3941 89.6701Z" fill="#455A64"/>
<path d="M119.696 54.8193C119.696 54.8193 112.042 57.727 110.613 58.9353C109.283 60.0643 94.4695 70.4895 94.4695 70.4895C94.4695 70.4895 84.8847 72.4946 85.2735 73.0562C85.9548 74.0822 88.6426 75.9256 90.0805 76.8782C90.7162 77.2935 91.293 77.7513 91.8026 78.2453C93.0148 79.4213 95.3849 81.7233 97.3411 83.6431C99.0338 85.4016 100.079 87.428 100.384 89.5407L107.143 86.9271C110.592 85.9481 112.473 83.2962 116.264 81.9291L127.65 73.309L131.12 68.3257L132.273 56.063L130.631 56.1453L124.265 56.7333C124.265 56.7333 118.751 56.3099 119.696 54.8193Z" fill="#01A2BB"/>
<path d="M125.824 58.0443L131.061 56.4156C132.382 55.519 133.778 54.6786 135.241 53.8989C135.241 53.8989 128.708 59.6231 134.443 61.5429C140.178 63.4627 144.818 58.403 144.818 58.403C144.157 59.1226 143.548 59.8654 142.995 60.6286C142.326 61.6047 138.924 64.7181 138.924 64.7181C138.721 65.8831 138.001 66.9735 136.867 67.8345C134.911 69.4074 132.712 72.0123 130.965 72.6796C129.218 73.347 125.314 74.5701 125.314 74.5701C124.521 71.5959 124.281 68.5619 124.599 65.5443C125.172 60.8285 125.824 58.0443 125.824 58.0443Z" fill="#01A2BB"/>
<path d="M133.954 62.6571C133.794 62.5939 133.645 62.5179 133.511 62.4307C133.122 62.2079 132.761 61.962 132.432 61.6957C131.935 61.2954 131.597 60.8095 131.454 60.2875C131.327 59.6462 131.383 58.9937 131.617 58.3676C132.023 57.2394 132.71 56.1704 133.644 55.2101C133.991 54.8396 134.296 54.5515 134.514 54.3545C134.619 54.2482 134.739 54.1496 134.873 54.0605C134.795 54.1766 134.698 54.2861 134.585 54.3869C134.388 54.5927 134.104 54.8896 133.774 55.2689C132.889 56.2326 132.232 57.2911 131.83 58.4029C131.602 59.0085 131.541 59.6393 131.65 60.261C131.779 60.7637 132.09 61.2345 132.553 61.6281C133.352 62.3014 133.987 62.6336 133.954 62.6571Z" fill="#263238"/>
<path d="M133.172 67.1111C133.108 67.1381 133.041 67.1607 132.971 67.1787C132.838 67.217 132.637 67.2758 132.374 67.3434C131.627 67.5325 130.843 67.6377 130.05 67.655C129.493 67.6598 128.943 67.5711 128.444 67.3963C127.871 67.1823 127.411 66.8428 127.136 66.429C126.543 65.5676 126.476 64.5033 126.601 63.442C126.714 62.4337 127.011 61.4397 127.483 60.4844C127.916 59.7162 128.478 58.9869 129.155 58.3117C129.719 57.7237 130.217 57.2856 130.564 56.9799C130.731 56.8417 130.865 56.727 130.982 56.633C131.099 56.5389 131.128 56.5154 131.136 56.5183C131.103 56.5654 131.062 56.6098 131.015 56.6506L130.643 57.0181C130.313 57.3327 129.836 57.7884 129.293 58.3705C128.645 59.0467 128.11 59.7727 127.696 60.5343C127.242 61.4792 126.954 62.4597 126.839 63.4538C126.718 64.5033 126.785 65.547 127.341 66.3673C127.593 66.7556 128.015 67.077 128.545 67.2846C129.017 67.4543 129.54 67.5439 130.07 67.5462C130.849 67.5368 131.622 67.4497 132.365 67.2875L132.971 67.1493C133.036 67.1311 133.103 67.1183 133.172 67.1111Z" fill="#263238"/>
<path d="M131.053 56.2715C130.759 56.4601 130.451 56.6367 130.129 56.8007C129.391 57.224 128.702 57.688 128.068 58.1884C127.438 58.6913 126.865 59.228 126.354 59.7936C126.162 60.0373 125.95 60.2729 125.719 60.4992C125.84 60.231 126.01 59.975 126.225 59.7377C126.698 59.1473 127.259 58.5935 127.897 58.0855C128.538 57.5781 129.252 57.1189 130.029 56.7154C130.342 56.5379 130.686 56.3888 131.053 56.2715Z" fill="#263238"/>
<g opacity="0.3">
<path d="M131.387 56.2715C127.959 58.6405 125.931 61.8327 125.707 65.2091C125.707 65.5031 125.819 65.8941 126.237 65.9C126.364 65.8928 126.484 65.8554 126.577 65.794C126.67 65.7325 126.73 65.6506 126.747 65.5619C126.762 65.3843 126.741 65.2061 126.685 65.0327C126.526 63.6185 126.965 61.9486 127.663 60.4522C128.361 58.9557 130.062 57.5327 131.387 56.2715Z" fill="black"/>
</g>
<g opacity="0.3">
<path d="M134.351 54.4048C132.925 55.5249 131.592 56.7362 130.873 58.1503C130.154 59.5645 130.121 61.2079 131.212 62.4986C131.512 62.8543 132.119 63.213 132.629 63.0043C132.79 62.9182 132.907 62.7966 132.96 62.6588C133.013 62.5209 132.999 62.3746 132.921 62.2428C132.753 61.9826 132.537 61.7394 132.277 61.5196C131.287 60.5053 131.253 59.1499 131.772 57.9739C132.29 56.7979 133.289 55.766 134.28 54.7399" fill="black"/>
</g>
<g opacity="0.3">
<path d="M89.332 76.3843C91.7707 77.4755 94.4881 78.2225 97.3326 78.5834C99.7402 78.848 102.194 78.5511 104.602 78.2894C110.872 77.5779 117.263 76.9341 123.575 76.396H89.332" fill="black"/>
</g>
<path d="M112.113 89.5407C112.229 89.5015 112.353 89.4766 112.481 89.4672C112.822 89.4259 113.169 89.417 113.513 89.4407C114.666 89.5272 115.743 89.8857 116.569 90.4579C117.03 90.763 117.412 91.1221 117.698 91.5193C117.929 91.8472 118.058 92.206 118.078 92.5718C118.09 92.8161 118.054 93.0603 117.973 93.298C117.949 93.3855 117.905 93.4699 117.844 93.5479C117.912 93.2268 117.94 92.9022 117.927 92.5777C117.884 92.2301 117.742 91.8922 117.509 91.584C117.226 91.2044 116.854 90.8606 116.41 90.5667C115.611 90.0189 114.588 89.6619 113.484 89.5465C113.028 89.5177 112.569 89.5158 112.113 89.5407Z" fill="#263238"/>
<path d="M113.639 89.5405H73.8619C71.4772 89.5405 69.5439 90.9003 69.5439 92.5776V93.0921C69.5439 94.7694 71.4772 96.1291 73.8619 96.1291H113.639C116.023 96.1291 117.957 94.7694 117.957 93.0921V92.5776C117.957 90.9003 116.023 89.5405 113.639 89.5405Z" fill="#455A64"/>
<path d="M143.474 61.5335L142.99 61.3077C141.412 60.5723 139.285 60.8758 138.239 61.9857L109.867 92.1008C108.822 93.2107 109.253 94.7067 110.831 95.4421L111.316 95.6679C112.894 96.4033 115.021 96.0998 116.066 94.9899L144.438 64.8748C145.484 63.7649 145.052 62.2689 143.474 61.5335Z" fill="#455A64"/>
<path d="M89.4575 82.7173C89.5411 82.7173 92.3835 84.6724 93.0523 85.9954C93.7211 87.3184 94.5947 90.5494 94.996 91.7784C95.552 93.463 96.4381 95.0859 99.7111 95.1917L112.105 95.227C112.48 95.2279 112.85 95.1624 113.18 95.0366C113.51 94.9107 113.79 94.7285 113.994 94.5067L124.841 82.7173H121.451L111.984 92.6368H101.249C100.878 92.6408 100.51 92.5845 100.174 92.4723C99.8387 92.3601 99.5443 92.1951 99.314 91.99C99.1613 91.8547 99.0502 91.6985 98.9879 91.5314C98.7455 90.8493 97.8969 87.3154 96.8687 85.7808C96.1324 84.7243 95.3031 83.7011 94.3857 82.7173H89.4575Z" fill="#263238"/>
<path d="M100.756 93.933C100.757 94.0397 100.713 94.1441 100.629 94.2331C100.545 94.322 100.426 94.3914 100.286 94.4325C100.146 94.4736 99.9918 94.4845 99.843 94.4638C99.6943 94.4431 99.5576 94.3918 99.4504 94.3164C99.3431 94.241 99.2702 94.1449 99.2408 94.0402C99.2114 93.9356 99.2269 93.8272 99.2853 93.7287C99.3438 93.6303 99.4424 93.5463 99.5689 93.4874C99.6953 93.4285 99.8438 93.3974 99.9954 93.398C100.197 93.398 100.391 93.4543 100.533 93.5547C100.676 93.655 100.756 93.7911 100.756 93.933Z" fill="#455A64"/>
<path d="M112.744 93.933C112.745 94.0397 112.701 94.1441 112.617 94.2331C112.533 94.322 112.414 94.3914 112.274 94.4325C112.134 94.4736 111.98 94.4845 111.831 94.4638C111.682 94.4431 111.546 94.3918 111.438 94.3164C111.331 94.241 111.258 94.1449 111.229 94.0402C111.199 93.9356 111.215 93.8272 111.273 93.7287C111.332 93.6303 111.43 93.5463 111.557 93.4874C111.683 93.4285 111.832 93.3974 111.983 93.398C112.185 93.3987 112.378 93.4554 112.52 93.5555C112.663 93.6557 112.743 93.7914 112.744 93.933Z" fill="#455A64"/>
<path d="M127.057 81.1055H86.6528C86.0664 81.1055 85.5911 81.4398 85.5911 81.8522V81.9786C85.5911 82.3911 86.0664 82.7254 86.6528 82.7254H127.057C127.643 82.7254 128.118 82.3911 128.118 81.9786V81.8522C128.118 81.4398 127.643 81.1055 127.057 81.1055Z" fill="#263238"/>
<path d="M103.26 81.1055H103.151H102.842L101.63 81.1232L97.0986 81.1614C95.1633 81.1614 92.835 81.1878 90.2058 81.182H88.1743C87.4888 81.182 86.7364 81.0849 86.1386 81.3348C85.995 81.3918 85.881 81.4796 85.8133 81.5854C85.7456 81.6912 85.7278 81.8094 85.7624 81.9228C85.8036 82.0407 85.8859 82.1495 86.002 82.2394C86.118 82.3292 86.2641 82.3973 86.4271 82.4373C87.1392 82.6203 87.8996 82.6916 88.655 82.6461H96.8729L118.07 82.6696L124.494 82.6931L126.242 82.7078H126.693C126.744 82.7039 126.796 82.7039 126.848 82.7078H126.693H126.242L124.494 82.7225L118.07 82.746L96.8729 82.7696H88.6801C87.8899 82.8204 87.0937 82.744 86.3518 82.5461C86.1594 82.4969 85.9874 82.4147 85.8516 82.3068C85.7159 82.199 85.6205 82.069 85.5743 81.9287C85.5743 81.8582 85.5493 81.7905 85.5534 81.7141C85.566 81.6419 85.5942 81.5715 85.637 81.5054C85.7303 81.3751 85.8756 81.2668 86.055 81.1937C86.3882 81.0662 86.7626 81.0014 87.1418 81.0056C87.5097 81.0056 87.8524 81.0232 88.1994 81.0261L90.2267 81.0467H97.1195H101.638H102.85H103.16L103.26 81.1055Z" fill="#455A64"/>
<path d="M94.4694 90.0667C94.4057 89.9679 94.358 89.8643 94.3273 89.758C94.2395 89.5257 94.135 89.2405 94.0138 88.9054C93.7045 87.9617 93.3193 87.0312 92.8601 86.1183C92.5941 85.6229 92.2726 85.1432 91.8987 84.6835C91.58 84.3136 91.2208 83.9617 90.8244 83.631C90.1347 83.0695 89.6248 82.7784 89.654 82.749C89.7868 82.8049 89.9114 82.8699 90.0261 82.9431C90.3531 83.129 90.6579 83.3335 90.9373 83.5546C91.3606 83.8788 91.7399 84.2302 92.0701 84.6042C92.4619 85.0678 92.7948 85.5547 93.0649 86.0595C93.5302 86.9768 93.8976 87.9173 94.1643 88.873C94.2729 89.2376 94.3565 89.5346 94.4109 89.7404C94.4499 89.847 94.4696 89.9566 94.4694 90.0667Z" fill="#455A64"/>
<path d="M95.9197 96.1289H93.2236V120.028H95.9197V96.1289Z" fill="#263238"/>
<path d="M95.3723 116.198L123.391 120.076V122.134L95.3723 119.167V116.198Z" fill="#263238"/>
<path d="M120.908 125.364C122.279 125.364 123.391 124.582 123.391 123.618C123.391 122.653 122.279 121.872 120.908 121.872C119.537 121.872 118.425 122.653 118.425 123.618C118.425 124.582 119.537 125.364 120.908 125.364Z" fill="#263238"/>
<path d="M94.6491 116.198L71.981 120.09V122.148L94.6491 118.979V116.198Z" fill="#263238"/>
<path d="M74.4639 125.364C75.8352 125.364 76.9468 124.582 76.9468 123.618C76.9468 122.653 75.8352 121.872 74.4639 121.872C73.0926 121.872 71.981 122.653 71.981 123.618C71.981 124.582 73.0926 125.364 74.4639 125.364Z" fill="#263238"/>
<path d="M94.5781 125.364C95.9494 125.364 97.061 124.582 97.061 123.618C97.061 122.653 95.9494 121.872 94.5781 121.872C93.2068 121.872 92.0952 122.653 92.0952 123.618C92.0952 124.582 93.2068 125.364 94.5781 125.364Z" fill="#263238"/>
<path d="M97.4038 121.872H91.7817L91.8361 106.922H97.4624L97.4038 121.872Z" fill="#263238"/>
<path d="M97.2533 106.954C96.3701 107.03 95.4796 107.055 94.5906 107.031C93.703 107.055 92.8139 107.03 91.9321 106.954C92.8139 106.879 93.703 106.853 94.5906 106.878C95.4796 106.853 96.3701 106.879 97.2533 106.954Z" fill="#455A64"/>
<path d="M97.0778 119.34C96.1946 119.416 95.3041 119.442 94.4151 119.417C93.5261 119.442 92.6356 119.416 91.7524 119.34C92.6356 119.265 93.5261 119.239 94.4151 119.264C95.3041 119.239 96.1946 119.265 97.0778 119.34Z" fill="#455A64"/>
<path d="M133.243 72.2886H0.0849609V76.384H133.243V72.2886Z" fill="#455A64"/>
<path d="M28.2915 72.3472C28.2915 72.3472 28.2915 72.3648 28.2497 72.3913C28.2079 72.4177 28.1745 72.4618 28.1118 72.5147C27.9182 72.664 27.6925 72.791 27.443 72.8911C27.0422 73.0424 26.6062 73.1419 26.1555 73.1851C25.5617 73.2444 24.9611 73.2621 24.3623 73.238C23.6374 73.2126 22.9156 73.1546 22.2012 73.0645C21.3878 72.9585 20.5654 72.8898 19.7392 72.8587C17.8436 72.8658 15.9666 73.122 14.2049 73.6143C12.303 74.1023 10.514 74.6462 8.84196 74.9755C8.04055 75.1381 7.22119 75.2532 6.39247 75.3195C5.66851 75.3726 4.93866 75.3726 4.2147 75.3195C3.16291 75.2476 2.14524 75.018 1.23018 74.6462C0.894534 74.5124 0.584168 74.3495 0.306396 74.1611C0.306396 74.1611 0.331476 74.1611 0.373276 74.1905L0.548836 74.2817C0.776094 74.4019 1.01493 74.511 1.26362 74.608C2.17881 74.96 3.18804 75.1742 4.22723 75.2372C4.94285 75.2899 5.66432 75.2899 6.37994 75.2372C7.20037 75.1691 8.01131 75.0531 8.80434 74.8903C10.4763 74.5551 12.2528 74.0083 14.1631 73.532C15.9444 73.0345 17.8436 72.7791 19.7601 72.7793C20.5909 72.8136 21.4175 72.8863 22.2347 72.9969C22.9435 73.0897 23.6595 73.1525 24.379 73.1851C24.9702 73.2122 25.5637 73.1995 26.1513 73.1468C26.5891 73.1053 27.0134 73.0108 27.4053 72.8675C27.7417 72.7319 28.0417 72.5557 28.2915 72.3472Z" fill="#263238"/>
<path d="M13.7244 72.4092C13.5981 72.5009 13.4579 72.5828 13.3064 72.6532C12.9227 72.8593 12.5159 73.0432 12.09 73.203C11.4571 73.4388 10.7919 73.6289 10.1045 73.7704C9.25962 73.9427 8.38785 74.0415 7.50875 74.0644C5.9074 74.1081 4.315 73.877 2.86895 73.3912C2.42412 73.2466 2.03869 73.0251 1.74871 72.7473C1.67306 72.6707 1.61128 72.5877 1.56479 72.5003C1.53553 72.4415 1.52299 72.4092 1.53135 72.4062C1.60936 72.5156 1.69878 72.6208 1.79887 72.7208C2.10161 72.9759 2.48534 73.1773 2.91911 73.3088C4.36179 73.7665 5.93561 73.9828 7.51711 73.9409C9.09502 73.9068 10.6431 73.6298 12.0524 73.1295C12.4769 72.9762 12.8874 72.8044 13.2813 72.615C13.4217 72.5389 13.5697 72.4701 13.7244 72.4092Z" fill="#263238"/>
<path d="M44.9697 75.0051C45.0406 75.0202 45.1104 75.0379 45.1787 75.058C45.654 75.1774 46.1592 75.2265 46.6627 75.2022C47.1662 75.1779 47.6571 75.0808 48.1047 74.9169V74.9698C47.264 74.5218 46.2592 74.2516 45.208 74.1907C43.8776 74.0986 42.5441 74.3425 41.446 74.8787C41.3743 74.9066 41.3115 74.9444 41.2612 74.9899C41.2109 75.0354 41.1742 75.0875 41.1534 75.1433C41.1547 75.1996 41.1791 75.2546 41.2235 75.3015C41.268 75.3484 41.3307 75.3853 41.4042 75.4079C41.5661 75.4701 41.7411 75.5138 41.9225 75.5372L42.4868 75.6254C43.2518 75.746 44.0376 75.8636 44.8527 75.9488C45.682 76.041 46.5213 76.0814 47.3607 76.0694C47.7936 76.0604 48.2251 76.0309 48.6523 75.9812C48.8655 75.9547 49.0703 75.9253 49.296 75.8871C49.5086 75.8552 49.7159 75.8079 49.9147 75.746C50.2277 75.6577 50.5049 75.5163 50.7214 75.3344C50.8235 75.2483 50.8915 75.1448 50.9187 75.0344C50.9458 74.9239 50.9311 74.8104 50.8761 74.7052C50.7467 74.4963 50.5255 74.3222 50.2449 74.2083C49.9645 74.0894 49.6675 73.9909 49.3587 73.9143C48.1752 73.5982 46.9281 73.4156 45.6636 73.3734C43.5182 73.2827 41.3695 73.5091 39.356 74.0378C37.9989 74.4018 36.7201 74.8965 35.5564 75.5078C35.1384 75.7283 34.8374 75.9018 34.6368 76.0311L34.4027 76.1723C34.3525 76.2046 34.3233 76.2193 34.3191 76.2164L34.3943 76.1634L34.6159 76.0135C34.8082 75.8812 35.1175 75.6989 35.5188 75.4725C36.6756 74.8455 37.9554 74.3395 39.3184 73.9702C41.3428 73.4167 43.5114 73.1721 45.6803 73.2528C46.9671 73.292 48.2369 73.4746 49.4423 73.7938C49.7598 73.8777 50.065 73.9831 50.3536 74.1084C50.6647 74.2351 50.9095 74.4289 51.0516 74.6611C51.1158 74.7844 51.133 74.9175 51.1015 75.0469C51.0699 75.1764 50.9908 75.2978 50.8719 75.399C50.6397 75.5968 50.3408 75.7504 50.0025 75.8459C49.7942 75.9103 49.5771 75.9596 49.3546 75.9929C49.1372 76.0341 48.9366 76.0635 48.6983 76.0899C48.2641 76.1398 47.8256 76.1693 47.3858 76.1781C46.5349 76.19 45.6843 76.1477 44.8443 76.0517C44.0083 75.9665 43.235 75.8459 42.4701 75.7254L41.9058 75.6342C41.7101 75.6071 41.5213 75.5596 41.3457 75.4931C41.2538 75.4575 41.1739 75.4084 41.1116 75.3491C41.0469 75.285 41.0172 75.2067 41.028 75.1286C41.0496 75.058 41.092 74.9915 41.1524 74.9333C41.2129 74.875 41.2902 74.8264 41.3791 74.7905C42.5056 74.2445 43.8728 74.0005 45.2331 74.1025C46.3006 74.1755 47.3161 74.4622 48.1591 74.9286L48.2134 74.958L48.1507 74.9816C47.4188 75.2475 46.5796 75.3295 45.7723 75.2138C45.4903 75.1756 45.2192 75.1051 44.9697 75.0051Z" fill="#263238"/>
<path d="M62.1037 72.4531C62.1673 72.5159 62.2128 72.5868 62.2375 72.6619C62.3242 72.8606 62.354 73.0694 62.3252 73.2763C62.1921 73.9579 61.7355 74.5878 61.0294 75.0638C60.6682 75.3384 60.2612 75.5812 59.8172 75.7871C59.4505 75.9518 59.0577 76.086 58.6468 76.1869C58.3741 76.2514 58.0946 76.3006 57.8108 76.3339C57.7065 76.3495 57.5998 76.3564 57.4932 76.3545C57.4932 76.3339 57.9404 76.2898 58.6218 76.1075C59.0166 76.0006 59.3937 75.8636 59.7462 75.6989C60.1751 75.4929 60.5691 75.2533 60.9208 74.9845C61.6054 74.5254 62.0612 73.9233 62.2207 73.2675C62.2565 72.9933 62.2167 72.7168 62.1037 72.4531Z" fill="#263238"/>
<path d="M86.0174 76.1662C86.0174 76.1662 85.8293 75.9957 85.4071 75.7487C84.807 75.4014 84.0851 75.174 83.3171 75.0902C82.7906 75.036 82.2547 75.0459 81.7329 75.1196C81.1255 75.2212 80.5006 75.2617 79.877 75.2401C79.1862 75.1554 78.5439 74.9341 78.0253 74.6021C77.4735 74.2706 76.8441 74.009 76.1652 73.8289C74.8286 73.5131 73.3857 73.4966 72.0353 73.7819C70.9353 74.0157 69.9024 74.3839 68.9839 74.8697C68.359 75.1953 67.7668 75.5509 67.2116 75.934L66.7643 76.2486C66.714 76.2867 66.6595 76.3221 66.6013 76.3544C66.6411 76.31 66.6873 76.2686 66.7393 76.2309C66.8354 76.1545 66.9775 76.0428 67.1573 75.9016C67.6979 75.5045 68.2822 75.1378 68.9045 74.805C69.8276 74.3033 70.8709 73.9219 71.9852 73.679C73.3652 73.3813 74.8433 73.3957 76.2111 73.7201C76.9067 73.9038 77.5506 74.1725 78.113 74.514C78.6096 74.8333 79.2237 75.0483 79.8854 75.1343C80.4957 75.1569 81.1075 75.1203 81.7037 75.0255C82.2402 74.9539 82.7903 74.9479 83.3297 75.0079C84.1061 75.1036 84.8295 75.3489 85.4197 75.7164C85.6499 75.8444 85.8514 75.9961 86.0174 76.1662Z" fill="#263238"/>
<path d="M107.365 72.3267C107.321 72.3765 107.273 72.4237 107.218 72.4678C107.118 72.553 106.98 72.6912 106.767 72.847C106.181 73.2986 105.53 73.7055 104.823 74.0613C103.781 74.5966 102.648 75.0381 101.45 75.3754C100.745 75.5818 100.017 75.7451 99.2721 75.8635C98.4751 75.9994 97.6593 76.0734 96.8393 76.084C95.2585 76.075 93.6959 75.8462 92.2413 75.4107C91.0513 75.0639 89.9279 74.6135 88.8973 74.0701C88.1993 73.708 87.5539 73.2983 86.9703 72.847C86.8089 72.7254 86.6568 72.5979 86.5147 72.4648C86.46 72.422 86.4111 72.3758 86.3684 72.3267C86.4301 72.3646 86.4874 72.4058 86.5398 72.4501C86.6485 72.5325 86.7948 72.6648 87.0163 72.8147C87.6136 73.2529 88.2671 73.6515 88.9684 74.0054C90.0021 74.536 91.1253 74.9745 92.3124 75.3108C93.7552 75.7378 95.3032 75.9615 96.8686 75.9693C97.677 75.9586 98.4814 75.8867 99.2679 75.7547C100.002 75.6367 100.722 75.4774 101.421 75.2784C102.604 74.9467 103.727 74.5163 104.765 73.9966C105.472 73.65 106.13 73.2562 106.729 72.8206C106.951 72.6706 107.097 72.5266 107.206 72.456C107.253 72.4098 107.306 72.3665 107.365 72.3267Z" fill="#263238"/>
<path d="M104.317 72.2886C104.281 72.3124 104.242 72.334 104.2 72.3533C104.125 72.3915 104.012 72.4503 103.858 72.5179C103.427 72.7115 102.982 72.8882 102.524 73.0471C101.851 73.2866 101.152 73.4881 100.434 73.6498C99.5465 73.8577 98.6191 73.9697 97.6837 73.982C95.9828 73.9493 94.3142 73.6478 92.8014 73.1C92.3436 72.9396 91.9022 72.7569 91.4806 72.5532C91.3301 72.4826 91.2214 72.4209 91.142 72.3797C91.0626 72.3386 91.0291 72.315 91.0333 72.3121C91.1998 72.3721 91.3604 72.4398 91.514 72.515C91.9458 72.7031 92.3924 72.8739 92.8516 73.0265C94.3603 73.5408 96.0077 73.8225 97.6837 73.8527C98.6021 73.8382 99.5129 73.7313 100.388 73.5351C101.105 73.3761 101.803 73.1795 102.478 72.9471C103.059 72.7531 103.515 72.5796 103.828 72.4503C103.986 72.3888 104.149 72.3348 104.317 72.2886Z" fill="#263238"/>
<path d="M127.604 72.7207C127.515 72.7277 127.426 72.7277 127.337 72.7207L126.589 72.7001L126.045 72.6824H125.401C124.937 72.6824 124.411 72.6824 123.83 72.6824L122.914 72.703L121.932 72.7501C121.247 72.7736 120.532 72.8412 119.771 72.8912C118.266 73.0264 116.636 73.2146 114.977 73.4792C113.458 73.7254 111.958 74.0266 110.483 74.3818C109.839 74.5523 109.204 74.7022 108.661 74.8727L107.854 75.1079L107.143 75.3431C106.679 75.4872 106.307 75.6371 105.956 75.7636L105.475 75.94L105.099 76.0987L104.568 76.3192C104.505 76.3471 104.438 76.3708 104.368 76.3898C104.368 76.3898 104.414 76.3574 104.522 76.3016L105.02 76.0693L105.379 75.9017L105.847 75.7165C106.182 75.5842 106.558 75.4225 107.014 75.2814L107.72 75.0374L108.523 74.7934C109.066 74.6199 109.701 74.4641 110.349 74.2906C111.833 73.9282 113.342 73.621 114.872 73.3704C116.544 73.1058 118.216 72.9206 119.721 72.7824C120.49 72.7324 121.213 72.6707 121.903 72.6501L122.898 72.6089L123.821 72.5942C124.407 72.5942 124.937 72.5942 125.406 72.5942H126.054L126.597 72.6207L127.345 72.6619C127.434 72.6762 127.52 72.6958 127.604 72.7207Z" fill="#263238"/>
<path d="M88.4083 76.0839C88.1922 75.8644 87.9473 75.6597 87.6768 75.4724C86.9083 74.9813 85.9904 74.6203 84.9933 74.4169C84.3091 74.2725 83.6104 74.1644 82.9033 74.0935C82.1383 74.0082 81.3191 73.9406 80.4538 73.8348C79.5594 73.7205 78.6768 73.5643 77.812 73.3673C76.888 73.1516 75.9401 72.9903 74.978 72.8852C73.1013 72.751 71.2063 72.9356 69.452 73.4232C68.6825 73.6267 67.9315 73.8634 67.2032 74.1317C66.5135 74.3816 65.8823 74.6256 65.3097 74.852C64.1643 75.3077 63.2531 75.6987 62.6219 75.9663L61.8988 76.2779L61.7107 76.3602L61.6438 76.3838C61.6438 76.3838 61.6438 76.3838 61.7023 76.3485L61.8821 76.2603C62.0409 76.1809 62.2792 76.0692 62.5885 75.9281C63.2071 75.6341 64.1142 75.2489 65.2511 74.7815C65.8238 74.5492 66.455 74.2993 67.1405 74.0465C67.8716 73.7738 68.6254 73.5323 69.3977 73.3232C71.174 72.8237 73.0958 72.6341 74.9989 72.7705C75.9699 72.8759 76.9264 73.0391 77.858 73.2585C78.7232 73.4561 79.6056 73.6142 80.4998 73.7319C81.3358 73.8377 82.1718 73.9083 82.9409 73.9994C83.6488 74.076 84.3474 74.19 85.0309 74.3405C86.0402 74.5525 86.9639 74.9293 87.727 75.44C88.0045 75.6258 88.2349 75.8436 88.4083 76.0839Z" fill="#263238"/>
<path d="M58.4169 72.3472C58.4354 72.4339 58.4354 72.5221 58.4169 72.6088C58.3721 72.8459 58.285 73.078 58.1577 73.2997C57.7552 74.0447 57.0429 74.687 56.1137 75.1431C55.1624 75.5557 54.1434 75.8854 53.079 76.1251C52.661 76.2191 52.3392 76.2868 52.1093 76.3309C51.9909 76.3572 51.8691 76.375 51.7456 76.3838C51.8554 76.3419 51.9719 76.3093 52.0925 76.2868L53.0414 76.0486C54.0822 75.7891 55.0812 75.4531 56.0217 75.0461C56.9191 74.6032 57.6215 73.992 58.049 73.2821C58.2119 72.979 58.3351 72.666 58.4169 72.3472Z" fill="#263238"/>
<path d="M27.5059 76.3838C27.6026 76.303 27.7104 76.2291 27.8277 76.1633C28.0451 76.028 28.3669 75.8399 28.7766 75.6194C29.853 75.0468 30.9889 74.5318 32.1749 74.0788C33.5585 73.5437 34.8501 73.1174 35.7864 72.8117C36.2588 72.6617 36.6224 72.5412 36.9067 72.4618C37.0414 72.4157 37.1812 72.3774 37.3247 72.3472C37.2016 72.4084 37.07 72.4606 36.9318 72.503L35.8366 72.8881C34.9128 73.2086 33.6296 73.6466 32.2543 74.1788C31.0767 74.6318 29.9391 75.1345 28.8476 75.6841C28.4296 75.8957 28.0952 76.0721 27.8695 76.1986C27.7567 76.2681 27.6349 76.3301 27.5059 76.3838Z" fill="#263238"/>
<path d="M33.78 72.5147C33.78 72.5294 33.4707 72.4883 32.919 72.5147C32.1427 72.5708 31.3891 72.7315 30.6994 72.9881C29.6828 73.3838 28.7165 73.8402 27.811 74.3522C27.2594 74.6437 26.6798 74.908 26.0763 75.1431C25.4131 75.3868 24.7117 75.5753 23.9863 75.7046C22.593 75.9367 21.167 76.058 19.7352 76.0663C18.4185 76.0927 17.2272 76.0663 16.2449 76.1015C15.4619 76.1191 14.6813 76.1731 13.9083 76.2632C13.6366 76.2985 13.4276 76.3279 13.2855 76.3514C13.2131 76.366 13.1389 76.3759 13.064 76.3808C13.1313 76.3565 13.203 76.3387 13.2771 76.3279C13.4151 76.2985 13.6241 76.2632 13.9 76.2191C14.6718 76.1108 15.4544 76.045 16.2408 76.0222C17.2356 75.981 18.4185 75.9928 19.7311 75.9604C21.1515 75.9458 22.5655 75.8235 23.9487 75.5959C24.6572 75.4658 25.3428 75.2804 25.9927 75.0431C26.5925 74.8127 27.168 74.5523 27.7149 74.264C28.6314 73.7549 29.6106 73.3043 30.6409 72.9175C31.3449 72.6617 32.1159 72.5096 32.9064 72.4706C33.1206 72.4571 33.336 72.4571 33.5501 72.4706L33.78 72.5147Z" fill="#263238"/>
<path d="M12.3365 125.467H10.4429L9.3645 76.0664H13.4107L12.3365 125.467Z" fill="#455A64"/>
<path d="M134.326 125.364H132.436L133.381 76.2075H137.427L134.326 125.364Z" fill="#263238"/>
<path d="M143.777 72.2856H126.894V76.3811H143.777V72.2856Z" fill="#263238"/>
<path d="M22.1011 65.2651L23.631 72.3358H32.5176L34.5784 65.368L22.1011 65.2651Z" fill="#01A2BB"/>
<path d="M33.3369 69.796C33.3369 69.8166 31.0588 69.8342 28.2499 69.8342C25.4409 69.8342 23.167 69.8166 23.167 69.796C23.167 69.7754 25.4409 69.7607 28.2499 69.7607C31.0588 69.7607 33.3369 69.7813 33.3369 69.796Z" fill="#FAFAFA"/>
<path d="M33.3702 69.4489C33.3702 69.4694 31.0795 69.4871 28.2497 69.4871C25.4198 69.4871 23.1292 69.4694 23.1292 69.4489C23.1292 69.4283 25.424 69.4136 28.2497 69.4136C31.0753 69.4136 33.3702 69.4283 33.3702 69.4489Z" fill="#FAFAFA"/>
<path d="M33.3535 69.0548C33.3535 69.0754 31.0629 69.093 28.233 69.093C25.4032 69.093 23.1125 69.0754 23.1125 69.0548C23.1125 69.0342 25.4074 69.0195 28.233 69.0195C31.0587 69.0195 33.3535 69.0372 33.3535 69.0548Z" fill="#FAFAFA"/>
<path d="M24.6508 71.933C24.5268 71.6446 24.436 71.3497 24.3791 71.051C24.2882 70.7538 24.2309 70.452 24.2078 70.1484C24.3324 70.4367 24.4232 70.7317 24.4795 71.0304C24.5729 71.3273 24.6302 71.6293 24.6508 71.933Z" fill="#FAFAFA"/>
<path d="M25.2568 71.8567C25.1944 71.5695 25.1567 71.2799 25.1439 70.9894C25.0979 70.6966 25.0784 70.402 25.0854 70.1074C25.1834 70.3916 25.238 70.6824 25.2484 70.9747C25.2921 71.2678 25.2949 71.5632 25.2568 71.8567Z" fill="#FAFAFA"/>
<path d="M26.3561 71.8568C26.2393 71.5687 26.1624 71.2734 26.1262 70.9748C26.0582 70.6765 26.0358 70.3739 26.0594 70.0723C26.1401 70.3638 26.1973 70.6582 26.2307 70.9543C26.2965 71.2532 26.3383 71.5546 26.3561 71.8568Z" fill="#FAFAFA"/>
<path d="M27.1294 71.895C26.9958 71.2951 26.9677 70.6858 27.0458 70.0811C27.1072 70.6847 27.135 71.2898 27.1294 71.895Z" fill="#FAFAFA"/>
<path d="M28.4879 71.8566C28.3932 71.2859 28.3652 70.7107 28.4043 70.1367C28.499 70.7074 28.527 71.2827 28.4879 71.8566Z" fill="#FAFAFA"/>
<path d="M29.4997 71.8949C29.4521 71.6021 29.4382 71.3072 29.4579 71.0129C29.4458 70.7182 29.4667 70.4232 29.5206 70.1309C29.5681 70.4236 29.5821 70.7185 29.5624 71.0129C29.577 71.3076 29.556 71.6026 29.4997 71.8949Z" fill="#FAFAFA"/>
<path d="M30.44 71.8009C30.4296 71.4903 30.4547 71.1796 30.5153 70.8719C30.541 70.5613 30.6011 70.2527 30.695 69.9487C30.7003 70.2594 30.6738 70.5698 30.6156 70.8778C30.59 71.1881 30.5313 71.4967 30.44 71.8009Z" fill="#FAFAFA"/>
<path d="M31.6482 71.7066C31.6499 71.4405 31.7004 71.1757 31.7987 70.9187C31.8592 70.6546 31.9703 70.3975 32.1289 70.1543C32.154 70.1543 32.0286 70.5071 31.899 70.9334C31.8353 71.1941 31.7516 71.4523 31.6482 71.7066Z" fill="#FAFAFA"/>
<path d="M21.0811 63.8657V65.1887C21.0811 65.3267 21.159 65.4591 21.2978 65.5567C21.4365 65.6543 21.6247 65.7091 21.8209 65.7091H34.6911C34.8874 65.7091 35.0755 65.6543 35.2143 65.5567C35.353 65.4591 35.431 65.3267 35.431 65.1887V63.8657H21.0811Z" fill="#01A2BB"/>
<g opacity="0.4">
<path d="M22.197 65.7095L22.3015 66.1299L34.1769 66.7267L34.4779 65.7095H22.197Z" fill="black"/>
</g>
<path d="M25.7501 63.86C23.8566 63.0897 22.8241 61.2963 22.7698 59.8293C22.7154 58.3622 23.564 56.8275 25.2778 55.9867C26.2009 55.5614 27.2792 55.3328 28.3828 55.3287C29.4863 55.3245 30.568 55.5448 31.4976 55.9632C32.4087 56.3963 33.1478 56.9856 33.6451 57.6754C34.1424 58.3652 34.3816 59.1328 34.34 59.9057C34.2773 60.6802 33.9711 61.4353 33.4434 62.1166C32.9158 62.7978 32.1798 63.3882 31.2886 63.8453" fill="#455A64"/>
<path d="M28.768 64.0041C28.7398 63.8925 28.7272 63.7793 28.7303 63.666C28.7303 63.4278 28.7303 63.1191 28.6927 62.7516C28.6676 61.9784 28.6217 60.9112 28.5506 59.7323C28.4795 58.5533 28.3876 57.4861 28.3165 56.7158C28.2873 56.3483 28.258 56.0396 28.2413 55.8015C28.2259 55.689 28.2259 55.5758 28.2413 55.4634C28.2812 55.5722 28.3064 55.6834 28.3165 55.7956C28.3541 56.0132 28.4001 56.3219 28.4503 56.7099C28.5506 57.4802 28.6593 58.5474 28.7345 59.7264C28.8098 60.9053 28.8307 61.9755 28.8265 62.7516C28.8265 63.1368 28.8265 63.4514 28.8265 63.666C28.821 63.7797 28.8014 63.8928 28.768 64.0041Z" fill="#263238"/>
<path d="M23.3298 59.4911C23.1116 59.5377 22.8805 59.5458 22.6568 59.5147C22.289 59.4911 21.9922 59.447 21.9964 59.4118C22.2146 59.3651 22.4457 59.3571 22.6694 59.3882C23.0539 59.4176 23.334 59.4617 23.3298 59.4911Z" fill="#263238"/>
<path d="M23.4343 58.18C23.4343 58.2094 23.1543 58.1594 22.8533 58.0653C22.5524 57.9712 22.3225 57.8713 22.3434 57.8389C22.3643 57.8066 22.6234 57.8566 22.9244 57.9507C23.2253 58.0447 23.472 58.1476 23.4343 58.18Z" fill="#263238"/>
<path d="M24.3958 57.2011C24.3707 57.2305 24.0781 57.1335 23.7772 56.9541C23.4762 56.7748 23.2797 56.5955 23.3173 56.572C23.355 56.5484 23.5932 56.6866 23.89 56.866C24.1868 57.0453 24.425 57.1717 24.3958 57.2011Z" fill="#263238"/>
<path d="M25.3654 56.278C25.3195 56.2927 25.1815 56.1368 25.0519 55.934C24.9224 55.7311 24.8555 55.5547 24.9015 55.54C24.9474 55.5253 25.0854 55.6811 25.215 55.884C25.3445 56.0869 25.4114 56.2574 25.3654 56.278Z" fill="#263238"/>
<path d="M26.887 55.6221C26.841 55.6221 26.6906 55.4751 26.5902 55.2458C26.4899 55.0165 26.4816 54.8254 26.5317 54.8195C26.5819 54.8136 26.6655 54.99 26.7616 55.2105C26.8578 55.431 26.933 55.6103 26.887 55.6221Z" fill="#263238"/>
<path d="M29.4242 54.887C29.4702 54.887 29.4242 55.037 29.3615 55.1987C29.2988 55.3604 29.1776 55.4927 29.1316 55.4691C29.0857 55.4456 29.1107 55.3192 29.1943 55.1575C29.2779 54.9958 29.3783 54.8753 29.4242 54.887Z" fill="#263238"/>
<path d="M31.3054 55.4545C31.3388 55.478 31.2176 55.5956 31.0379 55.7132C30.8581 55.8308 30.6784 55.9072 30.6449 55.8837C30.6115 55.8602 30.7327 55.7396 30.9166 55.622C31.1006 55.5044 31.2719 55.428 31.3054 55.4545Z" fill="#263238"/>
<path d="M32.9648 56.207C32.9899 56.2335 32.8436 56.3393 32.6346 56.4393C32.4256 56.5393 32.2166 56.5951 32.2166 56.5657C32.2166 56.5363 32.3378 56.4334 32.5468 56.3335C32.7558 56.2335 32.9355 56.1776 32.9648 56.207Z" fill="#263238"/>
<path d="M34.1393 57.3271C34.1393 57.3594 33.9261 57.4594 33.6209 57.5505C33.3158 57.6417 33.0525 57.6916 33.0316 57.6593C33.0107 57.627 33.2448 57.527 33.5499 57.4359C33.855 57.3447 34.1184 57.2977 34.1393 57.3271Z" fill="#263238"/>
<path d="M34.6033 58.553C34.6033 58.5854 34.3734 58.6354 34.0766 58.6618C33.7798 58.6883 33.5332 58.6795 33.5249 58.6442C33.5165 58.6089 33.7548 58.5619 34.0515 58.5354C34.3483 58.5089 34.595 58.5178 34.6033 58.553Z" fill="#263238"/>
<path d="M34.8416 60.0584C34.8416 60.0907 34.5741 60.0437 34.2815 59.9555C33.9889 59.8673 33.7715 59.7673 33.7924 59.735C33.8133 59.7027 34.0599 59.7526 34.3525 59.8408C34.6451 59.929 34.8625 60.026 34.8416 60.0584Z" fill="#263238"/>
<path d="M34.6325 61.3522C34.3881 61.3465 34.1532 61.2846 33.9637 61.1758C33.6335 61.0229 33.437 60.8407 33.4705 60.8171C33.5039 60.7936 33.7464 60.9289 34.064 61.07C34.3817 61.2111 34.6492 61.3169 34.6325 61.3522Z" fill="#263238"/>
<path d="M33.6754 62.5282C33.6461 62.5546 33.3911 62.4488 33.1487 62.2665C32.9063 62.0842 32.7767 61.8961 32.8143 61.8784C32.8519 61.8608 33.0442 62.0048 33.2783 62.1724C33.5123 62.34 33.7046 62.5017 33.6754 62.5282Z" fill="#263238"/>
<path d="M24.5881 62.6663C24.5881 62.6957 24.3457 62.825 23.9945 62.9603C23.7913 63.0552 23.5595 63.1156 23.3174 63.1367C23.3174 63.1073 23.564 62.9779 23.9109 62.8427C24.2579 62.7074 24.5672 62.6339 24.5881 62.6663Z" fill="#263238"/>
<path d="M23.7604 61.602C23.7604 61.6314 23.5639 61.7314 23.2839 61.8225C23.0038 61.9136 22.753 61.9607 22.7321 61.9283C22.7112 61.896 22.9244 61.799 23.2086 61.7078C23.4929 61.6167 23.7395 61.5697 23.7604 61.602Z" fill="#263238"/>
<path d="M23.1501 60.6673C23.1501 60.7026 22.8909 60.7555 22.5607 60.7879C22.2304 60.8202 21.9587 60.8202 21.9504 60.7879C21.942 60.7555 22.2054 60.6996 22.5356 60.6673C22.8658 60.635 23.1417 60.6261 23.1501 60.6673Z" fill="#263238"/>
<path d="M25.144 60.138C25.144 60.1703 24.9058 60.2556 24.563 60.282C24.2202 60.3085 23.9444 60.2673 23.9485 60.235C23.9527 60.2026 24.2202 60.185 24.5421 60.1585C24.864 60.1321 25.144 60.1056 25.144 60.138Z" fill="#263238"/>
<path d="M26.8159 58.9766C26.8159 59.009 26.6278 59.0795 26.3519 59.1001C26.076 59.1207 25.8587 59.0766 25.8629 59.0413C25.867 59.006 26.0802 58.9943 26.3352 58.9737C26.5902 58.9531 26.8159 58.9414 26.8159 58.9766Z" fill="#263238"/>
<path d="M27.1296 58.0445C27.1296 58.0768 26.8913 58.0445 26.6363 57.9886C26.3813 57.9328 26.1849 57.8504 26.2183 57.8181C26.2518 57.7858 26.4566 57.8181 26.7116 57.871C26.9665 57.9239 27.1463 58.021 27.1296 58.0445Z" fill="#263238"/>
<path d="M27.7399 57.1008C27.7065 57.1243 27.5518 57.0537 27.4473 56.9214C27.3428 56.7891 27.3261 56.6627 27.3721 56.6539C27.4181 56.6451 27.5017 56.7421 27.5978 56.8597C27.6939 56.9773 27.7734 57.0772 27.7399 57.1008Z" fill="#263238"/>
<path d="M27.004 60.9612C27.004 60.9935 26.8243 61.0553 26.586 61.0964C26.4689 61.1194 26.3481 61.1322 26.2266 61.1346L26.1931 61.0611C26.2558 61.0611 26.2976 61.0611 26.306 61.0611C26.3143 61.0611 26.306 61.0964 26.2349 61.1229L26.2015 61.0523C26.311 61.0152 26.4259 60.9866 26.5442 60.9671C26.7825 60.9347 26.9915 60.9259 27.004 60.9612Z" fill="#263238"/>
<path d="M27.3468 62.6136C27.3468 62.646 27.1211 62.743 26.8034 62.8282C26.4857 62.9135 26.214 62.9635 26.1931 62.9311C26.1722 62.8988 26.4188 62.8018 26.7365 62.7136C27.0542 62.6254 27.3301 62.5813 27.3468 62.6136Z" fill="#263238"/>
<path d="M25.4701 61.8785C25.4701 61.9108 25.3238 61.9785 25.1065 62.0314C24.8891 62.0843 24.6885 62.099 24.6885 62.0667C24.6885 62.0343 24.8348 61.9638 25.048 61.9138C25.2611 61.8638 25.4534 61.8432 25.4701 61.8785Z" fill="#263238"/>
<path d="M25.6123 58.5149C25.6123 58.5473 25.3197 58.515 24.9937 58.4473C24.6676 58.3797 24.4294 58.2562 24.4503 58.2239C24.4712 58.1916 24.7345 58.2504 25.0522 58.3297C25.3699 58.4091 25.6248 58.4797 25.6123 58.5149Z" fill="#263238"/>
<path d="M30.16 58.1504C30.1892 58.1769 30.0304 58.2856 29.8047 58.3885C29.579 58.4914 29.3867 58.5532 29.3532 58.5238C29.3198 58.4944 29.4828 58.3885 29.7085 58.2856C29.9343 58.1827 30.1307 58.121 30.16 58.1504Z" fill="#263238"/>
<path d="M30.4026 59.8085C30.4026 59.8408 30.2479 59.8937 30.0305 59.9261C29.8132 59.9584 29.6125 59.9555 29.6125 59.9261C29.6125 59.8967 29.7714 59.8379 29.9846 59.8085C30.1977 59.7791 30.3942 59.785 30.4026 59.8085Z" fill="#263238"/>
<path d="M30.6909 61.6757C30.6909 61.7051 30.4276 61.6581 30.1517 61.5669C29.8758 61.4758 29.671 61.3788 29.6877 61.3494C29.7044 61.32 29.9511 61.3641 30.2269 61.4552C30.5028 61.5464 30.7118 61.6434 30.6909 61.6757Z" fill="#263238"/>
<path d="M30.0847 63.4895C30.047 63.513 29.8882 63.4219 29.7335 63.2896C29.5789 63.1573 29.4827 63.0309 29.5204 63.0103C29.558 62.9897 29.7168 63.0779 29.8715 63.2102C30.0261 63.3425 30.1223 63.4689 30.0847 63.4895Z" fill="#263238"/>
<path d="M29.9595 56.9276C29.9887 56.9541 29.8842 57.0452 29.7087 57.107C29.5331 57.1687 29.3659 57.1746 29.3534 57.1423C29.3408 57.1099 29.4704 57.0541 29.6293 56.9982C29.7881 56.9424 29.9302 56.9012 29.9595 56.9276Z" fill="#263238"/>
<path d="M32.1874 58.6093C32.1874 58.6417 31.9951 58.721 31.715 58.7475C31.435 58.774 31.2051 58.7475 31.2051 58.7063C31.2051 58.6652 31.4266 58.6505 31.69 58.624C31.9533 58.5976 32.1707 58.5682 32.1874 58.6093Z" fill="#263238"/>
<path d="M31.7441 57.0982C31.7441 57.1305 31.5602 57.2334 31.2676 57.2981C30.975 57.3628 30.7242 57.3628 30.72 57.3304C30.7158 57.2981 30.9374 57.2422 31.2133 57.1775C31.4891 57.1129 31.7191 57.0688 31.7441 57.0982Z" fill="#263238"/>
<path d="M32.6681 60.9286C32.4158 60.9815 32.1471 60.9815 31.8948 60.9286C31.6323 60.9163 31.3807 60.8499 31.1716 60.7375C31.4273 60.7324 31.6825 60.7552 31.9282 60.8051C32.1827 60.818 32.4325 60.8597 32.6681 60.9286Z" fill="#263238"/>
<path d="M31.8321 63.1102C31.8028 63.1367 31.5437 63.0309 31.2887 62.8486C31.0337 62.6663 30.8707 62.484 30.9167 62.4634C30.9627 62.4428 31.1633 62.584 31.4141 62.7574C31.6649 62.9309 31.8739 63.0838 31.8321 63.1102Z" fill="#263238"/>
<path d="M28.2037 55.3223C27.6379 55.5641 27.117 55.8545 26.653 56.1866C25.5728 57.021 24.898 58.0753 24.726 59.1972C24.6429 59.8125 24.6823 60.4329 24.843 61.0406C24.9688 61.5363 25.132 62.027 25.3321 62.5106C25.5035 62.928 25.6581 63.2603 25.7501 63.4925C25.8157 63.6096 25.866 63.7307 25.9006 63.8541C25.8158 63.7439 25.7445 63.6288 25.6874 63.5102C25.562 63.2808 25.3864 62.9516 25.2025 62.537C24.9814 62.0552 24.8027 61.5643 24.6675 61.067C24.5 60.4481 24.4564 59.8158 24.5379 59.1884C24.7144 58.0416 25.4241 56.9678 26.5568 56.1337C26.9017 55.8862 27.2926 55.6726 27.7189 55.4987C27.8318 55.4494 27.9491 55.4052 28.07 55.3664C28.1115 55.3475 28.1565 55.3326 28.2037 55.3223Z" fill="#263238"/>
<path d="M30.624 63.9422C30.5822 63.9275 31.042 63.4542 31.4182 62.6016C31.9513 61.496 32.1143 60.3189 31.8947 59.1618C31.7731 58.5263 31.5181 57.9071 31.1381 57.3243C30.8224 56.8536 30.3875 56.4272 29.8549 56.0659C29.4825 55.8325 29.0591 55.6429 28.6009 55.5044C28.2748 55.4074 28.0784 55.3868 28.0784 55.375C28.127 55.3711 28.1761 55.3711 28.2247 55.375C28.367 55.3916 28.5069 55.4172 28.6427 55.4515C29.1234 55.5745 29.5693 55.7567 29.9594 55.9895C30.521 56.3522 30.9805 56.7861 31.3137 57.2684C31.7083 57.859 31.9719 58.4886 32.0953 59.1353C32.3239 60.3109 32.1402 61.5079 31.5603 62.6221C31.46 62.8368 31.3346 63.022 31.2385 63.1896C31.1423 63.3571 31.0295 63.4836 30.9417 63.6012C30.8474 63.72 30.7412 63.834 30.624 63.9422Z" fill="#263238"/>
<path d="M144.55 105.908C141.432 106.675 137.369 105.99 134.702 104.62C132.035 103.25 130.104 101.292 128.432 99.3016C127.709 98.4519 126.998 97.567 126.76 96.5909C126.522 95.6148 126.869 94.5123 127.943 93.8743C129.615 92.8836 132.185 93.3863 134.087 94.1478C137.054 95.3654 139.555 97.0721 141.376 99.1207C143.196 101.169 144.281 103.499 144.537 105.908" fill="#01A2BB"/>
<path d="M141.202 111.153C139.333 112.891 136.119 113.664 133.026 113.764C129.933 113.864 126.873 113.264 123.98 112.482C122.931 112.188 121.781 111.812 121.422 111.062C121.309 110.773 121.299 110.468 121.395 110.175C121.491 109.883 121.688 109.612 121.97 109.386C122.544 108.941 123.26 108.599 124.06 108.386C126.959 107.573 130.157 107.451 133.164 108.04C136.157 108.586 138.773 109.804 141.202 111.153Z" fill="#01A2BB"/>
<path d="M144.596 96.5354C142.017 96.5736 140.065 94.983 138.894 93.366C137.272 91.1034 136.733 88.5322 137.36 86.0366C137.594 85.1105 138.092 84.1109 139.275 83.667C140.458 83.223 142.029 83.5112 143.037 84.155C144.044 84.7989 144.592 85.722 144.993 86.6364C146.377 89.7881 146.08 93.3984 144.575 96.5354" fill="#01A2BB"/>
<path d="M153.052 106.555C148.655 101.289 147.923 94.8505 150.519 89.0234C150.937 88.0797 151.735 86.9978 153.14 86.936C154.699 86.8655 155.673 88.0856 156.103 89.141C157.612 92.8395 157.29 96.7703 156.939 100.607C156.734 102.974 155.581 104.996 153.035 106.552" fill="#01A2BB"/>
<path d="M157.65 108.718C158.468 106.914 159.851 105.263 161.698 103.885C163.545 102.508 165.809 101.44 168.321 100.76C169.488 100.451 170.972 100.275 171.845 100.904C172.719 101.533 172.435 102.55 171.887 103.32C171.001 104.564 169.563 105.561 168.125 106.519C166.821 107.401 165.467 108.283 163.82 108.774C162.173 109.265 159.146 109.409 157.642 108.718" fill="#01A2BB"/>
<path d="M130.375 95.1974L130.451 95.2445L130.689 95.3738L131.613 95.8589L132.282 96.2059C132.52 96.3352 132.771 96.4999 133.047 96.6439C133.59 96.9644 134.234 97.3084 134.882 97.7405L135.918 98.405C136.278 98.6372 136.62 98.896 136.997 99.1576C137.753 99.6692 138.485 100.266 139.275 100.883C142.621 103.614 145.333 106.7 147.309 110.027C147.727 110.8 148.174 111.529 148.487 112.235C148.65 112.585 148.83 112.92 148.964 113.249C149.098 113.578 149.219 113.893 149.34 114.196C149.603 114.784 149.758 115.357 149.917 115.842C149.992 116.083 150.072 116.31 150.134 116.518C150.197 116.727 150.23 116.921 150.276 117.106C150.36 117.444 150.431 117.709 150.481 117.903C150.481 117.988 150.523 118.056 150.536 118.109C150.541 118.133 150.551 118.157 150.565 118.179C150.569 118.156 150.569 118.132 150.565 118.109C150.565 118.053 150.54 117.985 150.523 117.9C150.485 117.703 150.427 117.436 150.36 117.097L150.235 116.509C150.18 116.298 150.105 116.071 150.034 115.827C149.879 115.339 149.741 114.778 149.486 114.172C149.369 113.878 149.248 113.549 149.119 113.22C148.989 112.89 148.813 112.549 148.655 112.197C148.349 111.488 147.919 110.756 147.493 109.98C146.495 108.314 145.324 106.703 143.99 105.158C142.624 103.627 141.097 102.169 139.421 100.798C138.627 100.181 137.887 99.5839 137.122 99.0753C136.746 98.8166 136.395 98.5549 136.031 98.3256L134.982 97.667C134.326 97.2378 133.674 96.8968 133.122 96.5822C132.842 96.4293 132.587 96.2882 132.344 96.1529L131.663 95.8148L130.714 95.3591L130.463 95.2415C130.41 95.2102 130.381 95.1955 130.375 95.1974Z" fill="#263238"/>
<path d="M124.553 109.786C124.655 109.782 124.756 109.77 124.854 109.751C125.05 109.727 125.339 109.674 125.69 109.63C126.742 109.489 127.806 109.398 128.875 109.357C132.409 109.205 135.945 109.624 139.213 110.58C142.482 111.536 145.397 113.005 147.735 114.875C148.446 115.438 149.104 116.033 149.704 116.657C149.921 116.874 150.072 117.056 150.184 117.171C150.237 117.233 150.296 117.291 150.36 117.347C150.324 117.28 150.276 117.216 150.218 117.156C150.118 117.036 149.98 116.862 149.771 116.627C149.195 115.988 148.552 115.379 147.848 114.807C145.52 112.904 142.591 111.41 139.295 110.445C135.999 109.481 132.427 109.073 128.866 109.254C127.792 109.303 126.724 109.41 125.673 109.574C125.301 109.627 125.017 109.689 124.837 109.724C124.74 109.74 124.645 109.761 124.553 109.786Z" fill="#263238"/>
<path d="M140.792 85.7515C140.788 85.7788 140.788 85.8064 140.792 85.8338C140.813 85.8955 140.834 85.972 140.863 86.0719C140.934 86.2865 141.03 86.5923 141.152 86.9774C141.407 87.7624 141.791 88.8973 142.276 90.2996C143.246 93.1015 144.654 96.9587 146.122 101.234C146.849 103.374 147.509 105.417 148.078 107.281C148.646 109.145 149.11 110.83 149.466 112.25C149.654 112.955 149.796 113.602 149.934 114.167C150.072 114.731 150.176 115.216 150.26 115.616C150.343 116.016 150.414 116.313 150.465 116.533C150.465 116.63 150.506 116.71 150.523 116.771C150.526 116.799 150.535 116.825 150.548 116.851C150.552 116.823 150.552 116.796 150.548 116.768C150.548 116.707 150.523 116.627 150.511 116.527C150.469 116.307 150.414 115.998 150.343 115.607C150.272 115.216 150.18 114.725 150.051 114.152C149.921 113.579 149.796 112.941 149.612 112.232C149.277 110.809 148.818 109.122 148.27 107.255C147.723 105.388 147.054 103.341 146.326 101.201C144.859 96.9235 143.43 93.0691 142.422 90.2732C141.925 88.8826 141.519 87.7565 141.235 86.9627C141.097 86.5805 140.984 86.2807 140.909 86.0631C140.872 85.969 140.842 85.8896 140.817 85.8308C140.814 85.8037 140.805 85.7771 140.792 85.7515Z" fill="#263238"/>
<path d="M150.891 116.427C150.905 116.407 150.913 116.385 150.916 116.362L150.979 116.174C151.033 115.995 151.104 115.751 151.196 115.442C151.38 114.804 151.614 113.881 151.911 112.734C152.475 110.444 153.165 107.263 153.554 103.726C153.754 101.962 153.863 100.269 153.913 98.7281C153.963 97.1876 153.913 95.8058 153.863 94.6445C153.842 94.0565 153.788 93.539 153.75 93.0775C153.713 92.6159 153.671 92.219 153.629 91.9015C153.587 91.5839 153.554 91.3399 153.533 91.1576C153.533 91.0783 153.508 91.0165 153.499 90.9636C153.504 90.9422 153.504 90.9204 153.499 90.8989C153.495 90.9204 153.495 90.9422 153.499 90.9636C153.499 91.0165 153.499 91.0812 153.499 91.1606C153.499 91.3429 153.533 91.5928 153.558 91.9074C153.583 92.2219 153.621 92.6277 153.646 93.0834C153.671 93.5391 153.713 94.0682 153.725 94.6474C153.771 95.8234 153.775 97.1905 153.725 98.7252C153.675 100.26 153.55 101.959 153.353 103.723C152.935 107.251 152.296 110.435 151.769 112.725C151.505 113.872 151.284 114.801 151.121 115.439C151.046 115.751 150.987 115.998 150.941 116.177C150.941 116.253 150.912 116.318 150.899 116.371C150.892 116.389 150.889 116.408 150.891 116.427Z" fill="#263238"/>
<path d="M150.565 117.098C150.611 117.04 150.649 116.979 150.678 116.915L150.97 116.386L151.175 116.001C151.263 115.866 151.355 115.707 151.459 115.557C151.564 115.407 151.664 115.228 151.781 115.045C151.898 114.863 152.04 114.681 152.199 114.487L152.634 113.881L153.169 113.234C153.52 112.779 153.976 112.329 154.423 111.838C155.447 110.802 156.552 109.808 157.734 108.86C158.935 107.922 160.204 107.029 161.537 106.184C162.169 105.811 162.745 105.435 163.331 105.12L164.167 104.655L164.957 104.244C165.458 103.979 165.926 103.756 166.34 103.562C166.754 103.368 167.105 103.197 167.406 103.068L168.088 102.774C168.17 102.742 168.247 102.704 168.317 102.659C168.23 102.684 168.146 102.714 168.067 102.75L167.364 103.03C167.055 103.15 166.691 103.324 166.273 103.503C165.855 103.682 165.379 103.909 164.873 104.17L164.071 104.573L163.235 105.035C162.645 105.346 162.06 105.72 161.42 106.093C160.077 106.937 158.799 107.831 157.592 108.771C156.403 109.724 155.296 110.725 154.277 111.77C153.838 112.267 153.386 112.723 153.023 113.181L152.496 113.837L152.078 114.457C151.944 114.657 151.798 114.843 151.689 115.025L151.38 115.542L151.113 115.995C151.046 116.136 150.979 116.266 150.92 116.383C150.816 116.607 150.732 116.786 150.669 116.924C150.627 116.979 150.592 117.037 150.565 117.098Z" fill="#263238"/>
<path d="M132.006 101.301C132.006 101.324 132.541 101.324 133.398 101.357C135.629 101.442 137.834 101.738 139.952 102.239C140.763 102.43 141.26 102.565 141.273 102.533C141.166 102.483 141.051 102.444 140.93 102.415C140.713 102.342 140.391 102.248 139.985 102.139C137.873 101.584 135.643 101.286 133.389 101.257C132.971 101.257 132.608 101.257 132.365 101.272C132.244 101.271 132.123 101.281 132.006 101.301Z" fill="#263238"/>
<path d="M128.691 112.705C129.173 112.013 129.782 111.367 130.501 110.785C131.272 110.237 132.142 109.763 133.088 109.374C132.771 109.432 132.469 109.526 132.194 109.65C131.509 109.93 130.886 110.278 130.346 110.685C129.807 111.093 129.359 111.556 129.017 112.058C128.856 112.259 128.746 112.478 128.691 112.705Z" fill="#263238"/>
<path d="M140.002 90.0259C139.96 90.0553 140.771 90.6139 141.674 91.3871C142.577 92.1603 143.183 92.8189 143.237 92.7983C142.45 91.7276 141.356 90.7835 140.023 90.0259H140.002Z" fill="#263238"/>
<path d="M142.656 86.7979C142.459 87.1927 142.326 87.602 142.259 88.0179C142.123 88.4265 142.057 88.845 142.063 89.2645C142.267 88.8702 142.407 88.4609 142.481 88.0444C142.61 87.6353 142.669 87.2168 142.656 86.7979Z" fill="#263238"/>
<path d="M150.883 96.9263C151.25 97.5809 151.681 98.2174 152.17 98.8314C152.602 99.466 153.094 100.08 153.641 100.669C153.277 100.013 152.847 99.3764 152.354 98.7638C151.928 98.1269 151.436 97.5128 150.883 96.9263Z" fill="#263238"/>
<path d="M155.781 93.4863C155.358 93.921 154.992 94.3827 154.691 94.8652C154.327 95.326 154.023 95.8092 153.783 96.3087C154.571 95.4129 155.24 94.4681 155.781 93.4863Z" fill="#263238"/>
<path d="M162.975 105.244C162.975 105.288 163.862 105.167 164.952 105.114C166.043 105.061 166.93 105.091 166.934 105.047C165.612 104.878 164.251 104.946 162.975 105.244Z" fill="#263238"/>
<path d="M158.068 115.645L155.619 124.7C155.54 124.99 155.32 125.252 154.996 125.44C154.673 125.629 154.266 125.732 153.846 125.732H146.615C146.187 125.733 145.773 125.626 145.447 125.432C145.121 125.237 144.904 124.968 144.834 124.671L142.702 115.645H158.068Z" fill="#263238"/>
<path d="M157.266 118.582H143.438L142.702 115.639H158.064L157.266 118.582Z" fill="#455A64"/>
<path d="M157.265 118.582L156.977 119.655H143.647L143.438 118.582H157.265Z" fill="#FAFAFA"/>
<path d="M35.1565 20.0391C41.6975 15.4385 41.6975 7.97946 35.1565 3.37886C28.6155 -1.22175 18.0105 -1.22175 11.4695 3.37886C4.9285 7.97946 4.9285 15.4385 11.4695 20.0391C18.0105 24.6397 28.6155 24.6397 35.1565 20.0391Z" fill="#01A2BB"/>
<path d="M36.4461 17.7759C41.2574 12.6496 39.2493 5.75059 31.9609 2.36657C24.6725 -1.01746 14.8637 0.394936 10.0524 5.52124C5.24115 10.6475 7.24925 17.5465 14.5377 20.9305C21.8261 24.3146 31.6348 22.9022 36.4461 17.7759Z" fill="#FAFAFA"/>
<path d="M7.47102 10.9186C7.47102 10.9186 7.47102 10.9803 7.47102 11.1008V11.63C7.47102 11.7447 7.47102 11.877 7.47102 12.0181C7.47102 12.1592 7.50864 12.3121 7.52954 12.4856L7.58806 13.0383C7.58806 13.2353 7.68838 13.4352 7.73854 13.6528C8.00885 14.7077 8.50494 15.7277 9.2099 16.678C10.1336 17.9398 11.3921 19.0655 12.9176 19.9943L13.5738 20.3883C13.8037 20.5088 14.0462 20.6206 14.2844 20.7411C14.5227 20.8616 14.7568 20.9881 15.0201 21.0851L15.8101 21.3997L16.2281 21.5555L16.6461 21.6878L17.5114 21.9553C17.804 22.0376 18.1133 22.0964 18.4184 22.1699C18.7244 22.2493 19.0371 22.3151 19.3548 22.3669C20.0022 22.4822 20.66 22.5666 21.3235 22.6198C21.6579 22.6433 21.9965 22.6815 22.3435 22.6933H23.3843C23.5598 22.6933 23.7354 22.6933 23.911 22.6933L24.4376 22.6609C24.7888 22.6345 25.1482 22.6227 25.5035 22.5874C26.9632 22.4231 28.3864 22.1266 29.7379 21.7054C30.0806 21.5966 30.4109 21.4614 30.7536 21.3409C30.9208 21.2762 31.0964 21.2233 31.2594 21.1468L31.7401 20.9263C32.3973 20.6287 33.0257 20.3006 33.6211 19.9444C34.2151 19.5686 34.7737 19.1659 35.2931 18.739L35.6818 18.4156L36.033 18.0686L36.3799 17.7158C36.5034 17.6017 36.6138 17.4807 36.7101 17.3542L37.312 16.6016L37.8136 15.8048C38.4286 14.7068 38.8076 13.5504 38.9381 12.3739C39.0278 11.1874 38.8643 9.99824 38.4532 8.84586C38.3361 8.55186 38.2191 8.28727 38.1062 8.01091L37.6464 7.20828C37.5746 7.07341 37.488 6.94268 37.3873 6.81726L37.1072 6.43801L36.823 6.06168L36.4969 5.70595C36.0674 5.23463 35.5941 4.78383 35.0799 4.35648C34.5603 3.94799 34.0017 3.5649 33.4079 3.20988L32.9899 2.94528C32.8478 2.85708 32.6806 2.78652 32.5259 2.70714C32.2124 2.5572 31.9073 2.39257 31.5896 2.25145C30.9508 1.97941 30.2876 1.73684 29.6041 1.52526C28.9373 1.31735 28.2517 1.14057 27.5517 0.996065C27.2048 0.931385 26.8537 0.884345 26.5067 0.828485L25.9884 0.746164C25.817 0.722644 25.6415 0.716764 25.4701 0.699124L24.4335 0.613865C24.0907 0.593285 23.7479 0.613864 23.4094 0.593284C22.7312 0.5918 22.0537 0.624223 21.3821 0.690305C21.0575 0.711963 20.735 0.747307 20.4165 0.796145C20.0988 0.843185 19.7811 0.872585 19.476 0.928445L18.5731 1.11366L18.1258 1.2048L17.7078 1.32534L16.8718 1.56054C16.5918 1.63698 16.3368 1.74871 16.0776 1.83691C15.8185 1.92511 15.5551 2.02213 15.3085 2.13091L14.5937 2.4543C12.9005 3.23019 11.4359 4.22841 10.28 5.3943C9.40151 6.2705 8.71921 7.23624 8.25686 8.25786C8.15394 8.45035 8.06603 8.64664 7.99352 8.84586C7.93082 9.03696 7.8723 9.2163 7.82214 9.38094C7.77198 9.54558 7.71346 9.69847 7.67584 9.83959C7.63822 9.98071 7.62986 10.1101 7.60896 10.2247C7.56716 10.4511 7.53372 10.6275 7.50864 10.751C7.48356 10.8745 7.47102 10.9274 7.47102 10.9274C7.47102 10.9274 7.47102 10.8686 7.47102 10.748C7.47102 10.6275 7.51282 10.454 7.54626 10.2218C7.54626 10.1042 7.58388 9.97482 7.60478 9.8337C7.62568 9.69258 7.69256 9.5397 7.73854 9.37212C7.78452 9.20455 7.84722 9.0252 7.90574 8.8341C7.97467 8.63515 8.05838 8.43889 8.15654 8.2461C8.61267 7.21665 9.28924 6.24212 10.1629 5.35608C11.3104 4.16311 12.777 3.13859 14.4809 2.33964L15.1998 2.01037C15.4506 1.91041 15.714 1.81927 15.9731 1.71637C16.2323 1.61347 16.4915 1.51057 16.7757 1.42237L17.6117 1.18128L18.0297 1.06074L18.502 0.984305L19.4175 0.796145C19.7268 0.737345 20.0486 0.705005 20.3663 0.660905C20.6885 0.608688 21.0153 0.571368 21.3444 0.549185C22.0142 0.491971 22.6888 0.467412 23.3634 0.475685C23.7061 0.475685 24.0531 0.475685 24.4 0.493325L25.4492 0.578584C25.6248 0.593284 25.8003 0.602104 25.9759 0.625624L26.5026 0.705004C26.8495 0.763804 27.209 0.807905 27.5601 0.875525C28.2725 1.02061 28.9707 1.19837 29.6501 1.40766C30.3445 1.62037 31.0177 1.86594 31.6649 2.14266C31.9867 2.28378 32.296 2.43666 32.6137 2.6013C32.7684 2.68362 32.9398 2.75418 33.0861 2.84238L33.5291 3.10992C34.134 3.46861 34.7038 3.85561 35.2346 4.26828C35.757 4.70077 36.2374 5.1575 36.6725 5.63539L37.0069 5.99701L37.2911 6.3792L37.5754 6.76435C37.6782 6.89042 37.7663 7.02218 37.8387 7.1583L38.3027 7.97268C38.4197 8.26668 38.541 8.53423 38.658 8.81941C39.0751 9.98308 39.24 11.1844 39.1471 12.3827C39.0176 13.5802 38.63 14.7569 37.9976 15.8725C37.8304 16.1429 37.659 16.4105 37.4918 16.678C37.3246 16.9456 37.0738 17.1896 36.8773 17.4424C36.7802 17.5711 36.6684 17.694 36.5429 17.8099L36.1918 18.1657L35.8365 18.5185L35.4185 18.8448C34.8998 19.2769 34.3413 19.6844 33.7465 20.0649C33.1437 20.426 32.5069 20.758 31.8404 21.0586L31.3514 21.2821C31.1883 21.3585 31.0086 21.4114 30.8414 21.4761C30.4945 21.5996 30.1601 21.7348 29.8089 21.8465C28.4383 22.2672 26.9972 22.5636 25.5203 22.7285C25.1608 22.7609 24.7971 22.7756 24.4418 22.7991L23.9068 22.8314C23.727 22.8314 23.5473 22.8314 23.3717 22.8314H22.3184C21.9714 22.8314 21.6287 22.7785 21.2859 22.755C20.615 22.7011 19.9502 22.6146 19.2962 22.4963C18.9763 22.4421 18.6609 22.3754 18.3516 22.2964C18.0422 22.2199 17.7287 22.1611 17.432 22.0759L16.5625 21.8024L16.1445 21.6672L15.7265 21.5084L14.9281 21.1909C14.6648 21.091 14.4307 20.9528 14.1883 20.8381C13.9458 20.7235 13.7034 20.6029 13.4735 20.4794L12.8214 20.0884C11.2893 19.1467 10.0303 18.0057 9.11376 16.728C8.411 15.769 7.92181 14.7398 7.6633 13.6763C7.61732 13.4558 7.53372 13.2529 7.52118 13.0559C7.50864 12.859 7.47938 12.6796 7.46266 12.5091C7.44594 12.3386 7.41668 12.1828 7.4125 12.0387C7.40832 11.8946 7.4125 11.7653 7.4125 11.6477C7.4125 11.4184 7.4125 11.242 7.4334 11.1185C7.44044 11.0514 7.453 10.9846 7.47102 10.9186Z" fill="#263238"/>
<path d="M23.2087 2.35156C23.3124 2.65749 23.3476 2.97292 23.3132 3.28648C23.348 3.60005 23.3127 3.91551 23.2087 4.2214C23.1098 3.91496 23.0759 3.5999 23.1083 3.28648C23.0763 2.97307 23.1101 2.65805 23.2087 2.35156Z" fill="#263238"/>
<path d="M30.4149 3.85352C30.1862 4.11505 29.9046 4.35176 29.5789 4.55618C29.2882 4.78527 28.9517 4.98335 28.5798 5.14418C28.8046 4.88067 29.0867 4.64357 29.4158 4.44152C29.7031 4.21 30.0402 4.01159 30.4149 3.85352Z" fill="#263238"/>
<path d="M34.6284 7.09082C34.2937 7.29005 33.9276 7.46169 33.5374 7.60238C33.1813 7.77942 32.7969 7.92645 32.3921 8.04044C32.6852 7.80693 33.0383 7.61442 33.4329 7.47302C33.7926 7.29249 34.1985 7.1627 34.6284 7.09082Z" fill="#263238"/>
<path d="M37.0945 11.8947C36.4966 11.9644 35.8897 11.9881 35.2845 11.9653C34.6794 11.9881 34.0725 11.9644 33.4746 11.8947C34.0719 11.8213 34.6792 11.7966 35.2845 11.8212C35.8899 11.7966 36.4972 11.8213 37.0945 11.8947Z" fill="#263238"/>
<path d="M11.9771 11.724C11.4136 11.7974 10.8395 11.8221 10.2675 11.7975C9.69548 11.8221 9.12135 11.7974 8.55786 11.724C9.12197 11.6543 9.69565 11.6306 10.2675 11.6534C10.8393 11.6306 11.413 11.6543 11.9771 11.724Z" fill="#263238"/>
<path d="M13.7536 15.2993C13.3721 15.6104 12.9384 15.8878 12.462 16.1255C12.0299 16.4013 11.5528 16.6401 11.0408 16.8369C11.4256 16.529 11.8589 16.2528 12.3324 16.0137C12.766 15.7384 13.2428 15.4987 13.7536 15.2993Z" fill="#263238"/>
<path d="M18.1383 18.0659C17.8816 18.4381 17.5868 18.7968 17.2564 19.139C16.983 19.5046 16.6714 19.8554 16.3242 20.1886C16.4913 19.7887 16.7466 19.4097 17.0808 19.0655C17.3574 18.6957 17.7142 18.3585 18.1383 18.0659Z" fill="#263238"/>
<path d="M23.2085 21.6349C23.1093 21.2134 23.0756 20.7856 23.1082 20.359C23.0758 19.9333 23.1094 19.5065 23.2085 19.0859C23.3129 19.506 23.348 19.9332 23.313 20.359C23.3481 20.7857 23.313 21.2138 23.2085 21.6349Z" fill="#263238"/>
<path d="M31.017 19.9355C29.9434 19.5368 29.0161 18.9682 28.3083 18.2744C28.7792 18.5346 29.2299 18.8123 29.6585 19.1064C30.1326 19.3651 30.5861 19.6418 31.017 19.9355Z" fill="#263238"/>
<path d="M34.6828 17.1545C34.2465 16.9462 33.8503 16.6992 33.5041 16.4195C33.104 16.1696 32.7488 15.8862 32.4465 15.5757C32.8907 15.7847 33.2941 16.0338 33.6462 16.3166C34.0395 16.5648 34.3877 16.8462 34.6828 17.1545Z" fill="#263238"/>
<path d="M13.5904 8.29881C13.1954 8.1202 12.838 7.90347 12.5287 7.65495C12.175 7.43958 11.868 7.18899 11.6174 6.91113C12.0131 7.08793 12.3695 7.30489 12.675 7.55499C13.0288 7.77106 13.3371 8.02152 13.5904 8.29881Z" fill="#263238"/>
<path d="M18.1089 4.94763C17.721 4.77637 17.3716 4.5653 17.0723 4.3214C16.7246 4.1099 16.422 3.86435 16.1736 3.59229C16.5586 3.76402 16.9051 3.97506 17.2019 4.21851C17.5538 4.42867 17.8595 4.67438 18.1089 4.94763Z" fill="#263238"/>
<path d="M23.2506 5.79395C23.282 5.92603 23.296 6.05988 23.2924 6.19379C23.2924 6.48779 23.3133 6.84353 23.3258 7.27865C23.3258 8.19593 23.3592 9.46306 23.3592 10.8625C23.3592 11.13 23.3592 11.3946 23.3592 11.6475V11.771L23.2046 11.7151C21.6663 11.1683 20.312 10.6773 19.3464 10.3215L18.2137 9.89524C18.0659 9.84934 17.9257 9.79216 17.7957 9.72473C17.9406 9.75442 18.0808 9.79483 18.2137 9.84526L19.3715 10.2333C20.3538 10.5656 21.7207 11.036 23.2631 11.5799L23.1084 11.6475C23.1084 11.3946 23.1084 11.13 23.1084 10.8625C23.1084 9.46306 23.1084 8.19593 23.1419 7.27865C23.1419 6.84353 23.167 6.47897 23.1753 6.19379C23.181 6.05905 23.2062 5.92508 23.2506 5.79395Z" fill="#263238"/>
<path d="M45.9018 59.6054L53.568 71.5124C53.7741 71.7715 54.0699 71.9898 54.428 72.1471C54.786 72.3043 55.1947 72.3955 55.6162 72.4121L90.9288 72.3797C90.8857 72.1277 90.7149 71.8951 90.4477 71.7245C90.1806 71.5539 89.8349 71.4567 89.4742 71.4507L76.0731 71.2449L69.2012 59.6672C69.0951 59.4865 68.9155 59.3318 68.685 59.2225C68.4546 59.1132 68.1833 59.0541 67.9054 59.0527L46.5205 58.9381C46.4073 58.9367 46.2955 58.9556 46.1955 58.9929C46.0956 59.0302 46.0107 59.0848 45.9489 59.1515C45.8871 59.2182 45.8503 59.2948 45.8421 59.3742C45.8339 59.4536 45.8544 59.5332 45.9018 59.6054Z" fill="#E0E0E0"/>
<path d="M45.9019 59.6054C45.8673 59.563 45.8459 59.5159 45.8392 59.4672C45.8249 59.3949 45.8344 59.3212 45.867 59.2519C45.8997 59.1826 45.9545 59.1194 46.0273 59.0674C46.1383 58.9868 46.2865 58.9367 46.4453 58.9263C46.6167 58.9263 46.7965 58.9263 46.9929 58.9263H48.3556L57.1587 58.9498L63.3409 58.9733L66.8187 58.988H67.7257C68.0492 58.9713 68.3728 59.0202 68.6579 59.1291C68.9466 59.2465 69.1727 59.4273 69.3016 59.6436L69.6652 60.2581C71.634 63.5715 73.8452 67.2582 76.1693 71.2125L76.0774 71.1684L83.3213 71.2772L87.0833 71.336L88.9977 71.3654H89.4826C89.7429 71.3719 89.9971 71.4226 90.2235 71.5132C90.4499 71.6039 90.6417 71.7317 90.7826 71.8858C90.9131 72.0301 90.9972 72.1926 91.0292 72.3621V72.4473H90.908H68.9128H56.051C55.8712 72.4473 55.6999 72.4473 55.5159 72.4473C55.334 72.4403 55.1541 72.4166 54.9809 72.3768C54.6429 72.3055 54.33 72.1849 54.0628 72.0228C53.7955 71.8607 53.58 71.6607 53.4301 71.436C53.1515 71.0067 52.8839 70.5883 52.6276 70.1806C50.5376 66.9084 48.8656 64.2653 47.6826 62.4307C47.11 61.5193 46.6585 60.8108 46.3534 60.3228C46.2029 60.0846 46.09 59.9024 46.0106 59.773C45.9312 59.6436 45.9019 59.5848 45.9019 59.5848C45.9019 59.5848 45.9479 59.6466 46.0315 59.7671L46.391 60.311L47.762 62.4072L52.778 70.1365L53.589 71.3889C53.7287 71.6006 53.9312 71.7887 54.1828 71.9409C54.4344 72.093 54.7293 72.2055 55.0478 72.2709C55.378 72.3355 55.7219 72.3584 56.0635 72.3386H59.3532L68.9379 72.3209L90.9289 72.2944L90.8202 72.3797C90.7929 72.2336 90.7216 72.0933 90.6112 71.9681C90.448 71.7891 90.2057 71.6527 89.9215 71.58C89.7813 71.5421 89.6328 71.5212 89.4826 71.5183H89.0019L87.0875 71.4859L83.3255 71.4272L76.0857 71.3154H76.0147L75.9896 71.2713C73.653 67.317 71.471 63.6273 69.5106 60.311L69.1469 59.6936C69.0341 59.5027 68.8361 59.3427 68.5826 59.2379C68.3265 59.1412 68.0367 59.0974 67.7466 59.1115H66.8396L63.366 59.0909L57.1838 59.0468L48.3807 58.9792L47.018 58.9645C46.8215 58.9645 46.6376 58.9645 46.4788 58.9645C46.3327 58.9746 46.1957 59.0192 46.09 59.0909C46.0193 59.1399 45.965 59.1994 45.931 59.265C45.8971 59.3306 45.8843 59.4007 45.8936 59.4702C45.8909 59.5153 45.8937 59.5606 45.9019 59.6054Z" fill="#263238"/>
<path d="M75.4044 72.515C75.3628 72.4753 75.329 72.4318 75.3041 72.3857C75.233 72.2828 75.1494 72.1534 75.0491 72.0005L74.1504 70.5746C73.4064 69.3663 72.3906 67.6934 71.2997 65.8354C70.2087 63.9773 69.2473 62.2897 68.5785 61.0579C68.2483 60.4434 67.9807 59.9436 67.8094 59.5879C67.7341 59.4262 67.6714 59.2939 67.6171 59.1851C67.5889 59.1392 67.5706 59.0907 67.5627 59.041C67.6038 59.0816 67.6362 59.1261 67.6589 59.1733C67.7216 59.2792 67.7968 59.4085 67.893 59.5643L68.729 61.0108C69.4521 62.2486 70.426 63.9214 71.5087 65.7677C72.5913 67.6141 73.5736 69.2957 74.2967 70.5247C74.6395 71.1127 74.9195 71.6066 75.1327 71.9682L75.3501 72.3651C75.3809 72.4124 75.3993 72.4632 75.4044 72.515Z" fill="#455A64"/>
<path d="M61.556 65.3709C61.556 65.5233 61.4917 65.6724 61.3712 65.7991C61.2507 65.9259 61.0794 66.0246 60.879 66.0828C60.6787 66.141 60.4582 66.1561 60.2457 66.1261C60.0331 66.0962 59.838 66.0225 59.685 65.9145C59.532 65.8065 59.428 65.6689 59.3863 65.5193C59.3445 65.3697 59.3668 65.2148 59.4503 65.0741C59.5338 64.9334 59.6748 64.8133 59.8555 64.729C60.0361 64.6447 60.2483 64.6 60.4651 64.6006C60.6087 64.6006 60.7509 64.6205 60.8835 64.6593C61.0162 64.698 61.1366 64.7548 61.238 64.8264C61.3393 64.8979 61.4196 64.9829 61.4742 65.0763C61.5288 65.1698 61.5566 65.2699 61.556 65.3709Z" fill="white"/>
<path d="M111.344 46.9455L108.54 43.4675C110.281 41.484 110.905 39.1139 110.289 36.8233C109.672 34.5327 107.859 32.4872 105.207 31.0889C102.554 29.6907 99.2544 29.0409 95.9555 29.2673C92.6565 29.4937 89.5973 30.5799 87.3793 32.3124C85.1613 34.0448 83.9449 36.2982 83.9694 38.6295C83.9938 40.9608 85.2573 43.2013 87.5114 44.9106C89.7656 46.6198 92.8472 47.6742 96.1506 47.8663C99.454 48.0584 102.74 47.3744 105.363 45.9488L111.344 46.9455Z" fill="#FAFAFA"/>
<path d="M111.344 46.9456L105.346 45.9901C105.339 45.9895 105.332 45.9878 105.326 45.9851C105.32 45.9825 105.315 45.9788 105.311 45.9746C105.308 45.9703 105.306 45.9655 105.305 45.9605C105.304 45.9556 105.306 45.9506 105.308 45.946C105.306 45.9412 105.306 45.936 105.308 45.9313L105.383 45.9842C103.54 46.997 101.348 47.6483 99.0298 47.8717C98.3376 47.9402 97.6383 47.9658 96.9398 47.9481C96.5803 47.9481 96.2125 47.9275 95.8404 47.904L94.7202 47.7864C91.3838 47.3266 88.4215 45.9905 86.4354 44.0497C85.3311 42.9745 84.5672 41.7455 84.195 40.4452C83.8102 39.0714 83.863 37.6547 84.3496 36.2969C84.8523 34.8823 85.8266 33.5721 87.192 32.4749C88.5799 31.3455 90.3311 30.4656 92.3 29.9083C94.1878 29.3837 96.2193 29.1646 98.2439 29.2673C100.158 29.3542 102.022 29.7356 103.703 30.3846C106.708 31.5682 108.953 33.5184 109.973 35.8324C110.384 36.8161 110.579 37.8383 110.55 38.8635C110.481 40.4995 109.795 42.0933 108.564 43.4822V43.447L111.327 46.9426L108.477 43.4822C108.471 43.4766 108.469 43.4699 108.469 43.4631C108.469 43.4564 108.471 43.4497 108.477 43.444C109.676 42.0608 110.339 40.4804 110.399 38.8606C110.42 37.8479 110.222 36.8389 109.814 35.8676C108.788 33.5878 106.561 31.6703 103.59 30.508C101.936 29.8654 100.101 29.486 98.2147 29.3967C96.221 29.2974 94.2211 29.5145 92.3627 30.0318C90.4286 30.5806 88.7089 31.4465 87.3467 32.5572C86.0022 33.6407 85.0436 34.9336 84.5502 36.3292C84.0706 37.6656 84.0164 39.06 84.3914 40.4129C84.7568 41.6933 85.5063 42.9041 86.5901 43.9644C88.5421 45.8814 91.4575 47.2047 94.7453 47.6659L95.8488 47.7864C96.2166 47.807 96.5803 47.8158 96.9356 47.8305C97.6337 47.8506 98.333 47.828 99.0256 47.7629C101.322 47.5501 103.498 46.9141 105.333 45.9195C105.344 45.9131 105.358 45.9095 105.373 45.9095C105.387 45.9095 105.401 45.9131 105.413 45.9195C105.419 45.9265 105.422 45.9347 105.422 45.943C105.422 45.9514 105.419 45.9595 105.413 45.9665L105.379 45.9048L111.344 46.9456Z" fill="#263238"/>
<path d="M94.2437 38.9694V39.8514H93.6V39.0252C93.6 38.7724 93.4412 38.6577 93.182 38.6577C92.9228 38.6577 92.6929 38.7871 92.6929 39.0664V39.8514H92.0241V39.0252C92.0241 38.7724 91.8737 38.6577 91.6061 38.6577C91.3386 38.6577 91.1213 38.7871 91.1213 39.0664V39.8514H90.4775V38.2873H91.092V38.4666C91.1806 38.3994 91.2889 38.3464 91.4094 38.3114C91.5299 38.2764 91.6598 38.2601 91.7901 38.2638C91.9329 38.2588 92.0752 38.2798 92.2033 38.3245C92.3313 38.3693 92.4409 38.4365 92.5216 38.5195C92.6192 38.4371 92.7422 38.3713 92.8812 38.327C93.0202 38.2827 93.1716 38.2611 93.3241 38.2638C93.455 38.2562 93.5866 38.2697 93.7089 38.3034C93.8312 38.3371 93.9409 38.39 94.0297 38.4581C94.1184 38.5262 94.1839 38.6077 94.221 38.6963C94.2581 38.7849 94.2658 38.8783 94.2437 38.9694Z" fill="#263238"/>
<path d="M98.5825 38.9694V39.8514H97.9388V39.0253C97.9388 38.7724 97.7758 38.6578 97.5208 38.6578C97.2658 38.6578 97.0276 38.7871 97.0276 39.0664V39.8514H96.3838V39.0253C96.3838 38.7724 96.2292 38.6578 95.9658 38.6578C95.7025 38.6578 95.4768 38.7871 95.4768 39.0664V39.8514H94.8247V38.2873H95.4433V38.4667C95.5318 38.3992 95.6401 38.3462 95.7606 38.3111C95.8811 38.2761 96.0111 38.26 96.1414 38.2638C96.2843 38.2589 96.4265 38.2798 96.5546 38.3246C96.6827 38.3693 96.7923 38.4365 96.8729 38.5196C96.9693 38.4369 97.0914 38.3708 97.2298 38.3264C97.3682 38.2821 97.5193 38.2607 97.6713 38.2638C97.8015 38.2571 97.9322 38.2714 98.0534 38.3055C98.1746 38.3396 98.2832 38.3927 98.371 38.4606C98.4588 38.5286 98.5235 38.6097 98.5601 38.6979C98.5968 38.786 98.6044 38.8789 98.5825 38.9694Z" fill="#263238"/>
<path d="M102.921 38.9692V39.8512H102.273V39.025C102.273 38.7722 102.115 38.6575 101.855 38.6575C101.596 38.6575 101.362 38.7869 101.362 39.0662V39.8512H100.719V39.025C100.719 38.7722 100.564 38.6575 100.301 38.6575C100.037 38.6575 99.8114 38.7869 99.8114 39.0662V39.8512H99.1677V38.2871H99.7822V38.4664C99.8712 38.3995 99.9795 38.3467 100.1 38.3118C100.22 38.2768 100.35 38.2603 100.48 38.2636C100.623 38.2587 100.765 38.2796 100.893 38.3244C101.022 38.3691 101.131 38.4363 101.212 38.5194C101.309 38.4369 101.432 38.3711 101.571 38.3268C101.71 38.2825 101.862 38.2609 102.014 38.2636C102.144 38.2574 102.274 38.272 102.395 38.3063C102.516 38.3406 102.624 38.3937 102.711 38.4617C102.798 38.5296 102.863 38.6105 102.899 38.6984C102.936 38.7863 102.943 38.8789 102.921 38.9692Z" fill="#263238"/>
<path d="M103.344 39.6013C103.369 39.5403 103.422 39.4866 103.494 39.4484C103.566 39.4103 103.654 39.3896 103.745 39.3896C103.835 39.3896 103.923 39.4103 103.996 39.4484C104.068 39.4866 104.121 39.5403 104.146 39.6013C104.164 39.6451 104.168 39.6913 104.156 39.7362C104.145 39.7811 104.118 39.8235 104.079 39.86C104.04 39.8966 103.99 39.9262 103.932 39.9466C103.874 39.967 103.81 39.9776 103.745 39.9776C103.68 39.9776 103.616 39.967 103.558 39.9466C103.5 39.9262 103.449 39.8966 103.411 39.86C103.372 39.8235 103.345 39.7811 103.334 39.7362C103.322 39.6913 103.325 39.6451 103.344 39.6013Z" fill="#263238"/>
<path d="M104.426 39.6013C104.451 39.5403 104.504 39.4866 104.577 39.4484C104.649 39.4103 104.737 39.3896 104.827 39.3896C104.918 39.3896 105.006 39.4103 105.078 39.4484C105.151 39.4866 105.203 39.5403 105.229 39.6013C105.247 39.6451 105.25 39.6913 105.239 39.7362C105.227 39.7811 105.201 39.8235 105.162 39.86C105.123 39.8966 105.072 39.9262 105.014 39.9466C104.956 39.967 104.892 39.9776 104.827 39.9776C104.763 39.9776 104.699 39.967 104.64 39.9466C104.582 39.9262 104.532 39.8966 104.493 39.86C104.454 39.8235 104.428 39.7811 104.416 39.7362C104.405 39.6913 104.408 39.6451 104.426 39.6013Z" fill="#263238"/>
<path d="M105.509 39.6013C105.534 39.5403 105.587 39.4866 105.659 39.4484C105.731 39.4103 105.819 39.3896 105.91 39.3896C106 39.3896 106.088 39.4103 106.161 39.4484C106.233 39.4866 106.286 39.5403 106.311 39.6013C106.329 39.6451 106.333 39.6913 106.321 39.7362C106.31 39.7811 106.283 39.8235 106.244 39.86C106.205 39.8966 106.155 39.9262 106.097 39.9466C106.039 39.967 105.975 39.9776 105.91 39.9776C105.845 39.9776 105.781 39.967 105.723 39.9466C105.665 39.9262 105.614 39.8966 105.576 39.86C105.537 39.8235 105.51 39.7811 105.499 39.7362C105.487 39.6913 105.49 39.6451 105.509 39.6013Z" fill="#263238"/>
<path d="M176.878 125.468C176.878 125.512 135.421 125.544 84.2953 125.544C33.1697 125.544 -8.2959 125.512 -8.2959 125.468C-8.2959 125.423 33.153 125.391 84.2953 125.391C135.438 125.391 176.878 125.426 176.878 125.468Z" fill="#263238"/>
</g>
<defs>
<clipPath id="clip0_170_15194">
<rect width="172" height="126" fill="white"/>
</clipPath>
</defs>
</svg>
