<?xml version="1.0" encoding="utf-8"?><svg version="1.1" id="Layer_1" xmlns="http://www.w3.org/2000/svg" xmlns:xlink="http://www.w3.org/1999/xlink" x="0px" y="0px" viewBox="0 0 122.88 101.527" enable-background="new 0 0 122.88 101.527" xml:space="preserve"><g><path d="M9.942,0h102.986c2.727,0,5.213,1.118,7.016,2.918c1.811,1.809,2.936,4.295,2.936,7.024v81.641 c0,2.729-1.123,5.217-2.935,7.026c-1.803,1.8-4.288,2.917-7.017,2.917H9.942c-2.727,0-5.208-1.118-7.009-2.918l-0.016-0.015 C1.119,96.794,0,94.312,0,91.584V9.943c0-2.727,1.119-5.209,2.917-7.01l0.016-0.015C4.734,1.118,7.215,0,9.942,0L9.942,0z M53.214,33.372h32.717v8.604H74.94v26.197H64.194V41.977h-10.98V33.372L53.214,33.372L53.214,33.372z M36.95,33.372h10.792v34.802 H36.95V33.372L36.95,33.372L36.95,33.372z M112.929,7.95H9.942c-0.551,0-1.05,0.222-1.412,0.581 c-0.358,0.361-0.58,0.862-0.58,1.413v81.641c0,0.551,0.222,1.052,0.58,1.413c0.362,0.358,0.861,0.58,1.412,0.58h102.986 c0.56,0,1.065-0.226,1.428-0.587c0.354-0.354,0.573-0.852,0.573-1.406V9.943c0-0.553-0.22-1.05-0.575-1.404 C113.991,8.175,113.485,7.95,112.929,7.95L112.929,7.95z"/></g></svg>