<svg width="51" height="50" viewBox="0 0 51 50" fill="none" xmlns="http://www.w3.org/2000/svg">
<rect width="50.3227" height="50" rx="22" fill="white"/>
<path d="M34.8187 22.1559C34.5029 22.134 34.1867 22.1919 33.8955 22.3247C33.6042 22.4575 33.346 22.6616 33.1414 22.9207C32.9368 23.1798 32.7915 23.4867 32.7172 23.8169C32.6428 24.147 32.6415 24.4913 32.7133 24.822L28.8467 28.6045C28.4737 28.5089 28.085 28.5089 27.712 28.6045L24.924 25.8954C24.9984 25.5638 24.999 25.218 24.9258 24.8861C24.8526 24.5541 24.7077 24.2453 24.5027 23.9847C24.2977 23.724 24.0385 23.5187 23.7459 23.3855C23.4534 23.2523 23.1357 23.1948 22.8187 23.2178C22.5017 23.1951 22.1842 23.2528 21.8918 23.3861C21.5993 23.5195 21.3402 23.7247 21.1353 23.9853C20.9304 24.2459 20.7855 24.5545 20.7122 24.8863C20.6389 25.2181 20.6393 25.5638 20.7133 25.8954L15.7387 30.7297C15.4312 30.6358 15.1081 30.6164 14.7928 30.6731C14.4775 30.7297 14.1779 30.861 13.9157 31.0573C13.6536 31.2536 13.4354 31.5101 13.277 31.8082C13.1186 32.1062 13.024 32.4384 13 32.7805C13.0297 33.3717 13.2754 33.9264 13.6838 34.3243C14.0922 34.7222 14.6303 34.9311 15.1813 34.9057C15.4971 34.9276 15.8133 34.8697 16.1045 34.7369C16.3958 34.6041 16.654 34.4 16.8586 34.1409C17.0632 33.8818 17.2085 33.5749 17.2828 33.2447C17.3572 32.9146 17.3585 32.5704 17.2867 32.2396L22.2507 27.3938C22.6236 27.4894 23.0124 27.4894 23.3853 27.3938L26.1667 30.1029C26.0923 30.4345 26.0917 30.7803 26.1649 31.1122C26.2381 31.4442 26.383 31.7529 26.588 32.0136C26.7929 32.2743 27.0522 32.4795 27.3447 32.6128C27.6373 32.746 27.9549 32.8035 28.272 32.7805C28.589 32.8032 28.9065 32.7455 29.1989 32.6122C29.4913 32.4788 29.7504 32.2736 29.9553 32.013C30.1602 31.7524 30.3052 31.4437 30.3785 31.1119C30.4518 30.7801 30.4514 30.4345 30.3773 30.1029L34.2613 26.3304C34.5687 26.4244 34.8917 26.4438 35.2069 26.3872C35.5221 26.3306 35.8216 26.1995 36.0838 26.0033C36.3459 25.8072 36.5641 25.5509 36.7226 25.253C36.8811 24.9551 36.9758 24.6231 37 24.2811C36.9703 23.6899 36.7246 23.1352 36.3162 22.7373C35.9078 22.3395 35.3697 22.1305 34.8187 22.1559Z" fill="#141414"/>
<path d="M28 23.5867L29.2533 20.6243L32 19.2934L29.2533 17.9624L28 15L26.7733 17.9624L24 19.2934L26.7733 20.6243L28 23.5867Z" fill="#141414"/>
<path d="M16.3333 25.3426L17 22.4804L19.6667 21.7648L17 21.0493L16.3333 18.187L15.6667 21.0493L13 21.7648L15.6667 22.4804L16.3333 25.3426Z" fill="#141414"/>
</svg>
