<svg width="51" height="50" viewBox="0 0 51 50" fill="none" xmlns="http://www.w3.org/2000/svg">
<rect width="50.3227" height="50" rx="22" fill="white"/>
<path fill-rule="evenodd" clip-rule="evenodd" d="M15 17.875C15 16.2872 16.3431 15 18 15H32C33.6569 15 35 16.2872 35 17.875V25.7812H15V17.875ZM15 27.2188H35V27.4583C35 29.0462 33.6569 30.3333 32 30.3333H25.75V32.7292H28C28.4142 32.7292 28.75 33.051 28.75 33.4479C28.75 33.8449 28.4142 34.1667 28 34.1667H22C21.5858 34.1667 21.25 33.8449 21.25 33.4479C21.25 33.051 21.5858 32.7292 22 32.7292H24.25V30.3333H18C16.3431 30.3333 15 29.0462 15 27.4583V27.2188Z" fill="#141414"/>
<path d="M19 23.5835L23 19.5835L27 23.5835L32 19.5835" stroke="white"/>
</svg>
