<svg width="51" height="50" viewBox="0 0 51 50" fill="none" xmlns="http://www.w3.org/2000/svg">
<rect width="50.3227" height="50" rx="22" fill="white"/>
<path fill-rule="evenodd" clip-rule="evenodd" d="M24.0719 11.9593C24.0719 11.4295 23.621 11 23.0648 11C22.5085 11 22.0576 11.4295 22.0576 11.9593V14.5174C22.0576 15.0472 22.5085 15.4767 23.0648 15.4767C23.621 15.4767 24.0719 15.0472 24.0719 14.5174V11.9593ZM29.4429 15.7962C29.4429 15.2664 28.9919 14.8369 28.4357 14.8369C27.8795 14.8369 27.4286 15.2664 27.4286 15.7962V18.3543C27.4286 18.8841 27.8795 19.3136 28.4357 19.3136C28.9919 19.3136 29.4429 18.8841 29.4429 18.3543V15.7962ZM19.3239 17.9949C19.8568 17.8433 20.1599 17.3089 20.0008 16.8013C19.8416 16.2936 19.2805 16.005 18.7476 16.1565C17.4547 16.5242 16.3228 17.009 15.4916 17.6098C14.674 18.2008 14 19.0193 14 20.0511C14 24.9545 16.7083 29.2477 20.7143 31.2524V34.9964C20.7143 37.6078 23.611 39.2848 26.0562 38.1281L28.7419 36.8577C29.992 36.2664 30.7857 35.0551 30.7857 33.7259V31.2524C34.7917 29.2477 37.5 24.9545 37.5 20.0511C37.5 19.0193 36.826 18.2008 36.0084 17.6098C35.1772 17.009 34.0453 16.5242 32.7524 16.1565C32.2195 16.005 31.6584 16.2936 31.4992 16.8013C31.3401 17.3089 31.6432 17.8433 32.1761 17.9949C33.3393 18.3257 34.2216 18.7268 34.7907 19.1381C35.3734 19.5593 35.4857 19.8793 35.4857 20.0511C35.4857 20.2019 35.4031 20.4623 34.983 20.8147C34.5645 21.1657 33.9012 21.5256 32.9948 21.8471C31.1896 22.4876 28.6284 22.9031 25.75 22.9031C22.8716 22.9031 20.3104 22.4876 18.5052 21.8471C17.5988 21.5256 16.9355 21.1657 16.517 20.8147C16.0969 20.4623 16.0143 20.2019 16.0143 20.0511C16.0143 19.8793 16.1266 19.5593 16.7093 19.1381C17.2784 18.7268 18.1607 18.3257 19.3239 17.9949ZM23.0648 17.395C23.621 17.395 24.0719 17.8245 24.0719 18.3543V19.6334C24.0719 20.1632 23.621 20.5926 23.0648 20.5926C22.5085 20.5926 22.0576 20.1632 22.0576 19.6334V18.3543C22.0576 17.8245 22.5085 17.395 23.0648 17.395Z" fill="#141414"/>
</svg>
