<svg width="51" height="50" viewBox="0 0 51 50" fill="none" xmlns="http://www.w3.org/2000/svg">
<rect width="50.3092" height="50" rx="22" fill="white"/>
<path fill-rule="evenodd" clip-rule="evenodd" d="M22.8401 18.0625C22.4807 18.9684 22.1882 20.0688 21.9905 21.3042C22.9469 21.2165 23.9574 21.1699 25 21.1699C26.0427 21.1699 27.0531 21.2165 28.0095 21.3042C27.8119 20.0688 27.5193 18.9684 27.1599 18.0625C26.8144 17.1918 26.4221 16.5386 26.0253 16.1156C25.63 15.6942 25.2833 15.5527 25 15.5527C24.7168 15.5527 24.37 15.6942 23.9748 16.1156C23.5779 16.5386 23.1856 17.1918 22.8401 18.0625ZM21.4292 17.4936C20.9808 18.6239 20.6367 19.9855 20.4258 21.4908C19.3876 21.6451 18.4401 21.8511 17.6184 22.0996C16.6622 22.3888 15.8331 22.7484 15.2261 23.1824C15.1494 23.2373 15.0737 23.2952 15 23.3563C15.6701 19.1809 18.8511 15.8536 22.9309 15C22.9107 15.0208 22.8906 15.0418 22.8707 15.063C22.2979 15.6736 21.8171 16.516 21.4292 17.4936ZM27.0691 15C27.0894 15.0208 27.1094 15.0418 27.1293 15.063C27.7021 15.6736 28.183 16.516 28.5708 17.4936C29.0193 18.6239 29.3634 19.9855 29.5743 21.4908C30.6125 21.6451 31.5599 21.8511 32.3817 22.0996C33.3378 22.3888 34.1669 22.7484 34.774 23.1824C34.8506 23.2373 34.9263 23.2953 35 23.3564C34.33 19.1809 31.1489 15.8536 27.0691 15ZM35 26.6433C34.9264 26.7045 34.8507 26.7624 34.774 26.8173C34.1669 27.2514 33.3378 27.6109 32.3817 27.9001C31.5599 28.1486 30.6125 28.3546 29.5743 28.509C29.3634 30.0142 29.0193 31.3758 28.5708 32.5062C28.183 33.4837 27.7021 34.3262 27.1293 34.9368C27.1093 34.9581 27.0892 34.9792 27.0688 35C31.1488 34.1465 34.3301 30.8191 35 26.6433ZM22.9312 35C22.9109 34.9792 22.8907 34.9581 22.8707 34.9368C22.2979 34.3262 21.8171 33.4837 21.4292 32.5062C20.9808 31.3758 20.6367 30.0142 20.4258 28.509C19.3876 28.3546 18.4401 28.1486 17.6184 27.9001C16.6622 27.6109 15.8331 27.2514 15.2261 26.8173C15.1494 26.7624 15.0737 26.7045 15 26.6433C15.67 30.8191 18.8512 34.1465 22.9312 35ZM18.055 26.4327C18.6995 26.6276 19.441 26.7966 20.2583 26.9322C20.2121 26.304 20.188 25.6581 20.188 24.9999C20.188 24.3416 20.2121 23.6957 20.2583 23.0675C19.441 23.2031 18.6995 23.3721 18.055 23.567C17.1779 23.8323 16.5234 24.133 16.1052 24.432C15.6672 24.7452 15.6293 24.9482 15.6293 24.9999C15.6293 25.0515 15.6672 25.2545 16.1052 25.5677C16.5234 25.8668 17.1779 26.1674 18.055 26.4327ZM21.7076 24.9999C21.7076 25.7365 21.7395 26.4518 21.7994 27.1379C22.7983 27.2411 23.8749 27.2978 25 27.2978C26.1252 27.2978 27.2018 27.2411 28.2007 27.1379C28.2606 26.4518 28.2924 25.7365 28.2924 24.9999C28.2924 24.2633 28.2606 23.5479 28.2007 22.8619C27.2018 22.7586 26.1252 22.7019 25 22.7019C23.8749 22.7019 22.7983 22.7586 21.7994 22.8619C21.7395 23.5479 21.7076 24.2633 21.7076 24.9999ZM22.8401 31.9372C22.4807 31.0313 22.1882 29.9309 21.9905 28.6956C22.9469 28.7832 23.9574 28.8298 25 28.8298C26.0427 28.8298 27.0531 28.7832 28.0095 28.6956C27.8119 29.9309 27.5193 31.0313 27.1599 31.9372C26.8144 32.8079 26.4221 33.4611 26.0253 33.8841C25.63 34.3055 25.2833 34.4471 25 34.4471C24.7168 34.4471 24.37 34.3055 23.9748 33.8841C23.5779 33.4611 23.1856 32.8079 22.8401 31.9372ZM31.945 26.4327C31.3005 26.6276 30.559 26.7966 29.7417 26.9322C29.788 26.304 29.812 25.6581 29.812 24.9999C29.812 24.3416 29.788 23.6957 29.7417 23.0675C30.559 23.2031 31.3005 23.3721 31.945 23.567C32.8221 23.8323 33.4766 24.133 33.8948 24.432C34.3328 24.7452 34.3707 24.9482 34.3707 24.9999C34.3707 25.0515 34.3328 25.2545 33.8948 25.5677C33.4766 25.8668 32.8221 26.1674 31.945 26.4327Z" fill="#141414"/>
</svg>
