<svg width="36" height="37" viewBox="0 0 36 37" fill="none" xmlns="http://www.w3.org/2000/svg">
<path d="M0 8.07012C0 4.09367 3.22355 0.870117 7.2 0.870117H28.8C32.7764 0.870117 36 4.09367 36 8.07012V29.6701C36 33.6466 32.7764 36.8701 28.8 36.8701H7.2C3.22355 36.8701 0 33.6466 0 29.6701V8.07012Z" fill="white"/>
<path d="M18.0528 27.6141C16.7328 27.6141 15.5328 27.4041 14.4528 26.9841C13.3728 26.5641 12.4488 25.9761 11.6808 25.2201C10.9128 24.4761 10.3188 23.6001 9.8988 22.5921C9.4908 21.5841 9.2868 20.4921 9.2868 19.3161C9.2868 18.1401 9.4908 17.0541 9.8988 16.0581C10.3188 15.0501 10.9128 14.1741 11.6808 13.4301C12.4608 12.6861 13.3968 12.1041 14.4888 11.6841C15.5808 11.2641 16.7928 11.0541 18.1248 11.0541C19.4088 11.0541 20.5728 11.2521 21.6168 11.6481C22.6728 12.0441 23.5788 12.5961 24.3348 13.3041C25.0908 14.0121 25.6728 14.8461 26.0808 15.8061C26.5008 16.7541 26.7108 17.7741 26.7108 18.8661C26.7108 19.9701 26.5368 20.9061 26.1888 21.6741C25.8408 22.4421 25.3668 23.0241 24.7668 23.4201C24.1788 23.8161 23.5068 24.0141 22.7508 24.0141C21.8508 24.0141 21.1368 23.7561 20.6088 23.2401C20.0928 22.7121 19.8348 21.9441 19.8348 20.9361V20.3241L19.8528 19.4241L19.6908 16.5081V15.1401H22.6248V20.6301C22.6248 21.0381 22.7028 21.3201 22.8588 21.4761C23.0148 21.6321 23.2008 21.7101 23.4168 21.7101C23.6448 21.7101 23.8428 21.6201 24.0108 21.4401C24.1788 21.2601 24.3108 20.9661 24.4068 20.5581C24.5028 20.1501 24.5508 19.6041 24.5508 18.9201C24.5508 18.0561 24.3948 17.2641 24.0828 16.5441C23.7828 15.8241 23.3508 15.2061 22.7868 14.6901C22.2228 14.1621 21.5448 13.7601 20.7528 13.4841C19.9608 13.1961 19.0848 13.0521 18.1248 13.0521C17.1648 13.0521 16.2888 13.2081 15.4968 13.5201C14.7048 13.8321 14.0208 14.2701 13.4448 14.8341C12.8808 15.3981 12.4428 16.0641 12.1308 16.8321C11.8308 17.5881 11.6808 18.4161 11.6808 19.3161C11.6808 20.2281 11.8308 21.0681 12.1308 21.8361C12.4308 22.6041 12.8628 23.2701 13.4268 23.8341C13.9908 24.3981 14.6628 24.8361 15.4428 25.1481C16.2228 25.4601 17.0928 25.6161 18.0528 25.6161C18.6408 25.6161 19.2348 25.5501 19.8348 25.4181C20.4468 25.2981 21.0468 25.1001 21.6348 24.8241L22.3008 26.7501C21.7608 27.0141 21.1068 27.2241 20.3388 27.3801C19.5708 27.5361 18.8088 27.6141 18.0528 27.6141ZM17.1888 24.0141C16.4808 24.0141 15.8208 23.8281 15.2088 23.4561C14.6088 23.0841 14.1228 22.5621 13.7508 21.8901C13.3788 21.2061 13.1928 20.4081 13.1928 19.4961C13.1928 18.5841 13.3728 17.7921 13.7328 17.1201C14.1048 16.4481 14.5908 15.9261 15.1908 15.5541C15.8028 15.1821 16.4688 14.9961 17.1888 14.9961C17.9688 14.9961 18.6228 15.1821 19.1508 15.5541C19.6788 15.9141 20.0748 16.4301 20.3388 17.1021C20.6028 17.7621 20.7348 18.5601 20.7348 19.4961C20.7348 20.4201 20.6088 21.2241 20.3568 21.9081C20.1048 22.5801 19.7208 23.1021 19.2048 23.4741C18.6888 23.8341 18.0168 24.0141 17.1888 24.0141ZM17.9628 21.5661C18.3108 21.5661 18.6168 21.4881 18.8808 21.3321C19.1448 21.1761 19.3548 20.9421 19.5108 20.6301C19.6668 20.3181 19.7448 19.9401 19.7448 19.4961C19.7448 19.0521 19.6668 18.6801 19.5108 18.3801C19.3548 18.0681 19.1448 17.8341 18.8808 17.6781C18.6168 17.5221 18.3108 17.4441 17.9628 17.4441C17.6268 17.4441 17.3208 17.5281 17.0448 17.6961C16.7808 17.8521 16.5708 18.0801 16.4148 18.3801C16.2708 18.6801 16.1988 19.0521 16.1988 19.4961C16.1988 19.9281 16.2708 20.3001 16.4148 20.6121C16.5708 20.9241 16.7808 21.1641 17.0448 21.3321C17.3208 21.4881 17.6268 21.5661 17.9628 21.5661Z" fill="#043851"/>
</svg>
