<svg width="177" height="353" viewBox="0 0 177 353" fill="none" xmlns="http://www.w3.org/2000/svg">
<line x1="84.75" y1="-0.000488281" x2="84.75" y2="101.004" stroke="#141414" stroke-width="4"/>
<path d="M77 104C77 102.343 78.3431 101 80 101H88C89.6569 101 91 102.343 91 104V113H77V104Z" fill="#004A6E"/>
<path d="M75.1606 113H92.8394C93.5571 113 94.2198 113.385 94.5758 114.008L98 120H70L73.4242 114.008C73.7802 113.385 74.4429 113 75.1606 113Z" fill="#01A2BB" stroke="#01A2BB"/>
<path d="M177 301L136 156.59L114.5 129.513L84 125L51 132.221L33 156.59L4 301H177Z" fill="url(#paint0_radial_401_6120)"/>
<ellipse cx="84" cy="144.5" rx="52" ry="26.5" fill="#01A2BB"/>
<ellipse cx="84" cy="149.5" rx="52" ry="21.5" fill="#004A6E"/>
<g clip-path="url(#clip0_401_6120)">
<path d="M156.565 339.675H145.04V339.762H156.565V339.675Z" fill="#EBEBEB"/>
<path d="M115.265 341.317H112.24V341.404H115.265V341.317Z" fill="#EBEBEB"/>
<path d="M144.692 336.445H138.013V336.532H144.692V336.445Z" fill="#EBEBEB"/>
<path d="M33.2862 337.03H18.2561V337.117H33.2862V337.03Z" fill="#EBEBEB"/>
<path d="M38.5898 337.03H36.387V337.117H38.5898V337.03Z" fill="#EBEBEB"/>
<path d="M78.3521 338.499H45.7515V338.586H78.3521V338.499Z" fill="#EBEBEB"/>
<path d="M82.476 318.555H15.2807C14.7543 318.554 14.2498 318.344 13.8779 317.971C13.506 317.599 13.2971 317.094 13.2971 316.567V222.11C13.3017 221.586 13.5126 221.086 13.884 220.717C14.2554 220.348 14.7573 220.141 15.2807 220.14H82.476C83.0031 220.14 83.5085 220.349 83.8811 220.722C84.2538 221.095 84.4631 221.6 84.4631 222.127V316.567C84.4631 317.094 84.2538 317.6 83.8811 317.973C83.5085 318.345 83.0031 318.555 82.476 318.555ZM15.2807 220.21C14.7774 220.211 14.295 220.411 13.9394 220.767C13.5838 221.124 13.3841 221.606 13.3841 222.11V316.567C13.3841 317.071 13.5838 317.554 13.9394 317.91C14.295 318.266 14.7774 318.467 15.2807 318.468H82.476C82.9797 318.467 83.4625 318.266 83.8186 317.91C84.1747 317.554 84.3752 317.071 84.3761 316.567V222.11C84.3752 221.606 84.1747 221.123 83.8186 220.767C83.4625 220.411 82.9797 220.211 82.476 220.21H15.2807Z" fill="#EBEBEB"/>
<path d="M157.752 318.555H90.553C90.0263 318.554 89.5214 318.344 89.1489 317.972C88.7765 317.599 88.5668 317.094 88.5659 316.567V222.11C88.5714 221.586 88.7831 221.086 89.155 220.717C89.527 220.348 90.0293 220.141 90.553 220.14H157.752C158.275 220.142 158.776 220.35 159.146 220.718C159.517 221.087 159.727 221.587 159.732 222.11V316.567C159.732 317.093 159.524 317.598 159.152 317.97C158.781 318.343 158.278 318.553 157.752 318.555ZM90.553 220.21C90.0493 220.211 89.5666 220.411 89.2105 220.767C88.8543 221.123 88.6538 221.606 88.6529 222.11V316.567C88.6538 317.071 88.8543 317.554 89.2105 317.91C89.5666 318.266 90.0493 318.467 90.553 318.468H157.752C158.255 318.467 158.738 318.266 159.094 317.91C159.45 317.554 159.651 317.071 159.652 316.567V222.11C159.651 221.606 159.45 221.123 159.094 220.767C158.738 220.411 158.255 220.211 157.752 220.21H90.553Z" fill="#EBEBEB"/>
<path d="M174 334.075H0V334.162H174V334.075Z" fill="#EBEBEB"/>
<path d="M145.029 293.018H92.7246L93.0865 289.472H145.391L145.029 293.018Z" fill="#FAFAFA"/>
<path d="M136.461 293.018H87.543L87.9049 289.472H136.823L136.461 293.018Z" fill="#F0F0F0"/>
<path d="M145.614 294.33H87.2644L87.9012 288.091H146.247L145.614 294.33ZM87.5985 293.614H145.426L145.913 288.808H88.0892L87.5985 293.614Z" fill="#E6E6E6"/>
<path d="M89.4882 292.67H88.0127L88.312 289.82H89.7875L89.4882 292.67Z" fill="#E6E6E6"/>
<path d="M91.2839 292.67H89.8083L90.1076 289.82H91.5832L91.2839 292.67Z" fill="#E6E6E6"/>
<path d="M93.0795 292.67H91.604L91.9033 289.82H93.3788L93.0795 292.67Z" fill="#E6E6E6"/>
<path d="M94.8752 292.67H93.3997L93.6989 289.82H95.1744L94.8752 292.67Z" fill="#E6E6E6"/>
<path d="M96.6708 292.67H95.1953L95.4946 289.82H96.9701L96.6708 292.67Z" fill="#E6E6E6"/>
<path d="M98.4665 292.67H96.991L97.2903 289.82H98.7658L98.4665 292.67Z" fill="#E6E6E6"/>
<path d="M100.262 292.67H98.7869L99.0862 289.82H100.562L100.262 292.67Z" fill="#E6E6E6"/>
<path d="M102.058 292.67H100.583L100.882 289.82H102.357L102.058 292.67Z" fill="#E6E6E6"/>
<path d="M103.854 292.67H102.378L102.677 289.82H104.153L103.854 292.67Z" fill="#E6E6E6"/>
<path d="M105.649 292.67H104.174L104.473 289.82H105.945L105.649 292.67Z" fill="#E6E6E6"/>
<path d="M107.445 292.67H105.969L106.269 289.82H107.744L107.445 292.67Z" fill="#E6E6E6"/>
<path d="M109.237 292.67H107.765L108.064 289.82H109.536L109.237 292.67Z" fill="#E6E6E6"/>
<path d="M111.033 292.67H109.561L109.86 289.82H111.332L111.033 292.67Z" fill="#E6E6E6"/>
<path d="M112.828 292.67H111.356L111.656 289.82H113.128L112.828 292.67Z" fill="#E6E6E6"/>
<path d="M114.624 292.67H113.152L113.451 289.82H114.923L114.624 292.67Z" fill="#E6E6E6"/>
<path d="M116.42 292.67H114.948L115.247 289.82H116.719L116.42 292.67Z" fill="#E6E6E6"/>
<path d="M118.216 292.67H116.744L117.043 289.82H118.515L118.216 292.67Z" fill="#E6E6E6"/>
<path d="M120.011 292.67H118.539L118.839 289.82H120.311L120.011 292.67Z" fill="#E6E6E6"/>
<path d="M121.807 292.67H120.335L120.631 289.82H122.106L121.807 292.67Z" fill="#E6E6E6"/>
<path d="M123.603 292.67H122.131L122.43 289.82H123.902L123.603 292.67Z" fill="#E6E6E6"/>
<path d="M125.398 292.67H123.926L124.222 289.82H125.698L125.398 292.67Z" fill="#E6E6E6"/>
<path d="M127.194 292.67H125.719L126.018 289.82H127.493L127.194 292.67Z" fill="#E6E6E6"/>
<path d="M128.99 292.67H127.518L127.813 289.82H129.289L128.99 292.67Z" fill="#E6E6E6"/>
<path d="M130.785 292.67H129.31L129.609 289.82H131.085L130.785 292.67Z" fill="#E6E6E6"/>
<path d="M132.581 292.67H131.105L131.405 289.82H132.88L132.581 292.67Z" fill="#E6E6E6"/>
<path d="M134.377 292.67H132.901L133.2 289.82H134.676L134.377 292.67Z" fill="#E6E6E6"/>
<path d="M136.172 292.67H134.697L134.996 289.82H136.472L136.172 292.67Z" fill="#E6E6E6"/>
<path d="M152.782 294.215H147.106L147.601 288.54H149.222L149.181 289.023H148.043L147.632 293.732H152.34L152.754 289.023H151.592L151.634 288.54H153.276L152.782 294.215Z" fill="#E6E6E6"/>
<path d="M150.433 291.376H149.95L150.426 285.95H150.907L150.433 291.376Z" fill="#E6E6E6"/>
<path d="M152.059 287.119L150.635 286.229L149 287.036L148.815 286.608L150.698 285.675L152.34 286.705L152.059 287.119Z" fill="#E6E6E6"/>
<path d="M149.546 277.202H97.2417L97.6001 273.656H149.905L149.546 277.202Z" fill="#FAFAFA"/>
<path d="M144.622 277.202H92.0564L92.4183 273.656H144.984L144.622 277.202Z" fill="#F0F0F0"/>
<path d="M150.127 278.514H91.7781L92.4149 272.277H150.761L150.127 278.514ZM92.1122 277.797H149.939L150.427 272.994H92.6028L92.1122 277.797Z" fill="#E6E6E6"/>
<path d="M94.0018 276.854H92.5298L92.8256 274.003H94.3011L94.0018 276.854Z" fill="#E6E6E6"/>
<path d="M95.7975 276.854H94.3254L94.6212 274.003H96.0968L95.7975 276.854Z" fill="#E6E6E6"/>
<path d="M97.5932 276.854H96.1177L96.417 274.003H97.8925L97.5932 276.854Z" fill="#E6E6E6"/>
<path d="M99.3889 276.854H97.9133L98.2126 274.003H99.6881L99.3889 276.854Z" fill="#E6E6E6"/>
<path d="M101.185 276.854H99.709L100.008 274.003H101.484L101.185 276.854Z" fill="#E6E6E6"/>
<path d="M102.98 276.854H101.505L101.804 274.003H103.279L102.98 276.854Z" fill="#E6E6E6"/>
<path d="M104.776 276.854H103.3L103.6 274.003H105.075L104.776 276.854Z" fill="#E6E6E6"/>
<path d="M106.571 276.854H105.096L105.395 274.003H106.871L106.571 276.854Z" fill="#E6E6E6"/>
<path d="M108.367 276.854H106.892L107.191 274.003H108.666L108.367 276.854Z" fill="#E6E6E6"/>
<path d="M110.163 276.854H108.687L108.987 274.003H110.462L110.163 276.854Z" fill="#E6E6E6"/>
<path d="M111.959 276.854H110.483L110.782 274.003H112.258L111.959 276.854Z" fill="#E6E6E6"/>
<path d="M113.754 276.854H112.279L112.578 274.003H114.054L113.754 276.854Z" fill="#E6E6E6"/>
<path d="M115.55 276.854H114.074L114.374 274.003H115.849L115.55 276.854Z" fill="#E6E6E6"/>
<path d="M117.346 276.854H115.87L116.169 274.003H117.645L117.346 276.854Z" fill="#E6E6E6"/>
<path d="M119.141 276.854H117.666L117.965 274.003H119.437L119.141 276.854Z" fill="#E6E6E6"/>
<path d="M120.933 276.854H119.461L119.761 274.003H121.233L120.933 276.854Z" fill="#E6E6E6"/>
<path d="M122.733 276.854H121.257L121.556 274.003H123.028L122.733 276.854Z" fill="#E6E6E6"/>
<path d="M124.525 276.854H123.053L123.352 274.003H124.824L124.525 276.854Z" fill="#E6E6E6"/>
<path d="M126.32 276.854H124.848L125.148 274.003H126.62L126.32 276.854Z" fill="#E6E6E6"/>
<path d="M128.116 276.854H126.644L126.943 274.003H128.415L128.116 276.854Z" fill="#E6E6E6"/>
<path d="M129.912 276.854H128.44L128.739 274.003H130.211L129.912 276.854Z" fill="#E6E6E6"/>
<path d="M131.708 276.854H130.236L130.535 274.003H132.007L131.708 276.854Z" fill="#E6E6E6"/>
<path d="M133.503 276.854H132.031L132.327 274.003H133.803L133.503 276.854Z" fill="#E6E6E6"/>
<path d="M135.299 276.854H133.827L134.126 274.003H135.598L135.299 276.854Z" fill="#E6E6E6"/>
<path d="M137.095 276.854H135.623L135.918 274.003H137.394L137.095 276.854Z" fill="#E6E6E6"/>
<path d="M138.89 276.854H137.418L137.714 274.003H139.19L138.89 276.854Z" fill="#E6E6E6"/>
<path d="M140.686 276.854H139.214L139.51 274.003H140.985L140.686 276.854Z" fill="#E6E6E6"/>
<path d="M142.482 276.854H141.006L141.305 274.003H142.781L142.482 276.854Z" fill="#E6E6E6"/>
<path d="M144.277 276.854H142.802L143.101 274.003H144.577L144.277 276.854Z" fill="#E6E6E6"/>
<path d="M157.268 278.43H151.592L152.086 272.754H153.708L153.663 273.238H152.528L152.114 277.95H156.826L157.24 273.238H156.075L156.12 272.754H157.762L157.268 278.43Z" fill="#E6E6E6"/>
<path d="M154.926 275.594H154.442L154.919 270.168H155.399L154.926 275.594Z" fill="#E6E6E6"/>
<path d="M154.669 275.869L152.946 274.936L153.207 274.508L154.7 275.319L156.28 274.425L156.492 274.839L154.669 275.869Z" fill="#E6E6E6"/>
<path d="M24.2556 265.015L24.2139 265.491H66.9204L66.9622 265.015H24.2556Z" fill="#F0F0F0"/>
<path opacity="0.2" d="M66.9622 265.015H24.2556L24.2139 265.491H66.9204L66.9622 265.015Z" fill="#F0F0F0"/>
<path d="M67.439 259.582H24.7847L27.3633 230.121H70.0177L67.439 259.582Z" fill="#EBEBEB"/>
<path d="M25.9539 271.199C25.674 271.204 25.3962 271.149 25.1391 271.039C24.8819 270.928 24.6513 270.764 24.4626 270.557C24.274 270.35 24.1315 270.106 24.0448 269.839C23.9581 269.573 23.9292 269.292 23.9599 269.013C24.021 268.422 24.2964 267.873 24.7342 267.47C25.1721 267.068 25.742 266.839 26.3367 266.828C26.6166 266.823 26.8944 266.877 27.1516 266.988C27.4087 267.099 27.6393 267.263 27.828 267.47C28.0167 267.677 28.1591 267.921 28.2458 268.187C28.3325 268.454 28.3615 268.735 28.3308 269.013C28.2697 269.605 27.9943 270.154 27.5564 270.556C27.1186 270.959 26.5486 271.188 25.9539 271.199Z" fill="#E0E0E0"/>
<path d="M45.7932 263.205H24.4678L24.6313 261.322H45.9603L45.7932 263.205Z" fill="#EBEBEB"/>
<path d="M66.5028 269.956H58.2656L58.4292 268.07H66.6698L66.5028 269.956Z" fill="#E0E0E0"/>
<path d="M67.1222 263.205H65.2395L65.4031 261.322H67.2857L67.1222 263.205Z" fill="#EBEBEB"/>
<path d="M63.9311 263.205H62.0449L62.212 261.322H64.0946L63.9311 263.205Z" fill="#EBEBEB"/>
<path d="M60.7364 263.205H58.8538L59.0208 261.322H60.9035L60.7364 263.205Z" fill="#EBEBEB"/>
<path opacity="0.5" d="M70.1743 228.308H38.1826L38.3253 226.686H70.3169L70.1743 228.308Z" fill="#F0F0F0"/>
<path d="M35.6562 228.44H27.4155L27.5826 226.557H35.8232L35.6562 228.44Z" fill="#EBEBEB"/>
<path d="M45.254 238.086L52.83 244.076L44.2065 250.065L45.254 238.086Z" fill="white"/>
<path d="M64.2443 257.446L29.9663 258.013L30.0429 257.129H65.8312L64.2443 257.446Z" fill="#E0E0E0"/>
<path d="M62.386 258.013H26.4202L26.4967 257.129H62.4625L62.386 258.013Z" fill="white"/>
<path d="M66.2175 258.34H26.2949L26.448 256.785H66.3532L66.2175 258.34ZM26.4898 258.163H66.0539L66.1583 256.966H26.5942L26.4898 258.163Z" fill="#E0E0E0"/>
<path d="M87.0001 353.271C124.265 353.271 154.474 351.507 154.474 349.331C154.474 347.156 124.265 345.392 87.0001 345.392C49.7354 345.392 19.5264 347.156 19.5264 349.331C19.5264 351.507 49.7354 353.271 87.0001 353.271Z" fill="#F5F5F5"/>
<path d="M140.446 336.692C140.446 336.692 138.01 331.357 140.794 326.095C143.578 320.834 144.396 319.598 142.617 318.523C140.839 317.448 140.018 322.73 140.018 322.73C140.018 322.73 138.518 319.094 139.757 315.29C140.996 311.486 141.772 305.289 140.08 304.624C138.389 303.959 139.757 312.353 138.288 315.214C137.541 313.205 137.057 311.107 136.851 308.974C136.649 305.918 136.966 301.036 135.63 299.787C134.293 298.537 133.437 299.4 134.749 306.145C135.544 310.173 135.986 314.264 136.068 318.37C136.068 318.37 133.166 309.524 131.22 309.266C129.275 309.009 129.275 311.873 130.942 314.357C132.609 316.842 135.814 321.293 136.35 323.583C136.35 323.583 133.166 316.926 130.302 318.968C127.438 321.011 132.793 325.027 135.174 326.482C137.554 327.936 139.2 337.044 139.2 337.044L140.446 336.692Z" fill="#01A2BB"/>
<path opacity="0.2" d="M140.446 336.692C140.446 336.692 138.01 331.357 140.794 326.095C143.578 320.834 144.396 319.598 142.617 318.523C140.839 317.448 140.018 322.73 140.018 322.73C140.018 322.73 138.518 319.094 139.757 315.29C140.996 311.486 141.772 305.289 140.08 304.624C138.389 303.959 139.757 312.353 138.288 315.214C137.541 313.205 137.057 311.107 136.851 308.974C136.649 305.918 136.966 301.036 135.63 299.787C134.293 298.537 133.437 299.4 134.749 306.145C135.544 310.173 135.986 314.264 136.068 318.37C136.068 318.37 133.166 309.524 131.22 309.266C129.275 309.009 129.275 311.873 130.942 314.357C132.609 316.842 135.814 321.293 136.35 323.583C136.35 323.583 133.166 316.926 130.302 318.968C127.438 321.011 132.793 325.027 135.174 326.482C137.554 327.936 139.2 337.044 139.2 337.044L140.446 336.692Z" fill="black"/>
<path d="M138.504 338.878C138.504 338.878 140.884 333.508 138.027 328.291C135.17 323.075 134.349 321.847 136.117 320.743C137.885 319.64 138.765 324.919 138.765 324.919C138.765 324.919 140.22 321.262 138.936 317.476C137.652 313.689 136.809 307.488 138.504 306.792C140.199 306.096 138.922 314.518 140.425 317.357C141.149 315.337 141.606 313.232 141.786 311.093C141.953 308.034 141.577 303.159 142.899 301.889C144.222 300.619 145.085 301.468 143.853 308.233C143.105 312.277 142.713 316.38 142.68 320.493C142.68 320.493 145.464 311.605 147.416 311.32C149.369 311.034 149.393 313.895 147.764 316.404C146.136 318.913 142.965 323.413 142.468 325.713C142.468 325.713 145.572 319.007 148.46 321.004C151.349 323.002 146.024 327.105 143.668 328.591C141.312 330.077 139.75 339.212 139.75 339.212L138.504 338.878Z" fill="#01A2BB"/>
<path d="M149.497 335.049H129.828L131.419 349.122H147.903L149.497 335.049Z" fill="#263238"/>
<path d="M97.1615 268.074L100.37 259.729H99.8759L96.4446 268.074H97.1615Z" fill="#263238"/>
<path d="M98.3829 268.119L102.392 262.112L102.002 262.025L97.8157 267.99L98.3829 268.119Z" fill="#263238"/>
<path d="M83.1755 268.053L79.9705 259.708H80.4646L83.8959 268.053H83.1755Z" fill="#263238"/>
<path d="M81.9574 268.098L77.9485 262.091L78.3382 262.004L82.5212 267.969L81.9574 268.098Z" fill="#263238"/>
<path d="M90.7896 267.141H90.0867L90.2746 257.658H90.6017L90.7896 267.141Z" fill="#263238"/>
<path d="M83.3076 268.053L83.4712 268.425H83.9479L83.7948 268.053H83.3076Z" fill="#263238"/>
<path d="M97.0397 268.053L96.8762 268.425H96.3994L96.5491 268.053H97.0397Z" fill="#263238"/>
<path d="M82.0862 268.074L82.3124 268.498H82.7822L82.3785 268L82.0862 268.074Z" fill="#263238"/>
<path d="M98.2648 268.074L98.0421 268.498H97.5723L97.9759 268L98.2648 268.074Z" fill="#263238"/>
<path d="M90.1841 267.141L90.1876 267.899H90.6887V267.141H90.1841Z" fill="#263238"/>
<path d="M84.4631 270.607H82.4795V271.842H84.4631V270.607Z" fill="#263238"/>
<path d="M97.9167 270.607H95.9331V271.842H97.9167V270.607Z" fill="#263238"/>
<path d="M98.6128 271.153L94.308 271.62C91.574 271.919 88.8154 271.919 86.0813 271.62L81.78 271.153V268.481L85.26 268.025C88.5279 267.6 91.837 267.6 95.105 268.025L98.6058 268.481L98.6128 271.153Z" fill="#01A2BB"/>
<path d="M84.268 269.904C84.268 270.062 84.221 270.217 84.1329 270.349C84.0448 270.481 83.9196 270.583 83.7731 270.644C83.6267 270.704 83.4656 270.72 83.3102 270.689C83.1548 270.658 83.0122 270.581 82.9004 270.469C82.7886 270.356 82.7127 270.213 82.6822 270.058C82.6517 269.902 82.6681 269.741 82.7292 269.595C82.7903 269.449 82.8934 269.324 83.0255 269.237C83.1576 269.149 83.3127 269.103 83.4711 269.104C83.5762 269.103 83.6803 269.123 83.7774 269.164C83.8746 269.204 83.9628 269.263 84.0369 269.337C84.111 269.412 84.1696 269.5 84.2093 269.597C84.249 269.695 84.269 269.799 84.268 269.904Z" fill="white"/>
<path d="M83.4711 270.377C83.7345 270.377 83.9479 270.164 83.9479 269.901C83.9479 269.637 83.7345 269.424 83.4711 269.424C83.2078 269.424 82.9944 269.637 82.9944 269.901C82.9944 270.164 83.2078 270.377 83.4711 270.377Z" fill="#01A2BB"/>
<path d="M87.9917 269.904C87.9908 269.971 87.9636 270.034 87.916 270.081C87.8685 270.128 87.8044 270.155 87.7376 270.155C87.6712 270.155 87.6074 270.128 87.5605 270.081C87.5135 270.034 87.4871 269.97 87.4871 269.904C87.4871 269.837 87.5133 269.773 87.5602 269.726C87.6071 269.678 87.6709 269.651 87.7376 269.65C87.805 269.65 87.8696 269.677 87.9173 269.724C87.9649 269.772 87.9917 269.837 87.9917 269.904Z" fill="white"/>
<path d="M88.8895 269.904C88.8895 269.97 88.8631 270.034 88.8161 270.081C88.7691 270.128 88.7054 270.155 88.6389 270.155C88.5734 270.153 88.511 270.126 88.465 270.079C88.4189 270.032 88.3927 269.97 88.3918 269.904C88.3918 269.837 88.4186 269.772 88.4663 269.724C88.5139 269.677 88.5785 269.65 88.6459 269.65C88.7114 269.653 88.7734 269.681 88.8188 269.728C88.8642 269.775 88.8895 269.838 88.8895 269.904Z" fill="white"/>
<path d="M89.7839 269.904C89.783 269.971 89.7558 270.034 89.7083 270.081C89.6607 270.128 89.5966 270.155 89.5299 270.155C89.497 270.155 89.4644 270.148 89.434 270.135C89.4036 270.123 89.376 270.104 89.3527 270.081C89.3294 270.058 89.311 270.03 89.2984 270C89.2858 269.969 89.2793 269.937 89.2793 269.904C89.2793 269.837 89.3056 269.773 89.3525 269.726C89.3994 269.678 89.4631 269.651 89.5299 269.65C89.5972 269.65 89.6619 269.677 89.7095 269.724C89.7571 269.772 89.7839 269.837 89.7839 269.904Z" fill="white"/>
<path d="M90.6887 269.904C90.6887 269.937 90.6822 269.969 90.6696 270C90.657 270.03 90.6386 270.058 90.6153 270.081C90.592 270.104 90.5644 270.123 90.534 270.135C90.5036 270.148 90.471 270.155 90.4381 270.155C90.3713 270.155 90.3073 270.128 90.2597 270.081C90.2122 270.034 90.185 269.971 90.1841 269.904C90.1841 269.837 90.2108 269.772 90.2585 269.724C90.3061 269.677 90.3708 269.65 90.4381 269.65C90.5049 269.651 90.5686 269.678 90.6155 269.726C90.6624 269.773 90.6887 269.837 90.6887 269.904Z" fill="white"/>
<path d="M91.5901 269.904C91.5901 269.954 91.5752 270.003 91.5473 270.045C91.5194 270.087 91.4797 270.119 91.4333 270.139C91.3869 270.158 91.3358 270.163 91.2865 270.153C91.2372 270.143 91.192 270.119 91.1564 270.084C91.1209 270.048 91.0967 270.003 91.0869 269.953C91.0771 269.904 91.0821 269.853 91.1014 269.807C91.1206 269.76 91.1532 269.721 91.1949 269.693C91.2367 269.665 91.2858 269.65 91.3361 269.65C91.4034 269.65 91.4681 269.677 91.5157 269.724C91.5634 269.772 91.5901 269.837 91.5901 269.904Z" fill="white"/>
<path d="M92.4915 269.904C92.4915 269.971 92.4647 270.036 92.4171 270.084C92.3694 270.131 92.3048 270.158 92.2374 270.158C92.1701 270.158 92.1054 270.131 92.0578 270.084C92.0102 270.036 91.9834 269.971 91.9834 269.904C91.9834 269.871 91.99 269.838 92.0027 269.807C92.0155 269.776 92.0342 269.748 92.0578 269.724C92.0814 269.701 92.1094 269.682 92.1402 269.669C92.171 269.656 92.2041 269.65 92.2374 269.65C92.2708 269.65 92.3038 269.656 92.3346 269.669C92.3655 269.682 92.3935 269.701 92.4171 269.724C92.4407 269.748 92.4594 269.776 92.4721 269.807C92.4849 269.838 92.4915 269.871 92.4915 269.904Z" fill="white"/>
<path d="M93.3891 269.904C93.3891 269.97 93.3627 270.034 93.3157 270.081C93.2687 270.128 93.205 270.155 93.1386 270.155C93.0718 270.155 93.0077 270.128 92.9601 270.081C92.9126 270.034 92.8854 269.971 92.8845 269.904C92.8845 269.837 92.9113 269.772 92.9589 269.724C93.0066 269.677 93.0712 269.65 93.1386 269.65C93.2053 269.651 93.2691 269.678 93.316 269.726C93.3628 269.773 93.3891 269.837 93.3891 269.904Z" fill="white"/>
<path d="M68.6431 297.396H76.2817L76.1042 296.568C75.2899 294.372 71.1139 294.372 71.1139 294.372C70.0699 294.431 69.0641 295.416 68.7788 296.756L68.6431 297.396Z" fill="#01A2BB"/>
<path d="M62.7061 288.129H55.7461L56.6613 296.154H64.3382L62.7061 288.129Z" fill="#263238"/>
<path d="M65.6814 297.173H65.3334V297.264H52.2974V296.154H64.3277L62.706 288.129H55.746L55.3598 284.725C55.3705 284.502 55.4667 284.29 55.6286 284.136C55.7906 283.981 56.0058 283.894 56.2298 283.894H62.2014C62.4264 283.893 62.6429 283.979 62.8061 284.134C62.9693 284.289 63.0668 284.501 63.0784 284.725L65.6814 297.173Z" fill="#263238"/>
<path d="M64.3277 296.154H56.6508L55.8087 288.762L55.7356 288.129H62.706L64.3277 296.154Z" fill="#01A2BB"/>
<path opacity="0.1" d="M56.0592 290.802L55.7356 288.129H63.7814L64.3416 290.802H56.0592Z" fill="black"/>
<path d="M44.1959 296.39H43.2841C43.2622 296.391 43.2403 296.388 43.2196 296.38C43.199 296.373 43.1801 296.361 43.1639 296.346C43.1478 296.331 43.1347 296.313 43.1254 296.294C43.1162 296.274 43.111 296.252 43.1101 296.23V295.35C43.111 295.328 43.1162 295.306 43.1254 295.286C43.1347 295.266 43.1478 295.248 43.1639 295.234C43.1801 295.219 43.199 295.207 43.2196 295.2C43.2403 295.192 43.2622 295.189 43.2841 295.19H43.9383C43.9751 295.189 44.0111 295.2 44.0411 295.222C44.0711 295.243 44.0936 295.273 44.1054 295.308L44.3629 296.188C44.3682 296.213 44.3678 296.239 44.3618 296.263C44.3558 296.287 44.3443 296.31 44.3282 296.33C44.3122 296.349 44.2919 296.365 44.269 296.375C44.2461 296.386 44.2211 296.391 44.1959 296.39Z" fill="#263238"/>
<path d="M45.4487 296.39H44.5439C44.5219 296.391 44.5 296.388 44.4794 296.38C44.4588 296.373 44.4398 296.361 44.4237 296.346C44.4075 296.331 44.3944 296.313 44.3852 296.294C44.376 296.274 44.3708 296.252 44.3699 296.23V295.35C44.3708 295.328 44.376 295.306 44.3852 295.286C44.3944 295.266 44.4075 295.248 44.4237 295.234C44.4398 295.219 44.4588 295.207 44.4794 295.2C44.5 295.192 44.5219 295.189 44.5439 295.19H45.1981C45.2349 295.189 45.2709 295.2 45.3009 295.222C45.3309 295.243 45.3534 295.273 45.3652 295.308L45.6227 296.188C45.6281 296.214 45.6276 296.24 45.6212 296.265C45.6148 296.29 45.6027 296.313 45.5859 296.333C45.569 296.352 45.5479 296.368 45.5241 296.378C45.5002 296.388 45.4744 296.392 45.4487 296.39Z" fill="#263238"/>
<path d="M46.7086 296.39H45.7968C45.7749 296.391 45.753 296.388 45.7323 296.38C45.7117 296.373 45.6928 296.361 45.6766 296.346C45.6604 296.331 45.6474 296.313 45.6381 296.294C45.6289 296.274 45.6237 296.252 45.6228 296.23V295.35C45.6237 295.328 45.6289 295.306 45.6381 295.286C45.6474 295.266 45.6604 295.248 45.6766 295.234C45.6928 295.219 45.7117 295.207 45.7323 295.2C45.753 295.192 45.7749 295.189 45.7968 295.19H46.451C46.4878 295.189 46.5238 295.2 46.5538 295.222C46.5838 295.243 46.6063 295.273 46.6181 295.308L46.8756 296.188C46.8809 296.213 46.8805 296.239 46.8745 296.263C46.8685 296.287 46.857 296.31 46.8409 296.33C46.8249 296.349 46.8046 296.365 46.7817 296.375C46.7588 296.386 46.7338 296.391 46.7086 296.39Z" fill="#263238"/>
<path d="M47.9683 296.39H47.0566C47.0346 296.391 47.0127 296.388 46.9921 296.38C46.9715 296.373 46.9525 296.361 46.9364 296.346C46.9202 296.331 46.9071 296.313 46.8979 296.294C46.8887 296.274 46.8835 296.252 46.8826 296.23V295.35C46.8835 295.328 46.8887 295.306 46.8979 295.286C46.9071 295.266 46.9202 295.248 46.9364 295.234C46.9525 295.219 46.9715 295.207 46.9921 295.2C47.0127 295.192 47.0346 295.189 47.0566 295.19H47.7108C47.7476 295.189 47.7836 295.2 47.8136 295.222C47.8436 295.243 47.8661 295.273 47.8778 295.308L48.1354 296.188C48.1406 296.213 48.1402 296.239 48.1342 296.263C48.1282 296.287 48.1168 296.31 48.1007 296.33C48.0846 296.349 48.0644 296.365 48.0414 296.375C48.0185 296.386 47.9935 296.391 47.9683 296.39Z" fill="#263238"/>
<path d="M49.2246 296.39H48.3163C48.2944 296.391 48.2725 296.388 48.2519 296.38C48.2312 296.373 48.2123 296.361 48.1961 296.346C48.18 296.331 48.1669 296.313 48.1577 296.294C48.1484 296.274 48.1432 296.252 48.1423 296.23V295.35C48.1432 295.328 48.1484 295.306 48.1577 295.286C48.1669 295.266 48.18 295.248 48.1961 295.234C48.2123 295.219 48.2312 295.207 48.2519 295.2C48.2725 295.192 48.2944 295.189 48.3163 295.19H48.9706C49.0073 295.189 49.0433 295.2 49.0733 295.222C49.1033 295.243 49.1258 295.273 49.1376 295.308L49.3951 296.188C49.4005 296.213 49.4 296.239 49.3938 296.264C49.3876 296.289 49.3759 296.312 49.3594 296.331C49.3429 296.351 49.3222 296.366 49.2989 296.376C49.2755 296.387 49.2501 296.391 49.2246 296.39Z" fill="#263238"/>
<path d="M50.4844 296.39H49.5761C49.5542 296.391 49.5322 296.388 49.5116 296.38C49.491 296.373 49.4721 296.361 49.4559 296.346C49.4397 296.331 49.4267 296.313 49.4174 296.294C49.4082 296.274 49.403 296.252 49.4021 296.23V295.35C49.403 295.328 49.4082 295.306 49.4174 295.286C49.4267 295.266 49.4397 295.248 49.4559 295.234C49.4721 295.219 49.491 295.207 49.5116 295.2C49.5322 295.192 49.5542 295.189 49.5761 295.19H50.2303C50.2671 295.189 50.3031 295.2 50.3331 295.222C50.3631 295.243 50.3856 295.273 50.3974 295.308L50.6549 296.188C50.6602 296.213 50.6598 296.239 50.6536 296.264C50.6474 296.289 50.6356 296.312 50.6192 296.331C50.6027 296.351 50.582 296.366 50.5586 296.376C50.5353 296.387 50.5099 296.391 50.4844 296.39Z" fill="#263238"/>
<path d="M51.744 296.39H50.8322C50.7881 296.391 50.7454 296.375 50.7129 296.345C50.6805 296.315 50.6609 296.274 50.6582 296.23V295.35C50.6609 295.306 50.6805 295.264 50.7129 295.234C50.7454 295.205 50.7881 295.189 50.8322 295.189H51.5038C51.5406 295.189 51.5766 295.2 51.6066 295.221C51.6366 295.243 51.6591 295.273 51.6709 295.308L51.9284 296.188C51.9342 296.214 51.9336 296.242 51.9267 296.268C51.9198 296.293 51.9067 296.317 51.8886 296.337C51.8705 296.357 51.848 296.372 51.8228 296.381C51.7976 296.39 51.7706 296.394 51.744 296.39Z" fill="#263238"/>
<path d="M53.0037 296.39H52.092C52.0479 296.391 52.0052 296.375 51.9727 296.345C51.9403 296.315 51.9207 296.274 51.918 296.23V295.35C51.9207 295.306 51.9403 295.264 51.9727 295.234C52.0052 295.205 52.0479 295.189 52.092 295.189H52.7497C52.7865 295.189 52.8224 295.2 52.8524 295.221C52.8825 295.243 52.905 295.273 52.9167 295.308L53.1742 296.188C53.1796 296.213 53.1791 296.239 53.1729 296.264C53.1667 296.289 53.155 296.312 53.1385 296.331C53.122 296.35 53.1013 296.366 53.078 296.376C53.0546 296.386 53.0292 296.391 53.0037 296.39Z" fill="#263238"/>
<path d="M54.2635 296.39H53.3517C53.3077 296.391 53.2649 296.375 53.2325 296.345C53.2 296.315 53.1804 296.274 53.1777 296.23V295.35C53.1804 295.306 53.2 295.264 53.2325 295.235C53.2649 295.205 53.3077 295.189 53.3517 295.19H54.006C54.0433 295.188 54.0801 295.199 54.1108 295.22C54.1415 295.242 54.1646 295.272 54.1765 295.308L54.434 296.188C54.4394 296.213 54.4389 296.239 54.4327 296.264C54.4265 296.289 54.4147 296.312 54.3983 296.331C54.3818 296.351 54.3611 296.366 54.3377 296.376C54.3144 296.386 54.289 296.391 54.2635 296.39Z" fill="#263238"/>
<path d="M55.5233 296.39H54.6115C54.5674 296.391 54.5247 296.375 54.4923 296.345C54.4598 296.315 54.4402 296.274 54.4375 296.23V295.35C54.4402 295.306 54.4598 295.264 54.4923 295.235C54.5247 295.205 54.5674 295.189 54.6115 295.19H55.2657C55.3031 295.188 55.3399 295.199 55.3706 295.22C55.4013 295.242 55.4243 295.272 55.4363 295.308L55.6938 296.188C55.6991 296.213 55.6987 296.239 55.6925 296.264C55.6863 296.289 55.6745 296.312 55.658 296.331C55.6416 296.351 55.6209 296.366 55.5975 296.376C55.5741 296.386 55.5487 296.391 55.5233 296.39Z" fill="#263238"/>
<path d="M56.783 296.39H55.8713C55.8272 296.391 55.7845 296.375 55.752 296.345C55.7196 296.315 55.7 296.274 55.6973 296.23V295.35C55.7 295.306 55.7196 295.264 55.752 295.235C55.7845 295.205 55.8272 295.189 55.8713 295.19H56.5255C56.5629 295.188 56.5996 295.199 56.6303 295.22C56.6611 295.242 56.6841 295.272 56.696 295.308L56.9535 296.188C56.9589 296.213 56.9584 296.239 56.9522 296.264C56.946 296.289 56.9343 296.312 56.9178 296.331C56.9013 296.351 56.8806 296.366 56.8573 296.376C56.8339 296.386 56.8085 296.391 56.783 296.39Z" fill="#263238"/>
<path d="M58.0428 296.39H57.131C57.087 296.391 57.0442 296.375 57.0118 296.345C56.9793 296.315 56.9597 296.274 56.957 296.23V295.35C56.9597 295.306 56.9793 295.264 57.0118 295.235C57.0442 295.205 57.087 295.189 57.131 295.19H57.7853C57.8226 295.188 57.8594 295.199 57.8901 295.22C57.9208 295.242 57.9438 295.272 57.9558 295.308L58.2133 296.188C58.2186 296.213 58.2182 296.239 58.212 296.264C58.2058 296.289 58.194 296.312 58.1776 296.331C58.1611 296.351 58.1404 296.366 58.117 296.376C58.0937 296.386 58.0683 296.391 58.0428 296.39Z" fill="#263238"/>
<path d="M59.3026 296.39H58.3908C58.3467 296.391 58.304 296.375 58.2715 296.345C58.2391 296.315 58.2195 296.274 58.2168 296.23V295.35C58.2195 295.306 58.2391 295.264 58.2715 295.235C58.304 295.205 58.3467 295.189 58.3908 295.19H59.045C59.0824 295.188 59.1192 295.199 59.1499 295.22C59.1806 295.242 59.2036 295.272 59.2156 295.308L59.4731 296.188C59.4784 296.213 59.478 296.239 59.4718 296.264C59.4656 296.289 59.4538 296.312 59.4373 296.331C59.4209 296.351 59.4002 296.366 59.3768 296.376C59.3534 296.386 59.328 296.391 59.3026 296.39Z" fill="#263238"/>
<path d="M60.5521 296.39H59.6403C59.5962 296.391 59.5535 296.375 59.5211 296.345C59.4886 296.315 59.469 296.274 59.4663 296.23V295.35C59.469 295.306 59.4886 295.264 59.5211 295.235C59.5535 295.205 59.5962 295.189 59.6403 295.19H60.2945C60.3319 295.188 60.3687 295.199 60.3994 295.22C60.4301 295.242 60.4531 295.272 60.4651 295.308L60.7226 296.188C60.7279 296.213 60.7275 296.239 60.7213 296.264C60.7151 296.289 60.7033 296.312 60.6868 296.331C60.6704 296.351 60.6497 296.366 60.6263 296.376C60.6029 296.386 60.5776 296.391 60.5521 296.39Z" fill="#263238"/>
<path d="M61.822 296.39H60.8998C60.8558 296.391 60.813 296.375 60.7806 296.345C60.7481 296.315 60.7285 296.274 60.7258 296.23V295.35C60.7285 295.306 60.7481 295.264 60.7806 295.235C60.813 295.205 60.8558 295.189 60.8998 295.19H61.5541C61.5914 295.188 61.6282 295.199 61.6589 295.22C61.6896 295.242 61.7126 295.272 61.7246 295.308L61.9786 296.188C61.9844 296.212 61.9847 296.237 61.9795 296.261C61.9744 296.285 61.9639 296.307 61.9488 296.327C61.9338 296.346 61.9146 296.362 61.8926 296.373C61.8707 296.384 61.8466 296.39 61.822 296.39Z" fill="#263238"/>
<path d="M62.7409 296.484C62.7319 296.677 62.6471 296.858 62.505 296.988C62.3629 297.119 62.175 297.188 61.9823 297.18H43.1207C43.0252 297.184 42.9297 297.17 42.8399 297.137C42.75 297.104 42.6675 297.054 42.597 296.989C42.5266 296.925 42.4696 296.847 42.4292 296.76C42.3889 296.673 42.3661 296.58 42.3621 296.484C42.3624 296.391 42.3825 296.299 42.4209 296.215C42.4592 296.13 42.5151 296.055 42.5848 295.993C42.7273 295.865 42.9116 295.793 43.1033 295.792H61.9823C62.0528 295.792 62.123 295.801 62.1911 295.819C62.3441 295.852 62.4816 295.936 62.5814 296.056C62.6812 296.177 62.7374 296.328 62.7409 296.484Z" fill="#263238"/>
<path opacity="0.2" d="M62.7409 296.484C62.7319 296.677 62.6471 296.858 62.505 296.988C62.3629 297.119 62.175 297.188 61.9823 297.18H43.1207C43.0252 297.184 42.9297 297.17 42.8399 297.137C42.75 297.104 42.6675 297.054 42.597 296.989C42.5266 296.925 42.4696 296.847 42.4292 296.76C42.3889 296.673 42.3661 296.58 42.3621 296.484C42.3624 296.391 42.3825 296.299 42.4209 296.215C42.4592 296.13 42.5151 296.055 42.5848 295.993C42.7273 295.865 42.9116 295.793 43.1033 295.792H61.9823C62.0528 295.792 62.123 295.801 62.1911 295.819C62.3441 295.852 62.4816 295.936 62.5814 296.056C62.6812 296.177 62.7374 296.328 62.7409 296.484Z" fill="white"/>
<path d="M62.7408 296.484C62.7317 296.677 62.6469 296.858 62.5048 296.989C62.3627 297.119 62.1748 297.188 61.9821 297.18H55.5963C55.4477 297.144 55.3154 297.059 55.2197 296.94C55.1241 296.82 55.0706 296.672 55.0674 296.519C55.0619 296.478 55.0619 296.436 55.0674 296.394C55.095 296.252 55.1698 296.123 55.2796 296.029C55.3283 295.984 55.3821 295.946 55.4397 295.914L55.5302 295.872C55.6231 295.84 55.7207 295.823 55.819 295.823H62.177C62.332 295.853 62.4723 295.935 62.5747 296.055C62.6772 296.175 62.7357 296.327 62.7408 296.484Z" fill="#263238"/>
<path d="M76.1179 265.589H74.19L72.0359 289.096H73.9603C74.1304 289.083 74.2896 289.007 74.4076 288.884C74.5257 288.761 74.5944 288.599 74.6006 288.428L76.6434 266.257C76.6584 266.178 76.6563 266.096 76.6372 266.018C76.6181 265.94 76.5825 265.867 76.5327 265.803C76.4829 265.74 76.4201 265.688 76.3486 265.651C76.277 265.614 76.1984 265.593 76.1179 265.589Z" fill="#263238"/>
<path d="M73.1356 289.096H44.2516C44.1721 289.091 44.0946 289.069 44.0243 289.031C43.954 288.993 43.8925 288.941 43.8438 288.878C43.7951 288.815 43.7604 288.742 43.7419 288.665C43.7234 288.587 43.7216 288.506 43.7366 288.428L45.7793 266.257C45.7856 266.087 45.8543 265.924 45.9723 265.801C46.0904 265.678 46.2496 265.602 46.4196 265.589H75.3036C75.3832 265.594 75.4607 265.617 75.531 265.654C75.6012 265.692 75.6628 265.744 75.7114 265.807C75.7601 265.87 75.7948 265.943 75.8133 266.021C75.8318 266.098 75.8336 266.179 75.8187 266.257L73.7759 288.428C73.7696 288.599 73.7009 288.761 73.5829 288.884C73.4649 289.007 73.3057 289.083 73.1356 289.096Z" fill="#01A2BB"/>
<path opacity="0.2" d="M73.1356 289.096H44.2516C44.1721 289.091 44.0946 289.069 44.0243 289.031C43.954 288.993 43.8925 288.941 43.8438 288.878C43.7951 288.815 43.7604 288.742 43.7419 288.665C43.7234 288.587 43.7216 288.506 43.7366 288.428L45.7793 266.257C45.7856 266.087 45.8543 265.924 45.9723 265.801C46.0904 265.678 46.2496 265.602 46.4196 265.589H75.3036C75.3832 265.594 75.4607 265.617 75.531 265.654C75.6012 265.692 75.6628 265.744 75.7114 265.807C75.7601 265.87 75.7948 265.943 75.8133 266.021C75.8318 266.098 75.8336 266.179 75.8187 266.257L73.7759 288.428C73.7696 288.599 73.7009 288.761 73.5829 288.884C73.4649 289.007 73.3057 289.083 73.1356 289.096Z" fill="white"/>
<path d="M72.2657 284.381H46.03L47.4847 267.75H73.7204L72.2657 284.381Z" fill="#01A2BB"/>
<path d="M71.9037 285.682H46.0507C45.8808 285.685 45.7122 285.651 45.5562 285.583C45.4002 285.516 45.2603 285.416 45.1458 285.29C45.0313 285.165 44.9449 285.016 44.8921 284.854C44.8393 284.693 44.8215 284.522 44.8397 284.353L46.2839 267.816C46.3205 267.456 46.4878 267.123 46.754 266.878C47.0202 266.634 47.3668 266.496 47.7281 266.49H73.5775C73.7476 266.487 73.9165 266.519 74.073 266.586C74.2294 266.653 74.3697 266.753 74.4847 266.878C74.5996 267.004 74.6864 267.152 74.7395 267.314C74.7925 267.476 74.8104 267.647 74.7921 267.816L73.3444 284.342C73.3111 284.704 73.1457 285.04 72.8799 285.287C72.6141 285.535 72.2665 285.675 71.9037 285.682Z" fill="#263238"/>
<path d="M72.2657 284.381H46.03L47.4847 267.75H73.7204L72.2657 284.381Z" fill="#01A2BB"/>
<path opacity="0.4" d="M72.2657 284.381H46.03L47.4847 267.75H73.7204L72.2657 284.381Z" fill="white"/>
<path d="M53.4561 273.774H50.1362L50.4251 270.454H51.3751L51.3473 270.735H50.6826L50.4425 273.492H53.1986L53.4387 270.735H52.7601L52.7845 270.454H53.745L53.4561 273.774Z" fill="#01A2BB"/>
<path d="M52.0851 272.114H51.8032L52.0816 268.94H52.3635L52.0851 272.114Z" fill="#01A2BB"/>
<path d="M51.9354 272.274L50.9297 271.731L51.0793 271.48L51.9528 271.954L52.8785 271.432L53.0038 271.675L51.9354 272.274Z" fill="#01A2BB"/>
<path d="M65.2464 271.912L64.7557 273.652H64.2233L64.446 272.866L63.9031 273.499H63.6491L63.4368 272.876L63.2141 273.652H62.6816L63.1793 271.912H63.6526L63.9484 272.831L64.7488 271.912H65.2464Z" fill="white"/>
<path d="M66.7742 272.89C66.7608 273.093 66.6732 273.284 66.5282 273.426C66.3831 273.569 66.1908 273.653 65.9877 273.662C65.9098 273.673 65.8305 273.66 65.7607 273.624C65.6908 273.587 65.634 273.531 65.5979 273.461L65.5492 273.638H65.0203L65.5457 271.808H66.1199L65.9564 272.382C66.0539 272.301 66.1778 272.259 66.3044 272.263C66.378 272.27 66.4494 272.292 66.514 272.328C66.5786 272.364 66.6349 272.413 66.6793 272.472C66.7236 272.531 66.755 272.599 66.7713 272.671C66.7877 272.743 66.7887 272.817 66.7742 272.89ZM66.2069 272.918C66.213 272.891 66.2127 272.864 66.2063 272.838C66.1998 272.811 66.1873 272.787 66.1697 272.766C66.1521 272.746 66.13 272.729 66.105 272.719C66.0801 272.708 66.053 272.704 66.026 272.705C65.8798 272.705 65.7719 272.824 65.7545 273.012C65.7485 273.038 65.7488 273.066 65.7552 273.092C65.7617 273.118 65.7742 273.143 65.7918 273.163C65.8094 273.184 65.8315 273.2 65.8564 273.211C65.8814 273.221 65.9085 273.226 65.9355 273.224C66.0817 273.224 66.1895 273.102 66.2069 272.918Z" fill="white"/>
<path d="M68.5003 272.89C68.4876 273.093 68.4003 273.284 68.2551 273.427C68.1099 273.569 67.9171 273.653 67.7138 273.662C67.643 273.67 67.5712 273.659 67.5062 273.63C67.4412 273.6 67.3855 273.554 67.3449 273.495L67.164 274.118H66.6072L67.1327 272.288H67.6581L67.6233 272.413C67.7249 272.317 67.8594 272.263 67.9992 272.263C68.0755 272.265 68.1504 272.284 68.2188 272.318C68.2872 272.352 68.3473 272.401 68.395 272.46C68.4427 272.52 68.4768 272.589 68.495 272.663C68.5132 272.737 68.515 272.815 68.5003 272.89ZM67.9331 272.917C67.9391 272.891 67.9388 272.864 67.9324 272.837C67.9259 272.811 67.9134 272.787 67.8958 272.766C67.8782 272.745 67.8561 272.729 67.8312 272.719C67.8062 272.708 67.7791 272.703 67.7521 272.705C67.6059 272.705 67.4981 272.823 67.4807 273.011C67.4746 273.038 67.4749 273.065 67.4813 273.092C67.4878 273.118 67.5003 273.142 67.5179 273.163C67.5355 273.184 67.5576 273.2 67.5826 273.21C67.6075 273.221 67.6346 273.225 67.6616 273.224C67.8078 273.224 67.9157 273.102 67.9331 272.917Z" fill="white"/>
<path d="M68.4517 273.541L68.6779 273.161C68.8164 273.241 68.9737 273.283 69.1337 273.283C69.259 273.283 69.3043 273.255 69.3077 273.22C69.3077 273.102 68.6117 273.22 68.6639 272.775C68.6953 272.427 69.0467 272.263 69.4678 272.263C69.6458 272.26 69.8225 272.295 69.9863 272.364L69.7601 272.747C69.6424 272.677 69.5072 272.642 69.3704 272.646C69.2416 272.646 69.1964 272.681 69.1929 272.712C69.1929 272.834 69.8715 272.712 69.8332 273.158C69.8019 273.506 69.4469 273.662 69.0328 273.662C68.8321 273.67 68.6326 273.628 68.4517 273.541Z" fill="white"/>
<path d="M64.1398 279.996L63.6491 281.736H63.1202L63.3394 280.95L62.8 281.583H62.5425L62.3302 280.96L62.1075 281.736H61.5959L62.0901 279.996H62.5634L62.8592 280.915L63.6631 279.996H64.1398Z" fill="white"/>
<path d="M65.6675 280.981C65.6549 281.183 65.5681 281.374 65.4236 281.517C65.2791 281.659 65.0872 281.743 64.8845 281.753C64.8066 281.764 64.7273 281.751 64.6575 281.714C64.5876 281.678 64.5308 281.621 64.4947 281.551L64.4425 281.729H63.9136L64.4391 279.898H64.9959L64.8323 280.473C64.9306 280.393 65.0539 280.351 65.1803 280.354C65.2554 280.358 65.3288 280.379 65.3955 280.413C65.4621 280.448 65.5205 280.497 65.5667 280.556C65.6129 280.616 65.6458 280.684 65.6632 280.758C65.6806 280.831 65.6821 280.907 65.6675 280.981ZM65.1003 281.009C65.1063 280.982 65.106 280.955 65.0996 280.928C65.0931 280.902 65.0806 280.878 65.063 280.857C65.0454 280.836 65.0233 280.82 64.9983 280.81C64.9734 280.799 64.9463 280.795 64.9193 280.796C64.7766 280.796 64.6653 280.915 64.6479 281.103C64.6418 281.129 64.6421 281.156 64.6485 281.183C64.655 281.209 64.6675 281.233 64.6851 281.254C64.7027 281.275 64.7248 281.291 64.7498 281.301C64.7747 281.312 64.8018 281.317 64.8288 281.315C64.9051 281.309 64.9763 281.274 65.0271 281.217C65.0778 281.16 65.1041 281.085 65.1003 281.009Z" fill="white"/>
<path d="M67.397 280.981C67.3829 281.183 67.2951 281.374 67.1502 281.516C67.0053 281.659 66.8134 281.743 66.6105 281.753C66.5397 281.762 66.4678 281.751 66.4027 281.722C66.3377 281.692 66.282 281.645 66.2417 281.586L66.0607 282.209H65.5039L66.0294 280.379H66.5514L66.5166 280.504C66.6192 280.407 66.755 280.354 66.8959 280.354C66.9722 280.357 67.0472 280.375 67.1155 280.409C67.1839 280.443 67.244 280.492 67.2917 280.552C67.3394 280.611 67.3735 280.68 67.3917 280.755C67.4099 280.829 67.4117 280.906 67.397 280.981ZM66.8298 281.009C66.8358 280.982 66.8356 280.955 66.8291 280.929C66.8226 280.902 66.8101 280.878 66.7926 280.857C66.775 280.837 66.7528 280.82 66.7279 280.81C66.7029 280.799 66.6759 280.795 66.6488 280.796C66.5027 280.796 66.3913 280.915 66.3774 281.103C66.3714 281.129 66.3716 281.157 66.3781 281.183C66.3845 281.209 66.3971 281.234 66.4146 281.254C66.4322 281.275 66.4543 281.291 66.4793 281.302C66.5042 281.312 66.5313 281.317 66.5583 281.315C66.7045 281.315 66.8159 281.193 66.8159 281.009H66.8298Z" fill="white"/>
<path d="M67.3484 281.632L67.5711 281.252C67.711 281.332 67.8694 281.374 68.0305 281.374C68.1523 281.374 68.1975 281.346 68.201 281.312C68.201 281.193 67.505 281.312 67.5607 280.866C67.5885 280.518 67.9435 280.355 68.3645 280.355C68.5425 280.352 68.7191 280.386 68.8831 280.456L68.6569 280.838C68.538 280.768 68.4016 280.733 68.2636 280.737C68.1349 280.737 68.0896 280.772 68.0861 280.804C68.0861 280.925 68.7648 280.804 68.7265 281.249C68.6986 281.597 68.3437 281.754 67.9295 281.754C67.7288 281.761 67.5292 281.719 67.3484 281.632Z" fill="white"/>
<path d="M55.8992 273.224H56.9919L56.8945 273.714H54.9248L55.0048 273.325L56.188 272.395C56.4838 272.159 56.5708 272.023 56.5708 271.853C56.5708 271.682 56.4421 271.567 56.188 271.567C56.0814 271.568 55.9764 271.593 55.8807 271.64C55.785 271.687 55.701 271.755 55.6347 271.839L55.231 271.543C55.3565 271.388 55.516 271.265 55.6972 271.182C55.8783 271.099 56.076 271.06 56.275 271.066C56.8249 271.066 57.1868 271.362 57.1868 271.762C57.1868 272.072 57.0441 272.333 56.5882 272.684L55.8992 273.224Z" fill="white"/>
<path d="M58.2899 271.595L58.1507 272.089H58.3038C58.9546 272.089 59.2782 272.357 59.2782 272.803C59.2782 273.387 58.7806 273.76 58.0741 273.76C57.7306 273.774 57.3929 273.667 57.1206 273.457L57.4094 273.015C57.6066 273.173 57.8529 273.257 58.1054 273.252C58.4534 273.252 58.6622 273.116 58.6622 272.872C58.6622 272.688 58.523 272.576 58.1576 272.576H57.4616L57.8862 271.111H59.4766L59.3756 271.595H58.2899Z" fill="white"/>
<path d="M61.6725 272.834C61.6714 272.965 61.6426 273.095 61.5882 273.215C61.5337 273.335 61.4547 273.442 61.3563 273.529C61.2579 273.616 61.1423 273.682 61.0169 273.721C60.8915 273.761 60.7592 273.774 60.6285 273.76C60.4867 273.77 60.3443 273.749 60.2113 273.699C60.0783 273.648 59.958 273.569 59.8586 273.468C59.7592 273.366 59.6832 273.244 59.6358 273.11C59.5885 272.976 59.571 272.833 59.5845 272.691C59.572 272.48 59.6034 272.268 59.6769 272.069C59.7504 271.87 59.8642 271.688 60.0114 271.536C60.1585 271.383 60.3357 271.262 60.5318 271.181C60.7278 271.101 60.9385 271.061 61.1505 271.066C61.4034 271.058 61.6537 271.12 61.8744 271.244L61.6029 271.686C61.478 271.611 61.337 271.567 61.1918 271.558C61.0465 271.549 60.9012 271.576 60.7682 271.635C60.6352 271.694 60.5183 271.784 60.4274 271.897C60.3364 272.011 60.2741 272.145 60.2457 272.288C60.4124 272.146 60.6261 272.073 60.8443 272.082C60.9488 272.074 61.054 272.087 61.1533 272.12C61.2526 272.154 61.3439 272.208 61.4215 272.278C61.4992 272.349 61.5615 272.434 61.6047 272.53C61.6479 272.626 61.671 272.729 61.6725 272.834ZM61.0809 272.886C61.0809 272.663 60.9104 272.538 60.6668 272.538C60.6085 272.532 60.5496 272.538 60.4937 272.555C60.4378 272.573 60.3861 272.602 60.342 272.641C60.2979 272.679 60.2622 272.726 60.2372 272.779C60.2123 272.833 60.1986 272.89 60.197 272.949C60.1985 273.002 60.2111 273.054 60.234 273.102C60.2569 273.15 60.2895 273.192 60.3299 273.226C60.3702 273.261 60.4173 273.287 60.4682 273.302C60.519 273.317 60.5724 273.321 60.625 273.314C60.6839 273.32 60.7432 273.312 60.7991 273.293C60.8551 273.274 60.9062 273.243 60.9493 273.203C60.9924 273.162 61.0264 273.113 61.0491 273.059C61.0718 273.004 61.0826 272.945 61.0809 272.886Z" fill="white"/>
<path d="M55.1684 279.074L54.6464 281.677H54.0443L54.4689 279.557H53.9399L54.0374 279.074H55.1684Z" fill="white"/>
<path d="M57.5941 281.13H57.1695L57.0616 281.677H56.4735L56.5849 281.13H55.1929L55.2729 280.727L56.8041 279.074H57.4618L56.035 280.64H56.731L56.8285 280.153H57.3888L57.2913 280.64H57.7193L57.5941 281.13Z" fill="white"/>
<path d="M60.1586 281.13H59.7305L59.6227 281.677H59.0345L59.1459 281.13H57.7539L57.8339 280.727L59.3651 279.074H60.0229L58.5961 280.64H59.2921L59.3895 280.153H59.9498L59.8558 280.64H60.2804L60.1586 281.13Z" fill="white"/>
<path d="M52.4193 281.635H49.0994L49.3917 278.312H50.3382L50.3139 278.593H49.6492L49.4056 281.35H52.1618L52.4054 278.593H51.7233L51.7476 278.312H52.7116L52.4193 281.635Z" fill="#01A2BB"/>
<path d="M51.0481 279.972H50.7627L51.0411 276.798H51.323L51.0481 279.972Z" fill="#01A2BB"/>
<path d="M51.9982 277.483L51.163 276.961L50.206 277.435L50.1016 277.184L51.2012 276.638L52.1617 277.24L51.9982 277.483Z" fill="#01A2BB"/>
<path opacity="0.1" d="M63.8196 266.507L58.6936 285.672H60.4162L65.4866 266.507H63.8196Z" fill="white"/>
<path opacity="0.1" d="M66.4783 266.507L61.3557 285.672H64.7731L69.84 266.507H66.4783Z" fill="white"/>
<path d="M49.8962 301.269H52.2L55.9132 345.235C55.9233 345.351 55.9092 345.468 55.8716 345.579C55.834 345.689 55.7738 345.79 55.6949 345.876C55.616 345.962 55.5201 346.03 55.4133 346.077C55.3064 346.124 55.191 346.148 55.0745 346.147C54.8658 346.147 54.6647 346.07 54.5102 345.929C54.3558 345.789 54.2592 345.596 54.2393 345.388L49.8962 301.269Z" fill="#263238"/>
<path d="M105.615 300.963H107.932L111.645 345.235C111.655 345.351 111.64 345.468 111.603 345.578C111.565 345.688 111.505 345.79 111.426 345.875C111.347 345.961 111.251 346.029 111.145 346.076C111.038 346.123 110.923 346.147 110.807 346.147C110.598 346.147 110.398 346.069 110.243 345.928C110.089 345.788 109.992 345.596 109.971 345.389L105.615 300.963Z" fill="#263238"/>
<path d="M107.243 300.963H38.0886V308.762H107.243V300.963Z" fill="#01A2BB"/>
<path opacity="0.3" d="M95.0944 301.022L94.8264 308.755L107.243 308.762V300.963L95.0944 301.022Z" fill="black"/>
<path opacity="0.2" d="M94.0434 301.022H38.0955V308.821H94.0434V301.022Z" fill="black"/>
<path d="M39.6127 300.963H37.295L37.2358 348.242C37.2354 348.353 37.2569 348.463 37.299 348.565C37.3412 348.667 37.4032 348.76 37.4815 348.839C37.5598 348.917 37.6528 348.979 37.7552 349.021C37.8576 349.063 37.9673 349.085 38.078 349.084C38.299 349.084 38.5111 348.998 38.6686 348.843C38.8262 348.688 38.9165 348.477 38.9202 348.256L39.6127 300.963Z" fill="#263238"/>
<path d="M95.3311 300.963H93.0135L92.9438 348.242C92.9438 348.466 93.0326 348.68 93.1905 348.838C93.3484 348.996 93.5627 349.084 93.786 349.084C94.0072 349.085 94.2199 348.999 94.3776 348.844C94.5354 348.688 94.6254 348.477 94.6282 348.256L95.3311 300.963Z" fill="#263238"/>
<path opacity="0.2" d="M37.295 300.963L37.2358 348.242C37.2354 348.353 37.2569 348.463 37.299 348.565C37.3412 348.667 37.4032 348.76 37.4815 348.839C37.5598 348.917 37.6528 348.979 37.7552 349.021C37.8576 349.063 37.9673 349.085 38.078 349.084C38.299 349.084 38.5111 348.998 38.6686 348.843C38.8262 348.688 38.9165 348.477 38.9202 348.256L39.6162 300.963H37.295Z" fill="white"/>
<path opacity="0.2" d="M95.3311 300.963H93.0135L92.9438 348.242C92.9438 348.466 93.0326 348.68 93.1905 348.838C93.3484 348.996 93.5627 349.084 93.786 349.084C94.0072 349.085 94.2199 348.999 94.3776 348.844C94.5354 348.688 94.6254 348.477 94.6282 348.256L95.3311 300.963Z" fill="white"/>
<path d="M35.3672 299.091C35.3672 298.047 35.7569 297.187 36.2407 297.184H108.973C109.456 297.184 109.846 298.04 109.846 299.091C109.846 300.135 109.456 300.991 108.973 300.994H36.2407C35.7569 300.991 35.3672 300.142 35.3672 299.091Z" fill="#263238"/>
<path opacity="0.1" d="M35.3672 299.091C35.3672 298.047 35.7569 297.187 36.2407 297.184H108.973C109.456 297.184 109.846 298.04 109.846 299.091C109.846 300.135 109.456 300.991 108.973 300.994H36.2407C35.7569 300.991 35.3672 300.142 35.3672 299.091Z" fill="white"/>
<path d="M91.082 299.091C91.082 298.047 91.4753 297.187 91.959 297.184H108.987C109.47 297.184 109.86 298.04 109.86 299.091C109.86 300.135 109.47 300.991 108.987 300.994H91.959C91.4753 300.991 91.0855 300.142 91.082 299.091Z" fill="#263238"/>
<path d="M74.124 294.128C68.5769 294.128 66.4228 289.082 66.3984 289.023L66.8334 288.842C66.9448 289.114 69.6592 295.43 77.1586 293.178C84.7624 290.892 90.8072 274.707 90.8663 274.543L91.3083 274.707C91.0577 275.382 85.1208 291.275 77.2943 293.627C76.268 293.95 75.1997 294.118 74.124 294.128Z" fill="#263238"/>
<path d="M99.8969 271.79H88.7783V297.378H99.8969V271.79Z" fill="#263238"/>
<path opacity="0.3" d="M99.8969 271.79H88.7783V297.378H99.8969V271.79Z" fill="black"/>
<path d="M91.945 271.79H80.8264V297.378H91.945V271.79Z" fill="#263238"/>
<path d="M88.3919 277.247C88.3919 277.697 88.2584 278.137 88.0081 278.511C87.7579 278.886 87.4022 279.177 86.9862 279.35C86.5701 279.522 86.1123 279.567 85.6707 279.479C85.2291 279.39 84.8236 279.173 84.5055 278.855C84.1873 278.536 83.9708 278.13 83.8834 277.688C83.796 277.247 83.8415 276.789 84.0143 276.373C84.1871 275.957 84.4794 275.602 84.8541 275.353C85.2288 275.103 85.6692 274.97 86.1195 274.971C86.4182 274.971 86.714 275.03 86.9899 275.144C87.2659 275.258 87.5165 275.426 87.7276 275.638C87.9386 275.849 88.106 276.1 88.22 276.376C88.3339 276.652 88.3924 276.948 88.3919 277.247Z" fill="white"/>
<path d="M87.4802 277.264C87.4802 277.533 87.4003 277.796 87.2508 278.02C87.1013 278.244 86.8888 278.418 86.6402 278.521C86.3915 278.624 86.118 278.651 85.854 278.599C85.5901 278.546 85.3476 278.416 85.1573 278.226C84.967 278.036 84.8374 277.793 84.7849 277.529C84.7324 277.266 84.7594 276.992 84.8624 276.743C84.9654 276.495 85.1398 276.282 85.3635 276.133C85.5873 275.983 85.8504 275.903 86.1195 275.903C86.4803 275.903 86.8264 276.047 87.0816 276.302C87.3368 276.557 87.4802 276.903 87.4802 277.264Z" fill="#01A2BB"/>
<path d="M87.2539 283.375C87.2539 283.6 87.1871 283.821 87.0619 284.008C86.9367 284.195 86.7588 284.341 86.5507 284.427C86.3425 284.513 86.1135 284.535 85.8927 284.491C85.6719 284.447 85.4691 284.338 85.3101 284.179C85.1511 284.019 85.043 283.816 84.9995 283.595C84.956 283.374 84.979 283.145 85.0657 282.937C85.1523 282.729 85.2987 282.552 85.4863 282.427C85.6739 282.303 85.8943 282.237 86.1195 282.237C86.4207 282.238 86.7092 282.359 86.9219 282.572C87.1345 282.785 87.2539 283.074 87.2539 283.375Z" fill="white"/>
<path d="M86.798 283.386C86.798 283.524 86.7567 283.659 86.6794 283.774C86.6021 283.889 86.4924 283.978 86.3642 284.03C86.236 284.082 86.0952 284.095 85.9597 284.067C85.8242 284.038 85.7003 283.97 85.6037 283.871C85.5071 283.772 85.4422 283.647 85.4173 283.51C85.3925 283.374 85.4088 283.234 85.4641 283.107C85.5195 282.98 85.6114 282.873 85.7281 282.798C85.8448 282.724 85.9811 282.686 86.1194 282.69C86.21 282.69 86.2997 282.708 86.3832 282.743C86.4667 282.778 86.5423 282.83 86.6055 282.895C86.6688 282.959 86.7184 283.036 86.7514 283.121C86.7845 283.205 86.8003 283.295 86.798 283.386Z" fill="#01A2BB"/>
<path d="M86.2936 278.625H85.9421V282.704H86.2936V278.625Z" fill="white"/>
<path opacity="0.3" d="M91.1308 286.611H81.6443V296.098H91.1308V286.611Z" fill="black"/>
<path d="M87.0451 291.985C87.0451 292.095 87.0123 292.204 86.9507 292.296C86.8891 292.388 86.8016 292.46 86.6993 292.502C86.5969 292.545 86.4842 292.556 86.3755 292.534C86.2669 292.512 86.167 292.459 86.0887 292.381C86.0103 292.302 85.9569 292.203 85.9353 292.094C85.9137 291.985 85.9248 291.873 85.9672 291.77C86.0096 291.668 86.0814 291.58 86.1736 291.519C86.2657 291.457 86.374 291.424 86.4848 291.424C86.6334 291.424 86.7759 291.483 86.881 291.588C86.9861 291.693 87.0451 291.836 87.0451 291.985Z" fill="#263238"/>
<path d="M86.4849 291.424C86.4293 290.07 89.69 287.248 87.5289 287.248C85.3679 287.248 83.9341 288.779 84.0176 289.684C84.1011 290.589 86.4849 291.424 86.4849 291.424Z" fill="#263238"/>
<path d="M86.4918 292.586C85.1903 292.959 81.6859 290.446 82.194 292.562C82.7021 294.678 84.5256 295.694 85.3747 295.409C86.2238 295.123 86.4918 292.586 86.4918 292.586Z" fill="#263238"/>
<path d="M87.0903 291.685C88.197 292.468 88.4371 296.773 89.763 295.051C91.0889 293.328 90.7478 291.268 89.9892 290.788C89.2305 290.307 87.0903 291.685 87.0903 291.685Z" fill="#263238"/>
<path d="M88.2874 256.182C88.5421 255.908 88.8484 255.686 89.1888 255.53C89.5293 255.374 89.8971 255.286 90.2714 255.273C90.6456 255.259 91.0189 255.319 91.37 255.449C91.721 255.58 92.0429 255.778 92.3173 256.033L92.4112 256.127C92.5215 256.229 92.667 256.284 92.8173 256.281C92.9675 256.279 93.1108 256.218 93.2171 256.111C93.3233 256.005 93.3843 255.862 93.3872 255.712C93.3901 255.561 93.3346 255.416 93.2325 255.306C92.8611 254.93 92.4193 254.632 91.9325 254.427C91.4456 254.223 90.9232 254.116 90.3951 254.113C89.8671 254.111 89.3436 254.212 88.8548 254.412C88.366 254.612 87.9213 254.906 87.5462 255.278L87.4696 255.354C86.9546 255.89 87.7689 256.715 88.2909 256.176L88.2874 256.182Z" fill="#01A2BB"/>
<path d="M84.7902 251.39C86.3024 250.007 88.267 249.221 90.3164 249.181C92.4016 249.157 94.4174 249.928 95.954 251.338C96.4969 251.846 97.3182 251.035 96.7753 250.517C95.0206 248.897 92.7149 248.006 90.3268 248.025C87.9187 248.025 85.7785 249.01 83.9793 250.569C83.4191 251.06 84.2334 251.881 84.8006 251.39H84.7902Z" fill="#01A2BB"/>
<path d="M86.1682 254.045C86.665 253.491 87.2663 253.04 87.9376 252.718C88.609 252.396 89.3373 252.21 90.0807 252.169C90.8242 252.129 91.5682 252.236 92.2703 252.484C92.9724 252.732 93.6187 253.116 94.1722 253.614C94.2836 253.711 94.3915 253.819 94.4959 253.927C95.0179 254.463 95.8391 253.645 95.3171 253.106C94.6984 252.459 93.9582 251.94 93.1389 251.579C92.3196 251.217 91.4372 251.021 90.542 251.001C89.6469 250.981 88.7566 251.138 87.9219 251.462C87.0873 251.786 86.3246 252.271 85.6775 252.89C85.5697 252.998 85.4618 253.106 85.3609 253.217C84.8563 253.763 85.6671 254.588 86.1821 254.038L86.1682 254.045Z" fill="#01A2BB"/>
<path d="M57.8898 343.83L61.0183 342.897L60.0718 335.505L56.2229 336.873L57.8898 343.83Z" fill="#FF8B7B"/>
<path opacity="0.2" d="M55.7915 334.813L59.8527 333.303L60.4617 338.62L56.8564 339.629L55.7915 334.813Z" fill="black"/>
<path d="M61.2864 342.368L57.7194 343.332C57.6547 343.352 57.5998 343.396 57.5657 343.455C57.5316 343.513 57.5206 343.582 57.535 343.649L58.0744 347.045C58.0854 347.125 58.1123 347.202 58.1534 347.272C58.1945 347.341 58.249 347.402 58.3138 347.45C58.3786 347.498 58.4523 347.533 58.5307 347.553C58.6091 347.572 58.6906 347.576 58.7704 347.564C60.0023 347.216 60.5835 346.958 62.1495 346.52C63.1134 346.255 65.3163 345.629 66.6735 345.382C68.0307 345.135 67.7488 343.555 67.1537 343.513C64.4845 343.349 62.9533 343.029 61.878 342.434C61.6968 342.337 61.4848 342.313 61.2864 342.368Z" fill="#263238"/>
<path d="M63.5135 342.567C63.551 342.501 63.5708 342.427 63.5708 342.351C63.5708 342.275 63.551 342.201 63.5135 342.135C63.4946 342.09 63.464 342.051 63.4249 342.021C63.3857 341.992 63.3394 341.974 63.2908 341.968C62.8697 341.912 62.1111 342.737 62.0276 342.835C62.0198 342.846 62.0156 342.86 62.0156 342.875C62.0156 342.889 62.0198 342.903 62.0276 342.915C62.033 342.928 62.0421 342.939 62.0539 342.947C62.0656 342.955 62.0794 342.96 62.0937 342.96C62.3813 342.961 62.6682 342.931 62.9498 342.873C63.1684 342.842 63.3685 342.733 63.5135 342.567ZM63.2525 342.118C63.2759 342.122 63.2978 342.132 63.3161 342.148C63.3343 342.163 63.3484 342.182 63.3569 342.205C63.384 342.245 63.4001 342.291 63.4038 342.339C63.4074 342.388 63.3985 342.436 63.3778 342.48C63.263 342.664 62.8488 342.765 62.2503 342.807C62.567 342.483 63.0298 342.086 63.2525 342.118Z" fill="#01A2BB"/>
<path d="M62.1285 342.939C62.3965 342.675 62.7132 341.895 62.5566 341.568C62.5295 341.509 62.4829 341.461 62.4247 341.431C62.3665 341.402 62.3 341.394 62.2364 341.408C62.1768 341.411 62.1189 341.429 62.0683 341.461C62.0177 341.492 61.9761 341.536 61.9476 341.589C61.697 341.972 61.9963 342.869 61.9998 342.911C62.0108 342.935 62.0308 342.954 62.0554 342.963H62.0902C62.105 342.959 62.1183 342.951 62.1285 342.939ZM62.2538 341.547C62.3652 341.547 62.4174 341.578 62.4208 341.624C62.4589 342.016 62.347 342.407 62.1076 342.72C61.9864 342.384 61.9742 342.019 62.0728 341.676C62.0879 341.649 62.1083 341.626 62.1329 341.607C62.1574 341.588 62.1856 341.575 62.2155 341.568L62.2538 341.547Z" fill="#01A2BB"/>
<path d="M42.0385 303.765C42.0385 303.765 60.5695 305.327 60.1136 313.376C59.7413 319.964 58.7634 318.172 60.6809 337.757L56.0212 338.015C56.0212 338.015 51.2814 322.007 51.9182 315.631C46.6982 315.631 34.741 316.087 33.001 311.375C32.1404 308.983 31.7218 306.453 31.7656 303.911L42.0385 303.765Z" fill="#263238"/>
<path d="M55.2798 338.916L61.3698 337.872L61.2723 335.178L54.9666 336.581L55.2798 338.916Z" fill="#01A2BB"/>
<path d="M69.9758 344.797L72.9234 343.398L70.8597 336.24L67.2649 338.178L69.9758 344.797Z" fill="#FF8B7B"/>
<path opacity="0.2" d="M66.5237 336.209L70.3064 334.096L71.7193 339.257L68.3124 340.806L66.5237 336.209Z" fill="black"/>
<path d="M73.1078 342.835L69.7322 344.335C69.6699 344.365 69.6213 344.417 69.5962 344.482C69.571 344.546 69.5711 344.618 69.5965 344.683L70.6405 347.957C70.6634 348.035 70.7019 348.108 70.7535 348.171C70.8051 348.234 70.8689 348.285 70.941 348.323C71.0131 348.361 71.0921 348.384 71.1732 348.39C71.2543 348.397 71.3359 348.387 71.4131 348.361C72.5789 347.815 73.1113 347.484 74.5938 346.826C75.509 346.419 77.5901 345.462 78.8881 345.013C80.1861 344.564 79.6711 343.043 79.0795 343.092C76.4173 343.339 74.8513 343.256 73.7029 342.831C73.5111 342.758 73.2987 342.759 73.1078 342.835Z" fill="#263238"/>
<path d="M75.3386 342.692C75.3643 342.621 75.3711 342.544 75.3583 342.47C75.3455 342.395 75.3135 342.326 75.2655 342.267C75.2413 342.225 75.2055 342.19 75.1624 342.168C75.1193 342.145 75.0706 342.135 75.0219 342.138C74.5939 342.138 73.9779 343.078 73.9048 343.182C73.8975 343.195 73.8936 343.208 73.8936 343.222C73.8936 343.237 73.8975 343.25 73.9048 343.263C73.9124 343.275 73.9234 343.284 73.9365 343.29C73.9495 343.295 73.964 343.297 73.9779 343.294C74.2631 343.252 74.5431 343.179 74.8131 343.078C75.0298 343.018 75.2168 342.881 75.3386 342.692ZM75.0115 342.288C75.0358 342.289 75.0594 342.296 75.0802 342.309C75.1009 342.322 75.118 342.34 75.1298 342.361C75.1629 342.396 75.1859 342.44 75.1963 342.487C75.2067 342.534 75.2042 342.583 75.189 342.629C75.1089 342.828 74.7122 342.977 74.1276 343.12C74.3886 342.754 74.7888 342.288 75.0115 342.288Z" fill="#01A2BB"/>
<path d="M74.0267 343.273C74.2529 342.97 74.4477 342.153 74.2424 341.85C74.2048 341.796 74.1501 341.755 74.087 341.736C74.0239 341.716 73.9562 341.718 73.8944 341.742C73.837 341.756 73.7838 341.784 73.739 341.822C73.6943 341.861 73.6593 341.91 73.6369 341.965C73.449 342.382 73.884 343.224 73.8909 343.263C73.8976 343.274 73.9067 343.283 73.9175 343.291C73.9284 343.298 73.9407 343.303 73.9536 343.304H73.9884C74.0041 343.298 74.0175 343.287 74.0267 343.273ZM73.9397 341.881C74.0475 341.853 74.1067 341.881 74.1137 341.93C74.2134 342.311 74.1636 342.715 73.9745 343.061C73.7991 342.743 73.7308 342.377 73.7796 342.017C73.7896 341.988 73.806 341.961 73.8277 341.94C73.8495 341.918 73.8758 341.902 73.9049 341.892L73.9397 341.881Z" fill="#01A2BB"/>
<path d="M47.5542 303.765C47.676 303.765 68.3263 305.891 68.3507 312.896C68.3959 324.478 71.7054 337.757 71.7054 337.757L67.6233 339.779C67.6233 339.779 60.5172 325.382 60.6251 316.355C54.9422 314.723 40.2462 317.462 38.5097 312.753C37.0863 308.905 37.8554 303.765 37.8554 303.765H47.5542Z" fill="#263238"/>
<path d="M66.9692 340.364L72.4398 337.903L72.0013 335.662L66.2314 337.656L66.9692 340.364Z" fill="#01A2BB"/>
<path d="M38.3637 279.046C37.7616 280.184 37.2605 281.284 36.7524 282.428C36.2444 283.573 35.7954 284.718 35.3604 285.908C34.9254 287.099 34.5566 288.296 34.2364 289.555C33.8923 290.861 33.6858 292.199 33.6204 293.547C33.5847 294.338 33.6633 295.131 33.8536 295.9C33.9716 296.372 34.1568 296.826 34.4034 297.246C34.5456 297.485 34.7112 297.709 34.8976 297.914L35.0472 298.078C35.1342 298.155 35.2247 298.242 35.3152 298.308C35.4649 298.423 35.6258 298.523 35.7954 298.607C36.0452 298.733 36.3077 298.832 36.5784 298.903C36.7924 298.959 37.0098 299.002 37.2292 299.032C37.6023 299.074 37.9777 299.093 38.3532 299.087C39.0209 299.09 39.688 299.05 40.3508 298.969C42.8239 298.647 45.259 298.08 47.6205 297.278L47.189 295.217C44.8295 295.378 42.4214 295.565 40.1628 295.545C39.5991 295.517 39.0527 295.517 38.5446 295.465C38.3183 295.441 38.0939 295.401 37.873 295.346C37.692 295.301 37.525 295.228 37.5911 295.235C37.6272 295.249 37.6612 295.267 37.692 295.291C37.7276 295.315 37.7603 295.343 37.7895 295.374C37.7781 295.353 37.7688 295.331 37.7616 295.308C37.7154 295.196 37.6838 295.08 37.6677 294.96C37.6045 294.551 37.5917 294.136 37.6294 293.725C37.7367 292.67 37.9465 291.628 38.2558 290.613C38.5655 289.517 38.9518 288.456 39.352 287.377C39.7522 286.298 40.2011 285.223 40.6779 284.151C41.1546 283.079 41.6523 282.007 42.1395 280.998L38.3637 279.046Z" fill="#FF8B7B"/>
<path d="M46.1484 295.705L48.6645 294.452L49.7607 297.167C49.7607 297.167 46.8375 298.211 46.2807 297.438L46.1484 295.705Z" fill="#FF8B7B"/>
<path d="M50.6201 295.054L51.6501 296.884L49.7605 297.145L48.6643 294.435L50.6201 295.054Z" fill="#FF8B7B"/>
<path d="M45.8457 283.633C46.3155 284.813 45.8005 283.476 46.319 284.618C46.8375 285.759 47.363 286.883 47.8989 288.007C49.0003 290.295 50.2344 292.517 51.5947 294.661C51.967 295.207 52.3359 295.75 52.75 296.293C52.9553 296.568 53.185 296.836 53.4286 297.114C53.5609 297.254 53.6687 297.386 53.8253 297.529L54.0481 297.744L54.1733 297.863C54.5252 298.162 54.9386 298.381 55.3844 298.503C55.6194 298.571 55.859 298.622 56.1013 298.656C56.4961 298.704 56.894 298.72 57.2914 298.705C57.9786 298.683 58.6634 298.615 59.3411 298.499C61.8412 298.051 64.2896 297.352 66.6491 296.411L66.6665 293.808C64.2758 294.097 61.8328 294.403 59.536 294.504C58.9931 294.525 58.4495 294.518 57.9074 294.484C57.6892 294.466 57.4727 294.431 57.2601 294.379C57.1915 294.362 57.125 294.338 57.0617 294.306C57.0409 294.306 57.0617 294.278 57.1627 294.341C57.1988 294.361 57.2317 294.387 57.2601 294.417L57.2253 294.372L57.1209 294.257C57.0548 294.191 56.9713 294.08 56.8947 293.989C56.7451 293.798 56.5885 293.593 56.4319 293.366C56.1256 292.924 55.8263 292.437 55.5305 291.943C54.9389 290.951 54.3891 289.9 53.8497 288.835C53.3103 287.771 52.8057 286.685 52.2837 285.589C51.2675 283.41 51.278 283.636 50.3349 281.437L45.8457 283.633Z" fill="#FF8B7B"/>
<path d="M65.1318 294.188L68.4831 293.492L69.7985 297.128C69.7985 297.128 65.9322 297.515 65.2188 296.464L65.1318 294.188Z" fill="#FF8B7B"/>
<path d="M71.0303 294.407L72.304 296.867L69.7984 297.125L68.4829 293.488L71.0303 294.407Z" fill="#FF8B7B"/>
<path d="M47.5125 268.829C47.7187 269.561 48.0206 270.263 48.4104 270.917C47.9719 271.24 47.3037 270.979 47.3037 270.979L47.5125 268.829Z" fill="#A02724"/>
<path d="M47.7423 270.85C47.6579 270.878 47.57 270.893 47.4813 270.896C46.8305 270.896 46.2842 270.224 46.2668 269.368C46.2494 268.512 46.7644 267.805 47.4152 267.788C47.5871 267.79 47.7561 267.833 47.9077 267.914C48.0592 267.995 48.1888 268.112 48.2852 268.254C48.5104 268.563 48.6323 268.934 48.6332 269.316C48.6471 270.036 48.2747 270.68 47.7423 270.85ZM47.2064 268C46.754 268.143 46.4269 268.696 46.4408 269.365C46.4582 270.123 46.9245 270.732 47.4848 270.718C47.557 270.719 47.6288 270.707 47.6971 270.683C48.1564 270.537 48.4766 269.963 48.4627 269.319C48.4618 268.975 48.3536 268.639 48.1529 268.359C48.0727 268.239 47.9646 268.14 47.838 268.071C47.7113 268.002 47.5699 267.965 47.4256 267.962C47.351 267.964 47.2771 267.977 47.2064 268Z" fill="#263238"/>
<path d="M39.0421 271.049L40.8657 272.952L43.3539 275.545C43.1494 275.846 43.002 276.182 42.9189 276.537C42.6961 277.313 42.5082 277.884 44.1925 278.625C44.3727 278.698 44.5278 278.822 44.6395 278.981C44.7512 279.14 44.8147 279.328 44.8224 279.523C44.8224 280.003 44.4466 280.525 42.7762 280.567C41.166 280.559 39.6003 280.038 38.3079 279.077C37.671 278.628 37.7337 278.214 38.1304 277.56C39.324 275.705 39.2753 273.106 39.0421 271.049Z" fill="#FF8B7B"/>
<path d="M48.104 268.704C48.1249 268.958 48.031 269.173 47.8987 269.184C47.7665 269.194 47.6412 268.996 47.6238 268.742C47.6064 268.488 47.6934 268.269 47.8256 268.258C47.9579 268.248 48.0831 268.446 48.104 268.704Z" fill="#263238"/>
<path d="M47.5334 272.173C47.3461 272.86 47.0033 273.495 46.5314 274.028C46.0595 274.562 45.4712 274.98 44.812 275.249C44.3693 275.434 43.8987 275.542 43.42 275.569C42.8359 275.6 42.2522 275.501 41.7108 275.279C41.1693 275.058 40.6835 274.72 40.288 274.289C38.7046 272.608 38.809 270.715 38.7046 267.489C38.681 266.834 38.7997 266.183 39.0526 265.578C39.5119 264.488 40.3827 263.623 41.476 263.171C42.5693 262.718 43.7968 262.716 44.8921 263.163C48.0241 264.486 48.3094 269.281 47.5334 272.173Z" fill="#FF8B7B"/>
<path opacity="0.2" d="M44.8122 275.25C44.3695 275.434 43.8989 275.542 43.4202 275.57L43.3645 275.549L43.6707 274.947C43.6707 274.947 43.8482 275.472 44.8122 275.25Z" fill="black"/>
<path d="M43.9751 267.608L43.9285 267.776L48.7332 269.111L48.7798 268.943L43.9751 267.608Z" fill="#263238"/>
<path d="M44.8921 269.514C44.3283 270.468 43.6393 271.401 43.5001 272.5C43.434 272.96 39.9331 273.645 39.0944 272.768C38.283 271.855 37.7019 270.761 37.3997 269.577C36.9205 268.15 36.8399 266.62 37.1665 265.15C37.3585 264.298 37.8302 263.535 38.5063 262.982C38.8464 262.715 39.2529 262.546 39.6822 262.492C40.1115 262.439 40.5472 262.504 40.9423 262.68C41.7474 262.152 42.6849 261.861 43.6474 261.841C44.6099 261.822 45.5585 262.073 46.3847 262.567C47.2108 263.062 47.8811 263.779 48.3187 264.636C48.7564 265.494 48.9437 266.457 48.8593 267.416C48.8609 267.528 48.8226 267.636 48.7514 267.722C48.6931 267.761 48.6274 267.787 48.5586 267.799C48.4897 267.811 48.4191 267.808 48.3512 267.792L46.3607 267.552C46.1101 267.524 45.8039 267.44 45.7586 267.204C45.7308 267.047 45.5638 266.236 45.5568 266.118L44.8921 269.514Z" fill="#263238"/>
<path d="M42.71 269.208C42.8579 269.92 43.2631 270.552 43.848 270.983C44.6032 271.529 45.3618 270.753 45.3583 269.838C45.3583 269.013 44.8085 267.875 43.9663 267.694C43.1241 267.513 42.5326 268.328 42.71 269.208Z" fill="#FF8B7B"/>
<path d="M39.9436 261.274C40.1687 261.265 40.3907 261.328 40.5781 261.453C40.7655 261.578 40.9088 261.759 40.9876 261.97C41.085 262.217 41.179 262.819 40.9006 262.948C40.6412 262.358 40.3204 261.797 39.9436 261.274Z" fill="#263238"/>
<path d="M32.9208 279.06C33.1992 278.322 34.4902 277.581 35.2872 277.581H35.8126C36.8712 277.591 37.9284 277.66 38.9794 277.786C41.0854 278.016 43.1767 278.365 45.2434 278.83C46.197 279.084 47.1192 279.401 47.85 279.676C48.7826 280.045 49.329 280.292 49.329 280.292C49.329 280.292 48.3093 287.088 47.7804 293.836C47.488 297.591 47.6063 301.322 47.5159 303.886H31.7654C31.219 300.807 31.306 298.117 31.2608 292.552C31.2364 289.218 31.7793 282.102 32.9208 279.06Z" fill="#01A2BB"/>
<path opacity="0.2" d="M48.1389 290.088C48.0206 291.504 47.8988 292.99 47.77 294.476C45.9221 291.776 44.8955 284.384 44.8955 284.384L48.1389 290.088Z" fill="black"/>
<path d="M50.2373 280.8C52.4958 282.07 54.7091 288.578 54.7091 288.578L49.5378 292.479C47.5647 290.614 44.6658 285.982 44.3631 284.127C43.848 281.287 46.632 278.775 50.2373 280.8Z" fill="#01A2BB"/>
<path d="M54.6987 350.167C54.7001 350.485 54.7956 350.795 54.9731 351.058C55.1506 351.322 55.4021 351.527 55.696 351.647C55.9899 351.768 56.313 351.799 56.6244 351.736C56.9358 351.673 57.2216 351.52 57.4458 351.294C57.6699 351.069 57.8224 350.783 57.8839 350.471C57.9453 350.159 57.9131 349.837 57.7912 349.543C57.6693 349.25 57.4632 348.999 57.199 348.823C56.9347 348.646 56.6242 348.552 56.3065 348.552C55.8801 348.552 55.4712 348.722 55.1696 349.023C54.8681 349.325 54.6987 349.734 54.6987 350.16V350.167Z" fill="#263238"/>
<path d="M30.7145 350.167C30.7132 350.485 30.6177 350.795 30.4402 351.058C30.2627 351.322 30.0111 351.527 29.7172 351.647C29.4233 351.768 29.1003 351.799 28.7889 351.736C28.4775 351.673 28.1916 351.52 27.9675 351.294C27.7433 351.069 27.5909 350.783 27.5294 350.471C27.4679 350.159 27.5002 349.837 27.6221 349.543C27.744 349.25 27.95 348.999 28.2143 348.823C28.4785 348.646 28.7891 348.552 29.1068 348.552C29.5332 348.552 29.9421 348.722 30.2436 349.023C30.5451 349.325 30.7145 349.734 30.7145 350.16V350.167Z" fill="#263238"/>
<path d="M44.2726 349.652C44.2726 349.97 44.1784 350.281 44.0017 350.545C43.825 350.809 43.5739 351.015 43.2802 351.137C42.9864 351.259 42.6631 351.291 42.3512 351.229C42.0394 351.167 41.7529 351.013 41.528 350.789C41.3032 350.564 41.1501 350.277 41.088 349.965C41.026 349.653 41.0578 349.33 41.1795 349.036C41.3012 348.743 41.5073 348.492 41.7717 348.315C42.0361 348.138 42.3469 348.044 42.6649 348.044C43.0913 348.044 43.5002 348.213 43.8017 348.515C44.1033 348.816 44.2726 349.225 44.2726 349.652Z" fill="#263238"/>
<path d="M43.1521 347.668V344.557H47.7561C48.6598 344.56 49.5614 344.645 50.4497 344.811L59.0383 346.464C59.2318 346.5 59.4045 346.609 59.5216 346.767C59.6386 346.925 59.6915 347.122 59.6694 347.318C59.6474 347.513 59.5521 347.693 59.4028 347.822C59.2534 347.95 59.061 348.017 58.8643 348.009L43.1521 347.668Z" fill="#263238"/>
<path d="M43.1522 347.668V344.557H38.5551C37.6513 344.558 36.7496 344.643 35.8616 344.811L26.222 346.349C26.0193 346.39 25.8408 346.509 25.7255 346.68C25.6101 346.851 25.5671 347.062 25.606 347.265C25.6408 347.447 25.7396 347.61 25.8845 347.726C26.0294 347.841 26.2108 347.901 26.396 347.894L43.1522 347.668Z" fill="#263238"/>
<path d="M46.0196 329.088H40.3159V345.504H46.0196V329.088Z" fill="#263238"/>
<path d="M45.1948 318.687H41.1301V329.168H45.1948V318.687Z" fill="#263238"/>
<path opacity="0.5" d="M45.1982 320.628L41.1301 321.655V318.687H45.1982V320.628Z" fill="black"/>
<path d="M58.3735 303.709H56.3064V312.524H58.3735V303.709Z" fill="#01A2BB"/>
<path opacity="0.7" d="M58.3735 303.709H56.3064V312.524H58.3735V303.709Z" fill="white"/>
<path d="M45.9361 318.687V280.365C45.936 279.647 45.7825 278.938 45.486 278.284C45.1896 277.631 44.7569 277.048 44.217 276.575L41.4852 274.184C40.5687 273.381 39.3912 272.938 38.1722 272.938H28.3169L23.4971 278.068V318.687H45.9361Z" fill="#01A2BB"/>
<path d="M60.639 311.271H38.1304V318.687H64.3069C64.7768 318.687 65.2382 318.562 65.6444 318.326C66.0506 318.09 66.3871 317.751 66.6197 317.342C66.8522 316.934 66.9726 316.472 66.9686 316.002C66.9646 315.532 66.8363 315.072 66.5968 314.667C65.9843 313.633 65.1128 312.775 64.0681 312.18C63.0234 311.584 61.8416 311.271 60.639 311.271Z" fill="#01A2BB"/>
<path opacity="0.7" d="M23.4937 278.071V318.687H64.3071C64.7767 318.687 65.238 318.563 65.6442 318.327C66.0504 318.091 66.387 317.752 66.6199 317.344C66.8528 316.937 66.9736 316.475 66.9702 316.005C66.9668 315.535 66.8392 315.075 66.6004 314.671C65.9896 313.637 65.1199 312.779 64.0771 312.184C63.0342 311.588 61.8541 311.275 60.6531 311.274H49.3153C48.8719 311.276 48.4325 311.19 48.0224 311.022C47.6123 310.853 47.2395 310.605 46.9255 310.292C46.6115 309.979 46.3624 309.607 46.1927 309.198C46.0229 308.788 45.9357 308.349 45.9362 307.905V280.361C45.9359 279.645 45.7824 278.936 45.4859 278.284C45.1894 277.631 44.7568 277.05 44.2171 276.578L41.4853 274.184C40.567 273.382 39.3884 272.94 38.1688 272.942H28.3169L23.4937 278.071Z" fill="white"/>
<path d="M42.6649 318.687V280.365C42.6647 279.647 42.5113 278.938 42.2148 278.284C41.9183 277.631 41.4856 277.048 40.9458 276.575L38.2174 274.184C37.2992 273.381 36.1208 272.939 34.901 272.938H27.2102C26.5228 272.938 25.8428 273.079 25.2119 273.352C24.5811 273.625 24.0129 274.024 23.5423 274.525L21.5761 276.613C20.6994 277.546 20.2115 278.778 20.2119 280.059V314.859C20.2119 315.874 20.6152 316.847 21.3331 317.565C22.051 318.283 23.0247 318.687 24.0399 318.687H42.6649Z" fill="#01A2BB"/>
<path opacity="0.5" d="M42.6649 318.687V280.365C42.6647 279.647 42.5113 278.938 42.2148 278.284C41.9183 277.631 41.4856 277.048 40.9458 276.575L38.2174 274.184C37.2992 273.381 36.1208 272.939 34.901 272.938H27.2102C26.5228 272.938 25.8428 273.079 25.2119 273.352C24.5811 273.625 24.0129 274.024 23.5423 274.525L21.5761 276.613C20.6994 277.546 20.2115 278.778 20.2119 280.059V314.859C20.2119 315.874 20.6152 316.847 21.3331 317.565C22.051 318.283 23.0247 318.687 24.0399 318.687H42.6649Z" fill="white"/>
<path d="M50.3244 306.399C54.8717 304.812 59.8224 304.812 64.3697 306.399C64.8256 306.572 65.3289 306.571 65.7843 306.397C66.2397 306.223 66.6155 305.888 66.8405 305.456C67.2616 304.565 66.6978 303.413 65.5529 303.02C60.2419 301.165 54.4591 301.165 49.1482 303.02C48.0032 303.42 47.436 304.575 47.8571 305.456C48.0831 305.887 48.4584 306.22 48.9126 306.394C49.3668 306.567 49.8688 306.569 50.3244 306.399Z" fill="#01A2BB"/>
<path opacity="0.7" d="M50.3244 306.399C54.8717 304.812 59.8224 304.812 64.3697 306.399C64.8256 306.572 65.3289 306.571 65.7843 306.397C66.2397 306.223 66.6155 305.888 66.8405 305.456C67.2616 304.565 66.6978 303.413 65.5529 303.02C60.2419 301.165 54.4591 301.165 49.1482 303.02C48.0032 303.42 47.436 304.575 47.8571 305.456C48.0831 305.887 48.4584 306.22 48.9126 306.394C49.3668 306.567 49.8688 306.569 50.3244 306.399Z" fill="white"/>
<path d="M154.265 251.157V251.053C154.269 251.087 154.269 251.122 154.265 251.157Z" fill="#01A2BB"/>
<path d="M109.195 236.844C105.744 239.754 103.144 243.543 101.668 247.809L99.8933 247.708C100.734 242.877 102.767 238.331 105.809 234.484L109.195 236.844Z" fill="#01A2BB"/>
<path opacity="0.6" d="M109.195 236.844C105.744 239.754 103.144 243.543 101.668 247.809L99.8933 247.708C100.734 242.877 102.767 238.331 105.809 234.484L109.195 236.844Z" fill="white"/>
<path d="M119.712 231.512C115.833 232.429 112.228 234.256 109.195 236.844L105.792 234.502C108.821 230.635 112.723 227.54 117.179 225.471L119.712 231.512Z" fill="#01A2BB"/>
<path opacity="0.5" d="M119.712 231.512C115.833 232.429 112.228 234.256 109.195 236.844L105.792 234.502C108.821 230.635 112.723 227.54 117.179 225.471L119.712 231.512Z" fill="white"/>
<path d="M131.015 222.799L129.769 231.412C128.541 231.144 127.291 230.982 126.035 230.928C123.911 230.833 121.783 231.03 119.712 231.512L117.175 225.471C121.368 223.51 125.972 222.586 130.597 222.778L131.015 222.799Z" fill="#01A2BB"/>
<path opacity="0.4" d="M131.015 222.799L129.769 231.412C128.541 231.144 127.291 230.982 126.035 230.928C123.911 230.833 121.783 231.03 119.712 231.512L117.175 225.471C121.368 223.51 125.972 222.586 130.597 222.778L131.015 222.799Z" fill="white"/>
<path d="M143.808 227.054L137.808 235.104C135.432 233.299 132.687 232.038 129.769 231.411L131.015 222.798C135.585 223.039 140.005 224.509 143.808 227.054Z" fill="#01A2BB"/>
<path opacity="0.3" d="M143.808 227.054L137.808 235.104C135.432 233.299 132.687 232.038 129.769 231.411L131.015 222.798C135.585 223.039 140.005 224.509 143.808 227.054Z" fill="white"/>
<path d="M152.337 237.216L143.307 241.542C141.958 239.025 140.083 236.829 137.808 235.104L143.822 227.072C147.549 229.595 150.498 233.108 152.337 237.216Z" fill="#01A2BB"/>
<path opacity="0.2" d="M152.337 237.216L143.307 241.542C141.958 239.025 140.083 236.829 137.808 235.104L143.822 227.072C147.549 229.595 150.498 233.108 152.337 237.216Z" fill="white"/>
<path d="M154.31 250.802L145.69 250.315C145.561 247.249 144.747 244.251 143.306 241.542L152.337 237.216C154.218 241.481 154.9 246.178 154.31 250.802Z" fill="#01A2BB"/>
<path opacity="0.1" d="M154.31 250.802L145.69 250.315C145.561 247.249 144.747 244.251 143.306 241.542L152.337 237.216C154.218 241.481 154.9 246.178 154.31 250.802Z" fill="white"/>
<path d="M154.282 251.052C154.286 251.087 154.286 251.122 154.282 251.157C153.934 253.593 152.796 257.567 151.589 259.857L144.681 257.967L145.36 255.326C145.429 254.978 145.485 254.63 145.534 254.282L145.561 254.07C145.718 252.82 145.767 251.559 145.708 250.301L154.327 250.788C154.327 250.837 154.327 250.885 154.31 250.934C154.305 250.975 154.296 251.014 154.282 251.052Z" fill="#01A2BB"/>
<path d="M100.541 257.028L100.015 257.118C99.8829 256.447 99.7751 255.768 99.695 255.076C99.4611 252.961 99.4774 250.825 99.7437 248.714V248.613C99.7464 248.577 99.7522 248.541 99.7612 248.505C99.7994 248.237 99.8377 247.973 99.8829 247.708L101.658 247.809C101.185 249.197 100.843 250.625 100.635 252.076C100.635 252.111 100.635 252.145 100.635 252.18C100.633 252.216 100.633 252.252 100.635 252.288C100.528 253.144 100.472 254.005 100.468 254.867C100.453 255.588 100.478 256.309 100.541 257.028Z" fill="#01A2BB"/>
<path opacity="0.7" d="M100.541 257.028L100.015 257.118C99.8829 256.447 99.7751 255.768 99.695 255.076C99.4611 252.961 99.4774 250.825 99.7437 248.714V248.613C99.7464 248.577 99.7522 248.541 99.7612 248.505C99.7994 248.237 99.8377 247.973 99.8829 247.708L101.658 247.809C101.185 249.197 100.843 250.625 100.635 252.076C100.635 252.111 100.635 252.145 100.635 252.18C100.633 252.216 100.633 252.252 100.635 252.288C100.528 253.144 100.472 254.005 100.468 254.867C100.453 255.588 100.478 256.309 100.541 257.028Z" fill="white"/>
<path d="M153.402 257.985L152.594 259.784L151.112 259.38L137.349 255.608L131.433 253.983C131.876 253.469 132.247 252.896 132.536 252.281C132.876 251.566 133.095 250.799 133.183 250.012L146.254 255.163L153.402 257.985Z" fill="#263238"/>
<path d="M133.173 250.012C133.003 251.48 132.397 252.863 131.433 253.983L126.108 252.525L128.008 247.98L133.173 250.012Z" fill="#263238"/>
<path d="M129.992 249.873C129.872 250.882 129.453 251.832 128.788 252.601C128.309 253.167 127.716 253.626 127.048 253.948C124.612 255.11 121.856 254.184 120.881 251.86C119.907 249.535 121.094 246.727 123.526 245.558C125.959 244.388 128.722 245.321 129.693 247.646C129.984 248.349 130.087 249.117 129.992 249.873Z" fill="#01A2BB"/>
<path d="M142.391 245.592C142.354 245.591 142.319 245.578 142.291 245.554C142.263 245.529 142.244 245.497 142.238 245.46C141.905 243.954 141.295 242.522 140.439 241.239C140.427 241.221 140.419 241.201 140.415 241.18C140.411 241.158 140.412 241.137 140.416 241.116C140.421 241.095 140.429 241.075 140.442 241.057C140.454 241.04 140.469 241.024 140.487 241.013C140.524 240.989 140.569 240.981 140.612 240.99C140.655 240.999 140.693 241.025 140.717 241.061C141.595 242.38 142.219 243.85 142.558 245.398C142.566 245.44 142.557 245.484 142.533 245.52C142.509 245.556 142.472 245.581 142.429 245.589L142.391 245.592Z" fill="#01A2BB"/>
<path d="M104.626 244.956C104.599 244.955 104.573 244.948 104.55 244.935C104.531 244.924 104.515 244.909 104.502 244.892C104.489 244.874 104.48 244.854 104.474 244.833C104.469 244.812 104.468 244.79 104.472 244.769C104.475 244.748 104.483 244.727 104.494 244.709C104.567 244.587 111.976 232.424 124.02 232.4C129.908 232.4 135.428 234.798 139.158 239.012C139.174 239.027 139.187 239.044 139.195 239.064C139.204 239.084 139.208 239.105 139.208 239.127C139.208 239.148 139.204 239.17 139.195 239.189C139.187 239.209 139.174 239.227 139.158 239.242C139.143 239.257 139.125 239.269 139.106 239.278C139.086 239.286 139.065 239.29 139.043 239.29C139.022 239.29 139.001 239.286 138.981 239.278C138.961 239.269 138.943 239.257 138.929 239.242C137.049 237.163 134.749 235.508 132.181 234.386C129.613 233.264 126.836 232.701 124.034 232.734C112.174 232.758 104.863 244.764 104.79 244.886C104.772 244.912 104.747 244.933 104.718 244.945C104.689 244.957 104.657 244.961 104.626 244.956Z" fill="#01A2BB"/>
<path d="M150.959 261.085H150.924L148.916 260.508C148.875 260.496 148.84 260.468 148.819 260.43C148.798 260.392 148.793 260.347 148.805 260.306C148.81 260.285 148.82 260.266 148.833 260.248C148.847 260.231 148.863 260.217 148.882 260.206C148.901 260.196 148.921 260.189 148.943 260.186C148.964 260.184 148.986 260.185 149.007 260.191L151.011 260.751C151.049 260.763 151.082 260.788 151.103 260.821C151.124 260.855 151.132 260.895 151.126 260.934C151.119 260.974 151.099 261.009 151.068 261.034C151.037 261.06 150.999 261.073 150.959 261.072V261.085Z" fill="#01A2BB"/>
<path d="M147.489 260.111H147.451L131.161 255.521C131.12 255.509 131.085 255.481 131.064 255.443C131.043 255.405 131.038 255.361 131.05 255.319C131.055 255.298 131.065 255.279 131.078 255.262C131.092 255.245 131.108 255.23 131.127 255.22C131.145 255.209 131.166 255.202 131.188 255.199C131.209 255.197 131.231 255.198 131.252 255.204L147.552 259.791C147.59 259.802 147.623 259.827 147.644 259.861C147.665 259.895 147.673 259.935 147.666 259.974C147.66 260.013 147.64 260.049 147.609 260.074C147.578 260.099 147.539 260.112 147.5 260.111H147.489Z" fill="#01A2BB"/>
</g>
<defs>
<radialGradient id="paint0_radial_401_6120" cx="0" cy="0" r="1" gradientUnits="userSpaceOnUse" gradientTransform="translate(90 102.662) rotate(88.803) scale(191.478 188.408)">
<stop stop-color="#01A2BB"/>
<stop offset="1" stop-color="#FEFFFF" stop-opacity="0"/>
</radialGradient>
<clipPath id="clip0_401_6120">
<rect width="174" height="152" fill="white" transform="translate(0 201)"/>
</clipPath>
</defs>
</svg>
