<svg width="174" height="353" viewBox="0 0 174 353" fill="none" xmlns="http://www.w3.org/2000/svg">
<line x1="80.75" y1="-0.000488281" x2="80.75" y2="101.004" stroke="#141414" stroke-width="4"/>
<path d="M73 104C73 102.343 74.3431 101 76 101H84C85.6569 101 87 102.343 87 104V113H73V104Z" fill="#004A6E"/>
<path d="M71.1606 113H88.8394C89.5571 113 90.2198 113.385 90.5758 114.008L94 120H66L69.4242 114.008C69.7802 113.385 70.4429 113 71.1606 113Z" fill="#01A2BB" stroke="#01A2BB"/>
<path d="M173 301L132 156.59L110.5 129.513L80 125L47 132.221L29 156.59L0 301H173Z" fill="url(#paint0_radial_402_6121)"/>
<ellipse cx="80" cy="144.5" rx="52" ry="26.5" fill="#01A2BB"/>
<ellipse cx="80" cy="149.5" rx="52" ry="21.5" fill="#004A6E"/>
<path d="M85.0512 260.123C84.864 260.123 84.6781 260.086 84.5014 260.013L81.664 258.842C81.3851 258.726 81.1365 258.525 80.9432 258.259C80.7498 257.994 80.6184 257.672 80.562 257.327L79.9936 253.814C79.9378 253.468 79.9595 253.111 80.0564 252.779C80.1534 252.447 80.3221 252.15 80.5458 251.92L82.8171 249.58C83.0411 249.35 83.3119 249.193 83.6026 249.126C83.8932 249.06 84.1935 249.085 84.4735 249.199L87.3132 250.372C87.5928 250.487 87.8421 250.688 88.0359 250.954C88.2297 251.22 88.3614 251.541 88.4175 251.887L88.9836 255.398C89.0389 255.743 89.0172 256.1 88.9208 256.433C88.8243 256.766 88.6564 257.062 88.4338 257.294L86.1602 259.634C85.8521 259.951 85.4583 260.124 85.0512 260.123ZM82.36 256.794L85.0141 257.898L87.1392 255.712L86.6079 252.431L83.9538 251.327L81.8311 253.516L82.36 256.794Z" fill="#F5F5F5"/>
<path d="M118.19 249.925C118.003 249.925 117.817 249.888 117.64 249.814L116.202 249.221C115.923 249.106 115.674 248.905 115.48 248.639C115.287 248.373 115.156 248.051 115.1 247.706L114.812 245.928C114.757 245.583 114.778 245.227 114.875 244.894C114.971 244.562 115.139 244.266 115.362 244.035L116.522 242.848C116.746 242.618 117.016 242.462 117.307 242.396C117.597 242.33 117.897 242.355 118.176 242.47L119.612 243.063C119.892 243.179 120.141 243.379 120.335 243.645C120.529 243.911 120.66 244.233 120.717 244.579L121.004 246.356C121.06 246.702 121.038 247.059 120.941 247.391C120.845 247.723 120.676 248.019 120.452 248.25L119.292 249.436C118.985 249.75 118.595 249.923 118.19 249.925ZM116.903 247.165L118.155 247.681L119.155 246.649L118.905 245.103L117.654 244.587L116.652 245.636L116.903 247.165Z" fill="#F5F5F5"/>
<path d="M157.918 275.932C157.734 275.931 157.553 275.88 157.388 275.785C157.223 275.689 157.079 275.551 156.964 275.38L156.155 274.177C156.021 273.978 155.933 273.741 155.901 273.489C155.868 273.237 155.892 272.979 155.969 272.742L156.433 271.307C156.511 271.069 156.639 270.86 156.806 270.701C156.973 270.542 157.173 270.437 157.384 270.399L158.665 270.164C158.877 270.126 159.094 270.154 159.293 270.247C159.493 270.339 159.669 270.492 159.804 270.691L160.614 271.894C160.747 272.093 160.835 272.331 160.867 272.583C160.9 272.834 160.876 273.092 160.799 273.33L160.335 274.765C160.258 275.003 160.128 275.212 159.961 275.371C159.794 275.531 159.594 275.635 159.382 275.673L158.101 275.907C158.041 275.921 157.979 275.93 157.918 275.932ZM158.857 271.26H158.813L157.533 271.494C157.481 271.503 157.433 271.528 157.392 271.566C157.352 271.605 157.32 271.655 157.301 271.712L156.837 273.147C156.818 273.204 156.812 273.266 156.82 273.327C156.827 273.388 156.849 273.445 156.881 273.492L157.69 274.696C157.723 274.743 157.766 274.779 157.813 274.802C157.861 274.824 157.913 274.831 157.964 274.823L159.245 274.588C159.296 274.58 159.345 274.555 159.386 274.517C159.427 274.478 159.458 274.428 159.477 274.37L159.941 272.935C159.959 272.878 159.965 272.816 159.957 272.756C159.949 272.695 159.929 272.638 159.897 272.59L159.087 271.387C159.059 271.347 159.024 271.315 158.984 271.293C158.944 271.271 158.901 271.26 158.857 271.26Z" fill="#E0E0E0"/>
<path d="M13.3864 287.927C13.1511 287.927 12.9188 287.864 12.7065 287.743C12.4942 287.622 12.3072 287.447 12.1591 287.229L10.2567 284.403C10.086 284.146 9.97473 283.841 9.93402 283.518C9.89332 283.194 9.9246 282.864 10.0247 282.559L11.136 279.184C11.2362 278.879 11.4018 278.611 11.6164 278.406C11.8309 278.201 12.0869 278.067 12.3587 278.016L15.3747 277.464C15.6469 277.416 15.9251 277.453 16.1816 277.572C16.438 277.691 16.6638 277.888 16.8363 278.143L18.7224 280.964C18.8934 281.221 19.0048 281.526 19.0455 281.85C19.0862 282.174 19.0548 282.505 18.9544 282.81L17.864 286.188C17.764 286.494 17.5981 286.763 17.3831 286.969C17.1682 287.174 16.9116 287.309 16.6391 287.359L13.6231 287.911C13.5447 287.924 13.4656 287.93 13.3864 287.927ZM11.5443 283.235L13.4003 285.995L16.3467 285.46L17.4279 282.148L15.5719 279.388L12.6255 279.926L11.5443 283.235Z" fill="#E0E0E0"/>
<path d="M21.0842 263.19H19.2908C19.0772 263.19 18.8671 263.124 18.6814 262.999C18.4958 262.873 18.3412 262.691 18.2329 262.472L17.3351 260.625C17.2291 260.404 17.1734 260.153 17.1734 259.898C17.1734 259.643 17.2291 259.393 17.3351 259.171L18.2329 257.325C18.3401 257.104 18.4943 256.92 18.6801 256.793C18.8658 256.665 19.0764 256.598 19.2908 256.599H21.0842C21.2986 256.598 21.5093 256.665 21.695 256.793C21.8807 256.92 22.0349 257.104 22.1421 257.325L23.04 259.16C23.1459 259.382 23.2016 259.632 23.2016 259.887C23.2016 260.142 23.1459 260.393 23.04 260.614L22.1421 262.472C22.0337 262.691 21.879 262.872 21.6934 262.998C21.5078 263.124 21.2978 263.19 21.0842 263.19ZM19.2908 257.692C19.2393 257.692 19.1886 257.708 19.1439 257.738C19.0991 257.769 19.0618 257.813 19.0356 257.865L18.1401 259.712C18.114 259.765 18.1003 259.826 18.1003 259.887C18.1003 259.949 18.114 260.009 18.1401 260.062L19.0356 261.92C19.0617 261.973 19.0989 262.017 19.1437 262.048C19.1884 262.079 19.2391 262.096 19.2908 262.097H21.0842C21.1367 262.097 21.1884 262.081 21.234 262.05C21.2796 262.019 21.3176 261.974 21.344 261.92L22.2396 260.073C22.2656 260.02 22.2794 259.96 22.2794 259.898C22.2794 259.837 22.2656 259.776 22.2396 259.723L21.344 257.865C21.3179 257.813 21.2806 257.769 21.2358 257.738C21.1911 257.708 21.1404 257.692 21.0888 257.692H19.2908Z" fill="#EBEBEB"/>
<path d="M51.685 242.31L48.1864 239.691L43.8921 231.069L37.9181 226.719L36.7628 228.206L37.3683 229.178L39.2544 232.186L46.7411 244.143L49.7942 246.141L51.685 242.31Z" fill="#EBEBEB"/>
<path d="M47.2886 248.509L46.2863 244.54L35.2849 229.586L33.8187 230.619L36.141 238.482L42.5279 245.945L43.9594 250.604L47.2886 248.509Z" fill="#EBEBEB"/>
<path d="M53.2486 243.05C53.2486 243.05 65.6722 251.161 68.1755 253.899C70.6788 256.637 76.5275 268.039 75.9336 269.496C75.3397 270.953 74.885 271.152 73.537 269.739C72.1891 268.326 67.8322 260.515 66.6629 259.251C65.4936 257.987 50.9379 247.844 50.9379 247.844L53.2486 243.05Z" fill="#E0E0E0"/>
<path d="M44.8247 246.525C46.9978 246.525 48.7595 244.429 48.7595 241.844C48.7595 239.258 46.9978 237.163 44.8247 237.163C42.6517 237.163 40.89 239.258 40.89 241.844C40.89 244.429 42.6517 246.525 44.8247 246.525Z" fill="#EBEBEB"/>
<path d="M43.848 246.373C44.1649 246.444 44.4862 246.483 44.8085 246.491C45.1859 246.493 45.5613 246.427 45.9221 246.295C46.7907 245.993 47.5436 245.34 48.0516 244.449C48.5596 243.558 48.7911 242.485 48.7061 241.413C48.6667 240.966 48.5696 240.528 48.4184 240.116C48.3467 239.904 48.263 239.698 48.1679 239.5C48.0661 239.3 47.9521 239.109 47.8268 238.929C47.3091 238.165 46.5991 237.619 45.8011 237.37C45.0031 237.122 44.1592 237.185 43.3933 237.549C43.2118 237.636 43.0351 237.736 42.8644 237.85C42.7025 237.969 42.5475 238.101 42.4004 238.244C42.1067 238.52 41.8508 238.847 41.6417 239.216C41.2473 239.896 41.0127 240.689 40.962 241.512C40.9243 242.167 41.003 242.823 41.1929 243.439C41.3828 244.055 41.6796 244.616 42.064 245.087C42.3251 245.414 42.6262 245.693 42.9572 245.915C43.2427 246.093 43.5398 246.245 43.8457 246.367C43.8249 246.37 43.8039 246.37 43.7831 246.367L43.6021 246.306C43.5036 246.277 43.4073 246.237 43.3144 246.188C43.1842 246.129 43.0578 246.059 42.9363 245.978C42.5935 245.767 42.2804 245.495 42.0083 245.169C41.6088 244.695 41.2987 244.125 41.0987 243.498C40.8987 242.87 40.8133 242.199 40.8483 241.529C40.8986 240.682 41.139 239.866 41.5443 239.166C41.7595 238.786 42.0224 238.447 42.3238 238.162C42.6327 237.856 42.9814 237.613 43.3562 237.441C44.1446 237.065 45.0136 236.999 45.8357 237.254C46.6578 237.508 47.3898 238.069 47.9243 238.854C48.0514 239.042 48.1677 239.239 48.2723 239.445C48.3707 239.65 48.4567 239.863 48.5298 240.083C48.6773 240.505 48.7681 240.952 48.7989 241.407C48.8627 242.197 48.7572 242.993 48.4922 243.721C48.2273 244.449 47.8116 245.085 47.284 245.57C46.8827 245.942 46.424 246.218 45.9337 246.381C45.5663 246.509 45.1843 246.568 44.8016 246.555C44.6618 246.556 44.5222 246.544 44.384 246.519C44.2816 246.51 44.1799 246.492 44.08 246.464L43.8968 246.411C43.8791 246.401 43.8627 246.388 43.848 246.373Z" fill="#E0E0E0"/>
<path d="M44.268 244.402C43.8422 244.271 43.4588 243.993 43.166 243.602C42.8733 243.212 42.6845 242.727 42.6235 242.209C42.5625 241.691 42.6321 241.163 42.8234 240.692C43.0147 240.221 43.3192 239.828 43.6983 239.563C44.0774 239.298 44.5141 239.172 44.9531 239.203C45.3921 239.233 45.8137 239.417 46.1645 239.733C46.5154 240.048 46.7797 240.48 46.924 240.974C47.0684 241.469 47.0862 242.003 46.9754 242.509C46.827 243.187 46.4585 243.767 45.9509 244.122C45.4433 244.477 44.838 244.578 44.268 244.402Z" fill="#E0E0E0"/>
<path d="M44.2679 244.402C44.2679 244.383 44.4605 244.457 44.8085 244.457C45.225 244.453 45.6319 244.308 45.9824 244.041C46.3329 243.773 46.6128 243.393 46.7898 242.945C46.952 242.526 47.0177 242.063 46.98 241.603C46.9378 241.097 46.7707 240.617 46.4998 240.223C46.2104 239.798 45.8141 239.494 45.369 239.357C44.9239 239.219 44.4534 239.255 44.0267 239.459C43.8241 239.549 43.6352 239.677 43.4675 239.84C43.3026 239.996 43.1594 240.183 43.043 240.392C42.8226 240.771 42.6905 241.213 42.6602 241.672C42.6347 242.074 42.6887 242.476 42.8179 242.848C43.005 243.394 43.3409 243.849 43.7715 244.14C43.9323 244.243 44.0981 244.335 44.2679 244.416C44.0858 244.378 43.9102 244.304 43.7483 244.198C43.2958 243.916 42.9392 243.457 42.7391 242.898C42.5989 242.512 42.5377 242.092 42.5604 241.672C42.5868 241.189 42.7214 240.723 42.9502 240.323C43.069 240.103 43.2153 239.905 43.384 239.738C43.5607 239.564 43.7596 239.425 43.9733 239.326C44.4234 239.11 44.9202 239.071 45.3903 239.216C45.8603 239.361 46.2786 239.683 46.5833 240.132C46.8719 240.547 47.0504 241.054 47.096 241.59C47.1323 242.072 47.0594 242.557 46.8849 242.995C46.7328 243.373 46.5079 243.704 46.2283 243.961C45.8241 244.333 45.3242 244.528 44.8131 244.513C44.6275 244.512 44.4432 244.475 44.2679 244.402Z" fill="#E0E0E0"/>
<path d="M50.8255 242.153L49.2178 245.482C48.7468 246.457 49.0295 247.702 49.8494 248.263L50.0003 248.366C50.8202 248.926 51.8668 248.59 52.3378 247.615L53.9455 244.286C54.4166 243.31 54.1339 242.065 53.314 241.505L53.1631 241.402C52.3432 240.841 51.2966 241.178 50.8255 242.153Z" fill="#EBEBEB"/>
<path d="M49.2165 245.484C49.1204 245.73 49.0555 245.991 49.0239 246.26C49 246.575 49.0356 246.893 49.1283 247.19C49.1859 247.372 49.264 247.545 49.3603 247.703C49.4736 247.876 49.61 248.027 49.764 248.147C49.933 248.283 50.1153 248.393 50.3069 248.476C50.6417 248.611 51.0041 248.615 51.341 248.487C51.6778 248.36 51.9715 248.107 52.1791 247.767C52.7127 246.71 53.2765 245.498 53.8843 244.253C54.0233 243.958 54.0963 243.625 54.0963 243.287C54.0963 242.949 54.0233 242.616 53.8843 242.321C53.7613 242.038 53.5811 241.795 53.36 241.615C53.1455 241.435 52.9035 241.308 52.6478 241.239C52.4108 241.182 52.1662 241.187 51.931 241.254C51.6958 241.32 51.4757 241.447 51.2859 241.626C50.9217 241.954 50.7616 242.454 50.5482 242.857L49.5923 244.789L49.3279 245.31C49.2998 245.373 49.2663 245.432 49.2281 245.487C49.2512 245.421 49.2775 245.356 49.307 245.294C49.3696 245.161 49.4508 244.982 49.5529 244.761C49.7849 244.286 50.0888 243.624 50.4809 242.81L50.7871 242.164C50.9001 241.923 51.0504 241.709 51.2303 241.535C51.4291 241.344 51.6603 241.208 51.9079 241.134C52.1554 241.061 52.4134 241.053 52.664 241.109C52.9318 241.179 53.1856 241.31 53.4111 241.496C53.6579 241.68 53.8615 241.935 54.0027 242.238C54.1544 242.555 54.2342 242.914 54.2342 243.279C54.2342 243.644 54.1544 244.002 54.0027 244.319C53.3925 245.57 52.8427 246.762 52.2835 247.841C52.1296 248.086 51.933 248.289 51.7072 248.435C51.4814 248.581 51.2316 248.668 50.9751 248.688C50.7431 248.704 50.5107 248.667 50.2907 248.578C50.0929 248.488 49.9052 248.369 49.7315 248.225C49.5707 248.096 49.4288 247.937 49.3116 247.753C49.2136 247.582 49.1356 247.396 49.0796 247.201C49.0019 246.951 48.9672 246.684 48.9776 246.418C48.9879 246.152 49.0431 245.89 49.1399 245.65C49.1615 245.592 49.1871 245.537 49.2165 245.484Z" fill="#E0E0E0"/>
<path d="M44.4211 252.961C44.4211 252.961 49.1284 268.864 50.9936 272.248C52.8589 275.632 61.3617 284.348 62.6656 283.89C63.9694 283.431 64.1991 282.926 63.2572 281.13C62.3152 279.333 56.5292 272.935 55.6754 271.354C54.8216 269.772 48.7595 251.04 48.7595 251.04L44.4211 252.961Z" fill="#E0E0E0"/>
<path d="M47.0948 248.628L44.0725 249.974C43.1869 250.368 42.7376 251.542 43.0691 252.595L43.1301 252.789C43.4616 253.843 44.4482 254.377 45.3338 253.983L48.3562 252.637C49.2418 252.243 49.691 251.069 49.3595 250.015L49.2985 249.821C48.967 248.768 47.9804 248.233 47.0948 248.628Z" fill="#EBEBEB"/>
<path d="M47.096 248.625C47.1492 248.592 47.2052 248.566 47.2631 248.548C47.4297 248.491 47.6026 248.465 47.7758 248.47C48.0505 248.481 48.3192 248.569 48.56 248.727C48.7094 248.829 48.8467 248.954 48.9683 249.1C49.1008 249.268 49.2104 249.46 49.2931 249.668C49.3847 249.896 49.4518 250.136 49.4926 250.383C49.5333 250.658 49.527 250.939 49.474 251.211C49.414 251.51 49.2999 251.79 49.1396 252.031C48.9794 252.272 48.7768 252.469 48.546 252.608C47.5624 253.08 46.4836 253.541 45.3468 254.054C45.059 254.18 44.7488 254.216 44.4461 254.158C44.1433 254.1 43.8582 253.95 43.6184 253.723C43.3898 253.503 43.2112 253.218 43.0987 252.895C42.9799 252.597 42.9121 252.274 42.8992 251.945C42.8906 251.639 42.9385 251.335 43.0395 251.054C43.1405 250.772 43.2922 250.521 43.4838 250.317C43.6578 250.134 43.8594 249.993 44.0777 249.9L44.6624 249.643L46.4302 248.882L46.9128 248.68C46.9683 248.654 47.0258 248.633 47.0844 248.619C47.0334 248.656 46.9789 248.686 46.922 248.708L46.458 248.934L44.7041 249.74C44.3399 249.925 43.8944 250.033 43.5627 250.405C43.3841 250.599 43.2431 250.837 43.1494 251.103C43.0556 251.368 43.0114 251.655 43.0198 251.942C43.0366 252.254 43.1035 252.558 43.217 252.839C43.3231 253.138 43.4907 253.4 43.7042 253.601C43.928 253.813 44.1941 253.953 44.4766 254.006C44.7591 254.06 45.0484 254.026 45.3166 253.908C46.4464 253.397 47.5438 252.931 48.5089 252.478C48.8237 252.288 49.0798 251.984 49.2403 251.61C49.4008 251.236 49.4575 250.812 49.4021 250.397C49.3638 250.158 49.3006 249.925 49.2142 249.704C49.1392 249.502 49.0373 249.316 48.9126 249.152C48.799 249.01 48.6694 248.888 48.5275 248.788C48.2974 248.628 48.0393 248.533 47.7735 248.512C47.5441 248.508 47.3157 248.546 47.096 248.625Z" fill="#E0E0E0"/>
<path d="M165.824 340.158C165.824 340.196 130.458 340.229 86.8423 340.229C43.2263 340.229 7.85321 340.196 7.85321 340.158C7.85321 340.119 43.2123 340.086 86.8423 340.086C130.472 340.086 165.824 340.119 165.824 340.158Z" fill="#263238"/>
<path d="M20.184 308.583C20.2467 308.352 27.4758 280.238 27.4758 280.238L27.2948 276.747L29.1856 273.043L31.5335 273.968L31.2133 278.108L29.5429 281.127L22.272 309.392L20.184 308.583Z" fill="#E0E0E0"/>
<path d="M20.184 308.584L20.3232 308.63L20.7246 308.779L22.272 309.356L22.2465 309.373C23.4227 304.789 26.1418 294.179 29.4919 281.116L31.1599 278.099V278.13C31.262 276.808 31.3711 275.403 31.4801 273.99L31.5219 274.064L31.327 273.99L29.174 273.142L29.2436 273.112L27.3528 276.816V276.775C27.4131 277.965 27.4727 279.129 27.5315 280.266V280.291C25.4179 288.458 23.5875 295.531 22.2859 300.566C21.6317 303.086 21.1074 305.092 20.7478 306.475C20.5691 307.165 20.4276 307.698 20.3325 308.062L20.2235 308.473L20.184 308.614C20.1919 308.568 20.202 308.523 20.2142 308.479C20.2374 308.382 20.2699 308.247 20.3139 308.073C20.4067 307.709 20.5459 307.179 20.713 306.494C21.0633 305.114 21.5737 303.105 22.214 300.588C23.5086 295.537 25.3228 288.444 27.4201 280.249V280.274C27.3598 279.137 27.2987 277.973 27.2368 276.783V276.761V276.741L29.1276 273.037L29.1508 272.988L29.1972 273.007L31.3525 273.852L31.5451 273.929L31.5915 273.946V274.003C31.4824 275.425 31.3734 276.83 31.269 278.143V278.163V278.177L29.6009 281.196V281.177C26.216 294.212 23.4738 304.808 22.2859 309.392V309.417H22.2651L20.7153 308.807L20.3232 308.65L20.184 308.584Z" fill="#263238"/>
<path d="M18.4417 309.944L15.1937 315.166L10.6535 334.762C10.6535 334.762 10.0015 338.758 13.7112 339.893C17.8872 341.168 18.8384 337.37 18.8384 337.37L23.2464 318.235L23.2 311.6L24.2881 310.14C24.3373 310.072 24.3718 309.991 24.3886 309.903C24.4055 309.816 24.4041 309.725 24.3847 309.638C24.3653 309.551 24.3284 309.471 24.2772 309.405C24.226 309.34 24.162 309.289 24.0909 309.26L18.8755 307.212C18.8031 307.185 18.7261 307.179 18.6515 307.196C18.5769 307.213 18.5068 307.251 18.4475 307.307C18.3882 307.364 18.3414 307.437 18.3112 307.52C18.2811 307.602 18.2686 307.693 18.2747 307.783L18.4417 309.944Z" fill="#01A2BB"/>
<path d="M23.2279 311.829C23.2163 311.868 22.1235 311.49 20.7872 310.985C19.4509 310.48 18.3721 310.038 18.3837 309.999C18.3953 309.961 19.4857 310.342 20.8243 310.847C22.163 311.352 23.2371 311.791 23.2279 311.829Z" fill="#263238"/>
<path d="M23.2557 318.238C23.1458 318.23 23.0369 318.208 22.9309 318.172C22.7221 318.119 22.4251 318.034 22.0563 317.923C21.3185 317.705 20.307 317.371 19.205 316.952C18.103 316.532 17.117 316.107 16.4047 315.779C16.0521 315.613 15.7667 315.475 15.5719 315.376C15.4684 315.332 15.3689 315.275 15.2749 315.208C15.383 315.234 15.4887 315.273 15.5904 315.323L16.4349 315.682C17.1495 315.986 18.1378 316.397 19.2398 316.814C20.3418 317.231 21.3487 317.581 22.0771 317.827L22.9425 318.117C23.0498 318.146 23.1546 318.186 23.2557 318.238Z" fill="#263238"/>
<g opacity="0.3">
<path d="M17.1495 317.244L17.0359 317.204C16.63 317.063 16.205 317.341 16.0866 317.824L12.0662 334.222C11.9478 334.705 12.1809 335.211 12.5868 335.351L12.7004 335.391C13.1063 335.532 13.5314 335.254 13.6498 334.771L17.6701 318.373C17.7885 317.89 17.5554 317.385 17.1495 317.244Z" fill="black"/>
</g>
<g opacity="0.3">
<path d="M19.477 318.142L19.3635 318.102C18.9575 317.961 18.5325 318.239 18.4141 318.722L14.3937 335.12C14.2753 335.603 14.5084 336.108 14.9143 336.249L15.0279 336.289C15.4338 336.43 15.8589 336.152 15.9773 335.669L19.9977 319.271C20.116 318.788 19.883 318.282 19.477 318.142Z" fill="black"/>
</g>
<g opacity="0.3">
<path d="M21.5766 318.967L21.4631 318.927C21.0577 318.785 20.6317 319.06 20.5117 319.542L16.4361 335.921C16.316 336.404 16.5474 336.91 16.9529 337.053L17.0663 337.093C17.4718 337.236 17.8977 336.961 18.0177 336.478L22.0934 320.099C22.2134 319.617 21.982 319.11 21.5766 318.967Z" fill="black"/>
</g>
<path d="M29.5266 281.13C29.1719 281.059 28.8248 280.941 28.4919 280.779C28.1463 280.664 27.813 280.501 27.499 280.293C27.8526 280.366 28.1988 280.484 28.5314 280.644C28.8777 280.76 29.2116 280.923 29.5266 281.13Z" fill="#263238"/>
<path d="M31.5381 273.968C31.5208 274.099 31.4936 274.228 31.4569 274.354C31.3897 274.63 31.3015 274.978 31.1925 275.408L30.2645 278.996L30.2459 279.065L30.1879 279.043L29.1184 278.599L28.0187 278.141L27.9653 278.119L27.9816 278.055C28.3157 276.637 28.6103 275.392 28.8284 274.467C28.9351 274.04 29.0209 273.686 29.0882 273.421C29.1155 273.293 29.1512 273.168 29.1949 273.046C29.1822 273.178 29.1597 273.308 29.1277 273.435L28.8957 274.492C28.6892 275.411 28.4108 276.659 28.0906 278.08L28.0535 277.995L29.1555 278.453L30.2227 278.897L30.1461 278.944L31.1205 275.381C31.2412 274.953 31.3525 274.605 31.4175 274.34C31.4488 274.212 31.4892 274.088 31.5381 273.968Z" fill="#263238"/>
<path d="M99.9688 245.89C99.7815 245.89 99.5956 245.853 99.4189 245.78L96.5769 244.609C96.298 244.493 96.0494 244.292 95.8561 244.027C95.6627 243.761 95.5313 243.439 95.4749 243.094L94.9065 239.581C94.8507 239.235 94.8724 238.878 94.9693 238.546C95.0663 238.214 95.235 237.918 95.4587 237.687L97.7323 235.347C97.9561 235.117 98.2266 234.961 98.5169 234.895C98.8072 234.829 99.107 234.854 99.3864 234.969L102.226 236.139C102.505 236.255 102.754 236.455 102.948 236.721C103.142 236.987 103.274 237.309 103.33 237.654L103.899 241.168C103.953 241.513 103.931 241.87 103.834 242.202C103.737 242.534 103.569 242.83 103.347 243.061L101.073 245.402C100.766 245.717 100.374 245.89 99.9688 245.89ZM97.2776 242.562L99.934 243.666L102.057 241.48L101.525 238.184L98.8714 237.08L96.744 239.288L97.2776 242.562Z" fill="#E0E0E0"/>
<path d="M97.2776 242.561C97.2582 242.49 97.2427 242.417 97.2312 242.343L97.1152 241.694C97.0154 241.112 96.8832 240.292 96.7046 239.291C96.7028 239.281 96.7032 239.271 96.7056 239.262C96.7081 239.253 96.7125 239.245 96.7185 239.238L98.8343 237.03C98.8429 237.025 98.8525 237.022 98.8622 237.022C98.8719 237.022 98.8814 237.025 98.89 237.03L101.544 238.134L101.586 238.189V238.236V238.291L101.604 238.399L101.639 238.614C101.662 238.755 101.683 238.89 101.706 239.039C101.753 239.315 101.797 239.591 101.841 239.867C101.929 240.419 102.015 240.949 102.096 241.46C102.098 241.471 102.098 241.483 102.094 241.495C102.091 241.506 102.085 241.516 102.078 241.523L99.9618 243.704C99.9551 243.708 99.9475 243.711 99.9398 243.711C99.9321 243.711 99.9245 243.708 99.9178 243.704L97.9759 242.876L97.4539 242.644C97.3935 242.621 97.3346 242.592 97.2776 242.558C97.3438 242.575 97.409 242.597 97.4725 242.625L98.0084 242.829L99.9479 243.602H99.9038L102.02 241.394L102.001 241.46C101.918 240.947 101.829 240.417 101.741 239.867C101.697 239.591 101.651 239.315 101.604 239.039C101.581 238.899 101.56 238.763 101.537 238.614L101.502 238.399L101.484 238.291V238.236V238.209V238.189C101.484 238.189 101.558 238.291 101.521 238.242L98.8691 237.138H98.9248L96.7927 239.315L96.809 239.263C96.9598 240.262 97.085 241.076 97.1732 241.659C97.2126 241.935 97.2451 242.153 97.2683 242.318C97.2777 242.399 97.2808 242.48 97.2776 242.561Z" fill="#263238"/>
<path d="M99.9688 245.89C99.9688 245.89 100.069 245.89 100.256 245.846C100.527 245.784 100.781 245.645 100.997 245.44L103.305 243.036C103.558 242.777 103.738 242.432 103.822 242.048C103.868 241.846 103.886 241.636 103.878 241.427C103.857 241.209 103.826 240.992 103.785 240.778C103.639 239.887 103.484 238.937 103.321 237.938C103.292 237.688 103.235 237.444 103.152 237.212C103.062 236.979 102.933 236.768 102.774 236.595C102.614 236.421 102.427 236.286 102.224 236.199L101.57 235.923L100.226 235.371L99.5303 235.095C99.3098 234.985 99.0735 234.926 98.8343 234.922C98.5939 234.921 98.3564 234.983 98.1383 235.104C97.9264 235.23 97.7323 235.395 97.5629 235.592L96.4888 236.696L95.4517 237.764C95.136 238.109 94.9461 238.586 94.9228 239.095C94.9194 239.341 94.9428 239.587 94.9924 239.826C95.0318 240.072 95.0689 240.312 95.1084 240.549C95.1826 241.024 95.2568 241.482 95.3264 241.929C95.396 242.376 95.4633 242.807 95.5352 243.21C95.6217 243.592 95.8028 243.934 96.0549 244.192C96.1721 244.311 96.3025 244.411 96.4424 244.488C96.5792 244.559 96.7254 244.612 96.86 244.673L97.6372 244.998L98.8807 245.523C99.1379 245.646 99.4013 245.75 99.6695 245.835C99.8551 245.876 99.9572 245.873 99.9572 245.879C99.8601 245.893 99.7619 245.893 99.6648 245.879C99.3935 245.804 99.1268 245.708 98.8668 245.589L97.6279 245.084L96.8484 244.769C96.7092 244.711 96.5676 244.662 96.4215 244.587C96.2735 244.508 96.1354 244.405 96.0108 244.281C95.7432 244.012 95.55 243.653 95.4564 243.251C95.3775 242.832 95.3148 242.407 95.2406 241.962C95.1664 241.518 95.0921 241.057 95.0086 240.582C94.9684 240.349 94.929 240.109 94.8903 239.862C94.838 239.613 94.813 239.357 94.816 239.1C94.8401 238.555 95.0424 238.043 95.3798 237.673L96.4145 236.602L97.4887 235.498C97.5815 235.405 97.6673 235.311 97.7671 235.222C97.8686 235.133 97.9774 235.055 98.0919 234.991C98.323 234.863 98.5748 234.797 98.8296 234.797C99.0823 234.802 99.3319 234.864 99.5651 234.98L100.261 235.256L101.604 235.808L102.259 236.084C102.479 236.177 102.682 236.323 102.855 236.511C103.024 236.696 103.161 236.92 103.256 237.168C103.344 237.41 103.403 237.666 103.433 237.927C103.587 238.93 103.738 239.878 103.885 240.77C103.927 240.989 103.957 241.211 103.975 241.435C103.989 241.753 103.94 242.07 103.834 242.362C103.728 242.654 103.567 242.913 103.363 243.119L101.029 245.49C100.804 245.694 100.54 245.828 100.261 245.882C100.164 245.899 100.066 245.901 99.9688 245.89Z" fill="#263238"/>
<path d="M80.1954 240.144C80.0114 240.143 79.8299 240.093 79.6644 239.998C79.4989 239.902 79.3537 239.763 79.2396 239.592L78.4299 238.391C78.2962 238.192 78.2087 237.954 78.1762 237.702C78.1436 237.449 78.1671 237.191 78.2443 236.953L78.7083 235.518C78.7864 235.28 78.9156 235.072 79.0829 234.912C79.2503 234.753 79.4499 234.649 79.6618 234.61L80.9401 234.375C81.1522 234.337 81.3689 234.366 81.5688 234.458C81.7686 234.551 81.9446 234.704 82.0792 234.902L82.8889 236.106C83.0226 236.305 83.1101 236.542 83.1427 236.794C83.1753 237.046 83.1517 237.303 83.0745 237.541L82.6105 238.979C82.5336 239.217 82.4058 239.426 82.2398 239.587C82.0737 239.748 81.8752 239.854 81.664 239.895L80.3833 240.127C80.3211 240.138 80.2583 240.144 80.1954 240.144ZM81.1234 235.471H81.0793L79.808 235.7C79.7567 235.709 79.7082 235.734 79.6675 235.772C79.6268 235.811 79.5953 235.861 79.576 235.918L79.112 237.356C79.0936 237.413 79.088 237.475 79.0957 237.536C79.1034 237.596 79.1242 237.653 79.156 237.701L79.9657 238.902C79.9982 238.949 80.0405 238.986 80.0885 239.008C80.1365 239.031 80.1885 239.038 80.2395 239.029L81.5201 238.794C81.5715 238.785 81.62 238.76 81.6608 238.722C81.7015 238.684 81.733 238.633 81.7521 238.576L82.2161 237.141C82.235 237.084 82.2408 237.022 82.2331 236.961C82.2254 236.901 82.2043 236.844 82.172 236.796L81.3624 235.595C81.3341 235.556 81.2989 235.524 81.2592 235.503C81.2195 235.481 81.1763 235.47 81.1327 235.471H81.1234Z" fill="#E0E0E0"/>
<path d="M81.1327 235.471C81.1652 235.459 81.2 235.459 81.2324 235.471C81.2727 235.484 81.3099 235.508 81.3415 235.54C81.3808 235.586 81.418 235.635 81.4528 235.686L82.1117 236.627L82.2184 236.785C82.2587 236.85 82.2813 236.928 82.2834 237.008C82.282 237.088 82.2661 237.166 82.237 237.237C82.2161 237.306 82.1929 237.375 82.172 237.447C82.0792 237.723 81.9818 238.035 81.8797 238.355C81.8542 238.435 81.8287 238.515 81.8008 238.598C81.7704 238.698 81.7089 238.78 81.6292 238.827C81.5545 238.86 81.4765 238.882 81.3972 238.891L81.1652 238.935C80.852 238.99 80.5457 239.053 80.1977 239.106C80.1478 239.106 80.0984 239.094 80.0528 239.069C80.0072 239.045 79.9664 239.01 79.9332 238.965L79.7801 238.736L79.4808 238.294L79.1955 237.864L79.1236 237.759C79.0961 237.72 79.0741 237.676 79.0586 237.629C79.0272 237.532 79.0272 237.423 79.0586 237.326L79.3602 236.423L79.4971 236.015C79.517 235.945 79.5435 235.878 79.576 235.816C79.6131 235.754 79.6647 235.706 79.7244 235.678C80.1699 235.581 80.5086 235.543 80.7522 235.504C80.8767 235.475 81.0035 235.462 81.1304 235.465C81.0997 235.479 81.0677 235.488 81.0352 235.493L80.7615 235.559C80.5295 235.615 80.1629 235.675 79.7569 235.772C79.7134 235.795 79.6757 235.831 79.6479 235.877C79.6219 235.934 79.6002 235.994 79.5829 236.056L79.453 236.467L79.1607 237.375C79.1397 237.442 79.1397 237.516 79.1607 237.582C79.1929 237.653 79.2327 237.719 79.279 237.778L79.576 238.212L79.8752 238.653L80.026 238.877C80.048 238.906 80.0749 238.929 80.1048 238.945C80.1348 238.96 80.1673 238.968 80.2 238.968L81.1489 238.8L81.3809 238.758C81.4513 238.753 81.5208 238.736 81.5874 238.708C81.6424 238.677 81.6848 238.622 81.7057 238.554C81.7312 238.471 81.7591 238.391 81.7846 238.311C81.8913 237.996 81.9911 237.693 82.0862 237.409C82.1125 237.34 82.1357 237.271 82.1558 237.202C82.181 237.144 82.196 237.081 82.1999 237.017C82.1976 236.958 82.1824 236.901 82.1558 236.851L82.0537 236.696L81.425 235.728C81.3973 235.66 81.3562 235.601 81.3053 235.557C81.2544 235.512 81.1952 235.483 81.1327 235.471Z" fill="#263238"/>
<path d="M80.1954 240.144C80.2458 240.13 80.297 240.121 80.3485 240.116L80.7917 240.025L81.4877 239.884C81.6322 239.865 81.7741 239.825 81.9099 239.763C82.0586 239.69 82.1929 239.581 82.3043 239.443C82.4321 239.291 82.5303 239.109 82.592 238.907C82.6593 238.697 82.7312 238.477 82.8031 238.247C82.9307 237.787 83.1905 237.315 83.0954 236.787C83.0543 236.52 82.9515 236.272 82.7985 236.07L82.3345 235.385L82.1025 235.032C82.0286 234.913 81.9411 234.807 81.8426 234.717C81.6418 234.538 81.3976 234.441 81.1466 234.441C81.0173 234.447 80.8885 234.465 80.7615 234.494L80.3741 234.563L79.6201 234.704C79.3887 234.763 79.1782 234.906 79.0169 235.112C78.9391 235.211 78.8734 235.323 78.822 235.443C78.7733 235.562 78.7338 235.7 78.6921 235.824L78.4438 236.572C78.3573 236.798 78.289 237.032 78.2397 237.273C78.2122 237.491 78.2266 237.713 78.2816 237.922C78.3367 238.132 78.431 238.325 78.5575 238.485L79.1398 239.368C79.228 239.495 79.2999 239.622 79.3834 239.719C79.459 239.807 79.544 239.883 79.6363 239.945C79.8139 240.057 80.0089 240.125 80.2093 240.144C80.2093 240.144 80.1954 240.144 80.1676 240.144C80.1397 240.144 80.1026 240.144 80.0516 240.144C79.8993 240.127 79.7511 240.076 79.6154 239.992C79.5175 239.93 79.4263 239.854 79.344 239.765C79.253 239.654 79.1671 239.537 79.0865 239.415L78.4902 238.546C78.3538 238.376 78.2515 238.171 78.1912 237.947C78.131 237.724 78.1142 237.486 78.1422 237.254C78.1888 237.003 78.2564 236.758 78.3441 236.522L78.5877 235.775C78.6317 235.645 78.6665 235.518 78.7199 235.383C78.7753 235.249 78.8464 235.125 78.931 235.016C79.1043 234.794 79.3286 234.637 79.576 234.566C79.8312 234.513 80.0794 234.472 80.3369 234.422L80.7244 234.353C80.8574 234.321 80.9924 234.303 81.1281 234.298C81.4045 234.295 81.6742 234.4 81.896 234.596C82.0026 234.693 82.0971 234.807 82.1767 234.935L82.4087 235.289C82.5665 235.521 82.7196 235.752 82.8727 235.976C83.0382 236.196 83.1484 236.466 83.1905 236.757C83.2316 237.036 83.2059 237.323 83.1163 237.585C83.0374 237.825 82.9585 238.06 82.8843 238.289C82.8101 238.518 82.7358 238.733 82.6662 238.946C82.6012 239.153 82.4991 239.342 82.3669 239.498C82.1316 239.767 81.8229 239.927 81.4969 239.948L80.8009 240.064C80.6084 240.094 80.4576 240.119 80.3555 240.127C80.3029 240.14 80.2491 240.146 80.1954 240.144Z" fill="#263238"/>
<path d="M102.797 236.542C102.633 236.876 102.432 237.182 102.198 237.45C101.993 237.752 101.746 238.011 101.467 238.215C101.663 237.909 101.878 237.622 102.11 237.356C102.312 237.055 102.543 236.782 102.797 236.542Z" fill="#263238"/>
<path d="M98.4468 234.955C98.5984 235.279 98.7027 235.632 98.7554 235.998C98.8495 236.355 98.8911 236.728 98.8784 237.102C98.7744 236.756 98.6968 236.399 98.6464 236.037C98.5521 235.684 98.4853 235.322 98.4468 234.955Z" fill="#263238"/>
<path d="M96.7161 239.225C96.4125 239.154 96.1145 239.052 95.8253 238.921C95.5241 238.833 95.2293 238.717 94.9437 238.573C95.5675 238.633 96.1726 238.856 96.7161 239.225Z" fill="#263238"/>
<path d="M96.222 244.013C96.3435 243.725 96.4998 243.459 96.686 243.224C96.8457 242.961 97.0363 242.727 97.2521 242.528C97.1321 242.818 96.9756 243.084 96.7881 243.318C96.6284 243.581 96.4377 243.815 96.222 244.013Z" fill="#263238"/>
<path d="M100.129 245.523C100.035 245.239 99.9806 244.939 99.9665 244.634C99.9106 244.335 99.8957 244.028 99.9224 243.723C100.015 244.009 100.07 244.309 100.085 244.615C100.139 244.913 100.154 245.219 100.129 245.523Z" fill="#263238"/>
<path d="M103.43 241.987C103.193 241.954 102.961 241.874 102.746 241.75C102.515 241.671 102.298 241.546 102.103 241.38C102.571 241.493 103.019 241.698 103.43 241.987Z" fill="#263238"/>
<path d="M149.487 263.151C151.058 260.899 152.628 258.625 153.853 256.085C155.078 253.546 155.941 250.709 156.004 247.783C156.004 247.339 155.853 244.262 155.493 244.137C155.238 244.049 155.062 246.768 154.853 246.964C152.849 248.829 151.547 251.598 150.798 254.49C150.092 257.31 149.653 260.215 149.487 263.151Z" fill="#263238"/>
<path d="M129.027 280.268C129.653 278.336 132.739 268.676 132.723 268.676C132.706 268.676 127.407 265.386 129.243 258.685C130.124 255.448 132.395 248.959 134.507 243.113C135.602 240.085 137.616 237.658 140.148 236.315C142.68 234.973 145.543 234.813 148.169 235.868L148.71 236.086C154.431 238.846 155.67 246.152 153.194 252.878L141.826 284.204L131.864 280.542L129.027 280.268Z" fill="#FFBF9D"/>
<path d="M132.725 268.682C132.725 268.682 136.189 270.338 140.754 269.046C140.754 269.046 137.595 273.294 132.17 270.446L132.725 268.682Z" fill="#FF9A6C"/>
<path d="M134.497 249.563C134.425 249.811 134.437 250.082 134.53 250.32C134.623 250.558 134.79 250.743 134.996 250.836C135.095 250.886 135.202 250.913 135.31 250.913C135.418 250.914 135.524 250.889 135.624 250.84C135.724 250.791 135.814 250.719 135.89 250.627C135.966 250.536 136.025 250.428 136.066 250.309C136.139 250.061 136.127 249.789 136.034 249.552C135.941 249.314 135.773 249.129 135.567 249.036C135.468 248.986 135.361 248.959 135.253 248.958C135.145 248.957 135.038 248.982 134.938 249.031C134.839 249.08 134.748 249.153 134.673 249.244C134.597 249.336 134.537 249.444 134.497 249.563Z" fill="#263238"/>
<path d="M134.91 246.37C134.975 246.536 135.734 246.243 136.595 246.594C137.455 246.944 137.943 247.698 138.07 247.62C138.133 247.584 138.096 247.319 137.887 246.969C137.602 246.512 137.205 246.171 136.75 245.995C136.3 245.81 135.812 245.802 135.358 245.973C135.024 246.108 134.878 246.296 134.91 246.37Z" fill="#263238"/>
<path d="M142.058 253.182C141.985 253.429 141.997 253.7 142.09 253.937C142.183 254.175 142.351 254.359 142.557 254.451C142.656 254.502 142.763 254.529 142.871 254.53C142.979 254.53 143.086 254.506 143.185 254.456C143.285 254.407 143.375 254.335 143.451 254.243C143.527 254.152 143.587 254.043 143.627 253.924C143.699 253.676 143.687 253.405 143.594 253.168C143.501 252.93 143.334 252.745 143.128 252.652C143.028 252.601 142.922 252.575 142.814 252.575C142.706 252.574 142.599 252.599 142.499 252.649C142.4 252.698 142.309 252.771 142.233 252.862C142.158 252.954 142.098 253.062 142.058 253.182Z" fill="#263238"/>
<path d="M143.237 250.176C143.299 250.342 144.06 250.052 144.921 250.4C145.782 250.747 146.267 251.504 146.397 251.429C146.457 251.391 146.422 251.126 146.213 250.778C145.928 250.32 145.53 249.979 145.074 249.801C144.624 249.615 144.136 249.608 143.682 249.779C143.357 249.914 143.204 250.102 143.237 250.176Z" fill="#263238"/>
<path d="M137.908 256.814C137.929 256.759 137.423 256.433 136.592 255.953C136.381 255.837 136.186 255.702 136.2 255.506C136.214 255.31 136.374 255.051 136.567 254.791L137.785 253.058C139.495 250.574 140.812 248.512 140.727 248.429C140.641 248.347 139.188 250.29 137.479 252.765C137.063 253.378 136.664 253.96 136.286 254.521C136.119 254.797 135.88 255.073 135.88 255.503C135.886 255.608 135.912 255.71 135.956 255.801C136 255.892 136.06 255.971 136.133 256.03C136.244 256.118 136.364 256.19 136.49 256.243C137.344 256.649 137.887 256.872 137.908 256.814Z" fill="#263238"/>
<path d="M140.244 258.542C140.105 258.478 139.78 259.59 138.764 260.057C137.748 260.523 136.776 260.004 136.725 260.156C136.692 260.22 136.887 260.46 137.302 260.645C137.848 260.873 138.444 260.866 138.987 260.625C139.506 260.392 139.929 259.928 140.167 259.331C140.334 258.884 140.309 258.561 140.244 258.542Z" fill="#263238"/>
<path d="M144.464 246.036C144.464 246.348 145.369 246.563 146.339 247.112C147.308 247.662 148.035 248.321 148.239 248.125C148.331 248.029 148.264 247.709 148.007 247.297C147.661 246.789 147.223 246.381 146.724 246.105C146.226 245.829 145.682 245.692 145.132 245.705C144.715 245.744 144.466 245.89 144.464 246.036Z" fill="#263238"/>
<path d="M136.235 243.105C136.321 243.4 136.982 243.381 137.699 243.657C138.416 243.933 138.975 244.344 139.181 244.157C139.277 244.063 139.249 243.792 139.047 243.464C138.767 243.057 138.391 242.759 137.968 242.606C137.546 242.453 137.094 242.453 136.671 242.605C136.351 242.757 136.2 242.964 136.235 243.105Z" fill="#263238"/>
<path d="M151.324 257.642C151.436 257.642 155.563 257.833 154.148 262.334C152.733 266.836 149.213 264.225 149.248 264.092C149.283 263.96 151.324 257.642 151.324 257.642Z" fill="#FFBF9D"/>
<path d="M150.944 262.908C150.965 262.908 150.993 262.994 151.085 263.104C151.217 263.255 151.392 263.338 151.575 263.336C152.039 263.336 152.605 262.732 152.879 261.926C153.011 261.543 153.068 261.13 153.048 260.717C153.058 260.559 153.035 260.401 152.981 260.257C152.927 260.112 152.844 259.986 152.739 259.889C152.671 259.829 152.586 259.8 152.501 259.807C152.416 259.815 152.336 259.859 152.275 259.93C152.185 260.035 152.18 260.135 152.159 260.135C152.139 260.135 152.101 260.021 152.19 259.859C152.245 259.758 152.326 259.681 152.422 259.64C152.555 259.593 152.699 259.61 152.823 259.687C152.966 259.795 153.083 259.943 153.165 260.12C153.246 260.296 153.288 260.494 153.287 260.695C153.325 261.158 153.267 261.625 153.12 262.055C152.809 262.952 152.153 263.631 151.545 263.576C151.432 263.566 151.322 263.525 151.224 263.458C151.125 263.39 151.041 263.298 150.976 263.187C150.916 263.024 150.928 262.911 150.944 262.908Z" fill="#FF9A6C"/>
<path d="M139.348 236.785C138.866 236.106 141.462 234.577 143.227 234.461C145.895 234.273 149.61 235.101 151.475 236.765C153.725 238.766 155.338 241.217 155.723 244.526C156.108 247.836 155.558 251.236 154.479 254.322C154.15 255.263 153.746 256.215 153.06 256.825C152.213 257.578 150.997 257.741 150.598 259.135C150.532 259.39 150.424 259.626 150.281 259.831C150.138 260.035 149.961 260.204 149.763 260.327C148.789 260.879 148.209 259.679 148.086 258.671C147.823 256.53 148.408 254.385 148.986 252.323C149.396 250.866 149.821 249.379 150.61 248.156C151.037 247.491 151.561 246.919 151.958 246.224C152.354 245.528 152.612 244.659 152.422 243.856C152.373 243.679 152.31 243.508 152.234 243.345C151.883 242.558 151.363 241.895 150.726 241.426C150.089 240.956 149.359 240.697 148.61 240.673C146.19 240.599 142.114 240.276 141.453 238.984C140.485 237.124 140.418 236.169 140.418 236.169L139.348 236.785Z" fill="#263238"/>
<path d="M151.96 234.011C152.204 234.157 157.904 238.347 157.867 244.458C157.83 250.568 156.89 252.064 156.89 252.064C157.081 252.344 157.237 252.656 157.354 252.989C157.507 253.452 156.632 255.026 155.883 254.501C150.765 248.851 143.712 245.606 135.667 242.633L129.597 240.047C127.82 239.586 127.377 238.8 128.245 238.587C128.911 238.421 134.423 238.09 134.423 238.09L135.613 237.654L139.325 234.533C139.325 234.533 139.181 233.826 139.935 233.597C140.689 233.368 147.167 231.113 151.96 234.011Z" fill="#01A2BB"/>
<path d="M135.609 237.665C135.609 237.665 135.69 237.704 135.841 237.764L136.537 238.024C137.135 238.236 137.987 238.595 139.035 239.053C141.749 240.296 144.365 241.818 146.856 243.602C149.345 245.394 151.746 247.353 154.048 249.47C154.939 250.273 155.646 250.941 156.136 251.402L156.704 251.929C156.834 252.047 156.906 252.105 156.906 252.105C156.906 252.105 156.844 252.034 156.716 251.907L156.162 251.355C155.677 250.885 154.974 250.206 154.09 249.395C151.796 247.253 149.394 245.281 146.898 243.489C144.4 241.698 141.768 240.184 139.038 238.965C137.914 238.464 136.769 238.03 135.609 237.665Z" fill="#263238"/>
<g opacity="0.3">
<path d="M156.679 239.564C156.679 239.564 150.387 235.556 146.912 236.042L147.32 235.976L144.072 236.296C143.522 236.351 142.893 236.37 142.518 235.893C142.518 235.893 144.487 234.899 147.598 234.919C150.71 234.938 155.275 236.252 156.679 239.564Z" fill="black"/>
</g>
<path d="M156.762 239.63C156.623 239.381 156.468 239.144 156.298 238.921C155.845 238.306 155.333 237.755 154.772 237.282C153.941 236.574 153.027 236.016 152.06 235.626C150.881 235.109 149.622 234.901 148.369 235.016C147.725 235.093 147.087 235.218 146.457 235.391C145.849 235.554 145.258 235.667 144.698 235.86C144.186 236.063 143.66 236.212 143.125 236.307C142.658 236.362 142.186 236.288 141.747 236.089C140.102 235.446 139.214 234.632 139.325 234.541C139.331 234.62 139.362 234.694 139.411 234.748C139.545 234.903 139.694 235.038 139.857 235.148C140.447 235.569 141.074 235.912 141.726 236.172C142.175 236.379 142.658 236.46 143.137 236.41C143.677 236.32 144.209 236.175 144.729 235.976C145.276 235.797 145.875 235.675 146.482 235.513C147.108 235.347 147.742 235.225 148.38 235.148C149.618 235.037 150.862 235.24 152.03 235.742C152.99 236.124 153.899 236.668 154.73 237.356C155.29 237.82 155.806 238.356 156.268 238.954C156.433 239.167 156.556 239.338 156.635 239.457C156.714 239.575 156.762 239.63 156.762 239.63Z" fill="#263238"/>
<g opacity="0.3">
<path d="M157.792 246.983C156.6 246.483 155.802 245.746 154.705 244.952C153.545 244.107 152.359 243.334 151.225 242.423C150.364 241.733 149.322 241.005 148.939 239.939C148.812 240.198 148.744 240.491 148.74 240.79C148.736 241.09 148.798 241.385 148.918 241.648C149.162 242.2 150.194 243.185 150.635 243.541C153.143 245.57 154.886 246.955 157.688 248.366C157.748 247.909 157.782 247.448 157.79 246.986" fill="black"/>
</g>
<path d="M157.853 243.781C158.498 244.479 158.885 244.932 158.686 245.713C158.521 246.359 158.187 247.093 157.625 246.991C157.459 246.945 157.302 246.863 157.161 246.748L149.478 241.397C149.199 241.252 148.974 240.993 148.842 240.668C148.689 240.149 149.074 239.58 149.517 239.437C149.96 239.293 150.433 239.437 150.874 239.619C153.375 240.582 155.656 242.062 157.853 243.778" fill="#01A2BB"/>
<path d="M148.925 240.867C148.855 240.707 148.821 240.528 148.828 240.348C148.845 240.104 148.92 239.872 149.043 239.677C149.166 239.481 149.333 239.331 149.524 239.244C150.016 239.045 150.668 239.177 151.308 239.487C151.948 239.796 152.67 240.146 153.396 240.546C154.657 241.212 155.866 242.01 157.008 242.931C157.444 243.287 157.781 243.602 158.015 243.82L158.28 244.076C158.31 244.108 158.342 244.136 158.377 244.159C158.377 244.159 158.352 244.121 158.294 244.057L158.041 243.781C157.809 243.552 157.486 243.229 157.052 242.857C155.918 241.909 154.708 241.097 153.44 240.43C152.702 240.028 151.99 239.68 151.336 239.373C150.682 239.067 150.011 238.935 149.48 239.158C149.279 239.254 149.105 239.416 148.979 239.626C148.853 239.836 148.78 240.085 148.77 240.342C148.767 240.48 148.792 240.618 148.842 240.742C148.863 240.789 148.892 240.831 148.925 240.867Z" fill="#263238"/>
<path d="M138.161 235.523L143.383 237.513L142.443 239.073L136.845 236.627L138.161 235.523Z" fill="white"/>
<path d="M144.425 244.203C144.436 244.17 142.239 242.823 139.513 241.217C136.787 239.611 134.56 238.311 134.56 238.344C134.56 238.377 136.745 239.724 139.471 241.33C142.197 242.937 144.411 244.234 144.425 244.203Z" fill="#263238"/>
<path d="M145.74 277.688L145.81 273.609L134.075 278.795C134.075 278.795 131.906 270.413 131.906 270.018L129.305 271.95L124.983 269.742L120.661 267.203L111.919 285.419L102.748 317.584L124.352 334.729L140.374 314.305L150.118 296.641L155.472 285.457L145.74 277.688Z" fill="#01A2BB"/>
<path d="M133.031 278.734C133.017 278.599 133.012 278.462 133.015 278.326C133.015 278.05 133.015 277.658 133.001 277.183L133.054 277.222C131.765 277.971 130.574 278.941 129.521 280.1L129.428 280.205V280.053C129.428 279.871 129.41 279.678 129.4 279.482C129.305 277.481 129.226 275.671 129.168 274.357C129.145 273.717 129.127 273.192 129.113 272.803C129.113 272.634 129.113 272.493 129.113 272.381C129.097 272.377 129.084 272.367 129.074 272.352C129.065 272.337 129.06 272.319 129.062 272.3C129.063 272.282 129.071 272.265 129.082 272.252C129.094 272.24 129.109 272.233 129.124 272.233C129.14 272.233 129.155 272.24 129.166 272.252C129.178 272.265 129.185 272.282 129.187 272.3C129.188 272.319 129.184 272.337 129.174 272.352C129.165 272.367 129.151 272.377 129.136 272.381C129.136 272.491 129.154 272.632 129.168 272.8C129.192 273.189 129.222 273.714 129.259 274.351C129.333 275.662 129.424 277.473 129.519 279.474C129.519 279.67 129.537 279.863 129.544 280.045L129.444 279.996C130.506 278.828 131.715 277.865 133.026 277.142L133.082 277.114V277.183C133.082 277.658 133.066 278.041 133.061 278.326C133.06 278.463 133.05 278.599 133.031 278.734Z" fill="#263238"/>
<path d="M144.659 277.884C144.617 277.918 144.572 277.947 144.524 277.969L144.132 278.193L142.68 278.985L137.864 281.546L135.576 282.75L135.479 282.799L135.497 282.675C135.686 281.381 135.775 280.069 135.762 278.756L135.815 278.795L134.732 279.421L134.442 279.581C134.377 279.617 134.342 279.634 134.34 279.628C134.368 279.601 134.399 279.577 134.432 279.559L134.713 279.377L135.783 278.715L135.834 278.681V278.756C135.866 280.08 135.789 281.405 135.602 282.711L135.523 282.637L137.808 281.428L142.638 278.902L144.109 278.152L144.51 277.956C144.557 277.924 144.607 277.9 144.659 277.884Z" fill="#263238"/>
<path d="M124.143 257.471H35.7743C33.9075 257.471 32.3941 259.271 32.3941 261.492V334.284C32.3941 336.505 33.9075 338.306 35.7743 338.306H124.143C126.01 338.306 127.523 336.505 127.523 334.284V261.492C127.523 259.271 126.01 257.471 124.143 257.471Z" fill="#455A64"/>
<path d="M28.6752 333.084H131.741V335.245C131.741 336.548 131.306 337.798 130.532 338.719C129.757 339.64 128.707 340.158 127.612 340.158H32.8048C31.7095 340.158 30.6592 339.64 29.8847 338.719C29.1103 337.798 28.6752 336.548 28.6752 335.245V333.084Z" fill="#455A64"/>
<path d="M124.705 260.684H34.9484V328.947H124.705V260.684Z" fill="#263238"/>
<path d="M70.5814 332.328L71.8597 334.941H89.8559L91.0438 332.328H70.5814Z" fill="#263238"/>
<path d="M122.28 262.994H37.5538C37.1348 262.994 36.7952 263.398 36.7952 263.896V327.823C36.7952 328.322 37.1348 328.726 37.5538 328.726H122.28C122.699 328.726 123.039 328.322 123.039 327.823V263.896C123.039 263.398 122.699 262.994 122.28 262.994Z" fill="#EBEBEB"/>
<path d="M122.948 328.822H36.7047L36.7952 267.906H122.948V328.822Z" fill="#FAFAFA"/>
<path d="M44.0428 265.533C44.036 265.698 43.9887 265.857 43.9066 265.99C43.8246 266.124 43.7115 266.225 43.5813 266.283C43.4512 266.341 43.3096 266.352 43.1743 266.315C43.039 266.277 42.9157 266.194 42.8199 266.074C42.7241 265.955 42.6598 265.804 42.6351 265.642C42.6105 265.479 42.6264 265.311 42.681 265.159C42.7356 265.008 42.8265 264.878 42.9424 264.787C43.0582 264.696 43.194 264.647 43.3329 264.647C43.5257 264.653 43.7087 264.749 43.8418 264.915C43.9749 265.081 44.0472 265.304 44.0428 265.533Z" fill="#263238"/>
<path d="M39.7369 265.533C39.7301 265.698 39.6828 265.857 39.6007 265.99C39.5187 266.124 39.4056 266.225 39.2754 266.283C39.1453 266.341 39.0037 266.352 38.8684 266.315C38.7331 266.277 38.6098 266.194 38.514 266.074C38.4182 265.955 38.3539 265.804 38.3292 265.642C38.3045 265.479 38.3205 265.311 38.3751 265.159C38.4297 265.008 38.5206 264.878 38.6364 264.787C38.7523 264.696 38.8881 264.647 39.027 264.647C39.2198 264.653 39.4028 264.749 39.5359 264.915C39.669 265.081 39.7413 265.304 39.7369 265.533Z" fill="#263238"/>
<path d="M41.9502 265.533C41.9434 265.698 41.8961 265.857 41.8141 265.99C41.732 266.124 41.6189 266.225 41.4887 266.283C41.3586 266.341 41.2171 266.352 41.0817 266.315C40.9464 266.277 40.8232 266.194 40.7273 266.074C40.6315 265.955 40.5672 265.804 40.5426 265.642C40.5179 265.479 40.5338 265.311 40.5884 265.159C40.643 265.008 40.7339 264.878 40.8498 264.787C40.9656 264.696 41.1014 264.647 41.2403 264.647C41.4331 264.653 41.6161 264.749 41.7492 264.915C41.8823 265.081 41.9546 265.304 41.9502 265.533Z" fill="#263238"/>
<path d="M126.707 332.328C126.707 332.372 105.595 332.405 79.5527 332.405C53.5107 332.405 32.3941 332.372 32.3941 332.328C32.3941 332.283 53.5061 332.248 79.5527 332.248C105.599 332.248 126.707 332.283 126.707 332.328Z" fill="#263238"/>
<path d="M70.6533 279.584C72.0555 278.577 73.5644 277.797 75.1401 277.265L76.0681 271.98L83.571 271.823L84.6521 277.067C86.2421 277.534 87.7728 278.25 89.204 279.197L92.9972 276.242L98.3958 282.443L96.048 287.061C96.8948 288.73 97.5502 290.526 97.9968 292.401L102.437 293.505L102.569 302.431L98.1615 303.717C97.768 305.604 97.1649 307.419 96.3681 309.116L98.8552 313.628L93.6421 320.051L89.7654 317.255C88.3626 318.263 86.8528 319.042 85.2762 319.574L84.3482 324.859L76.843 325.013L75.7642 319.769C74.1784 319.307 72.6515 318.595 71.224 317.653L67.4308 320.611L62.0321 314.41L64.3823 309.798C63.5347 308.129 62.8785 306.333 62.4312 304.457L57.9907 303.353L57.8585 294.427L62.2665 293.141C62.6587 291.249 63.261 289.428 64.0575 287.726L61.5728 283.213L66.7858 276.791L70.6533 279.584ZM74.6529 291.477C73.5471 292.839 72.8058 294.562 72.5227 296.426C72.2396 298.29 72.4274 300.211 73.0625 301.948C73.6975 303.685 74.7512 305.159 76.0904 306.184C77.4295 307.208 78.994 307.737 80.5859 307.704C82.1778 307.671 83.7257 307.077 85.0338 305.997C86.342 304.918 87.3516 303.401 87.9351 301.638C88.5186 299.876 88.6497 297.947 88.3119 296.096C87.9741 294.245 87.1825 292.555 86.0372 291.239C85.2762 290.366 84.378 289.68 83.394 289.219C82.41 288.759 81.3594 288.534 80.3023 288.557C79.2451 288.58 78.2021 288.85 77.2328 289.352C76.2635 289.855 75.3868 290.579 74.6529 291.485V291.477Z" fill="#E0E0E0"/>
<path d="M100.63 282.998C100.733 282.338 100.908 281.697 101.152 281.091L100.224 279.601L101.904 277.26L103.296 278.127C103.76 277.746 104.265 277.441 104.797 277.219L105.029 275.378L107.606 275.138L108.07 276.912C108.626 277.034 109.165 277.244 109.673 277.536L110.926 276.432L112.893 278.433L112.165 280.089C112.486 280.642 112.744 281.243 112.931 281.878L114.476 282.154L114.678 285.223L113.186 285.775C113.084 286.436 112.908 287.077 112.661 287.682L113.589 289.175L111.91 291.513L110.518 290.646C110.053 291.028 109.547 291.335 109.014 291.557L108.782 293.398L106.205 293.638L105.741 291.861C105.186 291.739 104.646 291.531 104.138 291.24L102.883 292.344L100.92 290.32L101.648 288.664C101.328 288.111 101.07 287.51 100.883 286.876L99.3377 286.6L99.1359 283.531L100.628 282.979L100.63 282.998ZM104.126 283.928C104.071 284.619 104.2 285.312 104.493 285.911C104.787 286.51 105.231 286.984 105.764 287.266C106.296 287.548 106.889 287.625 107.46 287.485C108.031 287.345 108.55 286.995 108.945 286.485C109.34 285.975 109.591 285.331 109.661 284.643C109.732 283.955 109.619 283.257 109.339 282.649C109.059 282.041 108.626 281.553 108.1 281.254C107.574 280.954 106.983 280.859 106.409 280.981C105.81 281.108 105.263 281.465 104.85 281.997C104.438 282.529 104.184 283.208 104.126 283.928Z" fill="#E0E0E0"/>
<path d="M44.131 313.808C44.1498 313.015 44.2583 312.229 44.4535 311.47L43.1381 309.944L44.7482 306.858L46.4928 307.576C46.9801 307.032 47.5262 306.568 48.1168 306.196L48.1029 304.002L51.0771 303.174L51.8822 305.147C52.5487 305.169 53.2097 305.298 53.8472 305.531L55.1441 303.966L57.7378 305.881L57.1346 307.957C57.5919 308.537 57.982 309.186 58.2946 309.889L60.139 309.872L60.835 313.408L59.1739 314.36C59.1532 315.153 59.044 315.939 58.8491 316.698L60.1645 318.238L58.5545 321.326L56.8098 320.609C56.323 321.153 55.7768 321.618 55.1858 321.989L55.1997 324.183L52.2278 325.011L51.4205 323.038C50.7558 323.01 50.0972 322.876 49.4624 322.64L48.1678 324.205L45.5718 322.29L46.175 320.214C45.7177 319.634 45.3276 318.985 45.015 318.282L43.159 318.299L42.463 314.763L44.1218 313.803L44.131 313.808ZM48.43 314.802C48.579 315.551 48.9115 316.232 49.3853 316.757C49.8591 317.282 50.4531 317.628 51.0922 317.751C51.7313 317.875 52.3869 317.77 52.9761 317.451C53.5654 317.132 54.0618 316.612 54.4028 315.957C54.7437 315.302 54.9139 314.542 54.8918 313.772C54.8697 313.002 54.6564 312.257 54.2786 311.631C53.9009 311.006 53.3758 310.527 52.7697 310.256C52.1635 309.986 51.5035 309.935 50.873 310.11C50.4525 310.226 50.0556 310.44 49.705 310.74C49.3544 311.04 49.0571 311.419 48.8301 311.856C48.6031 312.292 48.4508 312.778 48.3822 313.285C48.3135 313.792 48.3298 314.31 48.43 314.81V314.802Z" fill="#E0E0E0"/>
<path d="M49.4693 284.326C49.5451 283.827 49.6778 283.344 49.8637 282.888L49.1677 281.762L50.4344 279.998L51.4784 280.652C51.8287 280.365 52.2094 280.134 52.6106 279.965L52.7823 278.585L54.7264 278.403L55.0744 279.741C55.4929 279.834 55.8993 279.992 56.2832 280.211L57.2297 279.383L58.7099 280.89L58.1624 282.132C58.4042 282.548 58.5977 283.001 58.7377 283.478L59.8977 283.68L60.0508 285.993L58.928 286.396C58.8512 286.894 58.7193 287.377 58.5359 287.834L59.2319 288.957L57.9652 290.721L56.9212 290.067C56.5714 290.355 56.1906 290.586 55.789 290.754L55.6196 292.134L53.6755 292.313L53.3252 290.975C52.9063 290.884 52.4996 290.726 52.1164 290.505L51.1722 291.333L49.6897 289.826L50.2372 288.584C49.9954 288.168 49.8019 287.715 49.6619 287.238L48.5019 287.033L48.3511 284.72L49.4763 284.306L49.4693 284.326ZM52.1025 285.449C52.1353 285.938 52.2893 286.405 52.5449 286.791C52.8006 287.176 53.1465 287.462 53.5389 287.614C53.9314 287.766 54.3528 287.776 54.75 287.643C55.1471 287.509 55.5023 287.239 55.7705 286.866C56.0387 286.493 56.2081 286.034 56.2571 285.547C56.3061 285.059 56.2327 284.566 56.046 284.128C55.8593 283.69 55.5678 283.328 55.2083 283.087C54.8487 282.846 54.4372 282.738 54.0258 282.775C53.7517 282.799 53.4844 282.888 53.2393 283.036C52.9942 283.184 52.776 283.388 52.5973 283.637C52.4186 283.885 52.2829 284.173 52.198 284.484C52.1131 284.795 52.0807 285.123 52.1025 285.449Z" fill="#EBEBEB"/>
<path d="M100.727 309.235C100.795 308.807 100.908 308.391 101.066 307.998L100.461 307.032L101.549 305.517L102.447 306.069C102.747 305.821 103.074 305.623 103.419 305.478L103.565 304.286L105.235 304.131L105.534 305.282C105.894 305.361 106.244 305.496 106.574 305.685L107.386 304.965L108.659 306.259L108.195 307.325C108.404 307.683 108.571 308.073 108.692 308.484L109.694 308.658L109.824 310.645L108.857 311.001C108.791 311.429 108.677 311.845 108.518 312.237L109.123 313.203L108.035 314.716L107.14 314.164C106.838 314.411 106.511 314.609 106.165 314.755L106.019 315.944L104.349 316.099L104.05 314.951C103.69 314.871 103.34 314.735 103.01 314.548L102.198 315.268L100.92 313.974L101.384 312.908C101.176 312.551 101.009 312.162 100.887 311.752L99.8875 311.578L99.7553 309.591L100.723 309.235H100.727ZM102.989 310.198C103.017 310.62 103.149 311.023 103.369 311.356C103.59 311.689 103.888 311.937 104.227 312.067C104.565 312.198 104.929 312.207 105.272 312.091C105.614 311.976 105.921 311.742 106.151 311.419C106.382 311.097 106.527 310.7 106.568 310.279C106.609 309.858 106.544 309.432 106.381 309.055C106.219 308.679 105.965 308.368 105.654 308.162C105.343 307.957 104.987 307.866 104.632 307.902C104.159 307.948 103.72 308.216 103.412 308.646C103.104 309.076 102.952 309.634 102.989 310.198Z" fill="#EBEBEB"/>
<path d="M80.2093 312.229H68.6719C67.9938 312.227 67.328 312.014 66.741 311.61C66.154 311.205 65.6665 310.625 65.3271 309.927C64.9878 309.228 64.8085 308.436 64.8071 307.629C64.8058 306.822 64.9825 306.029 65.3195 305.329L71.0917 293.436L76.8615 281.544C77.2018 280.844 77.6908 280.263 78.2794 279.859C78.868 279.455 79.5356 279.243 80.2151 279.243C80.8946 279.243 81.5621 279.455 82.1508 279.859C82.7394 280.263 83.2284 280.844 83.5687 281.544L89.3408 293.436L95.113 305.329C95.4501 306.03 95.6268 306.823 95.6254 307.63C95.6239 308.437 95.4444 309.229 95.1048 309.928C94.7652 310.626 94.2773 311.207 93.69 311.611C93.1027 312.014 92.4366 312.228 91.7583 312.229H80.2093Z" fill="#01A2BB"/>
<path d="M92.6353 306.693C92.6353 306.693 92.6654 306.762 92.7234 306.905C92.8224 307.193 92.8603 307.505 92.8336 307.814C92.8068 308.123 92.7164 308.42 92.5703 308.677C92.4555 308.881 92.308 309.055 92.1365 309.191C91.937 309.342 91.7088 309.431 91.4729 309.45C89.5056 309.475 86.6659 309.469 83.1534 309.481L70.8156 309.497H69.0525C68.7379 309.493 68.4322 309.373 68.1775 309.153C67.9228 308.934 67.7316 308.626 67.6303 308.272C67.5228 307.918 67.5026 307.535 67.5723 307.168C67.5909 307.077 67.6164 306.985 67.6419 306.892C67.6674 306.798 67.7092 306.718 67.744 306.635L67.976 306.152C68.2729 305.503 68.5745 304.852 68.8761 304.192L72.616 296.026L76.379 287.864C76.9838 286.545 77.5792 285.25 78.1654 283.981C78.3139 283.666 78.4508 283.349 78.6085 283.037C78.7653 282.718 78.9892 282.454 79.2581 282.27C79.5217 282.09 79.8175 281.988 80.1209 281.972C80.4243 281.955 80.7267 282.025 81.0028 282.176C81.2767 282.323 81.5158 282.549 81.6988 282.833C81.8572 283.119 82.0006 283.417 82.128 283.724C82.3994 284.315 82.6685 284.897 82.9307 285.471C83.4596 286.619 83.9708 287.734 84.4642 288.814C85.4548 290.969 86.3759 292.978 87.2157 294.811C88.8954 298.479 90.2526 301.449 91.1922 303.505L92.2687 305.87C92.3893 306.146 92.4821 306.345 92.5448 306.489C92.6074 306.632 92.6376 306.701 92.6376 306.701C92.6376 306.701 92.6004 306.632 92.5355 306.494L92.2478 305.884L91.1505 303.53C90.2039 301.479 88.8304 298.521 87.1415 294.861L84.3784 288.869L82.8379 285.532C82.5734 284.958 82.3066 284.376 82.0328 283.785C81.9051 283.487 81.7634 283.197 81.6083 282.918C81.4371 282.653 81.2141 282.442 80.9587 282.303C80.6988 282.161 80.4141 282.095 80.1284 282.11C79.8427 282.126 79.5642 282.222 79.3161 282.391C79.0647 282.566 78.8553 282.815 78.7083 283.114C78.5552 283.415 78.416 283.738 78.2698 284.053L76.4834 287.936C75.2724 290.575 74.0149 293.304 72.7296 296.103L68.9736 304.264C68.6696 304.924 68.3704 305.578 68.0711 306.224C67.908 306.528 67.7793 306.857 67.6883 307.201C67.6221 307.545 67.6406 307.904 67.7416 308.236C67.8333 308.564 68.0093 308.851 68.2449 309.054C68.4804 309.258 68.7637 309.368 69.0548 309.37H70.818L83.1557 309.384L91.4729 309.398C91.7008 309.382 91.9218 309.298 92.1156 309.155C92.2846 309.024 92.4304 308.855 92.5448 308.658C92.7234 308.345 92.8188 307.976 92.8185 307.598C92.8158 307.284 92.7531 306.974 92.6353 306.693Z" fill="#263238"/>
<path d="M78.3394 304.148C78.3394 302.931 79.1561 302.023 80.3184 302.023C81.4807 302.023 82.2788 302.931 82.2788 304.148C82.2788 305.365 81.4807 306.315 80.3184 306.315C79.1561 306.315 78.3394 305.349 78.3394 304.148ZM78.358 291.681H82.2788L81.6199 300.866H79.0006L78.358 291.681Z" fill="white"/>
<path d="M80.7615 280.169C80.5241 280.074 80.278 280.012 80.0284 279.987C79.4218 279.971 78.8295 280.207 78.3533 280.655C77.8884 281.116 77.5139 281.692 77.256 282.344C77.0448 282.841 76.9451 283.172 76.9265 283.158C76.9328 283.076 76.9492 282.996 76.9752 282.921C77.0332 282.709 77.1014 282.502 77.1794 282.3C77.4247 281.616 77.8042 281.012 78.286 280.539C78.7824 280.07 79.4076 279.838 80.04 279.887C80.2294 279.904 80.4152 279.958 80.5898 280.047C80.7035 280.111 80.7661 280.161 80.7615 280.169Z" fill="white"/>
<path d="M75.9359 285.214C75.9836 284.976 76.0695 284.751 76.1888 284.552C76.3582 284.212 76.5182 283.953 76.5484 283.972C76.4994 284.207 76.4127 284.428 76.2932 284.624C76.2072 284.846 76.0859 285.047 75.9359 285.214Z" fill="white"/>
<g opacity="0.3">
<path d="M86.0001 286.556L68.0224 299.732L65.6885 304.545L87.2691 289.169L86.0001 286.556Z" fill="white"/>
</g>
<g opacity="0.3">
<path d="M88.8304 292.396L65.0017 309.116C65.0973 309.554 65.274 309.962 65.5191 310.308L89.2504 293.263L88.8304 292.396Z" fill="white"/>
</g>
<path d="M147.719 323.578C146.813 322.391 145.639 321.538 144.337 321.123C143.035 320.708 141.66 320.748 140.376 321.238L138.156 318.34L137.847 317.929L120.278 294.996C120.772 293.635 120.952 292.141 120.8 290.67C120.648 289.198 120.17 287.802 119.414 286.623C118.658 285.444 117.652 284.526 116.499 283.964C115.346 283.401 114.088 283.213 112.854 283.42L111.996 283.826L114.982 286.208L114.821 290.086L112.406 292.694L109.147 292.503L107.017 289.71L106.138 290.122C105.885 292.459 107.203 295.407 108.639 297.298C109.543 298.484 110.715 299.335 112.015 299.751C113.315 300.166 114.688 300.128 115.97 299.641L133.834 322.957L134.381 323.683L136.075 325.891C135.545 327.36 135.381 328.979 135.603 330.556C135.825 332.132 136.423 333.6 137.325 334.784C138.755 336.661 140.652 337.914 142.627 337.85L143.508 337.442L141.376 334.646L141.536 330.782L143.951 328.174L147.199 328.361L148.448 331.566L149.329 331.154C149.601 329.831 149.596 328.449 149.316 327.128C149.035 325.808 148.487 324.589 147.719 323.578Z" fill="#E0E0E0"/>
<g opacity="0.3">
<path d="M147.719 323.578C146.813 322.391 145.639 321.538 144.337 321.123C143.035 320.708 141.66 320.748 140.376 321.238L138.156 318.34L137.847 317.929L120.278 294.996C120.772 293.635 120.952 292.141 120.8 290.67C120.648 289.198 120.17 287.802 119.414 286.623C118.658 285.444 117.652 284.526 116.499 283.964C115.346 283.401 114.088 283.213 112.854 283.42L111.996 283.826L114.982 286.208L114.821 290.086L112.406 292.694L109.147 292.503L107.017 289.71L106.138 290.122C105.885 292.459 107.203 295.407 108.639 297.298C109.543 298.484 110.715 299.335 112.015 299.751C113.315 300.166 114.688 300.128 115.97 299.641L133.834 322.957L134.381 323.683L136.075 325.891C135.545 327.36 135.381 328.979 135.603 330.556C135.825 332.132 136.423 333.6 137.325 334.784C138.755 336.661 140.652 337.914 142.627 337.85L143.508 337.442L141.376 334.646L141.536 330.782L143.951 328.174L147.199 328.361L148.448 331.566L149.329 331.154C149.601 329.831 149.596 328.449 149.316 327.128C149.035 325.808 148.487 324.589 147.719 323.578Z" fill="black"/>
</g>
<path d="M146.837 323.987C145.932 322.8 144.758 321.948 143.456 321.533C142.155 321.118 140.78 321.159 139.497 321.649L137.274 318.749L136.966 318.337L119.396 295.405C119.891 294.044 120.071 292.551 119.919 291.079C119.767 289.608 119.289 288.211 118.533 287.032C117.777 285.854 116.77 284.936 115.617 284.374C114.464 283.811 113.206 283.624 111.972 283.832L114.102 286.625L113.944 290.489L111.525 293.108L108.277 292.921L106.147 290.127C105.852 291.567 105.886 293.075 106.243 294.494C106.601 295.914 107.27 297.195 108.181 298.205C109.092 299.215 110.214 299.918 111.429 300.242C112.645 300.565 113.911 300.498 115.098 300.047L132.962 323.363L133.511 324.089L135.205 326.297C134.713 327.658 134.535 329.149 134.687 330.619C134.84 332.089 135.319 333.484 136.075 334.661C136.831 335.838 137.836 336.754 138.988 337.316C140.14 337.878 141.396 338.066 142.629 337.859L140.497 335.06L140.655 331.196L143.072 328.588L146.32 328.778L148.45 331.572C148.723 330.247 148.719 328.863 148.438 327.54C148.157 326.218 147.607 324.998 146.837 323.987Z" fill="#E0E0E0"/>
<path d="M146.837 323.987C146.837 323.987 146.939 324.119 147.132 324.387C147.406 324.794 147.649 325.23 147.858 325.69C148.665 327.493 148.887 329.586 148.485 331.571V331.626L148.452 331.585L146.32 328.795L146.339 328.808L143.091 328.624H143.114L140.701 331.234V331.204C140.655 332.407 140.601 333.718 140.546 335.082V335.046L142.659 337.82L142.715 337.892L142.634 337.905C141.457 338.109 140.257 337.954 139.144 337.457C138.031 336.959 137.042 336.135 136.27 335.06C135.429 333.898 134.875 332.483 134.669 330.97C134.45 329.383 134.616 327.756 135.147 326.278V326.344L115.035 300.099L115.097 300.118C113.826 300.596 112.468 300.642 111.177 300.251C109.377 299.697 107.833 298.323 106.878 296.426C105.923 294.53 105.634 292.262 106.073 290.113L106.101 289.981L106.177 290.08L108.307 292.873L108.265 292.851L111.525 293.039L111.481 293.058L113.912 290.447L113.891 290.497C113.944 289.189 113.998 287.9 114.051 286.619L114.065 286.669L111.935 283.876L111.863 283.779L111.97 283.762C113.253 283.547 114.561 283.754 115.752 284.363C116.942 284.971 117.97 285.957 118.721 287.212C119.441 288.41 119.882 289.813 120 291.278C120.109 292.69 119.922 294.113 119.454 295.418V295.352L139.534 321.616H139.506C140.462 321.253 141.472 321.137 142.468 321.277C143.464 321.416 144.424 321.807 145.283 322.425C145.719 322.741 146.127 323.111 146.499 323.529C146.731 323.824 146.856 323.976 146.856 323.976L146.489 323.54C146.114 323.125 145.705 322.755 145.269 322.436C144.413 321.828 143.457 321.444 142.466 321.31C141.475 321.176 140.472 321.294 139.522 321.657H139.506V321.641L119.389 295.421L119.366 295.39L119.38 295.354C119.84 294.065 120.024 292.659 119.914 291.264C119.798 289.821 119.362 288.44 118.652 287.262C117.912 286.027 116.901 285.057 115.729 284.459C114.557 283.861 113.27 283.657 112.007 283.87L112.042 283.757L114.144 286.578L114.16 286.597V286.627C114.109 287.904 114.057 289.192 114.002 290.491V290.522L113.984 290.541L111.569 293.149L111.55 293.169H111.525L108.277 292.978H108.251L108.235 292.956L106.103 290.163L106.207 290.133C105.916 291.56 105.949 293.053 106.303 294.46C106.656 295.867 107.318 297.136 108.22 298.138C109.123 299.141 110.233 299.839 111.437 300.163C112.641 300.487 113.895 300.424 115.072 299.98H115.107L115.135 300.013C122.438 309.557 129.287 318.492 135.233 326.269L135.256 326.3L135.242 326.338C134.72 327.792 134.555 329.392 134.766 330.953C134.97 332.406 135.494 333.77 136.284 334.904C137.075 336.038 138.104 336.902 139.267 337.409C140.34 337.87 141.492 338.013 142.622 337.823L142.594 337.908L140.467 335.115L140.455 335.098V335.06C140.511 333.699 140.564 332.388 140.615 331.196V331.177V331.163L143.035 328.56H143.049L146.297 328.753C147.076 329.78 147.793 330.721 148.422 331.552H148.38C148.786 329.579 148.572 327.497 147.779 325.698C147.573 325.239 147.335 324.801 147.067 324.39C146.933 324.127 146.837 323.987 146.837 323.987Z" fill="#263238"/>
<path d="M118.596 296.743C118.58 296.816 118.554 296.886 118.519 296.95C118.438 297.13 118.348 297.303 118.248 297.469C117.59 298.582 116.663 299.43 115.589 299.9C115.429 299.972 115.265 300.031 115.097 300.077C115.038 300.101 114.975 300.113 114.912 300.113C114.912 300.088 115.165 300.005 115.559 299.807C116.594 299.294 117.498 298.468 118.181 297.411C118.443 297.005 118.577 296.732 118.596 296.743Z" fill="#263238"/>
<path d="M138.216 306.704L131.544 303.006L125.579 302.12L127.769 304.328C127.769 304.328 120.058 307.526 119.923 308.247C119.789 308.967 120.531 310.905 121.89 310.546C121.89 310.546 121.127 311.65 121.445 312.867C121.763 314.084 122.466 314.313 123.765 314.029C123.765 314.029 122.883 315.599 123.575 316.4C124.266 317.2 125.343 316.999 125.343 316.999C125.343 316.999 125.357 318.911 126.206 319.077C127.055 319.243 129.421 319.047 130.305 318.724L134.794 317.068L137.704 316.292L138.216 306.704Z" fill="#FFBF9D"/>
<path d="M125.934 309.132C125.96 309.237 125.071 309.635 123.953 310.024C122.835 310.413 121.902 310.639 121.877 310.534C121.851 310.43 122.74 310.029 123.858 309.643C124.976 309.257 125.909 309.027 125.934 309.132Z" fill="#FF9A6C"/>
<path d="M127.069 312.906C127.094 313.011 126.391 313.356 125.496 313.678C124.6 314.001 123.851 314.173 123.823 314.068C123.795 313.963 124.503 313.618 125.398 313.298C126.294 312.977 127.043 312.804 127.069 312.906Z" fill="#FF9A6C"/>
<path d="M128.087 316.044C128.103 316.163 127.463 316.32 126.711 316.546C125.96 316.772 125.373 317.098 125.319 316.985C125.266 316.872 125.818 316.416 126.619 316.157C127.419 315.898 128.076 315.947 128.087 316.044Z" fill="#FF9A6C"/>
<path d="M128.929 304.01C128.955 304.117 128.08 304.496 126.997 304.94C125.913 305.384 125.029 305.724 124.992 305.622C124.955 305.519 125.795 305.012 126.89 304.565C127.985 304.117 128.906 303.905 128.929 304.01Z" fill="#FF9A6C"/>
<path d="M136.959 306.008L151.41 312.235L150.566 324.034L134.655 316.402L136.959 306.008Z" fill="#FFBF9D"/>
<path d="M155.5 285.361C155.5 285.361 157.384 287.676 158.481 291.841C159.579 296.006 164.745 313.662 164.62 319.278C164.483 325.088 161.196 329.234 153.971 326.937C149.661 325.557 144.524 323.349 144.524 323.349L148.176 309.069L151.032 309.944L146.42 299.644L155.5 285.361Z" fill="#01A2BB"/>
<path d="M152.192 292.109C152.22 292.134 150.22 295.52 147.728 299.674C145.237 303.828 143.197 307.184 143.169 307.157C143.142 307.129 145.141 303.745 147.633 299.591C150.125 295.438 152.166 292.087 152.192 292.109Z" fill="#263238"/>
<path d="M157.723 311.876C157.723 311.876 157.598 311.804 157.373 311.68C157.052 311.51 156.721 311.371 156.382 311.264C155.953 311.123 155.433 310.988 154.855 310.841L152.981 310.35C151.651 309.997 150.447 309.668 149.58 309.423L148.552 309.125C148.424 309.096 148.299 309.053 148.178 308.998C148.307 309.01 148.435 309.035 148.561 309.072L149.598 309.323C150.473 309.544 151.686 309.856 153.009 310.209L154.881 310.714C155.456 310.869 155.976 311.012 156.405 311.167C156.746 311.284 157.077 311.44 157.393 311.631C157.479 311.682 157.562 311.741 157.642 311.804C157.671 311.824 157.699 311.848 157.723 311.876Z" fill="#263238"/>
<g opacity="0.3">
<path d="M161.416 312.505C161.37 312.166 161.256 311.846 161.083 311.571C160.91 311.296 160.684 311.075 160.423 310.926C159.901 310.632 159.338 310.453 158.762 310.396C156.166 309.971 153.54 309.844 150.921 309.737L151.153 309.861C154.389 310.573 157.556 311.671 160.607 313.14C160.774 313.25 160.97 313.278 161.154 313.217C161.254 313.144 161.332 313.037 161.379 312.91C161.426 312.783 161.439 312.641 161.416 312.505Z" fill="black"/>
</g>
<g opacity="0.3">
<path d="M101.88 257.758C99.4445 257.264 96.5305 258.106 94.0945 257.612C93.7326 257.54 93.3336 257.471 93.0134 257.692C92.6283 257.954 92.496 258.539 92.4775 259.072C92.4677 259.803 92.5865 260.528 92.8263 261.201C93.066 261.874 93.4213 262.48 93.8695 262.98C94.7817 263.972 95.921 264.62 97.143 264.84C98.1151 265.036 99.1614 264.997 100.027 264.44C101.549 263.457 102.279 259.748 101.88 257.758Z" fill="black"/>
</g>
<path d="M92.4264 263.06C92.4264 263.06 90.9486 260.998 90.7351 260.049C90.5936 259.419 90.6632 257.656 90.7351 256.538C90.7515 256.161 90.8601 255.798 91.0477 255.494C91.2353 255.19 91.4936 254.958 91.7907 254.827C91.8778 254.775 91.9749 254.753 92.0718 254.762C92.1686 254.771 92.2615 254.812 92.3406 254.879C92.5412 254.555 92.7664 254.254 93.0134 253.979C93.5934 253.273 93.8695 252.795 95.1455 253.234C95.1455 253.234 96.0851 252.056 96.6256 252.144C96.9884 252.208 97.3472 252.3 97.6998 252.42C97.6998 252.42 99.7576 252.315 100.18 253.093C100.42 253.445 100.743 253.702 101.108 253.83C101.43 253.965 101.726 254.176 101.978 254.449C102.23 254.723 102.434 255.054 102.576 255.423C102.817 256.1 102.955 256.822 102.987 257.556L100.899 257.656C100.899 257.656 101.048 263.372 100.521 263.832C99.9943 264.293 99.7947 264.128 99.7947 264.128C99.7947 264.128 99.3934 265.469 97.8274 264.478C97.8274 264.478 96.5282 264.945 95.9714 264.307C95.4146 263.67 93.3776 257.545 93.3776 257.545L93.4356 260.581C93.4356 260.581 94.5098 262.549 93.9831 263.01C93.4565 263.471 92.4264 263.06 92.4264 263.06Z" fill="#FFBF9D"/>
<path d="M95.0341 255.312C95.0835 255.427 95.1232 255.547 95.1524 255.671L95.4355 256.665C95.6675 257.493 95.9853 258.674 96.324 259.963C96.6628 261.252 96.9458 262.447 97.266 263.231C97.3891 263.547 97.5318 263.851 97.6928 264.142C97.8065 264.349 97.8784 264.454 97.8715 264.462C97.8645 264.47 97.846 264.443 97.8088 264.393C97.7544 264.324 97.7033 264.251 97.6557 264.175C97.4774 263.893 97.3221 263.592 97.1917 263.275C96.846 262.477 96.556 261.293 96.2127 260.007C95.8693 258.721 95.57 257.545 95.3566 256.695C95.2592 256.29 95.1756 255.953 95.1107 255.688C95.0755 255.566 95.0499 255.44 95.0341 255.312Z" fill="#FF9A6C"/>
<path d="M97.6024 254.606C97.6489 254.724 97.6846 254.848 97.7091 254.976L97.9573 256C98.1592 256.864 98.4213 258.061 98.7276 259.386C99.0338 260.711 99.282 261.914 99.463 262.787C99.5488 263.201 99.6184 263.548 99.6741 263.819C99.7053 263.945 99.7255 264.074 99.7344 264.205C99.6905 264.086 99.6548 263.962 99.6277 263.835C99.5628 263.559 99.4816 263.223 99.3818 262.811C99.1776 261.948 98.9039 260.75 98.6116 259.425C98.3192 258.1 98.0571 256.897 97.8738 256.025C97.7903 255.608 97.7184 255.263 97.665 254.99C97.6339 254.864 97.6129 254.736 97.6024 254.606Z" fill="#FF9A6C"/>
<defs>
<radialGradient id="paint0_radial_402_6121" cx="0" cy="0" r="1" gradientUnits="userSpaceOnUse" gradientTransform="translate(86 102.662) rotate(88.803) scale(191.478 188.408)">
<stop stop-color="#01A2BB"/>
<stop offset="1" stop-color="#FEFFFF" stop-opacity="0"/>
</radialGradient>
</defs>
</svg>
