<svg width="173" height="351" viewBox="0 0 173 351" fill="none" xmlns="http://www.w3.org/2000/svg">
<line x1="80.75" y1="-0.000488281" x2="80.75" y2="101.004" stroke="#141414" stroke-width="4"/>
<path d="M73 104C73 102.343 74.3431 101 76 101H84C85.6569 101 87 102.343 87 104V113H73V104Z" fill="#004A6E"/>
<path d="M71.1606 113H88.8394C89.5571 113 90.2198 113.385 90.5758 114.008L94 120H66L69.4242 114.008C69.7802 113.385 70.4429 113 71.1606 113Z" fill="#01A2BB" stroke="#01A2BB"/>
<path d="M173 301L132 156.59L110.5 129.513L80 125L47 132.221L29 156.59L0 301H173Z" fill="url(#paint0_radial_407_6121)"/>
<ellipse cx="80" cy="144.5" rx="52" ry="26.5" fill="#01A2BB"/>
<ellipse cx="80" cy="149.5" rx="52" ry="21.5" fill="#004A6E"/>
<g clip-path="url(#clip0_407_6121)">
<path d="M149.122 242.127H132.032V274.239L149.122 274.855V242.127Z" fill="#E0E0E0"/>
<path d="M147.997 243.269H133.044V272.393L147.997 273.12V243.269Z" fill="#FAFAFA"/>
<path d="M145.379 248.561L135.455 248.017V268.375H145.379V248.561Z" fill="#E0E0E0"/>
<path d="M135.455 268.375L145.379 257.917L135.455 248.017V268.375Z" fill="#EBEBEB"/>
<path d="M37.4255 256.855H16.2485V350.329H37.4255V256.855Z" fill="#EBEBEB"/>
<path d="M54.0975 257.154H37.3604V350.329H54.0975V257.154Z" fill="#F5F5F5"/>
<path d="M35.3492 271.816H17.3853V279.103H35.3492V271.816Z" fill="#E0E0E0"/>
<path d="M18.8916 272.731H17.8848V278.307H18.8916V272.731Z" fill="#F5F5F5"/>
<path d="M20.0761 273.905C20.0761 273.996 20.0574 274.085 20.0222 274.161C19.9871 274.236 19.9371 274.295 19.8787 274.33C19.8203 274.365 19.756 274.374 19.6939 274.357C19.6319 274.339 19.5749 274.295 19.5302 274.23C19.4855 274.166 19.455 274.084 19.4427 273.995C19.4303 273.905 19.4367 273.813 19.4609 273.728C19.4851 273.644 19.5261 273.572 19.5787 273.522C19.6312 273.471 19.6931 273.444 19.7563 273.444C19.8411 273.444 19.9225 273.492 19.9825 273.579C20.0424 273.665 20.0761 273.782 20.0761 273.905Z" fill="#FAFAFA"/>
<path d="M20.0761 275.874C20.0761 275.996 20.0424 276.113 19.9825 276.2C19.9225 276.286 19.8411 276.335 19.7563 276.335C19.6715 276.335 19.5902 276.286 19.5302 276.2C19.4702 276.113 19.4365 275.996 19.4365 275.874C19.4365 275.752 19.4702 275.634 19.5302 275.548C19.5902 275.462 19.6715 275.413 19.7563 275.413C19.8411 275.413 19.9225 275.462 19.9825 275.548C20.0424 275.634 20.0761 275.752 20.0761 275.874Z" fill="#FAFAFA"/>
<path d="M22.3449 273.444H21.3555V277.728H22.3449V273.444Z" fill="#F5F5F5"/>
<path d="M23.7711 273.444H22.7817V277.728H23.7711V273.444Z" fill="#F5F5F5"/>
<path d="M25.2003 273.444H24.2109V277.728H25.2003V273.444Z" fill="#F5F5F5"/>
<path d="M26.6271 273.444H25.6377V277.728H26.6271V273.444Z" fill="#F5F5F5"/>
<path d="M28.0563 273.444H27.0669V277.728H28.0563V273.444Z" fill="#F5F5F5"/>
<path d="M29.483 273.444H28.4937V277.728H29.483V273.444Z" fill="#F5F5F5"/>
<path d="M30.9118 273.444H29.9224V277.728H30.9118V273.444Z" fill="#F5F5F5"/>
<path d="M32.3385 273.444H31.3491V277.728H32.3385V273.444Z" fill="#F5F5F5"/>
<path d="M33.7677 273.444H32.7783V277.728H33.7677V273.444Z" fill="#F5F5F5"/>
<path d="M35.1945 273.444H34.2051V277.728H35.1945V273.444Z" fill="#F5F5F5"/>
<path d="M35.3492 283.488H17.3853V290.774H35.3492V283.488Z" fill="#E0E0E0"/>
<path d="M18.8916 284.402H17.8848V289.979H18.8916V284.402Z" fill="#F5F5F5"/>
<path d="M20.0761 285.576C20.0761 285.698 20.0424 285.815 19.9825 285.901C19.9225 285.988 19.8411 286.036 19.7563 286.036C19.6715 286.036 19.5902 285.988 19.5302 285.901C19.4702 285.815 19.4365 285.698 19.4365 285.576C19.4365 285.453 19.4702 285.336 19.5302 285.25C19.5902 285.163 19.6715 285.115 19.7563 285.115C19.8411 285.115 19.9225 285.163 19.9825 285.25C20.0424 285.336 20.0761 285.453 20.0761 285.576Z" fill="#FAFAFA"/>
<path d="M20.0761 287.549C20.0761 287.64 20.0574 287.729 20.0222 287.805C19.9871 287.88 19.9371 287.94 19.8787 287.974C19.8203 288.009 19.756 288.018 19.6939 288.001C19.6319 287.983 19.5749 287.939 19.5302 287.875C19.4855 287.81 19.455 287.728 19.4427 287.639C19.4303 287.549 19.4367 287.457 19.4609 287.372C19.4851 287.288 19.5261 287.216 19.5787 287.166C19.6312 287.115 19.6931 287.088 19.7563 287.088C19.8411 287.088 19.9225 287.136 19.9825 287.223C20.0424 287.309 20.0761 287.426 20.0761 287.549Z" fill="#FAFAFA"/>
<path d="M22.3444 285.115H21.355V289.399H22.3444V285.115Z" fill="#F5F5F5"/>
<path d="M23.7711 285.115H22.7817V289.399H23.7711V285.115Z" fill="#F5F5F5"/>
<path d="M25.2003 285.115H24.2109V289.399H25.2003V285.115Z" fill="#F5F5F5"/>
<path d="M26.6271 285.115H25.6377V289.399H26.6271V285.115Z" fill="#F5F5F5"/>
<path d="M28.0563 285.115H27.0669V289.399H28.0563V285.115Z" fill="#F5F5F5"/>
<path d="M29.483 285.115H28.4937V289.399H29.483V285.115Z" fill="#F5F5F5"/>
<path d="M30.9122 285.115H29.9229V289.399H30.9122V285.115Z" fill="#F5F5F5"/>
<path d="M32.3385 285.115H31.3491V289.399H32.3385V285.115Z" fill="#F5F5F5"/>
<path d="M33.7677 285.115H32.7783V289.399H33.7677V285.115Z" fill="#F5F5F5"/>
<path d="M35.1945 285.115H34.2051V289.399H35.1945V285.115Z" fill="#F5F5F5"/>
<path d="M35.3492 295.159H17.3853V302.446H35.3492V295.159Z" fill="#E0E0E0"/>
<path d="M18.8916 296.077H17.8848V301.654H18.8916V296.077Z" fill="#F5F5F5"/>
<path d="M20.0761 297.24C20.0761 297.331 20.0574 297.42 20.0222 297.496C19.9871 297.571 19.9371 297.63 19.8787 297.665C19.8203 297.7 19.756 297.709 19.6939 297.692C19.6319 297.674 19.5749 297.63 19.5302 297.565C19.4855 297.501 19.455 297.419 19.4427 297.33C19.4303 297.24 19.4367 297.147 19.4609 297.063C19.4851 296.979 19.5261 296.907 19.5787 296.856C19.6312 296.806 19.6931 296.779 19.7563 296.779C19.8411 296.779 19.9225 296.827 19.9825 296.914C20.0424 297 20.0761 297.117 20.0761 297.24Z" fill="#FAFAFA"/>
<path d="M20.0761 299.22C20.0761 299.311 20.0574 299.4 20.0222 299.476C19.9871 299.552 19.9371 299.611 19.8787 299.646C19.8203 299.681 19.756 299.69 19.6939 299.672C19.6319 299.654 19.5749 299.61 19.5302 299.546C19.4855 299.481 19.455 299.399 19.4427 299.31C19.4303 299.221 19.4367 299.128 19.4609 299.044C19.4851 298.96 19.5261 298.888 19.5787 298.837C19.6312 298.786 19.6931 298.759 19.7563 298.759C19.8411 298.759 19.9225 298.808 19.9825 298.894C20.0424 298.981 20.0761 299.098 20.0761 299.22Z" fill="#FAFAFA"/>
<path d="M22.3449 296.79H21.3555V301.074H22.3449V296.79Z" fill="#F5F5F5"/>
<path d="M23.7711 296.79H22.7817V301.074H23.7711V296.79Z" fill="#F5F5F5"/>
<path d="M25.2003 296.79H24.2109V301.074H25.2003V296.79Z" fill="#F5F5F5"/>
<path d="M26.6271 296.79H25.6377V301.074H26.6271V296.79Z" fill="#F5F5F5"/>
<path d="M28.0563 296.79H27.0669V301.074H28.0563V296.79Z" fill="#F5F5F5"/>
<path d="M29.483 296.79H28.4937V301.074H29.483V296.79Z" fill="#F5F5F5"/>
<path d="M30.9118 296.79H29.9224V301.074H30.9118V296.79Z" fill="#F5F5F5"/>
<path d="M32.3385 296.79H31.3491V301.074H32.3385V296.79Z" fill="#F5F5F5"/>
<path d="M33.7677 296.79H32.7783V301.074H33.7677V296.79Z" fill="#F5F5F5"/>
<path d="M35.1945 296.79H34.2051V301.074H35.1945V296.79Z" fill="#F5F5F5"/>
<path d="M35.3492 306.834H17.3853V314.12H35.3492V306.834Z" fill="#E0E0E0"/>
<path d="M18.8916 307.748H17.8848V313.324H18.8916V307.748Z" fill="#F5F5F5"/>
<path d="M20.0761 308.922C20.0761 309.013 20.0574 309.102 20.0222 309.178C19.9871 309.254 19.9371 309.313 19.8787 309.347C19.8203 309.382 19.756 309.391 19.6939 309.374C19.6319 309.356 19.5749 309.312 19.5302 309.248C19.4855 309.183 19.455 309.101 19.4427 309.012C19.4303 308.922 19.4367 308.83 19.4609 308.745C19.4851 308.661 19.5261 308.589 19.5787 308.539C19.6312 308.488 19.6931 308.461 19.7563 308.461C19.8411 308.461 19.9225 308.509 19.9825 308.596C20.0424 308.682 20.0761 308.8 20.0761 308.922Z" fill="#FAFAFA"/>
<path d="M20.0761 310.891C20.0761 311.013 20.0424 311.13 19.9825 311.217C19.9225 311.303 19.8411 311.352 19.7563 311.352C19.6715 311.352 19.5902 311.303 19.5302 311.217C19.4702 311.13 19.4365 311.013 19.4365 310.891C19.4365 310.769 19.4702 310.652 19.5302 310.565C19.5902 310.479 19.6715 310.43 19.7563 310.43C19.8411 310.43 19.9225 310.479 19.9825 310.565C20.0424 310.652 20.0761 310.769 20.0761 310.891Z" fill="#FAFAFA"/>
<path d="M22.3449 308.461H21.3555V312.745H22.3449V308.461Z" fill="#F5F5F5"/>
<path d="M23.7711 308.461H22.7817V312.745H23.7711V308.461Z" fill="#F5F5F5"/>
<path d="M25.2003 308.461H24.2109V312.745H25.2003V308.461Z" fill="#F5F5F5"/>
<path d="M26.6271 308.461H25.6377V312.745H26.6271V308.461Z" fill="#F5F5F5"/>
<path d="M28.0563 308.461H27.0669V312.745H28.0563V308.461Z" fill="#F5F5F5"/>
<path d="M29.483 308.461H28.4937V312.745H29.483V308.461Z" fill="#F5F5F5"/>
<path d="M30.9118 308.461H29.9224V312.745H30.9118V308.461Z" fill="#F5F5F5"/>
<path d="M32.3385 308.461H31.3491V312.745H32.3385V308.461Z" fill="#F5F5F5"/>
<path d="M33.7677 308.461H32.7783V312.745H33.7677V308.461Z" fill="#F5F5F5"/>
<path d="M35.1945 308.461H34.2051V312.745H35.1945V308.461Z" fill="#F5F5F5"/>
<path d="M35.3492 318.505H17.3853V325.791H35.3492V318.505Z" fill="#E0E0E0"/>
<path d="M18.8916 319.419H17.8848V324.996H18.8916V319.419Z" fill="#F5F5F5"/>
<path d="M20.0761 320.593C20.0761 320.715 20.0424 320.833 19.9825 320.919C19.9225 321.005 19.8411 321.054 19.7563 321.054C19.6715 321.054 19.5902 321.005 19.5302 320.919C19.4702 320.833 19.4365 320.715 19.4365 320.593C19.4365 320.471 19.4702 320.354 19.5302 320.267C19.5902 320.181 19.6715 320.132 19.7563 320.132C19.8411 320.132 19.9225 320.181 19.9825 320.267C20.0424 320.354 20.0761 320.471 20.0761 320.593Z" fill="#FAFAFA"/>
<path d="M20.0761 322.566C20.0761 322.657 20.0574 322.746 20.0222 322.822C19.9871 322.898 19.9371 322.957 19.8787 322.992C19.8203 323.026 19.756 323.036 19.6939 323.018C19.6319 323 19.5749 322.956 19.5302 322.892C19.4855 322.827 19.455 322.745 19.4427 322.656C19.4303 322.566 19.4367 322.474 19.4609 322.389C19.4851 322.305 19.5261 322.233 19.5787 322.183C19.6312 322.132 19.6931 322.105 19.7563 322.105C19.8411 322.105 19.9225 322.154 19.9825 322.24C20.0424 322.326 20.0761 322.444 20.0761 322.566Z" fill="#FAFAFA"/>
<path d="M22.3449 320.132H21.3555V324.416H22.3449V320.132Z" fill="#F5F5F5"/>
<path d="M23.7711 320.132H22.7817V324.416H23.7711V320.132Z" fill="#F5F5F5"/>
<path d="M25.2003 320.132H24.2109V324.416H25.2003V320.132Z" fill="#F5F5F5"/>
<path d="M26.6271 320.132H25.6377V324.416H26.6271V320.132Z" fill="#F5F5F5"/>
<path d="M28.0563 320.132H27.0669V324.416H28.0563V320.132Z" fill="#F5F5F5"/>
<path d="M29.483 320.132H28.4937V324.416H29.483V320.132Z" fill="#F5F5F5"/>
<path d="M30.9118 320.132H29.9224V324.416H30.9118V320.132Z" fill="#F5F5F5"/>
<path d="M32.3385 320.132H31.3491V324.416H32.3385V320.132Z" fill="#F5F5F5"/>
<path d="M33.7677 320.132H32.7783V324.416H33.7677V320.132Z" fill="#F5F5F5"/>
<path d="M35.1945 320.132H34.2051V324.416H35.1945V320.132Z" fill="#F5F5F5"/>
<path d="M35.3492 330.176H17.3853V337.463H35.3492V330.176Z" fill="#E0E0E0"/>
<path d="M18.8916 331.094H17.8848V336.671H18.8916V331.094Z" fill="#F5F5F5"/>
<path d="M20.0761 332.268C20.0751 332.359 20.0555 332.447 20.0198 332.522C19.984 332.597 19.9338 332.655 19.8752 332.688C19.8167 332.722 19.7526 332.73 19.6909 332.712C19.6292 332.693 19.5727 332.649 19.5284 332.584C19.4842 332.519 19.4543 332.437 19.4423 332.348C19.4304 332.259 19.437 332.166 19.4613 332.083C19.4857 331.999 19.5267 331.927 19.5791 331.877C19.6316 331.827 19.6933 331.8 19.7563 331.8C19.7987 331.8 19.8407 331.812 19.8798 331.836C19.919 331.859 19.9544 331.894 19.9842 331.937C20.014 331.981 20.0374 332.033 20.0532 332.089C20.069 332.146 20.0768 332.207 20.0761 332.268Z" fill="#FAFAFA"/>
<path d="M20.0761 334.237C20.0761 334.328 20.0574 334.417 20.0222 334.493C19.9871 334.569 19.9371 334.628 19.8787 334.663C19.8203 334.698 19.756 334.707 19.6939 334.689C19.6319 334.671 19.5749 334.627 19.5302 334.563C19.4855 334.499 19.455 334.416 19.4427 334.327C19.4303 334.238 19.4367 334.145 19.4609 334.061C19.4851 333.977 19.5261 333.905 19.5787 333.854C19.6312 333.803 19.6931 333.776 19.7563 333.776C19.8411 333.776 19.9225 333.825 19.9825 333.911C20.0424 333.998 20.0761 334.115 20.0761 334.237Z" fill="#FAFAFA"/>
<path d="M22.3449 331.807H21.3555V336.091H22.3449V331.807Z" fill="#F5F5F5"/>
<path d="M23.7711 331.807H22.7817V336.091H23.7711V331.807Z" fill="#F5F5F5"/>
<path d="M25.2003 331.807H24.2109V336.091H25.2003V331.807Z" fill="#F5F5F5"/>
<path d="M26.6271 331.807H25.6377V336.091H26.6271V331.807Z" fill="#F5F5F5"/>
<path d="M28.0563 331.807H27.0669V336.091H28.0563V331.807Z" fill="#F5F5F5"/>
<path d="M29.483 331.807H28.4937V336.091H29.483V331.807Z" fill="#F5F5F5"/>
<path d="M30.9118 331.807H29.9224V336.091H30.9118V331.807Z" fill="#F5F5F5"/>
<path d="M32.3385 331.807H31.3491V336.091H32.3385V331.807Z" fill="#F5F5F5"/>
<path d="M33.7677 331.807H32.7783V336.091H33.7677V331.807Z" fill="#F5F5F5"/>
<path d="M35.1945 331.807H34.2051V336.091H35.1945V331.807Z" fill="#F5F5F5"/>
<path d="M35.3492 341.851H17.3853V349.137H35.3492V341.851Z" fill="#E0E0E0"/>
<path d="M18.8916 342.766H17.8848V348.342H18.8916V342.766Z" fill="#F5F5F5"/>
<path d="M20.0761 343.939C20.0761 344.03 20.0574 344.119 20.0222 344.195C19.9871 344.271 19.9371 344.33 19.8787 344.365C19.8203 344.399 19.756 344.409 19.6939 344.391C19.6319 344.373 19.5749 344.329 19.5302 344.265C19.4855 344.2 19.455 344.118 19.4427 344.029C19.4303 343.939 19.4367 343.847 19.4609 343.762C19.4851 343.678 19.5261 343.606 19.5787 343.556C19.6312 343.505 19.6931 343.478 19.7563 343.478C19.8411 343.478 19.9225 343.527 19.9825 343.613C20.0424 343.699 20.0761 343.817 20.0761 343.939Z" fill="#FAFAFA"/>
<path d="M20.0761 345.912C20.0761 346.003 20.0574 346.092 20.0222 346.168C19.9871 346.244 19.9371 346.303 19.8787 346.338C19.8203 346.373 19.756 346.382 19.6939 346.364C19.6319 346.346 19.5749 346.302 19.5302 346.238C19.4855 346.173 19.455 346.091 19.4427 346.002C19.4303 345.912 19.4367 345.82 19.4609 345.736C19.4851 345.651 19.5261 345.579 19.5787 345.529C19.6312 345.478 19.6931 345.451 19.7563 345.451C19.7984 345.451 19.8402 345.462 19.8791 345.485C19.9181 345.508 19.9534 345.542 19.9832 345.585C20.013 345.628 20.0365 345.679 20.0525 345.735C20.0684 345.791 20.0765 345.851 20.0761 345.912Z" fill="#FAFAFA"/>
<path d="M22.3449 343.478H21.3555V347.762H22.3449V343.478Z" fill="#F5F5F5"/>
<path d="M23.7711 343.478H22.7817V347.762H23.7711V343.478Z" fill="#F5F5F5"/>
<path d="M25.2003 343.478H24.2109V347.762H25.2003V343.478Z" fill="#F5F5F5"/>
<path d="M26.6271 343.478H25.6377V347.762H26.6271V343.478Z" fill="#F5F5F5"/>
<path d="M28.0563 343.478H27.0669V347.762H28.0563V343.478Z" fill="#F5F5F5"/>
<path d="M29.483 343.478H28.4937V347.762H29.483V343.478Z" fill="#F5F5F5"/>
<path d="M30.9118 343.478H29.9224V347.762H30.9118V343.478Z" fill="#F5F5F5"/>
<path d="M32.3385 343.478H31.3491V347.762H32.3385V343.478Z" fill="#F5F5F5"/>
<path d="M33.7677 343.478H32.7783V347.762H33.7677V343.478Z" fill="#F5F5F5"/>
<path d="M35.1945 343.478H34.2051V347.762H35.1945V343.478Z" fill="#F5F5F5"/>
<path d="M28.4934 271.817C28.4834 271.742 28.4775 271.666 28.4759 271.59C28.4759 271.442 28.4609 271.23 28.4559 270.942C28.4509 270.654 28.4559 270.319 28.4334 269.919C28.4238 269.472 28.3819 269.026 28.3085 268.591C28.2059 268.076 28.0437 267.589 27.8288 267.151C27.584 266.645 27.2431 266.251 26.8469 266.017C26.3991 265.78 25.9291 265.642 25.4527 265.607L23.9062 265.416C21.785 265.149 19.8612 264.98 18.4695 264.941C17.7725 264.919 17.2203 264.923 16.8181 264.941H16.3683C16.3161 264.95 16.2632 264.95 16.2109 264.941C16.2629 264.926 16.3155 264.918 16.3683 264.915L16.8156 264.876C17.2078 264.851 17.7725 264.825 18.4695 264.829C19.8662 264.829 21.795 264.984 23.9162 265.25L25.4652 265.448C25.9532 265.484 26.4345 265.629 26.8919 265.877C27.307 266.127 27.6629 266.546 27.9162 267.083C28.1362 267.543 28.2994 268.054 28.3984 268.595C28.4675 269.04 28.5035 269.495 28.5059 269.952C28.5059 270.351 28.5059 270.697 28.5059 270.978C28.5059 271.259 28.5059 271.457 28.5059 271.626C28.5062 271.69 28.502 271.754 28.4934 271.817Z" fill="#E0E0E0"/>
<path d="M23.0443 271.817C23.0391 271.746 23.0391 271.675 23.0443 271.604C23.0443 271.442 23.0443 271.244 23.0443 270.992C23.0443 270.74 23.0443 270.406 23.0218 270.035C23.0076 269.617 22.9318 269.208 22.7994 268.836C22.6052 268.418 22.3207 268.104 21.9899 267.943C21.6151 267.732 21.2073 267.672 20.8106 267.77C20.5981 267.82 20.3929 267.921 20.2035 268.069C20.0069 268.214 19.8431 268.436 19.7313 268.71C19.676 268.847 19.6469 269.003 19.6469 269.162C19.6469 269.321 19.676 269.476 19.7313 269.614C19.7877 269.758 19.864 269.883 19.9556 269.983C20.0471 270.083 20.1519 270.154 20.2635 270.193C20.3743 270.229 20.4896 270.224 20.5988 270.179C20.7079 270.133 20.8074 270.049 20.8881 269.934C21.0497 269.706 21.1491 269.402 21.1679 269.077C21.1825 268.761 21.1158 268.449 20.9805 268.199C20.8584 267.947 20.6966 267.741 20.5083 267.598C20.3176 267.466 20.1119 267.386 19.9012 267.36C19.6988 267.317 19.5015 267.281 19.3116 267.248C18.9293 267.187 18.562 267.151 18.2447 267.13C17.5901 267.094 17.0605 267.108 16.6932 267.104H16.2709C16.222 267.113 16.1725 267.113 16.1235 267.104C16.171 267.088 16.2196 267.079 16.2684 267.079L16.6907 267.047C17.058 267.025 17.5901 266.993 18.2472 267.014C18.577 267.014 18.9368 267.054 19.3216 267.108C19.5164 267.137 19.7138 267.173 19.9187 267.212C20.0211 267.238 20.1236 267.256 20.231 267.284C20.3416 267.314 20.4486 267.368 20.5483 267.443C20.7542 267.593 20.9324 267.811 21.068 268.08C21.2199 268.363 21.2953 268.716 21.2804 269.074C21.262 269.446 21.1479 269.795 20.9606 270.053C20.8638 270.191 20.7444 270.292 20.6134 270.346C20.4823 270.4 20.3439 270.406 20.211 270.362C20.0842 270.317 19.965 270.236 19.8603 270.124C19.7556 270.011 19.6676 269.87 19.6014 269.707C19.5373 269.542 19.5036 269.356 19.5036 269.167C19.5036 268.978 19.5373 268.792 19.6014 268.627C19.7238 268.319 19.9062 268.068 20.1261 267.907C20.3285 267.753 20.5471 267.649 20.7732 267.598C21.1943 267.495 21.6268 267.564 22.0224 267.796C22.3734 267.973 22.6728 268.315 22.8719 268.768C23.0063 269.159 23.0796 269.588 23.0867 270.024C23.0867 270.402 23.0867 270.744 23.0867 270.992C23.0867 271.241 23.0867 271.439 23.0693 271.601C23.0674 271.674 23.059 271.747 23.0443 271.817Z" fill="#E0E0E0"/>
<path d="M29.9602 271.817C29.9433 271.738 29.9308 271.657 29.9227 271.575C29.9027 271.417 29.8728 271.183 29.8278 270.884C29.7053 270.038 29.5271 269.211 29.2956 268.415C28.9699 267.227 28.431 266.186 27.7341 265.398C27.313 264.96 26.8192 264.689 26.3025 264.613C25.7441 264.525 25.1827 264.482 24.621 264.483C22.2974 264.422 20.1937 264.433 18.6722 264.347C17.9226 264.307 17.2955 264.253 16.8708 264.21L16.3711 264.149C16.3138 264.144 16.2569 264.132 16.2012 264.113C16.2586 264.106 16.3162 264.106 16.3736 264.113L16.8733 264.141C17.298 264.163 17.9126 264.195 18.6746 264.217C20.1962 264.271 22.2974 264.235 24.6235 264.3C25.1912 264.297 25.7585 264.343 26.3224 264.437C26.8594 264.518 27.3716 264.804 27.8065 265.265C28.193 265.688 28.5303 266.197 28.8059 266.773C29.0382 267.274 29.2341 267.809 29.3905 268.368C29.6184 269.18 29.7859 270.025 29.8902 270.888C29.9277 271.19 29.9502 271.424 29.9627 271.586C29.9667 271.663 29.9658 271.74 29.9602 271.817Z" fill="#E0E0E0"/>
<path d="M35.1021 258.018H17.6328V261.672H35.1021V258.018Z" fill="#E0E0E0"/>
<path d="M30.9843 259.843H21.4727V261.672H30.9843V259.843Z" fill="#F5F5F5"/>
<path d="M168.859 350.041H168.454H167.263L162.686 350.084L145.851 350.203L90.3076 350.477C68.6109 350.542 48.973 350.552 34.7568 350.477C27.6487 350.444 21.8972 350.39 17.9221 350.318C15.9234 350.279 14.3918 350.236 13.345 350.189C12.2981 350.142 11.7484 350.074 11.7559 350.03C11.7887 350.043 11.8221 350.051 11.8559 350.056C11.9233 350.056 12.0233 350.081 12.1582 350.092C12.4255 350.113 12.8228 350.131 13.3475 350.149C14.3918 350.185 15.9359 350.218 17.9221 350.243C21.8972 350.297 27.6487 350.329 34.7568 350.344C48.973 350.376 68.6109 350.344 90.3076 350.279L145.851 350.084L162.686 350.027H167.263H168.454C168.722 350.034 168.859 350.041 168.859 350.041Z" fill="#263238"/>
<path d="M131.817 269.589C131.725 269.158 131.524 268.793 131.254 268.565C130.984 268.338 130.664 268.265 130.358 268.361C130.14 268.494 129.909 268.577 129.674 268.609C129.469 268.559 129.272 268.458 129.092 268.311C128.638 268.065 128.137 268.083 127.693 268.362C127.249 268.641 126.899 269.159 126.715 269.805C126.422 269.569 126.087 269.464 125.752 269.502C125.417 269.54 125.097 269.721 124.833 270.02C124.569 270.319 124.372 270.724 124.268 271.184C124.163 271.644 124.155 272.139 124.245 272.605C123.928 272.693 123.64 272.925 123.422 273.267C123.204 273.609 123.069 274.043 123.036 274.505C123.003 274.967 123.074 275.431 123.238 275.83C123.403 276.229 123.652 276.541 123.95 276.72C123.816 277.065 123.743 277.452 123.737 277.847C123.731 278.242 123.792 278.634 123.916 278.987C124.039 279.34 124.22 279.644 124.444 279.873C124.668 280.101 124.927 280.248 125.199 280.299C125.155 280.725 125.2 281.16 125.326 281.55C125.452 281.94 125.655 282.268 125.909 282.494C126.164 282.72 126.458 282.834 126.757 282.821C127.056 282.808 127.345 282.67 127.59 282.423C127.659 282.835 127.809 283.21 128.023 283.501C128.236 283.793 128.504 283.989 128.794 284.065C129.083 284.141 129.382 284.095 129.654 283.931C129.925 283.767 130.158 283.493 130.323 283.143C130.84 283.902 131.78 283.791 132.322 283.071C132.864 282.351 133.049 281.195 132.967 280.14C133.286 280.28 133.629 280.269 133.944 280.111C134.26 279.952 134.532 279.654 134.722 279.258C134.912 278.862 135.011 278.39 135.003 277.909C134.995 277.427 134.881 276.962 134.678 276.58C134.95 276.539 135.207 276.385 135.418 276.135C135.629 275.885 135.784 275.552 135.865 275.176C135.939 274.797 135.95 274.398 135.898 274.012C135.846 273.626 135.732 273.262 135.565 272.951C135.223 272.331 134.74 271.906 134.201 271.749C134.158 271.393 134.064 271.055 133.924 270.755C133.785 270.456 133.603 270.202 133.391 270.009C133.179 269.817 132.941 269.692 132.694 269.64C132.446 269.589 132.193 269.613 131.952 269.711" fill="#263238"/>
<path d="M129.813 320.554L129.196 349.008H128.257L128.439 320.629L129.813 320.554Z" fill="#455A64"/>
<path d="M133.207 320.212L137.844 350.243L138.851 350.175L135.02 320.212H133.207Z" fill="#455A64"/>
<path d="M124.639 320.554L119.235 350.243L118.043 350.175L123.125 320.428L124.639 320.554Z" fill="#455A64"/>
<path d="M137.791 291.12C137.791 291.12 142.838 290.706 142.333 299.119C141.829 307.533 141.539 316.039 139.665 318.959C137.791 321.879 118.905 321.969 117.319 319.582C115.732 317.195 120.347 317.296 121.211 317.296C122.076 317.296 127.41 318.016 129.141 311.478C130.873 304.941 130.438 290.695 137.791 291.12Z" fill="#455A64"/>
<path d="M138.113 291.12C138.113 291.12 141.971 292.258 141.611 298.075C141.251 303.893 140.242 314.07 138.363 316.669C136.484 319.269 129.144 319.83 125.171 319.474C120.557 319.056 117.643 317.793 117.643 317.793C117.643 317.793 116.801 318.574 117.059 319.074C117.316 319.575 119.557 321.594 130.468 321.263C141.379 320.932 140.614 318.606 141.066 316.075C141.519 313.545 142.468 300.041 142.336 297.071C142.203 294.101 141.171 291.635 138.113 291.12Z" fill="#455A64"/>
<path d="M114.88 348.439L114.868 345.12L119.17 345.044L119.225 349.886L118.958 349.915C117.774 350.03 112.919 350.383 112.122 350.052C111.235 349.688 114.88 348.439 114.88 348.439Z" fill="#01A2BB"/>
<g opacity="0.4">
<path d="M117.666 349.876C117.725 349.352 117.917 348.877 118.203 348.544C118.484 348.213 118.841 348.046 119.203 348.076L119.218 349.807L117.666 349.876Z" fill="black"/>
</g>
<path opacity="0.4" d="M113.099 349.141C113.099 349.141 111.822 349.696 111.984 349.998C112.147 350.3 117.061 350.21 119.23 349.897V349.757L113.499 349.933C113.499 349.933 113.351 349.152 113.099 349.141Z" fill="black"/>
<path d="M119.29 349.753H119.215L119.003 349.775L118.223 349.836C117.561 349.883 116.649 349.93 115.64 349.951C114.63 349.973 113.718 349.951 113.056 349.951L112.274 349.919H112.062H111.987H112.274H113.059C113.718 349.919 114.63 349.919 115.64 349.919C116.649 349.919 117.561 349.861 118.22 349.829L119.003 349.789H119.215L119.29 349.753Z" fill="#263238"/>
<path d="M113.489 350.03C113.453 349.844 113.403 349.664 113.339 349.494C113.259 349.343 113.169 349.204 113.069 349.08C113.199 349.159 113.309 349.293 113.384 349.465C113.459 349.637 113.496 349.838 113.489 350.041V350.03Z" fill="#263238"/>
<path d="M114.75 349.08C114.738 349.08 114.678 348.986 114.613 348.842C114.567 348.762 114.534 348.667 114.518 348.565C114.531 348.565 114.593 348.662 114.658 348.803C114.723 348.943 114.763 349.08 114.75 349.08Z" fill="#263238"/>
<path d="M115.098 348.806C115.098 348.806 115.018 348.76 114.943 348.662C114.868 348.565 114.815 348.479 114.825 348.464C114.835 348.45 114.903 348.511 114.978 348.608C115.053 348.706 115.105 348.792 115.098 348.806Z" fill="#263238"/>
<path d="M115.313 348.216C115.241 348.257 115.164 348.273 115.088 348.263C115.012 348.278 114.935 348.268 114.863 348.234C114.934 348.193 115.011 348.177 115.088 348.187C115.163 348.175 115.24 348.185 115.313 348.216Z" fill="#263238"/>
<path d="M115.385 347.802C115.312 347.877 115.225 347.916 115.135 347.914C115.05 347.935 114.963 347.919 114.885 347.867C114.968 347.847 115.051 347.837 115.135 347.838C115.218 347.817 115.301 347.804 115.385 347.802Z" fill="#263238"/>
<path d="M114.6 348.54C114.508 348.562 114.415 348.562 114.323 348.54C114.223 348.524 114.124 348.494 114.028 348.45C113.969 348.429 113.911 348.396 113.858 348.353C113.825 348.326 113.8 348.283 113.788 348.231C113.784 348.201 113.786 348.171 113.794 348.142C113.801 348.114 113.814 348.09 113.831 348.072C113.935 347.994 114.055 347.972 114.17 348.008C114.284 348.045 114.386 348.139 114.458 348.274C114.502 348.352 114.534 348.443 114.55 348.54C114.556 348.575 114.556 348.61 114.55 348.645C114.52 348.523 114.476 348.41 114.42 348.31C114.358 348.205 114.275 348.129 114.183 348.09C114.129 348.065 114.072 348.056 114.015 348.063C113.959 348.069 113.904 348.092 113.853 348.13C113.808 348.177 113.828 348.252 113.876 348.292C113.925 348.332 113.978 348.363 114.033 348.385C114.126 348.43 114.221 348.464 114.318 348.486C114.495 348.529 114.6 348.529 114.6 348.54Z" fill="#263238"/>
<path d="M114.528 348.562C114.495 348.478 114.483 348.38 114.495 348.285C114.502 348.18 114.527 348.08 114.568 347.993C114.591 347.933 114.623 347.883 114.663 347.847C114.703 347.81 114.748 347.789 114.795 347.784C114.824 347.792 114.849 347.816 114.865 347.85C114.882 347.884 114.888 347.927 114.883 347.968C114.877 348.032 114.862 348.093 114.838 348.148C114.802 348.236 114.758 348.317 114.708 348.389C114.667 348.462 114.613 348.519 114.553 348.555C114.553 348.555 114.605 348.483 114.68 348.357C114.724 348.282 114.763 348.201 114.795 348.115C114.833 348.029 114.858 347.878 114.795 347.86C114.733 347.842 114.655 347.953 114.615 348.033C114.576 348.109 114.549 348.198 114.538 348.292C114.529 348.381 114.526 348.472 114.528 348.562Z" fill="#263238"/>
<path d="M119.182 348.058C119.182 348.058 119.057 348.058 118.865 348.079C118.613 348.128 118.374 348.275 118.176 348.504C117.979 348.74 117.831 349.048 117.748 349.397C117.686 349.663 117.681 349.84 117.671 349.84C117.666 349.798 117.666 349.756 117.671 349.714C117.676 349.6 117.691 349.488 117.713 349.379C117.787 349.013 117.936 348.688 118.141 348.447C118.346 348.206 118.597 348.06 118.86 348.029C118.943 348.014 119.027 348.014 119.11 348.029C119.135 348.034 119.159 348.044 119.182 348.058Z" fill="#263238"/>
<path d="M118.713 345.48C118.764 346.326 118.779 347.176 118.758 348.025C118.709 347.179 118.694 346.329 118.713 345.48Z" fill="#263238"/>
<path d="M117.119 349.282C116.707 349.401 116.284 349.415 115.87 349.322C115.87 349.3 116.152 349.322 116.499 349.322C116.847 349.322 117.116 349.26 117.119 349.282Z" fill="#263238"/>
<path d="M117.961 349.264C117.961 349.264 117.938 349.35 117.911 349.444C117.884 349.537 117.869 349.62 117.854 349.62C117.839 349.62 117.831 349.519 117.854 349.415C117.876 349.311 117.951 349.249 117.961 349.264Z" fill="#263238"/>
<path d="M118.273 348.688C118.285 348.688 118.258 348.767 118.213 348.832C118.168 348.897 118.125 348.94 118.115 348.925C118.105 348.911 118.13 348.846 118.175 348.781C118.22 348.717 118.263 348.673 118.273 348.688Z" fill="#263238"/>
<path d="M118.728 348.418C118.728 348.439 118.666 348.439 118.603 348.475C118.541 348.511 118.496 348.558 118.486 348.544C118.476 348.529 118.508 348.443 118.586 348.403C118.663 348.364 118.73 348.4 118.728 348.418Z" fill="#263238"/>
<path d="M119.04 348.292C119.04 348.31 119.02 348.342 118.985 348.364C118.95 348.385 118.915 348.385 118.91 348.364C118.905 348.342 118.93 348.313 118.965 348.292C119 348.27 119.04 348.27 119.04 348.292Z" fill="#263238"/>
<path d="M124.659 348.439L124.644 345.131L128.949 345.055L129.004 349.897L128.737 349.926C127.55 350.041 122.698 350.394 121.901 350.063C121.012 349.688 124.659 348.439 124.659 348.439Z" fill="#01A2BB"/>
<g opacity="0.4">
<path d="M127.442 349.876C127.502 349.352 127.693 348.877 127.98 348.544C128.26 348.213 128.617 348.046 128.979 348.076L128.996 349.807L127.442 349.876Z" fill="black"/>
</g>
<path opacity="0.4" d="M122.878 349.141C122.878 349.141 121.601 349.696 121.763 349.998C121.926 350.3 126.838 350.21 129.009 349.897V349.757L123.28 349.933C123.28 349.933 123.127 349.152 122.878 349.141Z" fill="black"/>
<path d="M129.062 349.753H128.989L128.784 349.8L128.002 349.861C127.343 349.908 126.428 349.955 125.421 349.977C124.414 349.998 123.497 349.977 122.838 349.977L122.056 349.944H121.841H121.769H122.038H122.82C123.48 349.944 124.394 349.944 125.401 349.944C126.408 349.944 127.323 349.887 127.982 349.854L128.764 349.815H128.979L129.062 349.753Z" fill="#263238"/>
<path d="M123.267 350.031C123.231 349.844 123.18 349.664 123.115 349.494C123.037 349.338 122.946 349.195 122.845 349.069C122.98 349.137 123.092 349.274 123.16 349.455C123.243 349.622 123.281 349.826 123.267 350.031Z" fill="#263238"/>
<path d="M124.537 349.08C124.524 349.08 124.462 348.986 124.397 348.842C124.332 348.698 124.292 348.58 124.305 348.565C124.317 348.551 124.377 348.662 124.442 348.803C124.488 348.884 124.52 348.978 124.537 349.08Z" fill="#263238"/>
<path d="M124.874 348.806C124.874 348.806 124.797 348.76 124.722 348.662C124.647 348.565 124.594 348.479 124.602 348.464C124.609 348.45 124.682 348.511 124.757 348.608C124.832 348.706 124.884 348.792 124.874 348.806Z" fill="#263238"/>
<path d="M125.089 348.216C125.018 348.257 124.942 348.273 124.867 348.263C124.79 348.278 124.713 348.268 124.639 348.234C124.71 348.193 124.788 348.177 124.864 348.187C124.94 348.174 125.016 348.184 125.089 348.216Z" fill="#263238"/>
<path d="M125.161 347.802C125.088 347.877 125.001 347.916 124.911 347.914C124.827 347.935 124.74 347.918 124.662 347.867C124.744 347.847 124.828 347.837 124.911 347.838C124.994 347.817 125.077 347.805 125.161 347.802Z" fill="#263238"/>
<path d="M124.377 348.54C124.286 348.562 124.193 348.562 124.102 348.54C124.001 348.524 123.901 348.494 123.805 348.45C123.746 348.429 123.69 348.396 123.637 348.353C123.62 348.34 123.606 348.323 123.594 348.302C123.582 348.281 123.573 348.257 123.567 348.231C123.563 348.201 123.564 348.171 123.571 348.143C123.578 348.115 123.591 348.09 123.607 348.072C123.675 348.02 123.749 347.991 123.826 347.987C123.902 347.983 123.978 348.005 124.048 348.05C124.118 348.095 124.179 348.163 124.228 348.248C124.277 348.333 124.312 348.433 124.329 348.54C124.334 348.575 124.334 348.61 124.329 348.645C124.299 348.523 124.255 348.41 124.199 348.31C124.137 348.204 124.054 348.128 123.962 348.09C123.908 348.065 123.851 348.056 123.794 348.063C123.738 348.069 123.683 348.092 123.632 348.13C123.59 348.177 123.607 348.252 123.657 348.292C123.706 348.332 123.758 348.363 123.812 348.385C123.906 348.431 124.002 348.465 124.099 348.486C124.272 348.529 124.377 348.529 124.377 348.54Z" fill="#263238"/>
<path d="M124.307 348.562C124.288 348.521 124.276 348.476 124.27 348.428C124.264 348.381 124.264 348.332 124.272 348.285C124.279 348.18 124.304 348.08 124.344 347.993C124.367 347.933 124.4 347.882 124.44 347.846C124.481 347.809 124.527 347.788 124.574 347.784C124.602 347.793 124.627 347.817 124.642 347.851C124.658 347.885 124.664 347.927 124.659 347.968C124.654 348.032 124.639 348.094 124.614 348.148C124.579 348.236 124.536 348.317 124.487 348.389C124.444 348.462 124.39 348.519 124.329 348.555C124.329 348.555 124.384 348.483 124.459 348.357C124.502 348.282 124.54 348.201 124.572 348.115C124.609 348.029 124.634 347.878 124.572 347.86C124.509 347.842 124.434 347.953 124.392 348.033C124.354 348.11 124.328 348.199 124.317 348.292C124.307 348.381 124.303 348.472 124.307 348.562Z" fill="#263238"/>
<path d="M128.959 348.058C128.959 348.058 128.837 348.058 128.642 348.079C128.39 348.128 128.151 348.275 127.952 348.504C127.756 348.74 127.609 349.049 127.528 349.397C127.463 349.663 127.458 349.84 127.448 349.84C127.443 349.798 127.443 349.755 127.448 349.714C127.453 349.6 127.468 349.488 127.493 349.379C127.567 349.014 127.716 348.689 127.92 348.447C128.126 348.208 128.376 348.063 128.639 348.029C128.717 348.016 128.796 348.016 128.874 348.029C128.903 348.033 128.932 348.043 128.959 348.058Z" fill="#263238"/>
<path d="M128.492 345.48C128.54 346.326 128.555 347.176 128.537 348.025C128.485 347.179 128.47 346.329 128.492 345.48Z" fill="#263238"/>
<path d="M126.895 349.282C126.484 349.402 126.061 349.415 125.646 349.322C125.646 349.3 125.928 349.322 126.276 349.322C126.623 349.322 126.893 349.26 126.895 349.282Z" fill="#263238"/>
<path d="M127.74 349.264C127.74 349.264 127.718 349.35 127.69 349.444C127.663 349.537 127.645 349.62 127.633 349.62C127.62 349.62 127.608 349.519 127.633 349.415C127.658 349.311 127.73 349.249 127.74 349.264Z" fill="#263238"/>
<path d="M128.052 348.688C128.052 348.688 128.035 348.767 127.992 348.832C127.95 348.897 127.902 348.94 127.892 348.925C127.882 348.911 127.91 348.846 127.952 348.781C127.995 348.717 128.035 348.673 128.052 348.688Z" fill="#263238"/>
<path d="M128.504 348.418C128.504 348.439 128.444 348.439 128.382 348.475C128.319 348.511 128.274 348.558 128.262 348.544C128.249 348.529 128.284 348.443 128.364 348.403C128.444 348.364 128.509 348.4 128.504 348.418Z" fill="#263238"/>
<path d="M128.827 348.292C128.827 348.31 128.807 348.342 128.772 348.364C128.737 348.385 128.704 348.385 128.699 348.364C128.694 348.342 128.717 348.313 128.752 348.292C128.787 348.27 128.822 348.27 128.827 348.292Z" fill="#263238"/>
<path d="M116.329 280.345C116.029 284.665 115.237 297.769 119.392 297.312C124.297 296.776 125.426 291.192 125.426 291.192L124.472 286.152C124.472 286.152 119.632 292.232 119.507 291.48C118.828 287.466 119.008 281.962 119.117 280" fill="#FFBE9D"/>
<path d="M138.028 295.8L137.189 289.738C136.572 284.773 131.742 284.431 131.742 284.431L127.952 284.341C127.952 284.341 125.426 284.226 123.407 286.616C121.389 289.007 120.04 290.836 120.04 290.836L123.213 296.12L125.089 294.32C125.089 294.32 124.414 296.077 124.527 297.56C124.632 299 125.681 300.106 125.681 300.106L125.931 309.394L137.174 309.57L135.667 295.8H138.028Z" fill="#01A2BB"/>
<path d="M132.734 289.363C132.765 289.488 132.787 289.617 132.799 289.748L132.947 290.828C133.072 291.772 133.237 292.988 133.419 294.338C133.601 295.688 133.754 296.959 133.854 297.863C133.904 298.316 133.939 298.684 133.959 298.943C133.975 299.075 133.981 299.209 133.976 299.342C133.942 299.217 133.92 299.087 133.909 298.954L133.764 297.892C133.636 296.948 133.471 295.732 133.291 294.378C133.112 293.024 132.954 291.761 132.854 290.854C132.807 290.4 132.769 290.033 132.749 289.774C132.732 289.638 132.727 289.5 132.734 289.363Z" fill="#263238"/>
<path d="M138.108 295.858C137.348 295.958 136.585 295.994 135.822 295.966C135.059 295.998 134.295 295.971 133.534 295.883C134.294 295.783 135.057 295.747 135.82 295.775C136.583 295.742 137.347 295.77 138.108 295.858Z" fill="#263238"/>
<path d="M123.205 296.121C122.648 295.285 122.123 294.408 121.631 293.493C121.106 292.617 120.614 291.701 120.157 290.75C120.714 291.583 121.239 292.459 121.731 293.374C122.256 294.251 122.748 295.168 123.205 296.121Z" fill="#263238"/>
<path d="M124.537 295.897C124.591 295.646 124.665 295.405 124.756 295.177L125.024 294.407C125.16 294.135 125.227 293.802 125.211 293.467C125.119 292.747 125.031 292.063 124.979 291.581C124.936 291.32 124.915 291.053 124.916 290.785C124.988 291.033 125.039 291.291 125.069 291.556C125.144 292.038 125.246 292.693 125.341 293.442C125.367 293.638 125.351 293.84 125.294 294.022C125.246 294.181 125.191 294.336 125.131 294.486L124.836 295.242C124.755 295.477 124.654 295.697 124.537 295.897Z" fill="#263238"/>
<path opacity="0.2" d="M125.898 308.217L125.736 304.761H136.572L136.984 307.76L125.898 308.217Z" fill="black"/>
<path opacity="0.2" d="M132.837 289.911C132.887 292.025 132.935 294.138 132.982 296.25C133.039 296.93 132.972 297.62 132.789 298.252C132.412 299.285 131.52 299.623 130.728 299.857L125.898 301.297L134.845 300.667L132.837 289.911Z" fill="black"/>
<path d="M138.546 300.66C138.296 297.748 138.031 295.869 138.031 295.869L133.629 295.966C133.629 295.966 134.024 299.17 133.904 300.027C133.796 300.772 125.304 301.265 123.093 301.315C122.96 301.175 122.768 301.413 122.593 301.2C122.443 301.009 122.316 300.783 122.218 300.531C122.086 300.222 121.983 299.889 121.913 299.541C121.91 299.471 121.891 299.405 121.86 299.353C121.828 299.3 121.786 299.263 121.739 299.248C121.692 299.233 121.643 299.24 121.598 299.268C121.554 299.296 121.518 299.343 121.494 299.404C121.406 299.677 121.506 300.585 121.926 301.463C122.346 302.341 121.244 301.884 120.842 301.729C120.439 301.575 119.173 301.179 119.043 301.326C118.85 301.539 118.97 301.881 119.378 302.025C119.785 302.169 120.979 302.716 120.914 303.025C120.849 303.335 118.8 302.5 118.8 302.5C118.8 302.5 118.383 302.215 118.301 302.572C118.151 303.213 120.369 303.864 120.584 303.918C120.732 303.954 120.667 304.296 120.512 304.246C120.357 304.195 118.481 303.342 118.323 303.994C118.201 304.494 120.147 304.552 120.469 305.049C120.792 305.545 118.998 304.779 118.893 305.265C118.855 305.445 119.602 305.527 120.674 305.747C121.776 305.899 122.883 305.955 123.99 305.916C126.488 306.111 135.27 306.373 137.147 306.183C139.338 305.959 138.631 301.661 138.546 300.66Z" fill="#FFBE9D"/>
<path d="M138.486 292.521H138.551C138.596 292.521 138.661 292.549 138.743 292.582C138.985 292.693 139.216 292.848 139.43 293.043C139.768 293.35 140.085 293.704 140.375 294.101C140.545 294.331 140.719 294.587 140.894 294.875C141.081 295.176 141.249 295.501 141.394 295.847C141.434 295.943 141.468 296.044 141.494 296.149C141.511 296.254 141.529 296.362 141.549 296.47C141.584 296.686 141.626 296.902 141.659 297.129C141.719 297.582 141.781 298.054 141.821 298.551C141.911 299.602 141.94 300.663 141.909 301.722C141.812 304.145 141.529 306.545 141.067 308.879C140.858 310.103 140.593 311.305 140.275 312.479C139.969 313.571 139.56 314.597 139.06 315.528C138.828 315.963 138.565 316.363 138.276 316.72C137.991 317.039 137.682 317.309 137.354 317.526C136.765 317.892 136.156 318.187 135.533 318.408C134.396 318.826 133.466 319.085 132.827 319.283L132.077 319.506L131.885 319.56H131.817L131.882 319.528L132.07 319.456C132.237 319.394 132.484 319.304 132.804 319.196C133.439 318.977 134.368 318.7 135.498 318.268C136.113 318.038 136.714 317.738 137.297 317.371C137.614 317.155 137.914 316.89 138.191 316.579C138.473 316.226 138.729 315.833 138.955 315.406C139.444 314.484 139.844 313.472 140.145 312.396C140.46 311.233 140.721 310.041 140.927 308.829C141.388 306.508 141.673 304.121 141.776 301.711C141.81 300.661 141.785 299.609 141.701 298.565C141.664 298.075 141.606 297.604 141.546 297.154C141.516 296.931 141.476 296.715 141.441 296.499L141.389 296.182C141.368 296.086 141.338 295.994 141.302 295.908C141.155 295.568 140.988 295.248 140.802 294.951C140.632 294.663 140.46 294.403 140.302 294.173C140.018 293.773 139.71 293.412 139.38 293.093C139.172 292.894 138.948 292.731 138.713 292.607C138.636 292.584 138.56 292.555 138.486 292.521Z" fill="#263238"/>
<path d="M118.953 281.04C118.953 281.04 119.02 280.576 119.133 279.24L120.165 276.335C120.165 276.335 119.935 275.727 119.415 277.016C119.362 277.191 119.262 277.328 119.139 277.398C119.015 277.467 118.877 277.463 118.755 277.386C118.634 277.309 118.538 277.166 118.49 276.988C118.442 276.81 118.445 276.611 118.498 276.436C118.531 276.21 118.609 276.004 118.723 275.841C118.836 275.679 118.98 275.568 119.137 275.522C119.293 275.476 119.456 275.497 119.604 275.583C119.753 275.669 119.881 275.815 119.972 276.004C119.972 276.004 120.302 276.051 120.339 275.683C120.377 275.316 119.632 274.395 119 274.661C118.742 274.779 118.503 274.974 118.301 275.233C118.301 275.233 118.438 272.177 118.266 272.148C118.093 272.12 117.853 272.31 117.724 275.658C117.724 275.658 117.651 273.016 117.616 272.678C117.581 272.339 117.264 272.112 117.224 272.958C117.224 273.056 117.104 275.651 117.104 275.651C117.104 275.651 116.899 273.934 116.877 273.797C116.817 273.437 116.569 273.473 116.547 273.952C116.527 274.312 116.447 275.871 116.447 275.871L116.292 280.659H116.272" fill="#FFBE9D"/>
<path d="M127.632 285.929C127.607 284.367 127.565 282.732 127.565 282.732C127.565 282.732 125.966 282.444 125.896 280.09C125.826 277.735 125.991 272.317 125.991 272.317L128.934 270.28L131.505 274.503L131.542 285.85C131.544 286.221 131.494 286.589 131.396 286.933C131.298 287.277 131.155 287.589 130.973 287.852C130.791 288.116 130.575 288.324 130.337 288.467C130.099 288.61 129.844 288.683 129.586 288.683C129.075 288.683 128.584 288.395 128.219 287.88C127.854 287.365 127.643 286.665 127.632 285.929Z" fill="#FFBE9D"/>
<path d="M126.403 276.277C126.403 276.335 126.415 276.392 126.438 276.441C126.46 276.489 126.492 276.527 126.529 276.55C126.567 276.572 126.608 276.578 126.647 276.567C126.687 276.556 126.723 276.528 126.752 276.487C126.781 276.446 126.801 276.394 126.809 276.337C126.817 276.28 126.813 276.221 126.798 276.167C126.783 276.113 126.757 276.066 126.724 276.033C126.69 276.001 126.651 275.983 126.611 275.982C126.556 275.982 126.504 276.013 126.465 276.068C126.426 276.123 126.404 276.199 126.403 276.277Z" fill="#263238"/>
<path d="M126.068 275.946C126.093 275.986 126.246 275.798 126.465 275.788C126.685 275.777 126.848 275.935 126.87 275.892C126.893 275.849 126.855 275.802 126.785 275.726C126.69 275.631 126.576 275.583 126.461 275.59C126.344 275.597 126.232 275.66 126.143 275.77C126.078 275.852 126.056 275.928 126.068 275.946Z" fill="#263238"/>
<path d="M128.784 276.277C128.784 276.335 128.796 276.392 128.819 276.441C128.841 276.489 128.873 276.527 128.91 276.55C128.947 276.572 128.988 276.578 129.028 276.567C129.068 276.556 129.104 276.528 129.133 276.487C129.162 276.446 129.181 276.394 129.19 276.337C129.198 276.28 129.194 276.221 129.179 276.167C129.164 276.113 129.138 276.066 129.105 276.033C129.071 276.001 129.032 275.983 128.992 275.982C128.937 275.982 128.885 276.013 128.846 276.068C128.807 276.123 128.785 276.199 128.784 276.277Z" fill="#263238"/>
<path d="M128.497 276C128.522 276.036 128.674 275.853 128.894 275.842C129.114 275.831 129.276 275.989 129.299 275.946C129.321 275.903 129.284 275.856 129.214 275.781C129.119 275.685 129.005 275.637 128.889 275.644C128.773 275.651 128.662 275.713 128.572 275.82C128.507 275.914 128.484 276 128.497 276Z" fill="#263238"/>
<path d="M127.672 278.722C127.556 278.673 127.436 278.647 127.315 278.642C127.26 278.642 127.208 278.624 127.195 278.563C127.191 278.475 127.203 278.387 127.23 278.308C127.283 278.095 127.335 277.872 127.39 277.638C127.538 277.071 127.656 276.488 127.742 275.896C127.566 276.445 127.418 277.013 127.3 277.595C127.248 277.829 127.198 278.052 127.148 278.264C127.111 278.377 127.102 278.504 127.123 278.624C127.131 278.653 127.144 278.679 127.16 278.7C127.177 278.721 127.197 278.735 127.218 278.743C127.249 278.755 127.281 278.762 127.313 278.761C127.433 278.77 127.554 278.757 127.672 278.722Z" fill="#263238"/>
<path d="M127.565 282.732C128.324 282.705 129.06 282.358 129.684 281.735C129.684 281.735 129.184 283.448 127.592 283.312L127.565 282.732Z" fill="#EB996E"/>
<path d="M127.752 279.55C127.766 279.451 127.795 279.359 127.839 279.28C127.882 279.202 127.938 279.14 128.002 279.1C128.047 279.07 128.095 279.055 128.145 279.055C128.194 279.055 128.242 279.07 128.287 279.1C128.331 279.134 128.367 279.187 128.391 279.251C128.414 279.315 128.423 279.388 128.417 279.46C128.404 279.537 128.376 279.607 128.335 279.661C128.295 279.715 128.244 279.75 128.19 279.762C128.081 279.787 127.97 279.777 127.865 279.733C127.835 279.726 127.806 279.71 127.78 279.687C127.767 279.675 127.757 279.659 127.75 279.639C127.744 279.619 127.742 279.597 127.745 279.575" fill="#EB996E"/>
<path d="M128.284 278.708C128.302 278.708 128.329 278.794 128.322 278.949C128.31 279.153 128.246 279.344 128.142 279.485C128.038 279.626 127.902 279.706 127.76 279.712C127.652 279.712 127.592 279.669 127.595 279.647C127.597 279.626 127.845 279.622 128.052 279.348C128.259 279.075 128.259 278.708 128.284 278.708Z" fill="#263238"/>
<path d="M123.592 289.849C123.622 289.511 123.693 289.184 123.802 288.881C123.873 288.555 123.985 288.25 124.132 287.981C124.103 288.321 124.032 288.65 123.922 288.953C123.853 289.279 123.741 289.584 123.592 289.849Z" fill="#263238"/>
<path d="M127.325 290.634C126.814 290.392 126.365 289.934 126.036 289.32C126.477 289.74 126.911 290.178 127.335 290.634H127.325Z" fill="#263238"/>
<path d="M126.86 285.986C126.518 286.288 126.134 286.479 125.736 286.544C125.897 286.37 126.082 286.248 126.278 286.184C126.46 286.058 126.658 285.991 126.86 285.986Z" fill="#263238"/>
<path d="M126.61 295.44C126.869 294.689 127.206 294 127.61 293.396C127.496 293.785 127.345 294.148 127.16 294.476C127.01 294.833 126.825 295.158 126.61 295.44Z" fill="#263238"/>
<path d="M126.823 299.31C126.561 299.104 126.321 298.844 126.111 298.54C125.874 298.28 125.662 297.973 125.484 297.629C125.985 298.093 126.436 298.659 126.823 299.31Z" fill="#263238"/>
<path d="M128.709 298.947C128.615 298.563 128.539 298.171 128.482 297.773C128.381 297.391 128.298 297 128.232 296.603C128.415 296.928 128.541 297.312 128.599 297.723C128.701 298.113 128.738 298.532 128.709 298.947Z" fill="#263238"/>
<path d="M132.172 299.011C131.713 299.345 131.218 299.565 130.708 299.663C131.166 299.325 131.662 299.104 132.172 299.011Z" fill="#263238"/>
<path d="M132.337 295.03C131.865 295.538 131.344 295.945 130.791 296.236C131.261 295.724 131.782 295.317 132.337 295.03Z" fill="#263238"/>
<path d="M130.513 293.456C130.14 292.908 129.831 292.276 129.599 291.584C129.972 292.133 130.281 292.765 130.513 293.456Z" fill="#263238"/>
<path d="M131.877 289.252C131.877 289.252 131.845 289.252 131.805 289.212L131.847 289.187C131.841 289.559 131.808 289.93 131.747 290.292C131.705 290.699 131.609 291.089 131.465 291.444C131.486 291.04 131.538 290.64 131.62 290.253C131.695 289.77 131.755 289.356 131.797 289.173L131.812 289.101L131.84 289.151C131.87 289.209 131.882 289.245 131.877 289.252Z" fill="#263238"/>
<path d="M134.846 286.44C134.249 286.391 133.66 286.219 133.097 285.929C133.396 285.921 133.695 285.976 133.984 286.091C134.281 286.149 134.571 286.267 134.846 286.44Z" fill="#263238"/>
<path d="M134.136 290.519C134.098 290.195 134.104 289.864 134.153 289.543C134.161 289.216 134.211 288.894 134.301 288.593C134.339 288.917 134.333 289.248 134.283 289.568C134.275 289.896 134.225 290.218 134.136 290.519Z" fill="#263238"/>
<path d="M135.712 291.718C135.728 291.42 135.786 291.131 135.882 290.868C135.942 290.583 136.04 290.319 136.172 290.09C136.157 290.387 136.099 290.677 136.002 290.94C135.944 291.225 135.845 291.49 135.712 291.718Z" fill="#263238"/>
<path d="M135.725 294C135.44 293.815 135.174 293.572 134.935 293.28C134.67 293.045 134.429 292.757 134.221 292.423C134.506 292.609 134.772 292.851 135.01 293.143C135.275 293.38 135.515 293.668 135.725 294Z" fill="#263238"/>
<path d="M128.155 308.472C127.929 308.364 127.719 308.197 127.535 307.979C127.326 307.812 127.139 307.591 126.985 307.327C127.211 307.44 127.422 307.608 127.607 307.824C127.815 307.991 128 308.211 128.155 308.472Z" fill="#263238"/>
<path d="M131.008 307.025C130.87 307.419 130.694 307.782 130.485 308.105C130.311 308.464 130.101 308.786 129.863 309.059C130.001 308.665 130.177 308.301 130.385 307.979C130.56 307.619 130.769 307.298 131.008 307.025Z" fill="#263238"/>
<path d="M133.971 309.005C134.013 308.689 134.098 308.388 134.221 308.119C134.308 307.822 134.434 307.552 134.593 307.324C134.462 307.938 134.248 308.51 133.963 309.005H133.971Z" fill="#263238"/>
<path d="M133.179 309.239C133.014 309.014 132.88 308.745 132.784 308.447C132.654 308.179 132.558 307.879 132.502 307.562C132.668 307.786 132.803 308.055 132.897 308.354C133.029 308.62 133.125 308.92 133.179 309.239Z" fill="#263238"/>
<path d="M125.876 271.763C125.728 271.885 125.603 272.057 125.511 272.264C125.42 272.472 125.366 272.708 125.352 272.953C125.339 273.198 125.368 273.444 125.435 273.669C125.503 273.894 125.608 274.092 125.742 274.245C125.875 274.399 126.032 274.503 126.199 274.548C126.367 274.594 126.54 274.58 126.702 274.507C126.865 274.435 127.013 274.306 127.133 274.132C127.254 273.958 127.343 273.744 127.392 273.509C127.308 273.757 127.283 274.038 127.32 274.309C127.357 274.58 127.454 274.826 127.597 275.01C127.745 275.186 127.923 275.299 128.113 275.339C128.302 275.378 128.496 275.342 128.672 275.233C128.846 275.12 129.002 274.952 129.126 274.742C129.25 274.531 129.34 274.283 129.389 274.017C129.391 274.278 129.436 274.535 129.52 274.768C129.603 275 129.723 275.201 129.869 275.356C130.016 275.51 130.185 275.614 130.364 275.658C130.543 275.703 130.726 275.686 130.9 275.611C130.722 275.773 130.579 276.003 130.487 276.276C130.395 276.549 130.357 276.853 130.379 277.155C130.4 277.457 130.48 277.744 130.609 277.984C130.738 278.224 130.91 278.407 131.108 278.513C130.895 278.705 130.738 279.004 130.666 279.351C130.595 279.699 130.614 280.072 130.721 280.4C130.827 280.729 131.012 280.99 131.243 281.135C131.473 281.28 131.733 281.299 131.972 281.188C132.472 280.965 132.769 280.252 132.971 279.557C133.506 277.665 133.501 275.546 132.956 273.66C132.676 272.733 132.251 271.91 131.716 271.255C131.181 270.6 130.549 270.13 129.868 269.88C129.187 269.647 128.475 269.673 127.803 269.957C127.131 270.241 126.522 270.773 126.036 271.5" fill="#263238"/>
<path d="M134.171 271.979C134.171 271.979 134.171 272.004 134.183 272.058C134.19 272.135 134.19 272.212 134.183 272.289C134.157 272.578 134.07 272.85 133.934 273.066C133.827 273.238 133.691 273.367 133.54 273.44C133.388 273.514 133.226 273.529 133.069 273.484C132.867 273.421 132.682 273.272 132.539 273.055C132.397 272.839 132.303 272.565 132.27 272.271H132.39C132.362 272.512 132.299 272.741 132.205 272.944C132.11 273.146 131.987 273.317 131.842 273.444C131.688 273.589 131.51 273.674 131.326 273.692C131.142 273.71 130.958 273.661 130.791 273.549C130.632 273.445 130.491 273.293 130.377 273.103C130.264 272.912 130.181 272.689 130.133 272.447C130.106 272.329 130.097 272.204 130.104 272.08C130.112 271.957 130.137 271.836 130.178 271.727C130.227 271.617 130.302 271.535 130.388 271.497C130.433 271.477 130.48 271.472 130.526 271.484C130.572 271.495 130.616 271.522 130.653 271.562C130.717 271.641 130.761 271.749 130.778 271.868C130.795 271.987 130.785 272.111 130.748 272.22C130.684 272.409 130.586 272.568 130.463 272.681C130.252 272.887 130 272.986 129.746 272.962C129.539 272.944 129.339 272.838 129.174 272.656C129.05 272.524 128.948 272.354 128.874 272.159C128.825 272.038 128.79 271.907 128.769 271.77C128.764 271.724 128.764 271.676 128.769 271.63C128.812 271.801 128.865 271.966 128.927 272.123C129.015 272.332 129.137 272.507 129.282 272.632C129.427 272.758 129.592 272.83 129.761 272.843C129.993 272.856 130.221 272.758 130.411 272.566C130.517 272.469 130.604 272.332 130.661 272.17C130.686 272.094 130.694 272.009 130.683 271.926C130.672 271.844 130.642 271.769 130.598 271.713C130.573 271.693 130.545 271.68 130.517 271.675C130.488 271.671 130.459 271.674 130.431 271.686C130.404 271.698 130.378 271.717 130.355 271.743C130.333 271.77 130.314 271.802 130.301 271.839C130.27 271.928 130.252 272.025 130.247 272.125C130.243 272.224 130.253 272.324 130.276 272.418C130.318 272.633 130.393 272.832 130.494 273C130.596 273.169 130.722 273.303 130.863 273.394C131.01 273.494 131.173 273.538 131.335 273.523C131.498 273.508 131.655 273.434 131.792 273.308C131.922 273.194 132.034 273.043 132.12 272.863C132.206 272.683 132.265 272.479 132.292 272.264L132.355 271.655L132.41 272.267C132.44 272.527 132.523 272.767 132.648 272.96C132.773 273.152 132.934 273.286 133.112 273.347C133.254 273.39 133.401 273.379 133.539 273.316C133.677 273.253 133.802 273.14 133.901 272.987C134.038 272.79 134.133 272.54 134.173 272.267C134.171 272.087 134.163 271.979 134.171 271.979Z" fill="#455A64"/>
<path d="M135.488 274.427C135.501 274.528 135.495 274.633 135.47 274.729C135.419 275.004 135.316 275.254 135.173 275.449C135.067 275.598 134.941 275.713 134.802 275.786C134.664 275.858 134.516 275.887 134.368 275.871C134.187 275.848 134.013 275.764 133.859 275.625C133.705 275.486 133.577 275.296 133.484 275.071C133.462 275.018 133.443 274.963 133.426 274.906H133.549C133.482 275.159 133.352 275.367 133.184 275.489C133.036 275.605 132.868 275.662 132.699 275.655C132.414 275.636 132.145 275.458 131.95 275.158C131.821 274.971 131.717 274.751 131.643 274.51C131.609 274.427 131.588 274.335 131.58 274.24C131.702 274.537 131.847 274.814 132.012 275.064C132.195 275.322 132.438 275.473 132.694 275.485C132.846 275.495 132.997 275.438 133.126 275.324C133.256 275.209 133.359 275.041 133.421 274.841L133.471 274.639L133.541 274.837C133.559 274.884 133.571 274.935 133.591 274.981C133.675 275.18 133.789 275.348 133.924 275.473C134.06 275.598 134.213 275.676 134.373 275.701C134.506 275.717 134.639 275.693 134.765 275.631C134.891 275.569 135.007 275.47 135.105 275.341C135.244 275.169 135.351 274.95 135.418 274.704C135.438 274.61 135.461 274.518 135.488 274.427Z" fill="#455A64"/>
<path d="M133.841 278.88C133.769 278.953 133.688 279.002 133.602 279.026C133.515 279.049 133.427 279.046 133.341 279.017C133.152 278.982 132.975 278.855 132.842 278.657C132.678 278.406 132.588 278.073 132.592 277.728L132.689 277.811L132.652 277.836C132.433 277.999 132.179 278.03 131.945 277.923C131.756 277.836 131.593 277.659 131.483 277.422C131.426 277.323 131.385 277.207 131.362 277.083C131.339 276.959 131.335 276.829 131.35 276.702C131.393 276.932 131.463 277.148 131.558 277.343C131.665 277.542 131.812 277.686 131.98 277.757C132.184 277.839 132.402 277.808 132.592 277.671L132.624 277.649L132.722 277.57V277.728C132.721 278.001 132.785 278.265 132.904 278.478C133.022 278.691 133.187 278.839 133.371 278.898C133.528 278.928 133.686 278.922 133.841 278.88Z" fill="#455A64"/>
<path d="M124.646 273.178C124.83 273.417 125.047 273.596 125.284 273.703C125.54 273.804 125.812 273.777 126.056 273.628C126.351 273.438 126.584 273.089 126.703 272.656C126.728 272.555 126.749 272.451 126.763 272.346L126.803 272.065L126.885 272.324C126.919 272.407 126.97 272.472 127.031 272.51C127.092 272.547 127.16 272.555 127.225 272.533C127.358 272.486 127.478 272.385 127.572 272.242C127.743 271.996 127.863 271.687 127.919 271.349C127.964 271.033 127.97 270.709 127.937 270.391C127.971 270.467 127.993 270.553 128.002 270.643C128.036 270.881 128.036 271.126 128.002 271.363C127.954 271.733 127.832 272.074 127.652 272.346C127.545 272.522 127.403 272.648 127.245 272.706C127.152 272.737 127.055 272.723 126.969 272.667C126.882 272.612 126.811 272.516 126.765 272.396L126.888 272.371C126.874 272.494 126.851 272.615 126.82 272.731C126.757 272.971 126.66 273.191 126.536 273.376C126.413 273.562 126.265 273.71 126.101 273.811C125.831 273.965 125.532 273.979 125.256 273.851C125.073 273.77 124.906 273.628 124.769 273.437C124.714 273.365 124.672 273.277 124.646 273.178Z" fill="#455A64"/>
<path d="M125.371 276.13C125.386 276.13 125.386 276.303 125.266 276.49C125.184 276.604 125.083 276.686 124.972 276.727C124.861 276.768 124.745 276.767 124.634 276.724C124.423 276.643 124.23 276.481 124.077 276.256C123.96 276.094 123.9 275.979 123.91 275.961C123.92 275.943 124.007 276.022 124.135 276.155C124.293 276.331 124.472 276.462 124.664 276.54C124.756 276.576 124.853 276.58 124.946 276.554C125.04 276.528 125.128 276.472 125.204 276.389C125.319 276.263 125.351 276.123 125.371 276.13Z" fill="#455A64"/>
<path d="M127.39 276.605C127.39 276.605 127.39 276.479 127.335 276.27C127.272 275.981 127.146 275.728 126.975 275.55C126.869 275.435 126.747 275.354 126.617 275.313C126.487 275.272 126.353 275.272 126.223 275.312C126.093 275.353 125.97 275.433 125.864 275.547C125.757 275.662 125.669 275.808 125.605 275.976C125.541 276.144 125.503 276.329 125.494 276.52C125.484 276.711 125.503 276.903 125.549 277.083C125.595 277.262 125.668 277.425 125.762 277.561C125.856 277.697 125.969 277.801 126.093 277.869C126.239 277.945 126.396 277.969 126.549 277.938C126.703 277.907 126.849 277.823 126.975 277.692C127.145 277.513 127.27 277.261 127.335 276.972C127.377 276.76 127.377 276.634 127.39 276.634C127.41 276.752 127.41 276.876 127.39 276.994C127.341 277.314 127.215 277.6 127.035 277.8C126.899 277.955 126.738 278.057 126.567 278.098C126.397 278.139 126.221 278.117 126.058 278.034C125.856 277.932 125.68 277.741 125.556 277.488C125.432 277.236 125.365 276.934 125.365 276.625C125.365 276.315 125.432 276.014 125.556 275.761C125.68 275.509 125.856 275.318 126.058 275.215C126.221 275.132 126.396 275.109 126.567 275.149C126.738 275.19 126.899 275.292 127.035 275.446C127.217 275.651 127.342 275.944 127.387 276.27C127.406 276.38 127.407 276.495 127.39 276.605Z" fill="#455A64"/>
<path d="M130.166 276.605C130.166 276.605 130.166 276.479 130.111 276.27C130.049 275.98 129.922 275.727 129.751 275.55C129.645 275.434 129.522 275.353 129.392 275.311C129.262 275.269 129.127 275.269 128.997 275.309C128.867 275.349 128.744 275.43 128.637 275.544C128.53 275.659 128.442 275.806 128.378 275.974C128.314 276.143 128.276 276.329 128.267 276.521C128.257 276.712 128.277 276.904 128.324 277.084C128.37 277.264 128.444 277.427 128.538 277.562C128.633 277.698 128.746 277.802 128.871 277.868C129.017 277.945 129.173 277.969 129.326 277.938C129.48 277.907 129.625 277.823 129.751 277.692C129.921 277.514 130.047 277.261 130.111 276.972C130.153 276.76 130.156 276.634 130.166 276.634C130.188 276.751 130.188 276.876 130.166 276.994C130.118 277.319 129.993 277.61 129.811 277.814C129.675 277.969 129.515 278.071 129.345 278.112C129.174 278.153 128.999 278.131 128.836 278.048C128.634 277.946 128.458 277.755 128.334 277.503C128.21 277.25 128.144 276.948 128.144 276.639C128.144 276.33 128.21 276.028 128.334 275.775C128.458 275.523 128.634 275.332 128.836 275.23C128.999 275.146 129.174 275.124 129.344 275.164C129.515 275.204 129.675 275.306 129.811 275.46C129.993 275.666 130.119 275.958 130.166 276.284C130.184 276.39 130.184 276.5 130.166 276.605Z" fill="#455A64"/>
<path d="M128.255 276.536C128.255 276.59 128.057 276.63 127.812 276.63C127.567 276.63 127.373 276.59 127.373 276.536C127.373 276.482 127.57 276.443 127.812 276.443C128.055 276.443 128.255 276.486 128.255 276.536Z" fill="#455A64"/>
<path d="M118.465 309.224C122.253 308.68 126.067 308.611 129.863 309.019L125.036 318.984L120.689 319.009L119.765 347.64H114.018L114.568 315.485C114.593 313.946 114.999 312.47 115.713 311.324C116.427 310.178 117.401 309.437 118.46 309.235L118.465 309.224Z" fill="#263238"/>
<path d="M129.049 319.772C129.049 319.772 137.661 320.615 137.446 309.469C137.446 309.469 123.65 306.11 122.753 311.888C122.463 313.746 123.253 347.86 123.253 347.86H129.284" fill="#263238"/>
<path d="M129.134 317.303C129.185 318.254 129.147 319.21 129.021 320.147C128.974 319.196 129.012 318.24 129.134 317.303Z" fill="#455A64"/>
<path d="M128.859 308.443C128.821 308.474 128.781 308.5 128.739 308.519C128.662 308.562 128.545 308.62 128.39 308.684C127.951 308.854 127.507 308.986 127.058 309.08C126.396 309.204 125.743 309.406 125.104 309.685C124.734 309.858 124.381 310.1 124.055 310.405C123.709 310.744 123.416 311.183 123.195 311.694C122.766 312.691 122.551 313.848 122.578 315.02C122.618 316.1 122.653 317.076 122.683 317.9C122.713 318.725 122.731 319.366 122.746 319.855C122.746 320.068 122.746 320.24 122.746 320.384C122.752 320.446 122.752 320.51 122.746 320.572C122.735 320.51 122.729 320.448 122.726 320.384C122.726 320.244 122.706 320.068 122.691 319.859C122.666 319.369 122.628 318.71 122.586 317.911C122.543 317.112 122.493 316.111 122.453 315.031C122.419 313.822 122.638 312.627 123.083 311.6C123.312 311.068 123.617 310.611 123.977 310.261C124.314 309.944 124.679 309.694 125.062 309.516C125.708 309.243 126.371 309.051 127.04 308.944C127.605 308.832 128.062 308.717 128.372 308.609C128.682 308.501 128.854 308.429 128.859 308.443Z" fill="#455A64"/>
<path d="M110.565 288.676L113.835 303.386L131.917 303.861L131.797 303.076L125.193 302.785L122.153 288.669L110.565 288.676Z" fill="#455A64"/>
<path d="M117.908 296.027C118.015 296.65 117.83 297.262 117.496 297.392C117.161 297.521 116.799 297.122 116.691 296.499C116.584 295.876 116.769 295.268 117.106 295.138C117.443 295.009 117.791 295.408 117.908 296.027Z" fill="white"/>
<path d="M150.815 299.173C150.524 298.86 150.163 298.711 149.801 298.752C149.801 298.471 149.801 298.295 149.801 298.295H144.274C144.274 298.295 144.099 303.555 146.895 303.742C148.144 303.825 148.861 303.022 149.271 301.999C149.476 302.071 149.687 302.109 149.898 302.111C150.208 302.127 150.513 302.001 150.77 301.751C150.91 301.592 151.021 301.386 151.093 301.152C151.165 300.917 151.197 300.661 151.185 300.405C151.192 300.172 151.162 299.941 151.098 299.728C151.034 299.514 150.937 299.325 150.815 299.173ZM150.435 301.125C150.2 301.38 149.778 301.341 149.501 301.269C149.643 300.712 149.733 300.131 149.771 299.541C150.013 299.5 150.258 299.581 150.463 299.771C150.523 299.851 150.57 299.951 150.599 300.061C150.629 300.172 150.64 300.29 150.633 300.408C150.643 300.542 150.63 300.677 150.596 300.802C150.561 300.926 150.506 301.037 150.435 301.125Z" fill="#01A2BB"/>
<path d="M148.984 296.6C148.943 296.548 148.908 296.489 148.879 296.423C148.789 296.236 148.727 296.024 148.696 295.8C148.641 295.439 148.663 295.062 148.761 294.72C148.915 294.303 149.127 293.935 149.384 293.64C149.671 293.258 149.867 292.754 149.943 292.2C150.009 291.716 149.975 291.215 149.844 290.759C149.714 290.302 149.494 289.911 149.211 289.634C148.999 289.439 148.768 289.29 148.527 289.191C148.264 289.085 148.019 288.907 147.804 288.665C147.7 288.528 147.615 288.363 147.555 288.179C147.49 287.984 147.472 287.764 147.502 287.553C147.502 287.52 147.515 287.492 147.52 287.466L147.585 287.56C147.469 287.634 147.371 287.754 147.3 287.904C147.229 288.055 147.188 288.231 147.182 288.413C147.167 288.78 147.224 289.145 147.345 289.468C147.455 289.803 147.595 290.112 147.69 290.451C147.8 290.78 147.848 291.145 147.829 291.509C147.798 291.859 147.681 292.182 147.5 292.42C147.336 292.639 147.148 292.819 146.945 292.953C146.579 293.146 146.22 293.368 145.871 293.619C145.593 293.846 145.374 294.196 145.244 294.616C145.144 294.932 145.093 295.276 145.094 295.624C145.1 295.921 145.139 296.215 145.209 296.495C145.201 296.479 145.194 296.462 145.189 296.445C145.189 296.409 145.159 296.358 145.141 296.283C145.088 296.071 145.059 295.849 145.054 295.624C145.045 295.267 145.092 294.911 145.191 294.584C145.321 294.143 145.545 293.773 145.831 293.529C146.181 293.271 146.54 293.04 146.908 292.838C147.103 292.709 147.282 292.535 147.437 292.323C147.601 292.106 147.706 291.812 147.735 291.495C147.75 291.155 147.703 290.815 147.6 290.508C147.502 290.184 147.367 289.875 147.255 289.533C147.123 289.185 147.061 288.791 147.077 288.395C147.094 288.191 147.14 287.994 147.215 287.819C147.292 287.634 147.411 287.493 147.552 287.42L147.645 287.369L147.617 287.513L147.605 287.585C147.587 287.767 147.603 287.952 147.652 288.123C147.7 288.293 147.779 288.441 147.879 288.554C148.084 288.783 148.319 288.952 148.569 289.05C148.819 289.155 149.057 289.312 149.276 289.515C149.484 289.721 149.66 289.987 149.793 290.296C150.049 290.867 150.138 291.56 150.043 292.226C149.96 292.799 149.751 293.318 149.448 293.709C149.196 293.997 148.985 294.354 148.829 294.76C148.734 295.081 148.707 295.436 148.751 295.779C148.784 296.074 148.864 296.355 148.984 296.6Z" fill="#263238"/>
<path d="M155.722 303.454H99.0171V305.956H102.05L100.436 350.175L101.303 350.171L102.917 305.956L152.619 305.564L153.763 350.042L154.72 350.117L153.496 305.956H155.722V303.454Z" fill="#263238"/>
<path d="M68.1713 243.787H44.0337V350.329H68.1713V243.787Z" fill="#EBEBEB"/>
<path d="M87.2145 244.133H68.1362V350.333H87.2145V244.133Z" fill="#E0E0E0"/>
<path d="M65.8455 260.84H45.3706V269.146H65.8455V260.84Z" fill="#263238"/>
<path d="M47.0867 261.884H45.9399V268.242H47.0867V261.884Z" fill="#01A2BB"/>
<path d="M48.4385 263.22C48.439 263.324 48.418 263.426 48.3783 263.513C48.3385 263.6 48.2817 263.668 48.2151 263.708C48.1485 263.748 48.0751 263.759 48.0041 263.739C47.9332 263.719 47.868 263.67 47.8167 263.596C47.7654 263.523 47.7305 263.429 47.7162 263.327C47.7019 263.225 47.709 263.119 47.7365 263.023C47.764 262.927 47.8108 262.845 47.8708 262.787C47.9309 262.729 48.0015 262.698 48.0738 262.698C48.1701 262.698 48.2625 262.753 48.3308 262.85C48.3991 262.948 48.4379 263.081 48.4385 263.22Z" fill="white"/>
<path d="M48.4385 265.467C48.4385 265.57 48.4171 265.672 48.3771 265.759C48.337 265.845 48.28 265.912 48.2134 265.952C48.1467 265.992 48.0734 266.002 48.0026 265.982C47.9318 265.962 47.8668 265.912 47.8158 265.838C47.7648 265.765 47.7301 265.671 47.716 265.569C47.7019 265.467 47.7091 265.361 47.7367 265.265C47.7644 265.169 47.8111 265.087 47.8711 265.029C47.9311 264.972 48.0016 264.941 48.0738 264.941C48.1705 264.941 48.2633 264.996 48.3317 265.095C48.4001 265.193 48.4385 265.327 48.4385 265.467Z" fill="white"/>
<path d="M51.0218 262.698H49.895V267.579H51.0218V262.698Z" fill="#455A64"/>
<path d="M52.6483 262.698H51.5215V267.579H52.6483V262.698Z" fill="#455A64"/>
<path d="M54.2777 262.698H53.1509V267.579H54.2777V262.698Z" fill="#455A64"/>
<path d="M55.9042 262.698H54.7773V267.579H55.9042V262.698Z" fill="#455A64"/>
<path d="M57.5306 262.698H56.4038V267.579H57.5306V262.698Z" fill="#455A64"/>
<path d="M59.1595 262.698H58.0327V267.579H59.1595V262.698Z" fill="#455A64"/>
<path d="M60.786 262.698H59.6592V267.579H60.786V262.698Z" fill="#455A64"/>
<path d="M62.4149 262.698H61.2881V267.579H62.4149V262.698Z" fill="#455A64"/>
<path d="M64.0414 262.698H62.9146V267.579H64.0414V262.698Z" fill="#455A64"/>
<path d="M65.6678 262.698H64.541V267.579H65.6678V262.698Z" fill="#455A64"/>
<path d="M65.8455 272.771H45.3706V281.076H65.8455V272.771Z" fill="#263238"/>
<path d="M47.0867 273.818H45.9399V280.176H47.0867V273.818Z" fill="#01A2BB"/>
<path d="M48.4385 275.154C48.4385 275.258 48.4171 275.36 48.3771 275.446C48.337 275.532 48.28 275.6 48.2134 275.64C48.1467 275.679 48.0734 275.69 48.0026 275.67C47.9318 275.649 47.8668 275.599 47.8158 275.526C47.7648 275.452 47.7301 275.359 47.716 275.257C47.7019 275.155 47.7091 275.049 47.7367 274.953C47.7644 274.857 47.8111 274.775 47.8711 274.717C47.9311 274.659 48.0016 274.628 48.0738 274.628C48.1705 274.628 48.2633 274.684 48.3317 274.782C48.4001 274.881 48.4385 275.015 48.4385 275.154Z" fill="white"/>
<path d="M48.4385 277.4C48.4385 277.504 48.4171 277.606 48.3771 277.692C48.337 277.779 48.28 277.846 48.2134 277.886C48.1467 277.925 48.0734 277.936 48.0026 277.916C47.9318 277.895 47.8668 277.845 47.8158 277.772C47.7648 277.698 47.7301 277.605 47.716 277.503C47.7019 277.401 47.7091 277.295 47.7367 277.199C47.7644 277.103 47.8111 277.021 47.8711 276.963C47.9311 276.905 48.0016 276.875 48.0738 276.875C48.1705 276.875 48.2633 276.93 48.3317 277.028C48.4001 277.127 48.4385 277.261 48.4385 277.4Z" fill="white"/>
<path d="M51.0218 274.628H49.895V279.51H51.0218V274.628Z" fill="#455A64"/>
<path d="M52.6483 274.628H51.5215V279.51H52.6483V274.628Z" fill="#455A64"/>
<path d="M54.2777 274.628H53.1509V279.51H54.2777V274.628Z" fill="#455A64"/>
<path d="M55.9042 274.628H54.7773V279.51H55.9042V274.628Z" fill="#455A64"/>
<path d="M57.5306 274.628H56.4038V279.51H57.5306V274.628Z" fill="#455A64"/>
<path d="M59.1595 274.628H58.0327V279.51H59.1595V274.628Z" fill="#455A64"/>
<path d="M60.786 274.628H59.6592V279.51H60.786V274.628Z" fill="#455A64"/>
<path d="M62.4149 274.628H61.2881V279.51H62.4149V274.628Z" fill="#455A64"/>
<path d="M64.0414 274.628H62.9146V279.51H64.0414V274.628Z" fill="#455A64"/>
<path d="M65.6678 274.628H64.541V279.51H65.6678V274.628Z" fill="#455A64"/>
<path d="M65.8455 284.802H45.3706V293.107H65.8455V284.802Z" fill="#263238"/>
<path d="M47.0867 285.846H45.9399V292.203H47.0867V285.846Z" fill="#01A2BB"/>
<path d="M48.4385 287.182C48.4385 287.286 48.4168 287.388 48.3763 287.475C48.3358 287.562 48.2782 287.629 48.2109 287.668C48.1437 287.708 48.0699 287.717 47.9988 287.696C47.9278 287.674 47.8629 287.623 47.8123 287.548C47.7617 287.473 47.7277 287.378 47.7148 287.275C47.7019 287.172 47.7106 287.066 47.7397 286.97C47.7689 286.874 47.8172 286.793 47.8784 286.737C47.9397 286.681 48.0112 286.653 48.0838 286.656C48.1788 286.66 48.269 286.717 48.3353 286.815C48.4015 286.913 48.4386 287.045 48.4385 287.182Z" fill="white"/>
<path d="M48.4385 289.428C48.4385 289.532 48.4171 289.634 48.3771 289.72C48.337 289.806 48.28 289.874 48.2134 289.914C48.1467 289.953 48.0734 289.964 48.0026 289.943C47.9318 289.923 47.8668 289.873 47.8158 289.8C47.7648 289.726 47.7301 289.632 47.716 289.53C47.7019 289.429 47.7091 289.323 47.7367 289.227C47.7644 289.131 47.8111 289.049 47.8711 288.991C47.9311 288.933 48.0016 288.902 48.0738 288.902C48.1705 288.902 48.2633 288.958 48.3317 289.056C48.4001 289.155 48.4385 289.289 48.4385 289.428Z" fill="white"/>
<path d="M51.0218 286.656H49.895V291.537H51.0218V286.656Z" fill="#455A64"/>
<path d="M52.6483 286.656H51.5215V291.537H52.6483V286.656Z" fill="#455A64"/>
<path d="M54.2777 286.656H53.1509V291.537H54.2777V286.656Z" fill="#455A64"/>
<path d="M55.9042 286.656H54.7773V291.537H55.9042V286.656Z" fill="#455A64"/>
<path d="M57.5306 286.656H56.4038V291.537H57.5306V286.656Z" fill="#455A64"/>
<path d="M59.1595 286.656H58.0327V291.537H59.1595V286.656Z" fill="#455A64"/>
<path d="M60.786 286.656H59.6592V291.537H60.786V286.656Z" fill="#455A64"/>
<path d="M62.4149 286.656H61.2881V291.537H62.4149V286.656Z" fill="#455A64"/>
<path d="M64.0414 286.656H62.9146V291.537H64.0414V286.656Z" fill="#455A64"/>
<path d="M65.6678 286.656H64.541V291.537H65.6678V286.656Z" fill="#455A64"/>
<path d="M65.8455 296.995H45.3706V305.3H65.8455V296.995Z" fill="#263238"/>
<path d="M47.0867 298.039H45.9399V304.397H47.0867V298.039Z" fill="#01A2BB"/>
<path d="M48.4385 299.375C48.4385 299.479 48.4171 299.58 48.3771 299.667C48.337 299.753 48.28 299.821 48.2134 299.86C48.1467 299.9 48.0734 299.91 48.0026 299.89C47.9318 299.87 47.8668 299.82 47.8158 299.746C47.7648 299.673 47.7301 299.579 47.716 299.477C47.7019 299.375 47.7091 299.27 47.7367 299.174C47.7644 299.078 47.8111 298.995 47.8711 298.938C47.9311 298.88 48.0016 298.849 48.0738 298.849C48.1705 298.849 48.2633 298.904 48.3317 299.003C48.4001 299.102 48.4385 299.235 48.4385 299.375Z" fill="white"/>
<path d="M48.4385 301.621C48.4385 301.725 48.4171 301.827 48.3771 301.913C48.337 302 48.28 302.067 48.2134 302.107C48.1467 302.147 48.0734 302.157 48.0026 302.137C47.9318 302.117 47.8668 302.066 47.8158 301.993C47.7648 301.919 47.7301 301.826 47.716 301.724C47.7019 301.622 47.7091 301.516 47.7367 301.42C47.7644 301.324 47.8111 301.242 47.8711 301.184C47.9311 301.127 48.0016 301.096 48.0738 301.096C48.1705 301.096 48.2633 301.151 48.3317 301.25C48.4001 301.348 48.4385 301.482 48.4385 301.621Z" fill="white"/>
<path d="M51.0218 298.849H49.895V303.731H51.0218V298.849Z" fill="#455A64"/>
<path d="M52.6483 298.849H51.5215V303.731H52.6483V298.849Z" fill="#455A64"/>
<path d="M54.2777 298.849H53.1509V303.731H54.2777V298.849Z" fill="#455A64"/>
<path d="M55.9042 298.849H54.7773V303.731H55.9042V298.849Z" fill="#455A64"/>
<path d="M57.5306 298.849H56.4038V303.731H57.5306V298.849Z" fill="#455A64"/>
<path d="M59.1595 298.849H58.0327V303.731H59.1595V298.849Z" fill="#455A64"/>
<path d="M60.786 298.849H59.6592V303.731H60.786V298.849Z" fill="#455A64"/>
<path d="M62.4149 298.849H61.2881V303.731H62.4149V298.849Z" fill="#455A64"/>
<path d="M64.0414 298.849H62.9146V303.731H64.0414V298.849Z" fill="#455A64"/>
<path d="M65.6678 298.849H64.541V303.731H65.6678V298.849Z" fill="#455A64"/>
<path d="M65.8455 310.917H45.3706V319.222H65.8455V310.917Z" fill="#263238"/>
<path d="M47.0867 311.96H45.9399V318.318H47.0867V311.96Z" fill="#01A2BB"/>
<path d="M48.4385 313.296C48.4385 313.4 48.4171 313.502 48.3771 313.588C48.337 313.675 48.28 313.742 48.2134 313.782C48.1467 313.821 48.0734 313.832 48.0026 313.812C47.9318 313.791 47.8668 313.741 47.8158 313.668C47.7648 313.594 47.7301 313.501 47.716 313.399C47.7019 313.297 47.7091 313.191 47.7367 313.095C47.7644 312.999 47.8111 312.917 47.8711 312.859C47.9311 312.801 48.0016 312.771 48.0738 312.771C48.1705 312.771 48.2633 312.826 48.3317 312.924C48.4001 313.023 48.4385 313.157 48.4385 313.296Z" fill="white"/>
<path d="M48.4385 315.542C48.4385 315.646 48.4171 315.748 48.3771 315.834C48.337 315.921 48.28 315.988 48.2134 316.028C48.1467 316.068 48.0734 316.078 48.0026 316.058C47.9318 316.037 47.8668 315.987 47.8158 315.914C47.7648 315.84 47.7301 315.747 47.716 315.645C47.7019 315.543 47.7091 315.437 47.7367 315.341C47.7644 315.245 47.8111 315.163 47.8711 315.105C47.9311 315.047 48.0016 315.017 48.0738 315.017C48.1705 315.017 48.2633 315.072 48.3317 315.171C48.4001 315.269 48.4385 315.403 48.4385 315.542Z" fill="white"/>
<path d="M51.0218 312.771H49.895V317.652H51.0218V312.771Z" fill="#455A64"/>
<path d="M52.6483 312.771H51.5215V317.652H52.6483V312.771Z" fill="#455A64"/>
<path d="M54.2777 312.771H53.1509V317.652H54.2777V312.771Z" fill="#455A64"/>
<path d="M55.9042 312.771H54.7773V317.652H55.9042V312.771Z" fill="#455A64"/>
<path d="M57.5306 312.771H56.4038V317.652H57.5306V312.771Z" fill="#455A64"/>
<path d="M59.1595 312.771H58.0327V317.652H59.1595V312.771Z" fill="#455A64"/>
<path d="M60.786 312.771H59.6592V317.652H60.786V312.771Z" fill="#455A64"/>
<path d="M62.4149 312.771H61.2881V317.652H62.4149V312.771Z" fill="#455A64"/>
<path d="M64.0414 312.771H62.9146V317.652H64.0414V312.771Z" fill="#455A64"/>
<path d="M65.6678 312.771H64.541V317.652H65.6678V312.771Z" fill="#455A64"/>
<path d="M65.8455 337.031H45.3706V345.336H65.8455V337.031Z" fill="#263238"/>
<path d="M47.0867 338.074H45.9399V344.432H47.0867V338.074Z" fill="#01A2BB"/>
<path d="M48.4385 339.41C48.439 339.514 48.418 339.616 48.3783 339.703C48.3385 339.79 48.2817 339.858 48.2151 339.898C48.1485 339.939 48.0751 339.95 48.0041 339.93C47.9332 339.91 47.868 339.86 47.8167 339.787C47.7654 339.713 47.7305 339.62 47.7162 339.518C47.7019 339.416 47.709 339.31 47.7365 339.213C47.764 339.117 47.8108 339.035 47.8708 338.977C47.9309 338.919 48.0015 338.888 48.0738 338.888C48.1701 338.888 48.2625 338.943 48.3308 339.041C48.3991 339.139 48.4379 339.271 48.4385 339.41Z" fill="white"/>
<path d="M48.4385 341.657C48.4385 341.761 48.4171 341.863 48.3771 341.949C48.337 342.035 48.28 342.103 48.2134 342.143C48.1467 342.182 48.0734 342.193 48.0026 342.172C47.9318 342.152 47.8668 342.102 47.8158 342.029C47.7648 341.955 47.7301 341.861 47.716 341.759C47.7019 341.658 47.7091 341.552 47.7367 341.456C47.7644 341.36 47.8111 341.278 47.8711 341.22C47.9311 341.162 48.0016 341.131 48.0738 341.131C48.1705 341.131 48.2633 341.187 48.3317 341.285C48.4001 341.384 48.4385 341.518 48.4385 341.657Z" fill="white"/>
<path d="M51.0218 338.888H49.895V343.77H51.0218V338.888Z" fill="#455A64"/>
<path d="M52.6483 338.888H51.5215V343.77H52.6483V338.888Z" fill="#455A64"/>
<path d="M54.2777 338.888H53.1509V343.77H54.2777V338.888Z" fill="#455A64"/>
<path d="M55.9042 338.888H54.7773V343.77H55.9042V338.888Z" fill="#455A64"/>
<path d="M57.5306 338.888H56.4038V343.77H57.5306V338.888Z" fill="#455A64"/>
<path d="M59.1595 338.888H58.0327V343.77H59.1595V338.888Z" fill="#455A64"/>
<path d="M60.786 338.888H59.6592V343.77H60.786V338.888Z" fill="#455A64"/>
<path d="M62.4149 338.888H61.2881V343.77H62.4149V338.888Z" fill="#455A64"/>
<path d="M64.0414 338.888H62.9146V343.77H64.0414V338.888Z" fill="#455A64"/>
<path d="M65.6678 338.888H64.541V343.77H65.6678V338.888Z" fill="#455A64"/>
<path d="M65.8455 323.984H45.3706V332.29H65.8455V323.984Z" fill="#263238"/>
<path d="M47.0867 325.028H45.9399V331.386H47.0867V325.028Z" fill="#01A2BB"/>
<path d="M48.4385 326.364C48.439 326.468 48.418 326.57 48.3783 326.657C48.3385 326.744 48.2817 326.812 48.2151 326.852C48.1485 326.892 48.0751 326.903 48.0041 326.883C47.9332 326.863 47.868 326.814 47.8167 326.74C47.7654 326.667 47.7305 326.573 47.7162 326.471C47.7019 326.369 47.709 326.263 47.7365 326.167C47.764 326.071 47.8108 325.989 47.8708 325.931C47.9309 325.873 48.0015 325.842 48.0738 325.842C48.1701 325.842 48.2625 325.897 48.3308 325.994C48.3991 326.092 48.4379 326.225 48.4385 326.364Z" fill="white"/>
<path d="M48.4385 328.61C48.439 328.714 48.418 328.816 48.3783 328.903C48.3385 328.99 48.2817 329.058 48.2151 329.099C48.1485 329.139 48.0751 329.15 48.0041 329.13C47.9332 329.11 47.868 329.06 47.8167 328.987C47.7654 328.914 47.7305 328.82 47.7162 328.718C47.7019 328.616 47.709 328.51 47.7365 328.414C47.764 328.317 47.8108 328.235 47.8708 328.177C47.9309 328.119 48.0015 328.088 48.0738 328.088C48.1701 328.088 48.2625 328.143 48.3308 328.241C48.3991 328.339 48.4379 328.472 48.4385 328.61Z" fill="white"/>
<path d="M51.0218 325.842H49.895V330.723H51.0218V325.842Z" fill="#455A64"/>
<path d="M52.6483 325.842H51.5215V330.723H52.6483V325.842Z" fill="#455A64"/>
<path d="M54.2777 325.842H53.1509V330.723H54.2777V325.842Z" fill="#455A64"/>
<path d="M55.9042 325.842H54.7773V330.723H55.9042V325.842Z" fill="#455A64"/>
<path d="M57.5306 325.842H56.4038V330.723H57.5306V325.842Z" fill="#455A64"/>
<path d="M59.1595 325.842H58.0327V330.723H59.1595V325.842Z" fill="#455A64"/>
<path d="M60.786 325.842H59.6592V330.723H60.786V325.842Z" fill="#455A64"/>
<path d="M62.4149 325.842H61.2881V330.723H62.4149V325.842Z" fill="#455A64"/>
<path d="M64.0414 325.842H62.9146V330.723H64.0414V325.842Z" fill="#455A64"/>
<path d="M65.6678 325.842H64.541V330.723H65.6678V325.842Z" fill="#455A64"/>
<path d="M58.0326 260.84C58.0189 260.756 58.0122 260.671 58.0126 260.585C58.0126 260.415 57.9976 260.167 57.9901 259.847C57.9826 259.526 57.9901 259.127 57.9676 258.68C57.9562 258.17 57.9093 257.662 57.8277 257.165C57.7114 256.57 57.5265 256.008 57.2805 255.501C57.0002 254.922 56.6098 254.47 56.1562 254.202C55.6448 253.933 55.1083 253.777 54.5647 253.737L52.8033 253.514C50.3848 253.215 48.1936 253.021 46.6046 252.978C45.8101 252.956 45.168 252.978 44.7233 252.978H44.2111C44.1521 252.987 44.0926 252.987 44.0337 252.978C44.0923 252.963 44.1516 252.955 44.2111 252.953L44.7233 252.906C45.1655 252.881 45.8101 252.855 46.6071 252.863C48.1986 252.863 50.3948 253.043 52.8133 253.345L54.5772 253.568C55.1328 253.606 55.6813 253.765 56.2037 254.04C56.6755 254.324 57.08 254.799 57.368 255.408C57.6173 255.931 57.8024 256.512 57.9151 257.125C57.9955 257.633 58.0374 258.152 58.0401 258.673C58.0401 259.13 58.0401 259.523 58.0401 259.843C58.0401 260.163 58.0401 260.39 58.0401 260.563C58.0438 260.656 58.0413 260.748 58.0326 260.84Z" fill="#263238"/>
<path d="M51.8315 260.84C51.8203 260.761 51.8162 260.68 51.819 260.599V259.904C51.819 259.602 51.819 259.235 51.794 258.824C51.7788 258.348 51.6937 257.882 51.5442 257.456C51.3222 256.976 50.9963 256.616 50.6172 256.43C50.1884 256.189 49.7219 256.12 49.2681 256.232C49.0246 256.291 48.7892 256.405 48.571 256.571C48.3478 256.733 48.1607 256.983 48.0313 257.291C47.968 257.45 47.9346 257.63 47.9346 257.813C47.9346 257.996 47.968 258.176 48.0313 258.335C48.0964 258.5 48.1843 258.645 48.2896 258.759C48.3949 258.874 48.5153 258.956 48.6435 259.001C48.7712 259.041 48.9039 259.035 49.0295 258.983C49.1551 258.931 49.2697 258.834 49.363 258.702C49.5513 258.442 49.666 258.091 49.6853 257.716C49.7023 257.353 49.6258 256.994 49.4704 256.708C49.3316 256.417 49.1455 256.18 48.9283 256.016C48.7146 255.876 48.4854 255.791 48.2512 255.764C48.0213 255.718 47.7965 255.671 47.5791 255.638C47.1444 255.566 46.7346 255.527 46.3624 255.505C45.6128 255.462 45.0107 255.48 44.5934 255.48H44.1112C44.0556 255.489 43.9995 255.489 43.9438 255.48C43.9989 255.463 44.055 255.455 44.1112 255.455L44.5934 255.422C45.0107 255.397 45.6153 255.361 46.3649 255.386C46.7396 255.386 47.1519 255.433 47.5891 255.498C47.809 255.53 48.0363 255.57 48.2687 255.617C48.3861 255.642 48.501 255.664 48.6235 255.696C48.7484 255.733 48.8694 255.793 48.9832 255.876C49.2185 256.051 49.4208 256.306 49.5729 256.618C49.7487 256.945 49.8338 257.354 49.8117 257.767C49.7895 258.18 49.6616 258.565 49.453 258.85C49.3452 259.005 49.2123 259.12 49.0661 259.183C48.92 259.245 48.7653 259.255 48.616 259.21C48.4694 259.159 48.3316 259.066 48.2113 258.935C48.0909 258.804 47.9905 258.639 47.9164 258.45C47.844 258.264 47.8059 258.054 47.8059 257.84C47.8059 257.626 47.844 257.416 47.9164 257.23C48.0564 256.884 48.2629 256.604 48.511 256.423C48.7405 256.246 48.9886 256.124 49.2456 256.063C49.7208 255.951 50.2084 256.029 50.6547 256.29C51.0537 256.492 51.3942 256.881 51.6216 257.395C51.7783 257.842 51.8637 258.334 51.8715 258.835C51.889 259.267 51.8715 259.634 51.8715 259.937C51.8715 260.239 51.8565 260.452 51.8515 260.632C51.8489 260.702 51.8422 260.772 51.8315 260.84Z" fill="#263238"/>
<path d="M59.704 260.84C59.6834 260.752 59.6692 260.66 59.6616 260.567C59.6391 260.383 59.6041 260.117 59.5541 259.775C59.4166 258.812 59.2149 257.87 58.952 256.963C58.5807 255.607 57.9659 254.416 57.1706 253.514C56.6899 253.014 56.1264 252.705 55.5366 252.618C54.8985 252.518 54.2571 252.469 53.6153 252.47C50.9694 252.398 48.5709 252.413 46.837 252.316C45.97 252.272 45.2679 252.215 44.7832 252.164L44.2261 252.1C44.1613 252.096 44.0969 252.084 44.0337 252.064C44.0985 252.055 44.1638 252.055 44.2286 252.064L44.7857 252.096C45.2704 252.125 45.9725 252.161 46.8395 252.186C48.5734 252.251 50.9694 252.215 53.6178 252.287C54.2648 252.285 54.9113 252.337 55.5541 252.442C56.1646 252.536 56.7471 252.86 57.2431 253.381C57.6792 253.863 58.0588 254.443 58.3674 255.098C58.6324 255.664 58.8568 256.267 59.037 256.898C59.2951 257.817 59.4853 258.773 59.6041 259.75C59.6466 260.092 59.6741 260.362 59.6891 260.545C59.6997 260.643 59.7047 260.742 59.704 260.84Z" fill="#263238"/>
<path d="M65.5631 245.112H45.6504V249.277H65.5631V245.112Z" fill="#263238"/>
<path d="M60.8711 247.196H50.0303V249.277H60.8711V247.196Z" fill="#455A64"/>
<path d="M73.688 331.497C73.688 331.497 73.4681 331.548 73.0858 331.706C72.5498 331.942 72.0437 332.301 71.5868 332.768C71.2703 333.088 70.9861 333.47 70.7423 333.902C70.6069 334.14 70.4904 334.398 70.395 334.673C70.3025 334.971 70.2297 335.28 70.1776 335.598C69.9503 336.912 70.0177 338.42 70.0652 339.99C70.1127 341.559 70.0377 343.118 69.608 344.375C69.4136 344.97 69.1374 345.503 68.796 345.941C68.2483 346.626 67.5801 347.081 66.8647 347.255C66.6217 347.307 66.3754 347.323 66.1301 347.301C65.9758 347.287 65.8228 347.252 65.6729 347.197C65.6204 347.183 65.5692 347.16 65.5205 347.129C65.5205 347.107 65.7379 347.204 66.1326 347.226C66.3737 347.238 66.6149 347.213 66.8522 347.15C67.1652 347.065 67.4698 346.925 67.7591 346.733C68.1104 346.502 68.4355 346.196 68.7235 345.825C69.0509 345.397 69.3151 344.878 69.5006 344.299C69.9103 343.082 69.9803 341.556 69.9328 339.979C69.8853 338.402 69.8204 336.887 70.0602 335.537C70.1158 335.208 70.1936 334.889 70.2926 334.583C70.3927 334.297 70.515 334.029 70.6573 333.783C70.9115 333.346 71.2066 332.962 71.5343 332.642C72.0035 332.176 72.525 331.83 73.0759 331.62C73.2254 331.564 73.3773 331.522 73.5306 331.494C73.5829 331.485 73.6358 331.487 73.688 331.497Z" fill="#263238"/>
<path d="M66.1428 345.84H64.5088V348.705H66.1428V345.84Z" fill="#263238"/>
<path d="M82.8548 324.262H73.688V338.734H82.8548V324.262Z" fill="#455A64"/>
<path d="M80.4039 334.628C81.5826 332.93 81.5826 330.176 80.4039 328.478C79.2253 326.78 77.3143 326.78 76.1356 328.478C74.957 330.176 74.957 332.93 76.1356 334.628C77.3143 336.327 79.2253 336.327 80.4039 334.628Z" fill="#263238"/>
<path d="M79.7794 331.552C79.7794 331.979 79.6915 332.396 79.5268 332.752C79.362 333.107 79.1279 333.384 78.854 333.547C78.5801 333.711 78.2787 333.753 77.9879 333.67C77.6971 333.587 77.43 333.381 77.2203 333.079C77.0107 332.777 76.8679 332.392 76.8101 331.973C76.7522 331.554 76.7819 331.12 76.8954 330.725C77.0088 330.33 77.201 329.993 77.4475 329.756C77.694 329.518 77.9838 329.392 78.2803 329.392C78.6779 329.392 79.0592 329.619 79.3403 330.024C79.6215 330.429 79.7794 330.979 79.7794 331.552Z" fill="#455A64"/>
<path d="M74.9273 326.911C75.0818 326.911 75.2071 326.73 75.2071 326.508C75.2071 326.285 75.0818 326.104 74.9273 326.104C74.7727 326.104 74.6475 326.285 74.6475 326.508C74.6475 326.73 74.7727 326.911 74.9273 326.911Z" fill="#263238"/>
<path d="M81.4532 326.911C81.6077 326.911 81.733 326.73 81.733 326.508C81.733 326.285 81.6077 326.104 81.4532 326.104C81.2986 326.104 81.1733 326.285 81.1733 326.508C81.1733 326.73 81.2986 326.911 81.4532 326.911Z" fill="#263238"/>
<path d="M81.5108 337.596C81.6653 337.596 81.7906 337.415 81.7906 337.193C81.7906 336.97 81.6653 336.79 81.5108 336.79C81.3562 336.79 81.231 336.97 81.231 337.193C81.231 337.415 81.3562 337.596 81.5108 337.596Z" fill="#263238"/>
<path d="M74.9273 337.761C75.0818 337.761 75.2071 337.581 75.2071 337.358C75.2071 337.136 75.0818 336.955 74.9273 336.955C74.7727 336.955 74.6475 337.136 74.6475 337.358C74.6475 337.581 74.7727 337.761 74.9273 337.761Z" fill="#263238"/>
<path d="M83.5945 324.262H82.855V338.734H83.5945V324.262Z" fill="#263238"/>
<path d="M90.64 269.805C90.64 269.855 88.0141 269.898 84.7736 269.898C81.5331 269.898 78.9072 269.855 78.9072 269.805C78.9072 269.754 81.5331 269.711 84.7736 269.711C88.0141 269.711 90.64 269.754 90.64 269.805Z" fill="#263238"/>
<path d="M114.985 271.601C114.947 271.604 114.91 271.604 114.872 271.601H114.528H113.186L108.159 271.63L90.8072 271.68H90.7598L90.7473 271.616C90.5566 270.677 90.5225 269.687 90.6477 268.725C90.773 267.764 91.0541 266.859 91.4681 266.084C91.8821 265.309 92.4173 264.685 93.0301 264.265C93.6429 263.844 94.3161 263.638 94.9947 263.663L94.9297 263.782C94.8232 263.237 94.7777 262.67 94.7948 262.104C94.8164 261.141 95.0122 260.203 95.3628 259.382C95.7133 258.561 96.2065 257.886 96.7935 257.424C97.3613 256.997 97.9931 256.776 98.6336 256.781C99.2742 256.786 99.9043 257.017 100.469 257.453L100.381 257.5C100.694 256.452 101.155 255.509 101.734 254.731C102.314 253.953 102.999 253.358 103.747 252.982C104.434 252.607 105.168 252.438 105.902 252.488C106.637 252.538 107.356 252.804 108.017 253.27C109.204 254.177 110.138 255.647 110.66 257.432C111.138 259 111.252 260.749 110.985 262.418L110.937 262.338C111.617 262.238 112.304 262.381 112.936 262.756C113.504 263.083 114.015 263.584 114.435 264.225C114.625 264.512 114.784 264.84 114.905 265.197C115.013 265.527 115.097 265.872 115.155 266.226C115.257 266.842 115.314 267.472 115.325 268.106C115.347 268.979 115.295 269.853 115.17 270.708C115.136 270.93 115.094 271.148 115.045 271.364C115.01 271.508 114.99 271.576 114.99 271.576C114.99 271.576 115.005 271.497 115.035 271.353C115.065 271.209 115.102 270.993 115.145 270.701C115.259 269.848 115.304 268.978 115.277 268.109C115.262 267.482 115.201 266.858 115.097 266.248C114.986 265.517 114.74 264.843 114.385 264.297C113.973 263.671 113.472 263.18 112.916 262.857C112.292 262.494 111.616 262.359 110.947 262.464H110.885L110.897 262.374C111.157 260.732 111.04 259.013 110.565 257.475C110.051 255.726 109.133 254.286 107.967 253.4C107.32 252.946 106.616 252.688 105.897 252.641C105.179 252.595 104.461 252.761 103.789 253.13C103.058 253.5 102.389 254.084 101.823 254.845C101.256 255.607 100.805 256.529 100.499 257.554L100.471 257.648L100.409 257.601C99.8626 257.179 99.253 256.957 98.6333 256.952C98.0137 256.948 97.4026 257.162 96.8535 257.576C96.2902 258.023 95.8173 258.674 95.4809 259.464C95.1446 260.254 94.9564 261.156 94.9347 262.083C94.9095 262.648 94.95 263.215 95.0546 263.76L95.0796 263.883H94.9897C94.3308 263.857 93.6771 264.056 93.0818 264.464C92.4865 264.871 91.9664 265.476 91.5638 266.228C91.1613 266.98 90.8877 267.858 90.7654 268.791C90.643 269.724 90.6753 270.686 90.8597 271.598L90.7997 271.533L108.119 271.572L113.158 271.598H114.51H114.86L114.985 271.601Z" fill="#263238"/>
<path d="M111.62 292.859C111.567 292.868 111.515 292.868 111.462 292.859L111.003 292.877L109.296 292.92L103.38 292.953H103.3V292.863C103.3 291.423 103.3 289.857 103.3 288.24C103.3 283.686 103.315 279.568 103.32 276.566C103.32 275.082 103.335 273.88 103.34 273.027C103.34 272.624 103.34 272.307 103.352 272.066C103.352 271.965 103.352 271.882 103.352 271.814C103.345 271.811 103.339 271.805 103.335 271.796C103.331 271.787 103.329 271.777 103.33 271.766C103.331 271.756 103.334 271.746 103.34 271.739C103.345 271.732 103.352 271.729 103.36 271.729C103.367 271.729 103.374 271.732 103.38 271.739C103.385 271.746 103.389 271.756 103.39 271.766C103.39 271.777 103.389 271.787 103.385 271.796C103.38 271.805 103.374 271.811 103.367 271.814C103.367 271.882 103.367 271.965 103.367 272.066C103.367 272.3 103.367 272.624 103.38 273.027C103.38 273.88 103.392 275.082 103.4 276.566C103.4 279.568 103.4 283.686 103.42 288.24C103.42 289.857 103.42 291.419 103.42 292.863L103.357 292.773L109.274 292.805L110.988 292.834H111.447C111.505 292.835 111.563 292.843 111.62 292.859Z" fill="#263238"/>
<path d="M109.326 246.776L103.749 243.896L98.2252 246.743C97.5206 247.222 96.901 247.51 96.901 248.457V253.169C96.8908 256.478 97.5206 259.725 98.7199 262.547C99.9144 265.405 101.688 267.666 103.802 269.027C106.05 267.969 107.747 265.154 108.776 262.745C109.975 259.922 110.605 256.673 110.595 253.364V249.108C110.595 247.758 110.1 247.1 109.326 246.776Z" fill="#01A2BB"/>
<g opacity="0.3">
<path d="M103.799 266.28C102.125 265.192 100.722 263.392 99.7792 261.121C98.8283 258.882 98.3307 256.305 98.3426 253.68V250.375C98.3426 249.627 98.6549 248.935 99.2795 248.507L103.749 246.12V243.888L98.2252 246.736C97.6455 247.096 96.901 247.503 96.901 248.449V253.162C96.8908 256.471 97.5206 259.718 98.7199 262.54C99.9144 265.397 101.688 267.659 103.802 269.02L103.799 266.28Z" fill="black"/>
</g>
<g opacity="0.4">
<path d="M103.799 269.009C104.178 268.83 104.545 268.603 104.896 268.332C105.756 267.63 106.538 266.744 107.215 265.704C107.829 264.75 108.37 263.702 108.829 262.58C110.044 259.738 110.657 256.448 110.592 253.112V249.22C110.592 247.283 109.898 247.139 109.318 246.776L103.742 243.896V246.12L108.266 248.568C108.889 248.99 109.201 249.692 109.201 250.44V253.745C109.209 256.363 108.711 258.932 107.762 261.165C106.839 263.419 105.455 265.206 103.799 266.28V269.009Z" fill="black"/>
</g>
<path opacity="0.5" d="M105.228 253.482V252.845C105.228 252.291 105.076 251.76 104.804 251.368C104.532 250.977 104.164 250.757 103.779 250.757C103.395 250.757 103.026 250.977 102.755 251.368C102.483 251.76 102.33 252.291 102.33 252.845V253.489C102.138 253.531 101.962 253.67 101.835 253.882C101.708 254.094 101.638 254.365 101.638 254.645V258.396C101.638 258.55 101.659 258.701 101.7 258.843C101.741 258.985 101.801 259.114 101.876 259.222C101.952 259.33 102.041 259.416 102.14 259.475C102.238 259.533 102.344 259.563 102.45 259.562H105.151C105.258 259.563 105.363 259.533 105.462 259.475C105.56 259.416 105.65 259.33 105.725 259.222C105.8 259.114 105.86 258.985 105.901 258.843C105.942 258.701 105.963 258.55 105.963 258.396V254.645C105.963 254.354 105.887 254.074 105.752 253.859C105.616 253.644 105.429 253.51 105.228 253.482ZM104.172 257.464H103.465L103.577 256.744C103.514 256.689 103.463 256.611 103.427 256.519C103.391 256.427 103.372 256.324 103.372 256.218C103.372 256.11 103.391 256.004 103.427 255.91C103.464 255.816 103.517 255.737 103.581 255.682C103.645 255.626 103.718 255.595 103.792 255.592C103.867 255.589 103.941 255.614 104.007 255.665C104.073 255.715 104.129 255.79 104.169 255.881C104.209 255.972 104.232 256.076 104.236 256.184C104.24 256.291 104.224 256.399 104.19 256.495C104.157 256.591 104.106 256.673 104.044 256.733C104.094 256.999 104.172 257.464 104.172 257.464ZM104.921 253.478H102.65V252.845C102.65 252.41 102.77 251.994 102.983 251.687C103.196 251.379 103.485 251.207 103.787 251.207C104.088 251.207 104.378 251.379 104.591 251.687C104.804 251.994 104.924 252.41 104.924 252.845L104.921 253.478Z" fill="white"/>
<path d="M99.2471 253.435C99.1983 253.225 99.1698 253.006 99.1621 252.784C99.1214 252.253 99.1063 251.719 99.1172 251.185C99.1172 250.872 99.1372 250.573 99.1571 250.303C99.1665 250.054 99.2089 249.81 99.2821 249.583C99.3375 249.429 99.4248 249.303 99.5319 249.223C99.6069 249.173 99.6543 249.177 99.6543 249.184C99.5199 249.274 99.4119 249.429 99.3495 249.623C99.2894 249.838 99.2564 250.068 99.2521 250.3C99.2371 250.57 99.2271 250.865 99.2196 251.175C99.2196 251.794 99.2196 252.355 99.2371 252.762C99.2542 252.986 99.2575 253.211 99.2471 253.435Z" fill="white"/>
<path d="M99.3296 255.48C99.3021 255.48 99.2771 255.29 99.2747 255.048C99.2722 254.807 99.2896 254.613 99.3171 254.613C99.3446 254.613 99.3671 254.807 99.3721 255.045C99.3771 255.282 99.3546 255.48 99.3296 255.48Z" fill="white"/>
</g>
<defs>
<radialGradient id="paint0_radial_407_6121" cx="0" cy="0" r="1" gradientUnits="userSpaceOnUse" gradientTransform="translate(86 102.662) rotate(88.803) scale(191.478 188.408)">
<stop stop-color="#01A2BB"/>
<stop offset="1" stop-color="#FEFFFF" stop-opacity="0"/>
</radialGradient>
<clipPath id="clip0_407_6121">
<rect width="140" height="120" fill="white" transform="translate(16 231)"/>
</clipPath>
</defs>
</svg>
