<svg width="173" height="351" viewBox="0 0 173 351" fill="none" xmlns="http://www.w3.org/2000/svg">
<line x1="80.75" y1="-0.000488281" x2="80.75" y2="101.004" stroke="#141414" stroke-width="4"/>
<path d="M73 104C73 102.343 74.3431 101 76 101H84C85.6569 101 87 102.343 87 104V113H73V104Z" fill="#004A6E"/>
<path d="M71.1606 113H88.8394C89.5571 113 90.2198 113.385 90.5758 114.008L94 120H66L69.4242 114.008C69.7802 113.385 70.4429 113 71.1606 113Z" fill="#01A2BB" stroke="#01A2BB"/>
<path d="M173 301L132 156.59L110.5 129.513L80 125L47 132.221L29 156.59L0 301H173Z" fill="url(#paint0_radial_407_6122)"/>
<ellipse cx="80" cy="144.5" rx="52" ry="26.5" fill="#01A2BB"/>
<ellipse cx="80" cy="149.5" rx="52" ry="21.5" fill="#004A6E"/>
<g clip-path="url(#clip0_407_6122)">
<path d="M114.351 255.142L151.023 255.34C151.023 255.34 147.543 245.065 140.119 245.059C134.46 245.059 134.21 249.613 130.813 250.915C127.417 252.217 120.26 244.246 114.351 255.142Z" fill="#EBEBEB"/>
<path d="M56.3535 238.627L82.957 238.771C82.957 238.771 80.4374 231.319 75.0527 231.313C70.9486 231.313 70.7654 234.613 68.3038 235.561C65.8423 236.509 60.6409 230.725 56.3535 238.627Z" fill="#EBEBEB"/>
<path d="M145.374 324.76C143.258 319.66 138.513 316.099 134.238 317.764C134.702 312.328 132.382 306.664 128.628 304.132C126.315 302.619 123.658 302.235 121.144 303.052V349.21H144.497L146.619 341.689C147.457 336.007 147.492 329.851 145.374 324.76Z" fill="#EBEBEB"/>
<path d="M152.016 336.268C150.809 336.089 149.586 336.253 148.433 336.751C148.535 334.222 148.111 331.703 147.204 329.458C146.298 327.213 144.943 325.323 143.28 323.984C141.618 322.646 139.708 321.908 137.75 321.848C135.792 321.787 133.857 322.406 132.147 323.641C131.964 322.086 131.509 320.605 130.816 319.313C130.122 318.02 129.21 316.95 128.147 316.183C127.085 315.417 125.901 314.975 124.686 314.891C123.472 314.807 122.258 315.084 121.139 315.7V348.88H160.043V348.067C160.043 342.1 156.618 336.919 152.016 336.268Z" fill="#E0E0E0"/>
<path d="M12.3914 349.147C11.87 347.081 11.6909 344.896 11.8658 342.735C12.0407 340.573 12.5656 338.484 13.4065 336.602C14.2473 334.72 15.3852 333.089 16.7461 331.813C18.1069 330.538 19.6602 329.648 21.3048 329.2C21.3466 322.636 24.402 316.249 28.9237 313.267C33.4454 310.285 39.2384 310.84 43.3703 314.65L44.2659 349.261L12.3914 349.147Z" fill="#E0E0E0"/>
<path d="M164.66 349.3C164.66 349.345 130.66 349.378 88.7308 349.378C46.8015 349.378 12.7949 349.354 12.7949 349.3C12.7949 349.246 46.7876 349.222 88.7308 349.222C130.674 349.222 164.66 349.267 164.66 349.3Z" fill="#263238"/>
<path d="M120.947 334.831H31.1904V274.531H120.415C120.415 274.531 120.947 335.5 120.947 334.831Z" fill="#F5F5F5"/>
<path d="M87.8613 278.119V305.119H103.405V278.119C103.405 278.119 87.8613 278.335 87.8613 278.119Z" fill="#E0E0E0"/>
<path d="M87.8613 278.173V282.373L103.401 282.496V278.119L87.8613 278.173Z" fill="#455A64"/>
<path d="M93.4805 280.051V280.873H98.4569V280.159L93.4805 280.051Z" fill="white"/>
<path d="M93.5916 284.305H88.7266V291.049H93.5916V284.305Z" fill="white"/>
<path d="M92.9121 298.117H93.1279H93.745H96.0047L95.9861 298.141C95.9861 296.131 95.9861 293.479 95.9861 290.575V288.853H96.0093H100.482L100.464 288.874C100.48 287.629 100.494 286.612 100.503 285.874C100.503 285.532 100.503 285.274 100.515 285.058C100.526 284.842 100.515 284.773 100.515 284.773C100.515 284.773 100.515 284.872 100.515 285.058C100.515 285.244 100.515 285.532 100.515 285.874C100.515 286.6 100.501 287.617 100.492 288.874V288.895H100.473H96L96.0256 288.865V290.554C96.0256 293.458 96.0256 296.11 96.0256 298.12V298.144H96.007H93.7473H93.1302L92.9121 298.117Z" fill="#01A2BB"/>
<path d="M102.069 300.115H101.7H100.661H96.9486H96.9277V300.088C96.9277 298.147 96.9277 295.861 96.9277 293.422V290.308H100.018L99.9971 290.335C99.9971 288.475 99.9971 286.924 99.9971 285.835C99.9971 285.301 99.9971 284.878 99.9971 284.575C99.9971 284.272 99.9971 284.131 99.9971 284.131C99.9971 284.131 99.9971 284.284 99.9971 284.575C99.9971 284.866 99.9971 285.301 99.9971 285.835C99.9971 286.933 99.9971 288.484 99.9971 290.335V290.362H96.944L96.9672 290.332V293.443C96.9672 295.882 96.9672 298.168 96.9672 300.109L96.9463 300.082H100.658H101.698L102.069 300.115Z" fill="#263238"/>
<path d="M88.7598 292.561V293.197H92.6945V292.435L88.7598 292.561Z" fill="white"/>
<path d="M88.7266 293.629V294.262H92.6636V293.503L88.7266 293.629Z" fill="white"/>
<path d="M25.4326 246.544V266.26H125.914V246.784C125.914 246.784 25.0661 246.07 25.4326 246.544Z" fill="#263238"/>
<path d="M107.399 264.58L107.41 349.3H108.99L109.004 265.048C109.004 265.048 107.134 264.58 107.399 264.58Z" fill="#263238"/>
<path d="M118.486 265.216L118.75 349.144H121.91V265.216C121.91 265.216 118.224 264.862 118.486 265.216Z" fill="#263238"/>
<path d="M25.4326 255.622V260.299H125.914V255.34L25.4326 255.622Z" fill="#01A2BB"/>
<path d="M28.4118 264.073L28.6762 349.333H31.8407V264.073C31.8407 264.073 28.1496 263.713 28.4118 264.073Z" fill="#263238"/>
<path d="M42.8883 266.077V349.378H44.4682V265.678C44.4682 265.678 42.6238 266.077 42.8883 266.077Z" fill="#263238"/>
<path d="M33.0049 277.393L33.0977 331.792H41.7072L41.5355 277.393H33.0049Z" fill="#01A2BB"/>
<path d="M69.9039 326.917H68.2822V349.177H69.9039V326.917Z" fill="#263238"/>
<path d="M88.3481 327.067H49.0078C48.8302 327.067 48.6543 327.022 48.4902 326.934C48.3261 326.846 48.177 326.717 48.0514 326.555C47.9258 326.392 47.8262 326.199 47.7582 325.987C47.6903 325.775 47.6553 325.547 47.6553 325.318C47.6559 324.854 47.7987 324.41 48.0522 324.083C48.3058 323.756 48.6495 323.572 49.0078 323.572H88.355C88.713 323.573 89.056 323.757 89.3091 324.084C89.5622 324.411 89.7047 324.855 89.7053 325.318C89.7053 325.548 89.6701 325.776 89.6019 325.988C89.5336 326.201 89.4336 326.394 89.3075 326.557C89.1814 326.719 89.0317 326.848 88.8671 326.935C88.7025 327.023 88.5261 327.068 88.3481 327.067Z" fill="#455A64"/>
<path d="M84.5411 347.581L84.7893 345.181L81.3325 344.551L80.9404 348.037L81.1539 348.094C82.1004 348.337 85.9771 349.243 86.643 349.111C87.3831 348.973 84.5411 347.581 84.5411 347.581Z" fill="#01A2BB"/>
<g opacity="0.3">
<path d="M82.198 348.244C82.1874 347.859 82.0677 347.491 81.8616 347.212C81.6589 346.935 81.3833 346.766 81.089 346.738L80.9521 347.986L82.198 348.244Z" fill="white"/>
</g>
<g opacity="0.3">
<path d="M85.9215 348.328C85.9215 348.328 86.9098 348.898 86.7567 349.096C86.6035 349.294 82.6595 348.568 80.9404 348.049L80.9567 347.953L85.5549 348.853C85.5549 348.853 85.7196 348.301 85.9215 348.328Z" fill="white"/>
</g>
<path d="M80.9033 347.938C80.922 347.948 80.9415 347.955 80.9613 347.959L81.1307 348.004L81.7548 348.154C82.2837 348.274 83.0145 348.43 83.8242 348.58C84.6339 348.73 85.3693 348.844 85.9122 348.919L86.5432 349L86.7149 349.018H86.7752L86.7172 349.003L86.5456 348.976L85.896 348.88C85.3647 348.796 84.6292 348.676 83.808 348.526C82.9867 348.376 82.2675 348.226 81.7385 348.115L81.1121 347.983L80.9428 347.947L80.9033 347.938Z" fill="#263238"/>
<path d="M85.5459 348.916C85.5875 348.786 85.6413 348.663 85.706 348.55C85.7806 348.448 85.8638 348.356 85.9542 348.277C85.8416 348.31 85.7419 348.394 85.6735 348.514C85.5936 348.623 85.5481 348.766 85.5459 348.916Z" fill="#263238"/>
<path d="M84.5989 348.061C84.5989 348.061 84.6639 348.001 84.7265 347.908C84.7892 347.815 84.8309 347.731 84.8217 347.722C84.8124 347.713 84.7567 347.779 84.6941 347.872C84.6314 347.965 84.5897 348.049 84.5989 348.061Z" fill="#263238"/>
<path d="M84.3392 347.818C84.3392 347.818 84.4064 347.794 84.4737 347.734C84.541 347.674 84.5897 347.62 84.5828 347.605C84.5758 347.59 84.5178 347.632 84.4505 347.689C84.3832 347.746 84.3345 347.8 84.3392 347.818Z" fill="#263238"/>
<path d="M84.21 347.362C84.2641 347.401 84.3245 347.422 84.3863 347.425C84.4473 347.444 84.5108 347.444 84.5719 347.425C84.5164 347.388 84.4555 347.367 84.3932 347.362C84.3328 347.345 84.2704 347.345 84.21 347.362Z" fill="#263238"/>
<path d="M84.1816 347.053C84.2348 347.117 84.3023 347.157 84.3742 347.167C84.4429 347.195 84.5166 347.195 84.5853 347.167C84.5194 347.141 84.4519 347.122 84.3835 347.11C84.3173 347.085 84.2499 347.066 84.1816 347.053Z" fill="#263238"/>
<path d="M84.7598 347.692C84.8346 347.723 84.9132 347.737 84.9918 347.731C85.0733 347.731 85.1547 347.723 85.2354 347.707C85.2846 347.698 85.3329 347.682 85.3792 347.659C85.4073 347.645 85.4298 347.617 85.4418 347.581C85.4478 347.56 85.449 347.537 85.4453 347.516C85.4416 347.494 85.4332 347.474 85.421 347.458C85.3421 347.389 85.2472 347.358 85.1524 347.369C85.0576 347.381 84.9688 347.434 84.9013 347.521C84.861 347.571 84.8294 347.631 84.8085 347.698C84.7991 347.722 84.7944 347.749 84.7946 347.776C84.8258 347.69 84.8691 347.613 84.9222 347.548C84.98 347.481 85.0519 347.439 85.1286 347.425C85.22 347.403 85.3143 347.429 85.3908 347.497C85.4233 347.536 85.4024 347.587 85.3606 347.611C85.3179 347.632 85.2736 347.647 85.2284 347.656C85.152 347.676 85.0744 347.689 84.9964 347.692C84.8456 347.698 84.7598 347.683 84.7598 347.692Z" fill="#263238"/>
<path d="M84.8147 347.716C84.8481 347.66 84.8653 347.591 84.8634 347.521C84.8635 347.445 84.85 347.37 84.8239 347.302C84.8096 347.257 84.7868 347.217 84.7577 347.185C84.7286 347.154 84.694 347.132 84.6569 347.122C84.6453 347.123 84.634 347.127 84.6235 347.133C84.613 347.139 84.6036 347.149 84.5959 347.16C84.5881 347.171 84.5821 347.184 84.5783 347.198C84.5744 347.212 84.5727 347.227 84.5734 347.242C84.5734 347.289 84.5813 347.335 84.5966 347.377C84.6188 347.446 84.6476 347.51 84.6824 347.569C84.7427 347.671 84.7938 347.713 84.7961 347.707C84.7984 347.701 84.759 347.65 84.7079 347.548C84.6777 347.488 84.6528 347.423 84.6337 347.356C84.6082 347.29 84.5989 347.179 84.6569 347.176C84.7149 347.173 84.7613 347.26 84.7891 347.323C84.8143 347.384 84.8293 347.452 84.8332 347.521C84.831 347.587 84.8248 347.652 84.8147 347.716Z" fill="#263238"/>
<path d="M81.1074 346.729C81.1074 346.729 81.2095 346.729 81.3626 346.789C81.5629 346.856 81.7446 346.994 81.8867 347.188C82.0288 347.383 82.1254 347.625 82.1653 347.887C82.1955 348.088 82.1862 348.217 82.1955 348.217C82.1995 348.187 82.1995 348.157 82.1955 348.127C82.2027 348.045 82.2027 347.963 82.1955 347.881C82.1625 347.607 82.0663 347.352 81.9194 347.149C81.7716 346.949 81.581 346.81 81.3719 346.75C81.3094 346.733 81.2457 346.723 81.1817 346.72L81.1074 346.729Z" fill="#263238"/>
<path d="M81.6716 344.935C81.6135 345.231 81.5693 345.532 81.5393 345.835C81.4959 346.14 81.4665 346.447 81.4512 346.756C81.5081 346.46 81.5514 346.159 81.5811 345.856C81.6245 345.551 81.6547 345.244 81.6716 344.935Z" fill="#263238"/>
<path d="M82.6807 347.887C82.8398 347.97 83.0068 348.023 83.1771 348.046C83.346 348.088 83.5184 348.101 83.6899 348.085C83.6899 348.07 83.4579 348.046 83.1841 347.992C82.9103 347.938 82.683 347.872 82.6807 347.887Z" fill="#263238"/>
<path d="M82.0029 347.764C82.0029 347.764 82.0029 347.827 82.0308 347.899C82.0586 347.971 82.0516 348.031 82.0656 348.034C82.0795 348.037 82.0911 347.965 82.0656 347.884C82.04 347.803 82.0122 347.752 82.0029 347.764Z" fill="#263238"/>
<path d="M81.7944 347.305C81.7828 347.305 81.7944 347.365 81.8315 347.419C81.8686 347.473 81.8941 347.509 81.9034 347.5C81.9127 347.491 81.9034 347.44 81.8663 347.386C81.8292 347.332 81.8036 347.296 81.7944 347.305Z" fill="#263238"/>
<path d="M81.4483 347.05C81.4483 347.065 81.4947 347.074 81.5434 347.107C81.5922 347.14 81.6246 347.182 81.6339 347.173C81.6432 347.164 81.6223 347.098 81.562 347.059C81.5017 347.02 81.446 347.035 81.4483 347.05Z" fill="#263238"/>
<path d="M81.1982 346.915C81.1982 346.915 81.2098 346.954 81.2377 346.975C81.2655 346.996 81.291 346.999 81.2957 346.975C81.3003 346.951 81.2841 346.936 81.2586 346.918C81.233 346.9 81.2052 346.9 81.1982 346.915Z" fill="#263238"/>
<path d="M93.8171 335.419L92.8891 333.319L89.8545 335.548L91.1908 338.62L91.3857 338.5C92.2487 337.945 95.7473 335.599 96.2113 334.969C96.7263 334.279 93.8171 335.419 93.8171 335.419Z" fill="#01A2BB"/>
<g opacity="0.3">
<path d="M92.2738 337.795C92.0844 337.496 91.8155 337.299 91.5198 337.243C91.2285 337.183 90.9305 337.267 90.6846 337.477L91.1648 338.575L92.2738 337.795Z" fill="white"/>
</g>
<g opacity="0.3">
<path d="M95.2641 334.921C95.2641 334.921 96.3151 334.594 96.2872 334.87C96.2594 335.146 92.791 337.684 91.1832 338.632L91.1484 338.542L95.2131 335.623C95.2131 335.623 95.0901 335.059 95.2641 334.921Z" fill="white"/>
</g>
<path d="M91.1045 338.575L91.1602 338.545L91.3156 338.446L91.8817 338.071C92.3573 337.753 93.0092 337.297 93.7215 336.778C94.4337 336.259 95.0694 335.767 95.5264 335.404L96.0646 334.969L96.2108 334.849L96.2595 334.804C96.2404 334.813 96.2224 334.825 96.2062 334.84L96.0577 334.951L95.5102 335.371C95.0462 335.725 94.4128 336.208 93.7006 336.73C92.9883 337.252 92.3387 337.708 91.8678 338.038L91.3086 338.428L91.1555 338.533L91.1045 338.575Z" fill="#263238"/>
<path d="M95.2435 335.683C95.2148 335.548 95.1992 335.409 95.1971 335.269C95.2074 335.13 95.2299 334.992 95.2644 334.858C95.1901 334.972 95.1513 335.118 95.1553 335.266C95.142 335.415 95.1736 335.564 95.2435 335.683Z" fill="#263238"/>
<path d="M94.0878 335.752C94.1017 335.752 94.1133 335.656 94.1179 335.533C94.1275 335.458 94.1236 335.381 94.1063 335.308C94.0725 335.452 94.0661 335.604 94.0878 335.752Z" fill="#263238"/>
<path d="M93.7701 335.764C93.7817 335.764 93.8096 335.692 93.8351 335.593C93.8606 335.494 93.8745 335.41 93.8629 335.407C93.8513 335.404 93.8212 335.479 93.7956 335.578C93.7701 335.677 93.7585 335.761 93.7701 335.764Z" fill="#263238"/>
<path d="M93.4526 335.5C93.5134 335.486 93.5712 335.456 93.622 335.41C93.7102 335.347 93.7774 335.284 93.7705 335.272C93.7635 335.26 93.6893 335.299 93.6011 335.362C93.513 335.425 93.4457 335.5 93.4526 335.5Z" fill="#263238"/>
<path d="M93.2832 335.287C93.3554 335.294 93.4276 335.272 93.4897 335.224C93.557 335.191 93.6157 335.134 93.659 335.059C93.594 335.09 93.5311 335.128 93.4711 335.173C93.4059 335.204 93.343 335.242 93.2832 335.287Z" fill="#263238"/>
<path d="M94.042 335.335C94.1165 335.306 94.1865 335.261 94.2485 335.2C94.3141 335.137 94.3747 335.066 94.4295 334.987C94.4645 334.941 94.4956 334.891 94.5223 334.837C94.5378 334.803 94.5428 334.762 94.5362 334.723C94.5307 334.702 94.5208 334.684 94.5077 334.67C94.4946 334.657 94.4787 334.648 94.462 334.645C94.3669 334.652 94.2767 334.702 94.2069 334.786C94.1371 334.869 94.0919 334.982 94.0792 335.104C94.0664 335.175 94.0664 335.249 94.0792 335.32C94.0835 335.346 94.0922 335.371 94.1047 335.392C94.092 335.299 94.092 335.203 94.1047 335.11C94.1209 335.012 94.1579 334.922 94.2114 334.849C94.2406 334.806 94.2761 334.77 94.3159 334.744C94.3557 334.718 94.399 334.703 94.4434 334.699C94.4875 334.699 94.4944 334.762 94.4736 334.813C94.4491 334.863 94.4211 334.91 94.39 334.954C94.337 335.031 94.2796 335.104 94.2184 335.17C94.114 335.272 94.0397 335.326 94.042 335.335Z" fill="#263238"/>
<path d="M94.0972 335.311C94.0986 335.241 94.0795 335.172 94.0438 335.119C94.0087 335.058 93.9625 335.008 93.9093 334.975C93.8761 334.951 93.8385 334.938 93.8002 334.938C93.762 334.938 93.7244 334.951 93.6912 334.975C93.675 334.997 93.666 335.026 93.666 335.056C93.666 335.086 93.675 335.116 93.6912 335.137C93.7127 335.174 93.7405 335.204 93.7724 335.224C93.8231 335.261 93.8768 335.29 93.9325 335.311C94.0276 335.344 94.0879 335.338 94.0879 335.329C94.0879 335.32 94.0299 335.314 93.9418 335.272C93.8897 335.25 93.8399 335.22 93.7933 335.182C93.7422 335.149 93.6819 335.065 93.726 335.017C93.7534 335 93.7836 334.991 93.8142 334.991C93.8447 334.991 93.8749 335 93.9023 335.017C93.9516 335.045 93.9953 335.087 94.0299 335.14C94.0568 335.194 94.0793 335.251 94.0972 335.311Z" fill="#263238"/>
<path d="M90.6965 337.456C90.7717 337.399 90.8491 337.347 90.9285 337.3C91.1194 337.194 91.3297 337.16 91.5349 337.202C91.7402 337.244 91.9321 337.36 92.0885 337.537C92.2091 337.672 92.2625 337.783 92.2694 337.777C92.2621 337.747 92.2503 337.72 92.2346 337.696C92.1977 337.629 92.1557 337.567 92.1094 337.51C91.9537 337.32 91.7572 337.194 91.5456 337.15C91.3334 337.108 91.1164 337.148 90.9215 337.264C90.864 337.301 90.809 337.345 90.7568 337.393C90.7127 337.429 90.6942 337.453 90.6965 337.456Z" fill="#263238"/>
<path d="M90.3037 335.59C90.3992 335.874 90.5085 336.15 90.6308 336.415C90.7393 336.692 90.8609 336.959 90.9951 337.216C90.8984 336.933 90.7892 336.658 90.668 336.391C90.5585 336.116 90.4368 335.848 90.3037 335.59Z" fill="#263238"/>
<path d="M92.4894 337.132C92.8135 336.99 93.1152 336.773 93.3803 336.493C93.3803 336.478 93.1831 336.64 92.9372 336.817C92.6913 336.994 92.4825 337.117 92.4894 337.132Z" fill="#263238"/>
<path d="M91.8936 337.567C91.8936 337.582 91.933 337.609 91.9794 337.654C92.0258 337.699 92.0583 337.741 92.0699 337.732C92.0815 337.723 92.0583 337.66 92.0049 337.609C91.9516 337.558 91.8959 337.552 91.8936 337.567Z" fill="#263238"/>
<path d="M91.5107 337.369C91.5107 337.369 91.5455 337.411 91.5943 337.429C91.643 337.447 91.6871 337.45 91.6894 337.429C91.6917 337.408 91.6546 337.39 91.6059 337.372C91.5571 337.354 91.5131 337.357 91.5107 337.369Z" fill="#263238"/>
<path d="M91.1186 337.441C91.1186 337.441 91.165 337.423 91.2184 337.411C91.2717 337.399 91.3181 337.411 91.3228 337.39C91.3274 337.369 91.2764 337.339 91.2114 337.357C91.1464 337.375 91.1093 337.432 91.1186 337.441Z" fill="#263238"/>
<path d="M90.8545 337.531C90.8545 337.546 90.8823 337.552 90.9148 337.546C90.9473 337.54 90.9682 337.525 90.9659 337.51C90.9635 337.495 90.938 337.486 90.9079 337.492C90.8777 337.498 90.8545 337.516 90.8545 337.531Z" fill="#263238"/>
<path d="M82.1561 302.05C82.1561 302.05 83.497 309.019 83.9169 308.722C86.1998 307.105 88.4618 304.126 89.3086 302.953C89.3411 302.794 89.3736 302.617 89.4061 302.416C89.4416 302.182 89.4471 301.942 89.4223 301.705C89.4017 301.41 89.3493 301.12 89.2669 300.844C89.1741 300.601 89.3504 300.334 89.5174 300.445C89.6845 300.556 89.9559 301.219 89.9814 302.095C90.0069 302.971 90.631 301.87 90.863 301.471C91.095 301.072 91.856 299.89 92.0045 299.89C92.2225 299.89 92.2643 300.19 92.0277 300.586C91.791 300.982 91.1368 302.212 91.3015 302.365C91.4662 302.518 92.6216 300.472 92.6216 300.472C92.6216 300.472 92.8165 299.98 93.0114 300.151C93.3617 300.451 92.0091 302.506 91.8769 302.695C91.7841 302.83 91.9581 302.995 92.0532 302.854C92.1483 302.713 93.1714 300.781 93.531 301.087C93.8071 301.321 92.4313 302.788 92.3849 303.343C92.3385 303.898 93.3454 302.089 93.6006 302.329C93.6981 302.416 93.7584 302.5 93.0694 303.427C92.4892 304.14 91.8789 304.811 91.2412 305.437C89.413 308.077 82.6572 316.57 81.2768 312.016C79.6342 306.598 79.8848 303.097 79.8848 303.097L82.1561 302.05Z" fill="#FFBE9D"/>
<path d="M72.5376 304.549L72.9506 310.06L72.4634 313.915L71.7674 316.039L80.885 314.773L80.1287 309.826L80.2006 308.149C80.3889 309.251 80.6212 310.34 80.8966 311.41C81.3768 313.147 82.2677 313.51 82.2677 313.51C85.2837 314.371 91.0837 305.977 91.0837 305.977L89.0189 302.752L84.1168 308.2C84.1521 308.146 84.1715 308.078 84.1715 308.007C84.1715 307.936 84.1521 307.867 84.1168 307.813C83.9915 307.618 83.7664 308.2 83.7664 308.2L82.6204 302.875C82.6204 302.875 82.2863 298.093 78.6624 297.865H75.6464C74.2617 298.23 72.9978 299.139 72.0274 300.467C71.057 301.795 70.4274 303.479 70.2246 305.287C70.1669 305.834 70.1343 306.385 70.1272 306.937C70.0413 313.537 72.5423 315.007 72.5423 315.007L73.9343 309.589L72.5376 304.549Z" fill="#455A64"/>
<path d="M79.8643 308.332C80.0073 308.191 80.1265 308.013 80.2146 307.81C80.4511 307.34 80.6002 306.806 80.6502 306.249C80.7001 305.692 80.6494 305.127 80.5023 304.6C80.4508 304.38 80.3656 304.176 80.2517 304C80.2355 304 80.3329 304.243 80.428 304.642C80.5503 305.16 80.5897 305.705 80.544 306.244C80.4958 306.782 80.3624 307.302 80.1519 307.771C79.9919 308.119 79.8643 308.317 79.8643 308.332Z" fill="#263238"/>
<path d="M80.7435 313.6C80.6007 313.518 80.462 313.425 80.3283 313.321C79.3999 312.67 78.407 312.187 77.3772 311.884C77.0315 311.785 76.6627 311.698 76.2799 311.638C76.0896 311.608 75.8924 311.581 75.6929 311.566C75.4934 311.551 75.2915 311.548 75.0804 311.503C74.8621 311.469 74.6609 311.334 74.5143 311.122C74.3865 310.91 74.2984 310.663 74.2568 310.399C74.1733 309.898 74.1408 309.418 74.0991 308.956C74.0345 308.141 74.0027 307.322 74.0039 306.502C74.0039 305.803 74.0318 305.239 74.0573 304.849C74.0573 304.654 74.0805 304.501 74.0921 304.399C74.0931 304.347 74.1002 304.295 74.113 304.246C74.121 304.446 74.121 304.646 74.113 304.846C74.113 305.236 74.0898 305.8 74.0991 306.496C74.1083 307.192 74.1408 308.02 74.2197 308.935C74.2615 309.391 74.3009 309.88 74.3821 310.357C74.418 310.597 74.4975 310.822 74.6141 311.014C74.7417 311.199 74.9177 311.317 75.1083 311.344C75.3031 311.383 75.5073 311.383 75.7091 311.404C75.911 311.425 76.1082 311.449 76.3007 311.479C76.6738 311.54 77.044 311.627 77.4097 311.74C78.0277 311.927 78.6317 312.184 79.2147 312.508C79.6086 312.726 79.9907 312.977 80.3584 313.261C80.4883 313.357 80.5904 313.444 80.6531 313.501C80.6857 313.53 80.716 313.563 80.7435 313.6Z" fill="#263238"/>
<path d="M73.8506 312.355C73.9037 312.066 74.0264 311.805 74.201 311.611C74.3756 311.417 74.5932 311.3 74.8227 311.275C74.8227 311.32 74.5466 311.428 74.2798 311.728C74.013 312.028 73.8831 312.373 73.8506 312.355Z" fill="#263238"/>
<path d="M77.1426 287.425C77.7209 287.163 78.3493 287.151 78.9336 287.389C79.2232 287.514 79.4826 287.734 79.686 288.028C79.8895 288.323 80.03 288.68 80.0936 289.066C80.1423 289.453 80.0936 289.87 80.2421 290.212C80.3906 290.554 80.7061 290.764 80.9543 291.037C81.1406 291.256 81.2808 291.531 81.362 291.839C81.4432 292.146 81.4626 292.476 81.4183 292.795C81.3326 293.132 81.2811 293.482 81.2652 293.836C81.309 294.196 81.4436 294.528 81.648 294.778C81.8524 295.026 82.0296 295.309 82.1747 295.618C82.2462 295.774 82.2812 295.954 82.2754 296.135C82.2697 296.316 82.2234 296.491 82.1422 296.638C81.938 296.938 81.5784 296.938 81.2675 296.938C80.1822 296.932 79.0975 297.011 78.0195 297.175" fill="#01A2BB"/>
<path d="M78.6646 297.802C78.6646 297.115 78.6507 296.527 78.6507 296.527C78.6507 296.527 79.9476 296.314 80.0056 294.604C80.0636 292.894 79.929 288.946 79.929 288.946L77.5441 287.464L75.4561 290.536L75.5303 297.868C75.5352 298.399 75.701 298.906 75.9922 299.281C76.2833 299.655 76.6765 299.866 77.087 299.869C77.2964 299.871 77.504 299.819 77.6975 299.716C77.891 299.612 78.0665 299.46 78.2135 299.267C78.3606 299.074 78.4763 298.845 78.5538 298.594C78.6313 298.342 78.669 298.073 78.6646 297.802Z" fill="#FFBE9D"/>
<path d="M79.5948 291.829C79.5948 291.872 79.5851 291.914 79.5668 291.949C79.5486 291.984 79.5226 292.012 79.4922 292.029C79.4618 292.045 79.4284 292.049 79.396 292.041C79.3637 292.033 79.3339 292.013 79.3105 291.983C79.287 291.953 79.2709 291.915 79.2642 291.873C79.2575 291.832 79.2605 291.788 79.2728 291.749C79.2851 291.709 79.3061 291.675 79.3333 291.651C79.3605 291.627 79.3925 291.614 79.4255 291.613C79.4476 291.613 79.4696 291.618 79.4901 291.629C79.5106 291.64 79.5293 291.655 79.5451 291.675C79.5608 291.696 79.5733 291.72 79.5819 291.746C79.5904 291.772 79.5948 291.801 79.5948 291.829Z" fill="#263238"/>
<path d="M79.864 291.586C79.8432 291.616 79.7202 291.481 79.5439 291.472C79.3676 291.463 79.233 291.58 79.2144 291.547C79.1959 291.514 79.226 291.481 79.284 291.427C79.3611 291.358 79.4538 291.323 79.5478 291.328C79.6418 291.334 79.7318 291.379 79.8037 291.457C79.864 291.517 79.8756 291.574 79.864 291.586Z" fill="#263238"/>
<path d="M77.6605 291.829C77.66 291.871 77.65 291.912 77.6318 291.946C77.6135 291.981 77.5877 292.008 77.5577 292.024C77.5277 292.039 77.4948 292.043 77.4631 292.035C77.4313 292.027 77.4022 292.006 77.3793 291.977C77.3564 291.947 77.3408 291.91 77.3343 291.869C77.3279 291.828 77.331 291.785 77.3431 291.746C77.3553 291.707 77.3761 291.674 77.4028 291.65C77.4295 291.627 77.4611 291.614 77.4934 291.613C77.5377 291.613 77.5802 291.636 77.6116 291.677C77.6429 291.717 77.6605 291.772 77.6605 291.829Z" fill="#263238"/>
<path d="M77.8966 291.631C77.8758 291.658 77.7505 291.523 77.5742 291.514C77.3978 291.505 77.2633 291.622 77.2447 291.592C77.2262 291.562 77.2563 291.526 77.3143 291.472C77.3918 291.403 77.4846 291.368 77.5788 291.373C77.6725 291.378 77.7623 291.424 77.834 291.502C77.8874 291.562 77.9059 291.616 77.8966 291.631Z" fill="#263238"/>
<path d="M78.5625 293.608C78.6566 293.572 78.7542 293.552 78.8525 293.551C78.8989 293.551 78.943 293.551 78.95 293.494C78.9547 293.429 78.9451 293.364 78.9221 293.305C78.8804 293.149 78.8386 293.005 78.7945 292.819C78.675 292.406 78.5789 291.982 78.5068 291.55C78.6506 291.95 78.7708 292.363 78.8664 292.786C78.9082 292.957 78.95 293.119 78.9894 293.275C79.0167 293.353 79.024 293.441 79.0103 293.524C79.0035 293.545 78.9931 293.564 78.9798 293.579C78.9665 293.594 78.9508 293.605 78.9337 293.611C78.9083 293.615 78.8826 293.615 78.8572 293.611C78.7592 293.626 78.6603 293.625 78.5625 293.608Z" fill="#263238"/>
<path d="M78.6504 296.527C78.0353 296.507 77.4384 296.253 76.9336 295.798C76.9336 295.798 77.3373 297.046 78.6295 296.947L78.6504 296.527Z" fill="#EB996E"/>
<path d="M72.3753 295.813C72.5186 295.673 72.6405 295.501 72.7349 295.303C72.8579 294.961 72.7349 294.559 72.6004 294.223C72.4658 293.887 72.3057 293.533 72.3568 293.161C72.4449 292.507 73.0992 292.237 73.2848 291.622C73.4541 291.07 73.2012 290.389 73.4286 289.87C73.6119 289.453 74.0364 289.318 74.28 288.952C74.4347 288.638 74.5571 288.299 74.6443 287.944C74.7531 287.648 74.9153 287.389 75.1172 287.191C75.3192 286.992 75.5551 286.859 75.8051 286.803C76.055 286.746 76.3118 286.768 76.5539 286.866C76.796 286.965 77.0163 287.137 77.1963 287.368C77.5599 287.248 77.9384 287.225 78.3092 287.299C78.68 287.374 79.0353 287.544 79.3539 287.8C79.6463 288.003 79.8835 288.317 80.0336 288.7C80.1355 289.056 80.1789 289.435 80.1612 289.813V290.626C80.1664 290.695 80.1568 290.765 80.1334 290.827C80.1038 290.867 80.0675 290.898 80.0273 290.917C79.9871 290.936 79.944 290.944 79.9014 290.938L78.9316 290.986C78.8652 290.996 78.7978 290.983 78.7368 290.947C78.6868 290.904 78.6465 290.844 78.62 290.774C78.5935 290.704 78.5818 290.626 78.586 290.548C78.586 290.428 78.586 290.188 78.586 290.119C78.5419 290.389 78.5024 290.44 78.47 290.608C78.46 290.695 78.4363 290.779 78.4004 290.854C78.3645 290.928 78.3171 290.993 78.2612 291.043C78.1734 291.092 78.0779 291.112 77.9828 291.103H77.5628C77.4928 291.106 77.4236 291.083 77.3633 291.037C77.3258 290.984 77.2995 290.919 77.2869 290.848C77.2743 290.778 77.2759 290.705 77.2914 290.635C77.3271 290.451 77.3489 290.263 77.3564 290.074C77.2311 290.392 77.1708 290.788 77.0176 290.842C76.8624 290.872 76.7042 290.857 76.5536 290.8C76.3982 290.737 76.2868 290.683 76.1732 290.638C76.1836 290.722 76.2 290.804 76.2219 290.884C76.3402 291.295 76.6047 291.691 76.5119 292.114C76.4191 292.537 76.0943 292.684 75.9249 293.014C75.8451 293.206 75.8003 293.418 75.7939 293.636C75.7874 293.853 75.8196 294.069 75.8878 294.268C76.0232 294.66 76.1424 295.06 76.2451 295.468C76.2958 295.678 76.2997 295.902 76.2562 296.114C76.2126 296.326 76.1235 296.519 75.9992 296.668C75.7764 296.84 75.5172 296.915 75.2591 296.884L72.9043 296.89C72.7525 296.904 72.6001 296.883 72.4542 296.827C72.381 296.799 72.3147 296.746 72.2619 296.675C72.209 296.603 72.1714 296.515 72.1526 296.419C72.1499 296.303 72.1686 296.187 72.2074 296.081C72.2461 295.976 72.3037 295.884 72.3753 295.813Z" fill="#01A2BB"/>
<path d="M81.1282 294.886C81.1282 294.886 81.105 294.856 81.0795 294.784C81.0446 294.677 81.0257 294.562 81.0238 294.445C81.0378 294.016 81.1438 293.601 81.33 293.245C81.4437 293.003 81.5333 292.743 81.5968 292.471C81.6626 292.165 81.6352 291.837 81.5203 291.556C81.4638 291.406 81.3849 291.271 81.2883 291.16C81.1804 291.046 81.0579 290.958 80.9263 290.899C80.778 290.83 80.6399 290.729 80.518 290.599C80.4555 290.522 80.4061 290.429 80.373 290.325C80.3399 290.222 80.3237 290.111 80.3255 289.999C80.3255 289.786 80.3371 289.588 80.3255 289.399C80.3198 289.213 80.2924 289.029 80.2443 288.853C80.1533 288.512 80.0015 288.204 79.8011 287.953C79.4604 287.53 79.0187 287.269 78.5483 287.212C78.2298 287.17 77.9081 287.192 77.5948 287.278C77.3628 287.335 77.2515 287.386 77.2491 287.374C77.2468 287.362 77.277 287.35 77.3327 287.323C77.4153 287.282 77.4997 287.246 77.5855 287.218C77.9019 287.106 78.2309 287.068 78.5576 287.104C79.0514 287.148 79.5184 287.411 79.88 287.848C80.0924 288.11 80.2558 288.431 80.3579 288.787C80.4093 288.981 80.4389 289.183 80.4461 289.387C80.4461 289.591 80.4345 289.792 80.4461 289.987C80.4446 290.077 80.4574 290.166 80.4838 290.249C80.5101 290.332 80.5494 290.407 80.5992 290.47C80.7117 290.585 80.8379 290.675 80.9727 290.737C81.1152 290.807 81.2471 290.908 81.3625 291.037C81.4726 291.162 81.5631 291.312 81.6293 291.481C81.7537 291.795 81.7803 292.159 81.7035 292.498C81.6341 292.777 81.5366 293.044 81.4135 293.29C81.2271 293.627 81.1126 294.021 81.0818 294.433C81.078 294.586 81.0937 294.739 81.1282 294.886Z" fill="#01A2BB"/>
<path d="M71.9572 292.687C72.0364 292.743 72.1205 292.786 72.2078 292.816C72.3248 292.847 72.4459 292.839 72.5601 292.794C72.6743 292.749 72.7781 292.668 72.862 292.558C72.9789 292.386 73.0559 292.175 73.0842 291.949C73.1125 291.723 73.091 291.491 73.0221 291.28C72.9212 291.009 72.895 290.701 72.9478 290.407C73.0595 290.112 73.2548 289.885 73.493 289.771C73.7069 289.674 73.9033 289.522 74.0707 289.324C74.1981 289.11 74.2782 288.855 74.3027 288.586C74.3292 288.327 74.3814 288.073 74.4582 287.83C74.5369 287.62 74.653 287.437 74.7969 287.296C75.0041 287.098 75.2559 286.992 75.5138 286.996C75.5833 286.998 75.6525 287.009 75.7202 287.029C75.7437 287.036 75.7663 287.048 75.7875 287.062C75.7875 287.062 75.6878 287.044 75.5161 287.062C75.2721 287.082 75.039 287.2 74.8502 287.401C74.7216 287.536 74.6191 287.707 74.551 287.902C74.4818 288.137 74.4351 288.382 74.4118 288.631C74.3874 288.927 74.3007 289.208 74.1612 289.444C73.9832 289.659 73.7732 289.824 73.5441 289.93C73.3353 290.029 73.1624 290.225 73.0592 290.479C73.0152 290.74 73.0397 291.012 73.1288 291.253C73.2009 291.488 73.2198 291.744 73.1832 291.993C73.1466 292.241 73.0561 292.47 72.9223 292.654C72.8277 292.772 72.7111 292.856 72.5838 292.898C72.4565 292.94 72.3229 292.939 72.1962 292.894C72.1288 292.868 72.0653 292.827 72.0082 292.774C71.9758 292.717 71.9549 292.69 71.9572 292.687Z" fill="#01A2BB"/>
<path d="M78.5 294.211C78.4887 294.139 78.464 294.071 78.428 294.013C78.3921 293.956 78.3459 293.91 78.2935 293.881C78.2572 293.859 78.2176 293.848 78.1775 293.848C78.1374 293.848 78.0978 293.859 78.0615 293.881C78.0266 293.905 77.998 293.941 77.9794 293.986C77.9608 294.031 77.953 294.082 77.9571 294.133C77.968 294.189 77.991 294.239 78.0235 294.279C78.056 294.318 78.0966 294.345 78.1404 294.355C78.2289 294.371 78.319 294.363 78.4049 294.331C78.4289 294.326 78.4518 294.315 78.4721 294.298C78.4826 294.29 78.491 294.277 78.4963 294.263C78.5016 294.249 78.5037 294.233 78.5023 294.217" fill="#EB996E"/>
<path d="M78.0588 293.599C78.0913 293.599 78.0936 293.86 78.2537 294.055C78.4138 294.25 78.6156 294.238 78.618 294.28C78.6203 294.322 78.5716 294.334 78.4834 294.334C78.3667 294.332 78.2548 294.273 78.1702 294.169C78.0857 294.065 78.0337 293.924 78.024 293.773C78.0194 293.659 78.0426 293.596 78.0588 293.599Z" fill="#263238"/>
<path d="M71.916 315.883C71.916 315.883 85.4137 312.226 86.7199 313.027C88.0261 313.828 93.9444 334.3 93.9444 334.3L89.6988 337.6L83.98 319.423C83.98 319.423 74.5306 323.884 72.8788 323.443C71.2269 323.002 71.916 315.883 71.916 315.883Z" fill="#263238"/>
<path d="M77.9483 316.9C78.1548 316.99 85.9616 321.139 86.5115 322.474C87.0613 323.809 85.6647 346.861 85.6647 346.861L80.7741 346.333L81.5513 326.281L72.8838 323.443L77.9483 316.9Z" fill="#263238"/>
<path d="M72.835 323.5C72.874 323.503 72.9131 323.498 72.951 323.485L73.285 323.413L74.51 323.113C75.5424 322.858 76.9692 322.513 78.5282 321.997C79.3054 321.742 80.0409 321.466 80.7021 321.187C81.3633 320.908 81.9526 320.626 82.4374 320.362C82.9223 320.098 83.3121 319.876 83.5742 319.702L83.8782 319.504C83.9137 319.483 83.9479 319.458 83.9802 319.429C83.9412 319.438 83.9035 319.455 83.8689 319.48L83.558 319.654C83.2912 319.813 82.8991 320.026 82.4096 320.275C81.9201 320.524 81.3331 320.794 80.6742 321.07C80.0154 321.346 79.2822 321.61 78.5004 321.865C76.9483 322.369 75.5238 322.738 74.4961 323.017L73.2781 323.35L72.9486 323.449C72.9095 323.461 72.8714 323.478 72.835 323.5Z" fill="#455A64"/>
<path d="M86.5113 327.571C86.5334 327.463 86.5473 327.353 86.553 327.241C86.5716 326.998 86.5971 326.695 86.6273 326.341C86.6574 325.987 86.6876 325.492 86.7247 324.991C86.784 324.437 86.784 323.875 86.7247 323.32C86.6359 322.76 86.4077 322.253 86.0751 321.877C85.8157 321.57 85.5205 321.318 85.2005 321.13C84.9855 321.003 84.7656 320.891 84.5416 320.794C84.461 320.751 84.377 320.72 84.291 320.701C84.291 320.725 84.6344 320.884 85.168 321.217C85.4796 321.409 85.768 321.659 86.0241 321.958C86.336 322.322 86.5497 322.806 86.6342 323.338C86.6887 323.881 86.6887 324.43 86.6342 324.973C86.6064 325.474 86.5809 325.93 86.56 326.323C86.5391 326.716 86.5298 326.992 86.5182 327.223C86.5062 327.339 86.5038 327.455 86.5113 327.571Z" fill="#455A64"/>
<path d="M82.6154 325.669C82.4232 325.704 82.2377 325.785 82.0679 325.906C81.885 325.987 81.7145 326.109 81.5645 326.266C81.7559 326.231 81.9406 326.151 82.1097 326.029C82.2931 325.948 82.4643 325.826 82.6154 325.669Z" fill="#455A64"/>
<path d="M82.2235 325.063C82.0961 325.27 81.9776 325.487 81.8685 325.711C81.7309 325.907 81.6023 326.113 81.4834 326.329C81.673 326.208 81.8335 326.022 81.9474 325.792C82.0911 325.588 82.1869 325.335 82.2235 325.063Z" fill="#455A64"/>
<path d="M58.3015 348.1L58.1693 345.7L61.6493 345.349L61.8697 348.862L61.6563 348.901C60.7004 349.069 56.7843 349.654 56.1277 349.468C55.3969 349.264 58.3015 348.1 58.3015 348.1Z" fill="#01A2BB"/>
<g opacity="0.3">
<path d="M60.6084 348.961C60.6362 348.576 60.7734 348.218 60.9935 347.956C61.2083 347.694 61.492 347.548 61.787 347.548L61.8635 348.805L60.6084 348.961Z" fill="white"/>
</g>
<g opacity="0.3">
<path d="M56.8956 348.739C56.8956 348.739 55.8818 349.231 56.0233 349.438C56.1648 349.645 60.139 349.243 61.879 348.868L61.8674 348.769L57.2274 349.288C57.2274 349.288 57.0882 348.73 56.8956 348.739Z" fill="white"/>
</g>
<path d="M61.9142 348.76L61.8538 348.775L61.6845 348.805L61.0534 348.904C60.5198 348.985 59.7844 349.081 58.9654 349.162C58.1465 349.243 57.411 349.3 56.8774 349.33L56.2418 349.36H56.0701C56.0501 349.363 56.0298 349.363 56.0098 349.36H56.0701L56.2418 349.345L56.8751 349.3C57.411 349.258 58.1488 349.198 58.9631 349.114C59.7774 349.03 60.5152 348.94 61.0511 348.871L61.6822 348.79L61.8538 348.769L61.9142 348.76Z" fill="#263238"/>
<path d="M57.2342 349.357C57.1965 349.225 57.1483 349.098 57.0904 348.979C57.0225 348.868 56.9446 348.767 56.8584 348.679C56.9658 348.729 57.0592 348.82 57.1266 348.939C57.1939 349.058 57.2322 349.201 57.2366 349.348L57.2342 349.357Z" fill="#263238"/>
<path d="M58.2188 348.58C58.2188 348.58 58.1562 348.517 58.1005 348.418C58.0448 348.319 58.003 348.235 58.0146 348.226C58.0262 348.217 58.0773 348.289 58.133 348.385C58.1886 348.481 58.2304 348.571 58.2188 348.58Z" fill="#263238"/>
<path d="M58.4896 348.361C58.4896 348.361 58.4246 348.331 58.3596 348.265C58.2947 348.199 58.2506 348.142 58.2576 348.13C58.2645 348.118 58.3225 348.16 58.3852 348.223C58.4478 348.286 58.4965 348.349 58.4896 348.361Z" fill="#263238"/>
<path d="M58.6426 347.917C58.5856 347.95 58.5239 347.966 58.4616 347.965C58.4013 347.983 58.3386 347.983 58.2783 347.965C58.3352 347.932 58.397 347.916 58.4593 347.917C58.5196 347.899 58.5822 347.899 58.6426 347.917Z" fill="#263238"/>
<path d="M58.6847 347.611C58.6281 347.668 58.5593 347.702 58.4875 347.707C58.4176 347.731 58.3438 347.725 58.2764 347.692C58.3435 347.672 58.4118 347.659 58.4805 347.653C58.5474 347.631 58.6158 347.617 58.6847 347.611Z" fill="#263238"/>
<path d="M58.0769 348.199C58.0014 348.225 57.9226 348.233 57.8449 348.22C57.7667 348.215 57.689 348.201 57.6129 348.178C57.564 348.166 57.5164 348.145 57.4714 348.118C57.4436 348.101 57.422 348.071 57.4111 348.034C57.4062 348.013 57.406 347.99 57.4105 347.969C57.415 347.948 57.424 347.929 57.4366 347.914C57.5189 347.851 57.6155 347.828 57.7098 347.847C57.8041 347.866 57.8904 347.927 57.9539 348.019C57.9921 348.072 58.0206 348.136 58.0375 348.205C58.047 348.229 58.0511 348.256 58.0491 348.283C58.0214 348.196 57.9822 348.116 57.9331 348.046C57.8774 347.975 57.8075 347.926 57.7312 347.905C57.6868 347.889 57.6404 347.886 57.5948 347.894C57.5493 347.903 57.5057 347.924 57.4667 347.956C57.4319 347.992 57.4505 348.046 57.4923 348.073C57.5337 348.098 57.5774 348.116 57.6222 348.127C57.6983 348.154 57.7758 348.173 57.8542 348.184C57.9911 348.199 58.0769 348.19 58.0769 348.199Z" fill="#263238"/>
<path d="M58.021 348.22C57.9903 348.162 57.9763 348.092 57.9815 348.022C57.9848 347.946 58.0015 347.872 58.0303 347.806C58.0469 347.761 58.0719 347.722 58.1031 347.693C58.1343 347.664 58.1707 347.645 58.2089 347.638C58.2317 347.643 58.2522 347.658 58.2665 347.682C58.2807 347.705 58.2875 347.735 58.2855 347.764C58.2824 347.811 58.2722 347.857 58.2553 347.899C58.2293 347.966 58.1974 348.028 58.1602 348.085C58.0952 348.181 58.0418 348.22 58.0395 348.214C58.0372 348.208 58.0813 348.157 58.137 348.061C58.1692 348.004 58.1971 347.942 58.2205 347.878C58.246 347.812 58.2599 347.701 58.2043 347.692C58.1486 347.683 58.0952 347.77 58.065 347.83C58.0368 347.89 58.0187 347.956 58.0117 348.025C58.0099 348.09 58.013 348.156 58.021 348.22Z" fill="#263238"/>
<path d="M61.7677 347.536C61.7677 347.536 61.668 347.536 61.5125 347.575C61.3095 347.625 61.1214 347.747 60.9696 347.929C60.8197 348.114 60.7115 348.348 60.6564 348.607C60.6147 348.805 60.6193 348.934 60.61 348.934C60.6065 348.904 60.6065 348.874 60.61 348.844C60.6105 348.76 60.6183 348.677 60.6332 348.595C60.68 348.325 60.7883 348.079 60.9441 347.89C61.102 347.703 61.2988 347.58 61.5102 347.536C61.5742 347.526 61.6388 347.526 61.7028 347.536C61.7243 347.531 61.7462 347.531 61.7677 347.536Z" fill="#263238"/>
<path d="M61.3037 345.7C61.3454 346.005 61.374 346.312 61.3896 346.621C61.4175 346.929 61.4323 347.238 61.4336 347.548C61.3906 347.244 61.3619 346.936 61.3478 346.627C61.3184 346.32 61.3036 346.01 61.3037 345.7Z" fill="#263238"/>
<path d="M60.1441 348.565C59.9813 348.634 59.8118 348.673 59.6407 348.682C59.4704 348.709 59.2982 348.709 59.1279 348.682C59.1279 348.664 59.3599 348.661 59.6383 348.628C59.9167 348.595 60.1441 348.55 60.1441 348.565Z" fill="#263238"/>
<path d="M60.8237 348.496C60.8237 348.496 60.8098 348.559 60.7913 348.628C60.7727 348.697 60.7634 348.76 60.7495 348.76C60.7356 348.76 60.7286 348.691 60.7495 348.61C60.7704 348.529 60.8168 348.484 60.8237 348.496Z" fill="#263238"/>
<path d="M61.0562 348.055C61.0562 348.055 61.0562 348.115 61.0121 348.166C60.968 348.217 60.9448 348.25 60.9379 348.241C60.9309 348.232 60.9379 348.181 60.982 348.13C61.026 348.079 61.0492 348.046 61.0562 348.055Z" fill="#263238"/>
<path d="M61.4129 347.83C61.4129 347.83 61.3642 347.848 61.3155 347.878C61.2667 347.908 61.2319 347.944 61.2203 347.935C61.2087 347.926 61.2366 347.86 61.2992 347.827C61.3619 347.794 61.4152 347.815 61.4129 347.83Z" fill="#263238"/>
<path d="M61.6679 347.713C61.6679 347.728 61.6679 347.752 61.6284 347.77C61.589 347.788 61.5727 347.791 61.5681 347.77C61.5635 347.749 61.582 347.731 61.6099 347.716C61.6377 347.701 61.6632 347.701 61.6679 347.713Z" fill="#263238"/>
<path d="M50.5717 348.1L50.6181 345.7L54.1097 345.784L54.0679 349.3L53.8522 349.315C52.887 349.36 48.9477 349.459 48.3074 349.189C47.5951 348.901 50.5717 348.1 50.5717 348.1Z" fill="#01A2BB"/>
<g opacity="0.3">
<path d="M52.8037 349.243C52.8628 348.863 53.028 348.524 53.2677 348.292C53.5033 348.064 53.7959 347.957 54.089 347.992L54.0704 349.255L52.8037 349.243Z" fill="white"/>
</g>
<g opacity="0.3">
<path d="M49.117 348.562C49.117 348.562 48.0707 348.925 48.189 349.162C48.3073 349.399 52.3001 349.48 54.0586 349.321V349.222L49.4186 349.162C49.4186 349.162 49.3189 348.577 49.117 348.562Z" fill="white"/>
</g>
<path d="M54.1122 349.207C54.0922 349.211 54.0718 349.211 54.0518 349.207H53.8802L53.2445 349.225C52.7086 349.225 51.9685 349.243 51.1565 349.225C50.3445 349.207 49.5998 349.168 49.0685 349.132L48.4351 349.084L48.2634 349.066H48.2031H48.2634H48.4351L49.0708 349.099C49.6044 349.126 50.3445 349.156 51.1588 349.177C51.9731 349.198 52.7155 349.195 53.2468 349.195H54.1122V349.207Z" fill="#263238"/>
<path d="M49.4166 349.222C49.3911 349.084 49.353 348.951 49.3029 348.826C49.2432 348.709 49.1723 348.602 49.0918 348.508C49.2009 348.564 49.2896 348.671 49.34 348.808C49.4038 348.929 49.4311 349.076 49.4166 349.222Z" fill="#263238"/>
<path d="M50.4556 348.571C50.4556 348.571 50.3976 348.499 50.3489 348.394C50.3002 348.289 50.2677 348.199 50.277 348.19C50.2863 348.181 50.335 348.259 50.3837 348.364C50.4195 348.425 50.444 348.496 50.4556 348.571Z" fill="#263238"/>
<path d="M50.741 348.382C50.741 348.382 50.6784 348.346 50.6204 348.274C50.5624 348.202 50.5183 348.136 50.5276 348.124C50.5369 348.112 50.5902 348.163 50.6482 348.235C50.7062 348.307 50.748 348.373 50.741 348.382Z" fill="#263238"/>
<path d="M50.9261 347.962C50.8672 347.988 50.8046 347.996 50.7428 347.986C50.681 347.995 50.6183 347.985 50.5596 347.959C50.6184 347.933 50.681 347.923 50.7428 347.932C50.8049 347.923 50.8676 347.934 50.9261 347.962Z" fill="#263238"/>
<path d="M50.9921 347.662C50.9313 347.713 50.86 347.738 50.7879 347.734C50.7166 347.749 50.6435 347.735 50.5791 347.692C50.6478 347.685 50.7169 347.685 50.7856 347.692C50.8535 347.673 50.9226 347.663 50.9921 347.662Z" fill="#263238"/>
<path d="M50.3418 348.172C50.2651 348.19 50.1865 348.19 50.1098 348.172C50.0308 348.156 49.9532 348.131 49.8778 348.097C49.831 348.078 49.7858 348.053 49.7433 348.022C49.7167 348.002 49.6968 347.97 49.6876 347.932C49.685 347.91 49.6871 347.887 49.6936 347.867C49.7002 347.846 49.7109 347.828 49.7247 347.815C49.8111 347.763 49.9086 347.752 50.0007 347.782C50.0929 347.813 50.1741 347.884 50.2305 347.983C50.2641 348.041 50.2878 348.107 50.3001 348.178C50.3001 348.229 50.3001 348.256 50.3001 348.256C50.2798 348.166 50.2468 348.081 50.2026 348.007C50.1531 347.929 50.0869 347.872 50.0124 347.842C49.9693 347.822 49.9234 347.813 49.8776 347.816C49.8318 347.819 49.7869 347.834 49.7456 347.86C49.7085 347.893 49.7224 347.947 49.7618 347.977C49.8013 348.008 49.8433 348.033 49.8871 348.052C49.9625 348.088 50.0401 348.115 50.1191 348.133C50.2583 348.163 50.3418 348.163 50.3418 348.172Z" fill="#263238"/>
<path d="M50.2839 348.187C50.2578 348.125 50.2496 348.052 50.2607 347.983C50.2692 347.907 50.2915 347.835 50.3257 347.773C50.3454 347.731 50.3729 347.696 50.4057 347.671C50.4385 347.645 50.4755 347.631 50.5136 347.629C50.5365 347.636 50.5563 347.654 50.5689 347.68C50.5815 347.706 50.5858 347.737 50.5809 347.767C50.5749 347.813 50.5614 347.857 50.5414 347.896C50.5111 347.959 50.4744 348.016 50.4324 348.067C50.3976 348.119 50.3528 348.158 50.3025 348.181C50.3025 348.181 50.3489 348.13 50.4115 348.04C50.4484 347.987 50.481 347.93 50.5089 347.869C50.5391 347.809 50.5623 347.698 50.5089 347.683C50.4556 347.668 50.3953 347.746 50.3605 347.803C50.3272 347.858 50.3042 347.923 50.2932 347.992C50.2854 348.056 50.2823 348.122 50.2839 348.187Z" fill="#263238"/>
<path d="M54.0651 347.971C54.0651 347.971 53.9654 347.956 53.8076 347.971C53.601 348.001 53.4049 348.105 53.2415 348.271C53.0783 348.436 52.9532 348.656 52.8796 348.907C52.8523 349.012 52.8291 349.119 52.81 349.228C52.8055 349.197 52.8055 349.166 52.81 349.135C52.8175 349.052 52.8315 348.971 52.8518 348.892C52.9182 348.628 53.0448 348.397 53.2151 348.228C53.3853 348.059 53.5911 347.961 53.8053 347.947C53.8693 347.938 53.9339 347.938 53.9979 347.947C54.0212 347.95 54.0439 347.958 54.0651 347.971Z" fill="#263238"/>
<path d="M53.7315 346.084C53.7506 346.392 53.7561 346.702 53.7477 347.011C53.7533 347.321 53.7448 347.632 53.7222 347.941C53.703 347.632 53.6976 347.321 53.706 347.011C53.699 346.702 53.7076 346.392 53.7315 346.084Z" fill="#263238"/>
<path d="M52.3724 348.793C52.2048 348.84 52.0332 348.858 51.862 348.847C51.6903 348.855 51.5187 348.832 51.3516 348.781C51.3516 348.781 51.5836 348.781 51.862 348.781C52.1404 348.781 52.37 348.778 52.3724 348.793Z" fill="#263238"/>
<path d="M53.0541 348.808C53.0541 348.808 53.0355 348.871 53.0123 348.937C52.9891 349.003 52.9729 349.063 52.9613 349.063C52.9497 349.063 52.945 348.991 52.9729 348.913C53.0007 348.835 53.0471 348.796 53.0541 348.808Z" fill="#263238"/>
<path d="M53.3181 348.4C53.3181 348.4 53.3042 348.457 53.2671 348.502C53.23 348.547 53.1929 348.58 53.1859 348.568C53.1789 348.556 53.1998 348.511 53.2369 348.463C53.2741 348.415 53.3112 348.4 53.3181 348.4Z" fill="#263238"/>
<path d="M53.6895 348.22C53.6895 348.235 53.6407 348.22 53.5897 348.253C53.5387 348.286 53.4992 348.31 53.4923 348.301C53.4853 348.292 53.5131 348.229 53.5758 348.202C53.6384 348.175 53.6941 348.205 53.6895 348.22Z" fill="#263238"/>
<path d="M53.954 348.136C53.954 348.151 53.9378 348.172 53.9076 348.187C53.8775 348.202 53.852 348.187 53.8473 348.187C53.8427 348.187 53.8636 348.151 53.8937 348.139C53.9239 348.127 53.9494 348.121 53.954 348.136Z" fill="#263238"/>
<path d="M53.4643 317.953C56.5368 317.555 59.6302 317.505 62.7095 317.803L58.8026 325.054L55.2762 325.072L54.5384 347.365H49.8613L50.3068 322.501C50.327 321.38 50.6564 320.306 51.2354 319.472C51.8144 318.638 52.605 318.099 53.4643 317.953Z" fill="#263238"/>
<path d="M54.6941 345.646C53.8875 345.725 53.0784 345.751 52.2697 345.724C51.4619 345.751 50.6535 345.725 49.8477 345.646C49.8477 345.604 50.9311 345.568 52.2697 345.568C53.6084 345.568 54.6941 345.604 54.6941 345.646Z" fill="#455A64"/>
<path d="M56.5456 320.578C56.468 320.578 56.3905 320.572 56.3136 320.56C56.1628 320.545 55.9424 320.521 55.6593 320.509C55.3151 320.49 54.9704 320.498 54.6269 320.533C54.4139 320.554 54.2027 320.599 53.9959 320.668C53.7646 320.725 53.5529 320.874 53.3904 321.094C53.3159 321.224 53.2623 321.372 53.2326 321.529C53.1909 321.691 53.1584 321.859 53.1259 322.033C53.061 322.394 53.016 322.76 52.9913 323.128C52.938 323.899 52.8893 324.724 52.8429 325.591C52.7501 327.325 52.6828 329.236 52.6271 331.243C52.5227 335.257 52.3951 338.893 52.3185 341.521C52.2721 342.826 52.235 343.888 52.2095 344.635C52.1933 344.992 52.1817 345.277 52.1724 345.481C52.1724 345.571 52.1724 345.643 52.1724 345.703C52.1746 345.728 52.1746 345.753 52.1724 345.778C52.1704 345.752 52.1704 345.726 52.1724 345.7C52.1724 345.643 52.1724 345.571 52.1724 345.481C52.1724 345.274 52.1724 344.992 52.184 344.632C52.2025 343.885 52.2257 342.832 52.2559 341.518C52.3255 338.875 52.4229 335.245 52.5297 331.237C52.5853 329.23 52.6549 327.316 52.7617 325.579C52.8104 324.712 52.8637 323.887 52.9217 323.116C52.9493 322.742 52.9974 322.371 53.0656 322.006C53.0981 321.83 53.1352 321.659 53.1769 321.493C53.2126 321.323 53.2733 321.163 53.3556 321.022C53.5308 320.789 53.7578 320.631 54.0052 320.572C54.2177 320.506 54.4343 320.464 54.6525 320.446C54.9985 320.416 55.3458 320.416 55.6918 320.446C55.9772 320.467 56.1976 320.5 56.3461 320.524L56.5154 320.557L56.5456 320.578Z" fill="#455A64"/>
<path d="M62.0488 325.627L62.3875 347.035L56.9772 347.377C56.9772 347.377 56.1165 326.404 56.5457 320.452C56.8404 316.378 68.8603 318.13 68.8603 318.13C69.0343 326.23 62.0488 325.63 62.0488 325.63" fill="#263238"/>
<path d="M62.3873 345.346C62.133 345.407 61.8755 345.442 61.617 345.451C61.1391 345.496 60.4779 345.547 59.761 345.595C59.0441 345.643 58.369 345.676 57.8911 345.694C57.6332 345.72 57.3741 345.72 57.1162 345.694C57.3702 345.631 57.6279 345.595 57.8865 345.586C58.3644 345.541 59.0233 345.49 59.7541 345.442C60.4849 345.394 61.1461 345.361 61.6101 345.343C61.8687 345.315 62.1287 345.316 62.3873 345.346Z" fill="#455A64"/>
<path d="M67.6931 317.974C67.6981 318.005 67.6981 318.036 67.6931 318.067C67.6931 318.13 67.6931 318.22 67.6699 318.34C67.6208 318.686 67.5249 319.018 67.3869 319.321C67.2074 319.713 66.9615 320.047 66.6678 320.299C66.3741 320.55 66.0401 320.712 65.6909 320.773C65.3893 320.806 65.0863 320.815 64.7838 320.8H61.5961C61.4013 320.8 61.1971 320.8 60.9999 320.8C60.6928 320.812 60.3956 320.944 60.1473 321.178C59.8989 321.411 59.7109 321.737 59.6079 322.111C59.5373 322.371 59.5051 322.646 59.5128 322.921V323.8C59.5128 324.967 59.5128 326.176 59.5128 327.4C59.5128 332.347 59.4989 336.823 59.4942 340.078C59.4942 341.692 59.4803 343 59.4757 343.918C59.4757 344.365 59.4757 344.713 59.4757 344.962C59.4757 345.076 59.4757 345.166 59.4757 345.235C59.4785 345.266 59.4785 345.297 59.4757 345.328C59.4728 345.297 59.4728 345.266 59.4757 345.235C59.4757 345.166 59.4757 345.076 59.4757 344.962C59.4757 344.713 59.4757 344.362 59.4641 343.918C59.4641 343 59.4525 341.692 59.4455 340.078C59.4455 336.823 59.4455 332.347 59.4269 327.4V323.8C59.4269 323.5 59.4269 323.218 59.4269 322.933C59.4188 322.64 59.4535 322.348 59.529 322.072C59.6048 321.804 59.7213 321.559 59.8715 321.35C60.0217 321.142 60.2026 320.974 60.4037 320.857C60.5972 320.744 60.8061 320.681 61.0185 320.671C61.2226 320.671 61.4198 320.671 61.617 320.671H62.7608L64.8117 320.686C65.108 320.7 65.4046 320.692 65.7002 320.662C66.0335 320.605 66.3529 320.453 66.6356 320.217C66.9183 319.982 67.1574 319.669 67.3358 319.3C67.476 319.006 67.5772 318.683 67.6351 318.346C67.6537 318.229 67.6606 318.139 67.6699 318.079C67.676 318.044 67.6837 318.008 67.6931 317.974Z" fill="#455A64"/>
<path d="M62.1186 323.83C62.1625 324.174 62.1672 324.525 62.1325 324.871C62.1365 325.22 62.1014 325.567 62.0281 325.903C61.9812 325.559 61.9757 325.208 62.0118 324.862C62.008 324.513 62.0439 324.165 62.1186 323.83Z" fill="#455A64"/>
<path d="M62.3272 317.8C62.1977 317.831 62.0667 317.85 61.9351 317.857L60.8609 317.959C60.3969 318.004 59.8703 318.067 59.2787 318.187C58.6399 318.306 58.027 318.594 57.4784 319.033C57.1991 319.254 56.9832 319.587 56.8636 319.981C56.7699 320.363 56.7062 320.756 56.6733 321.154C56.6037 321.922 56.5968 322.621 56.5852 323.209C56.5736 323.797 56.5643 324.271 56.5504 324.601C56.5504 324.766 56.5341 324.901 56.5272 324.979C56.5273 325.024 56.521 325.069 56.5086 325.111C56.4997 324.94 56.4997 324.769 56.5086 324.598C56.5086 324.244 56.5086 323.776 56.5086 323.206C56.5021 322.516 56.523 321.826 56.5713 321.139C56.602 320.731 56.6658 320.329 56.7615 319.939C56.8891 319.513 57.1204 319.153 57.4204 318.913C57.9844 318.458 58.6173 318.166 59.2764 318.055C59.8726 317.941 60.4155 317.89 60.8702 317.857C61.3249 317.824 61.6915 317.812 61.9467 317.803C62.0733 317.789 62.2005 317.788 62.3272 317.8Z" fill="#455A64"/>
<path d="M54.3438 305.461C54.3438 305.461 55.3901 314.644 58.7703 314.347L58.5661 309.367L55.5896 305.83L54.3438 305.461Z" fill="#EB996E"/>
<path d="M68.8954 318.052L68.1553 310.504L68.9186 302.782C68.4174 299.182 64.5106 298.921 64.5106 298.921L61.4366 298.855C61.4366 298.855 58.8544 298.369 57.9125 300.616L56.1748 308.665C56.1748 308.665 57.3719 308.887 58.4948 308.938L58.5714 309.817H58.5899L58.9147 317.755L68.8954 318.052Z" fill="#01A2BB"/>
<path d="M64.5307 298.813C64.5362 298.892 64.5291 298.972 64.5098 299.047C64.4659 299.314 64.3798 299.566 64.2568 299.787C64.1338 300.009 63.9767 300.195 63.7953 300.334C63.5304 300.546 63.225 300.657 62.9137 300.655C62.6312 300.662 62.3523 300.574 62.1039 300.4C61.8555 300.226 61.6462 299.972 61.4962 299.662C61.4133 299.476 61.3567 299.273 61.3291 299.062C61.312 298.985 61.308 298.904 61.3175 298.825C61.3798 299.1 61.4646 299.365 61.5704 299.617C61.7194 299.899 61.9201 300.128 62.1545 300.285C62.3889 300.443 62.6497 300.522 62.9137 300.517C63.1769 300.519 63.4364 300.438 63.67 300.281C63.9036 300.124 64.1043 299.896 64.2546 299.617C64.3649 299.36 64.4573 299.091 64.5307 298.813Z" fill="#263238"/>
<path d="M58.7519 302.335C58.8115 302.973 58.8317 303.616 58.8122 304.258C58.8317 304.9 58.8115 305.543 58.7519 306.181C58.6908 305.543 58.6707 304.9 58.6916 304.258C58.6707 303.616 58.6908 302.973 58.7519 302.335Z" fill="#263238"/>
<path d="M52.931 298.543C53.0238 298.684 56.3855 304.498 56.3855 304.498L55.9215 304.843L52.4717 299.107L52.931 298.543Z" fill="#263238"/>
<path d="M66.4336 303.139C66.4336 303.139 62.8979 309.721 62.6961 309.85C62.2761 310.105 57.4389 304.699 56.9773 304.183C56.9146 304.072 56.7824 303.841 56.5133 303.379C56.5133 303.379 56.1328 301.12 55.7245 301.294C55.3161 301.468 55.9565 302.443 55.6827 303.301C55.4089 304.159 54.2025 302.101 54.1538 301.927L53.8406 301.399C53.8406 301.399 53.5112 302.599 53.5344 303.106C53.6063 304.717 54.7849 306.634 54.7849 306.634C54.7849 306.634 60.0791 315.115 63.7053 315.379C65.3733 315.499 69.1085 305.662 69.1085 305.662L66.4336 303.139Z" fill="#FFBE9D"/>
<path d="M54.1285 303.4C54.0095 303.237 53.9151 303.047 53.8501 302.839C53.762 302.645 53.7022 302.431 53.6738 302.209C53.7649 302.4 53.8425 302.6 53.9058 302.809C53.9944 302.996 54.069 303.194 54.1285 303.4Z" fill="#EB996E"/>
<path d="M67.2528 299.926C67.2528 299.926 70.7699 301.846 68.0811 309.88L63.8262 306.637L67.2528 299.926Z" fill="#01A2BB"/>
<path d="M67.3359 300.07C67.2977 300.086 67.2578 300.095 67.2176 300.097C67.1064 300.105 66.9965 300.131 66.8905 300.175C66.4968 300.335 66.1461 300.636 65.879 301.042C65.1644 302.041 64.5682 303.781 63.9603 305.698C63.8698 305.983 63.777 306.268 63.6912 306.535L63.6657 306.439C64.9324 307.339 66.0321 308.188 66.8046 308.839C67.1921 309.163 67.5006 309.439 67.7048 309.622L67.9368 309.844C67.9653 309.868 67.9911 309.898 68.0134 309.931C67.8961 309.854 67.7829 309.767 67.6746 309.67L66.7582 308.929C65.9764 308.305 64.8698 307.471 63.603 306.58L63.5566 306.547L63.5775 306.481L63.8443 305.644C64.4522 303.727 65.0646 301.975 65.814 300.973C66.0935 300.56 66.4618 300.265 66.8719 300.124C66.9829 300.084 67.0978 300.066 67.213 300.07C67.2538 300.063 67.2951 300.063 67.3359 300.07Z" fill="#263238"/>
<path d="M62.9281 300.535C62.7133 300.535 62.5006 300.48 62.3023 300.373C62.1041 300.266 61.9242 300.109 61.7732 299.911C61.6221 299.714 61.5029 299.48 61.4224 299.222C61.3419 298.964 61.3017 298.689 61.3041 298.411C61.3041 297.679 61.318 297.049 61.318 297.049C61.318 297.049 60.0119 296.89 59.926 295.219C59.8402 293.548 59.8704 289.69 59.8704 289.69C60.5865 289.222 61.3862 289.01 62.1869 289.076C62.9876 289.142 63.7601 289.483 64.4245 290.065L64.624 290.239L64.5521 298.456C64.5479 299.009 64.3749 299.538 64.0708 299.927C63.7667 300.317 63.356 300.535 62.9281 300.535Z" fill="#FFBE9D"/>
<path d="M61.2735 294.19C61.1784 294.223 61.0795 294.236 60.9812 294.226C60.9542 294.23 60.927 294.23 60.9 294.226C60.8817 294.22 60.8646 294.209 60.8501 294.194C60.8357 294.178 60.8241 294.158 60.8165 294.136C60.7982 294.053 60.8032 293.963 60.8304 293.884C60.8652 293.728 60.9023 293.584 60.9394 293.401C61.0235 292.983 61.1385 292.576 61.2828 292.186C61.2325 292.613 61.1502 293.033 61.0369 293.44C60.9951 293.605 60.9557 293.764 60.9186 293.92C60.8967 293.973 60.8878 294.034 60.893 294.094C60.893 294.127 60.9348 294.139 60.9812 294.142C61.0801 294.136 61.1791 294.152 61.2735 294.19Z" fill="#263238"/>
<path d="M61.8652 294.4C62.0439 294.244 61.3711 294.793 61.0068 294.799C61.0732 294.915 61.168 294.999 61.2759 295.037C61.3837 295.074 61.4982 295.063 61.6008 295.006C61.9789 294.79 61.8652 294.4 61.8652 294.4Z" fill="white"/>
<path d="M61.3037 297.025C61.9016 296.991 62.4783 296.728 62.9602 296.269C62.9602 296.269 62.6192 297.505 61.32 297.469L61.3037 297.025Z" fill="#EB996E"/>
<path d="M64.2685 292.087C64.294 292.087 65.0875 291.943 65.0132 293.155C64.939 294.367 64.0156 293.869 64.0156 293.833C64.0156 293.797 64.2685 292.087 64.2685 292.087Z" fill="#FFBE9D"/>
<path d="M64.3203 293.437C64.3203 293.437 64.3366 293.455 64.3621 293.473C64.3806 293.486 64.401 293.495 64.4222 293.498C64.4433 293.501 64.4646 293.499 64.485 293.491C64.5483 293.447 64.6015 293.382 64.6394 293.303C64.6772 293.224 64.6984 293.134 64.7008 293.041C64.7087 292.94 64.6992 292.837 64.6729 292.741C64.6663 292.703 64.6528 292.667 64.6334 292.637C64.6141 292.607 64.5894 292.583 64.5616 292.567C64.5429 292.559 64.5225 292.559 64.5039 292.567C64.4853 292.576 64.4696 292.593 64.4595 292.615C64.4456 292.648 64.4595 292.672 64.4456 292.675C64.4317 292.678 64.427 292.651 64.4456 292.603C64.4534 292.574 64.468 292.549 64.4874 292.531C64.5151 292.509 64.548 292.5 64.5802 292.507C64.6183 292.521 64.653 292.547 64.681 292.584C64.7091 292.62 64.7294 292.665 64.7402 292.714C64.7724 292.824 64.7843 292.942 64.775 293.059C64.7729 293.167 64.7459 293.273 64.6976 293.361C64.6493 293.45 64.5818 293.518 64.5036 293.557C64.478 293.564 64.4515 293.564 64.4262 293.555C64.4008 293.547 64.3773 293.531 64.3574 293.509C64.3203 293.467 64.3203 293.44 64.3203 293.437Z" fill="#EB996E"/>
<path d="M59.951 289.789C59.7928 289.728 59.6546 289.601 59.5581 289.428C59.4615 289.255 59.4121 289.045 59.4174 288.832C59.4308 288.62 59.4878 288.416 59.5824 288.241C59.677 288.067 59.8058 287.928 59.9556 287.839C60.1077 287.756 60.2714 287.715 60.4364 287.719C60.6014 287.723 60.764 287.771 60.9138 287.86C60.9602 287.548 61.0908 287.268 61.2824 287.069C61.4739 286.871 61.7138 286.766 61.9592 286.775C62.2047 286.784 62.4396 286.906 62.6221 287.118C62.8046 287.331 62.9227 287.62 62.9554 287.935C62.9879 287.611 63.2686 287.431 63.5215 287.41C63.6467 287.394 63.7731 287.415 63.8912 287.471C64.0093 287.527 64.1161 287.617 64.2035 287.734C64.2877 287.855 64.3342 288.012 64.3342 288.175C64.3342 288.338 64.2877 288.495 64.2035 288.616C64.4858 288.566 64.7722 288.655 65.0063 288.865C65.1215 288.97 65.2146 289.111 65.277 289.274C65.3394 289.438 65.3692 289.619 65.3635 289.801C65.3534 289.984 65.2991 290.157 65.2083 290.298C65.1176 290.438 64.9949 290.539 64.8578 290.584C64.7627 290.608 64.649 290.614 64.5979 290.722C64.5744 290.784 64.5655 290.854 64.5724 290.923L64.6003 292.123C64.5136 292.083 64.4185 292.088 64.3343 292.136C64.2502 292.183 64.1835 292.271 64.1479 292.381C64.0843 292.605 64.0668 292.847 64.0968 293.083C64.0179 293.236 63.8161 293.191 63.7303 293.044C63.6555 292.884 63.6222 292.697 63.6351 292.51C63.6351 291.865 63.6351 291.22 63.6166 290.575C63.5429 290.628 63.4598 290.657 63.3753 290.657C63.2908 290.657 63.2077 290.629 63.134 290.576C63.0602 290.522 62.9982 290.445 62.954 290.352C62.9097 290.259 62.8846 290.153 62.8811 290.044C62.7754 290.176 62.6482 290.275 62.509 290.335C62.3697 290.396 62.2218 290.415 62.0761 290.392C61.9303 290.369 61.7903 290.304 61.6663 290.203C61.5423 290.101 61.4374 289.965 61.3592 289.804C61.2095 289.971 61.0442 290.113 60.8674 290.227C60.6887 290.342 60.483 290.364 60.292 290.29C60.198 290.251 60.1154 290.176 60.0552 290.075C59.9951 289.973 59.9604 289.851 59.9556 289.723L60.0229 289.651" fill="#263238"/>
<path d="M60.2901 292.228C60.2895 292.257 60.2932 292.285 60.301 292.311C60.3089 292.338 60.3206 292.362 60.3357 292.383C60.3508 292.403 60.3689 292.42 60.3889 292.431C60.409 292.443 60.4306 292.449 60.4525 292.45C60.4974 292.45 60.5405 292.427 60.5723 292.386C60.604 292.345 60.6219 292.289 60.6219 292.231C60.6219 292.173 60.604 292.117 60.5723 292.076C60.5405 292.035 60.4974 292.012 60.4525 292.012C60.4092 292.015 60.3682 292.038 60.338 292.078C60.3078 292.119 60.2907 292.172 60.2901 292.228Z" fill="#263238"/>
<path d="M60.0191 292C60.0399 292.03 60.1629 291.895 60.3415 291.886C60.5202 291.877 60.6524 291.994 60.671 291.964C60.6895 291.934 60.6594 291.895 60.6014 291.841C60.5239 291.772 60.431 291.737 60.3369 291.742C60.2434 291.749 60.1539 291.794 60.0817 291.871C60.026 291.919 60.0098 291.973 60.0191 292Z" fill="#263238"/>
<path d="M62.2324 292.228C62.2318 292.285 62.2484 292.34 62.2787 292.382C62.3091 292.423 62.3507 292.448 62.3948 292.45C62.417 292.451 62.4389 292.445 62.4595 292.435C62.48 292.424 62.4987 292.408 62.5145 292.388C62.5302 292.368 62.5427 292.344 62.5513 292.318C62.5598 292.291 62.5642 292.263 62.5642 292.234C62.5648 292.177 62.5482 292.122 62.5179 292.081C62.4876 292.039 62.4459 292.015 62.4018 292.012C62.3575 292.013 62.3151 292.036 62.2835 292.076C62.2519 292.116 62.2336 292.171 62.2324 292.228Z" fill="#263238"/>
<path d="M62.0001 292.03C62.0209 292.06 62.1439 291.925 62.3225 291.916C62.5012 291.907 62.6311 292.024 62.652 291.991C62.6729 291.958 62.6381 291.925 62.5801 291.871C62.5036 291.801 62.4114 291.766 62.3179 291.772C62.2234 291.777 62.133 291.823 62.0604 291.901C62.0001 291.961 61.9792 292.018 62.0001 292.03Z" fill="#263238"/>
</g>
<defs>
<radialGradient id="paint0_radial_407_6122" cx="0" cy="0" r="1" gradientUnits="userSpaceOnUse" gradientTransform="translate(86 102.662) rotate(88.803) scale(191.478 188.408)">
<stop stop-color="#01A2BB"/>
<stop offset="1" stop-color="#FEFFFF" stop-opacity="0"/>
</radialGradient>
<clipPath id="clip0_407_6122">
<rect width="148" height="134" fill="white" transform="translate(12 217)"/>
</clipPath>
</defs>
</svg>
