<?xml version="1.0" encoding="utf-8"?><svg version="1.1" id="Layer_1" xmlns="http://www.w3.org/2000/svg" xmlns:xlink="http://www.w3.org/1999/xlink" x="0px" y="0px" viewBox="0 0 121.63 122.88" style="enable-background:new 0 0 121.63 122.88" xml:space="preserve"><g><path d="M39.67,58.68c-0.42,0.46-0.68,1.08-0.68,1.76c0,1.44,1.17,2.61,2.61,2.61c1.44,0,2.61-1.17,2.61-2.61 c0-0.65-0.24-1.25-0.63-1.71c1.18,0.25,2.36,0.71,3.55,1.33c0.72,0.38,1.61,0.1,1.98-0.62c0.38-0.72,0.1-1.61-0.62-1.98 c-2.22-1.16-4.46-1.84-6.75-1.9c-2.32-0.05-4.65,0.54-6.97,1.94c-0.7,0.42-0.92,1.32-0.5,2.02c0.42,0.7,1.32,0.92,2.02,0.5 C37.42,59.34,38.55,58.9,39.67,58.68L39.67,58.68z M19.17,100.66c0.27,0.25,0.44,0.58,0.47,0.93c0.04,0.36-0.06,0.74-0.32,1.05 l-0.01,0.01l0,0l0,0l0,0l-0.01,0.01c-0.25,0.29-0.6,0.47-0.96,0.5v0c-0.36,0.04-0.74-0.06-1.05-0.32l0,0l-0.01-0.01l-0.03-0.03 c-0.99-0.81-1.8-1.71-2.43-2.67c-0.64-0.99-1.08-2.04-1.32-3.15c-0.23-1.08-0.25-2.22-0.06-3.37l0,0h0 c0.19-1.13,0.58-2.28,1.18-3.44c0.01-0.02,0.02-0.04,0.03-0.06c0.18-0.32,0.48-0.55,0.81-0.65c0.35-0.11,0.74-0.09,1.1,0.09l0,0 l0,0c0.35,0.18,0.6,0.49,0.71,0.84c0.11,0.35,0.09,0.75-0.09,1.1l0,0c-0.45,0.86-0.74,1.71-0.88,2.53 c-0.14,0.82-0.13,1.62,0.02,2.37c0.16,0.75,0.47,1.49,0.93,2.18l0.02,0.04c0.47,0.7,1.08,1.36,1.82,1.97 C19.13,100.62,19.15,100.64,19.17,100.66L19.17,100.66z M10.86,110.46c0.3,0.25,0.47,0.59,0.52,0.94c0.05,0.37-0.05,0.75-0.29,1.07 l-0.02,0.02c-0.24,0.3-0.59,0.48-0.94,0.52c-0.36,0.05-0.74-0.04-1.06-0.29l0,0l-0.01-0.01l0,0c-2.34-1.81-4.25-3.86-5.71-6.09 c-1.47-2.25-2.47-4.68-2.97-7.23c-0.49-2.52-0.51-5.14,0-7.82c0.49-2.59,1.46-5.22,2.94-7.86l0,0c0.19-0.35,0.51-0.58,0.87-0.68 c0.35-0.1,0.75-0.06,1.09,0.12l0.04,0.02c0.33,0.19,0.56,0.5,0.65,0.85h0c0.1,0.35,0.07,0.75-0.12,1.1l-0.03,0.05 c-1.3,2.32-2.16,4.63-2.59,6.89c-0.44,2.32-0.44,4.59-0.01,6.76c0.44,2.2,1.31,4.3,2.58,6.25c1.28,1.95,2.96,3.75,5.02,5.34 L10.86,110.46L10.86,110.46z M15,105.36c0.32,0.24,0.52,0.58,0.57,0.95c0.05,0.37-0.03,0.75-0.27,1.07 c-0.24,0.32-0.59,0.52-0.95,0.57c-0.36,0.05-0.75-0.03-1.08-0.27l-0.03-0.02c-1.8-1.35-3.25-2.82-4.34-4.41 c-1.1-1.6-1.83-3.3-2.17-5.1c-0.33-1.78-0.29-3.63,0.15-5.55c0.43-1.86,1.24-3.78,2.44-5.73l0,0l0.02-0.03 c0.21-0.32,0.53-0.53,0.88-0.61v0c0.36-0.09,0.75-0.04,1.09,0.18l0.01,0l0,0l0.01,0.01l0,0l0,0l0.04,0.03 c0.31,0.21,0.51,0.53,0.6,0.87v0l0,0c0.08,0.36,0.03,0.75-0.18,1.08l0,0c-1.02,1.66-1.7,3.26-2.07,4.8 c-0.37,1.54-0.41,3.02-0.15,4.41c0.27,1.42,0.86,2.78,1.76,4.07c0.89,1.28,2.08,2.49,3.56,3.61c0.02,0.01,0.05,0.02,0.07,0.04 L15,105.36L15,105.36L15,105.36z M11.37,86.45c0.24,0.19,0.29,0.52,0.13,0.78L11.37,86.45L11.37,86.45z M54.33,112.86 c0.04,1.24,0,2.49-0.12,3.74c-0.16,1.7-0.47,3.36-0.91,4.99c-0.25,0.93-1.2,1.48-2.13,1.23c-0.93-0.25-1.48-1.2-1.23-2.13 c0.4-1.48,0.67-2.95,0.81-4.42c0.08-0.78,0.12-1.56,0.12-2.36c-2.25,0.62-4.48,1.12-6.58,1.49c-4.36,0.78-8.43,0.96-11.69,0.34 c-2.48-0.47-4.53-1.39-5.97-2.85c-1.52-1.55-2.31-3.6-2.14-6.23c0.12-1.81,0.7-3.9,1.85-6.3c-0.26-1.24-0.48-2.53-0.65-3.86 c-0.2-1.5-0.33-3.02-0.38-4.56h0l0-0.04c-0.02-0.07-0.03-0.14-0.03-0.21c-0.27-2.81-0.3-5.56-0.34-8.33l-0.01-0.77l-4.43-0.26 l-0.05,0c-1.11-0.04-2.1-0.36-2.92-0.9c-0.79-0.52-1.43-1.23-1.85-2.11c-0.41-0.83-0.62-1.8-0.6-2.85c0.03-1.47,0.52-3.11,1.61-4.8 l4.62-9.44c2.28-4.65,2.25-5.27,2.15-7.72c-0.04-1.09-0.1-2.48-0.03-4.57c0.08-2.48,0.36-4.86,0.9-7.09 c0.39-1.62,0.92-3.16,1.6-4.6l-8.51-3.71c-0.88-0.38-1.28-1.41-0.9-2.28c0.05-0.12,0.12-0.23,0.19-0.33l0,0 c20-27.27,42.6-34.78,61.7-31.01c11.16,2.2,21.1,8.26,28.62,16.5c7.52,8.22,12.63,18.62,14.14,29.5 c2.49,17.9-4.7,37.07-26.83,50.05c-0.21,0.12-0.44,0.2-0.66,0.23c0.01,2.77,0.18,5.45,0.5,8.05c0.62,5.08,1.81,9.85,3.5,14.33 c0.34,0.9-0.12,1.9-1.01,2.24c-0.9,0.34-1.9-0.12-2.24-1.01c-1.79-4.75-3.05-9.78-3.7-15.13c-0.65-5.33-0.7-11-0.08-17.04 c0.1-0.95,0.95-1.65,1.9-1.55c0.95,0.1,1.65,0.95,1.55,1.9c-0.15,1.45-0.26,2.88-0.33,4.28c19.79-12.12,26.23-29.59,23.96-45.87 c-1.42-10.19-6.21-19.93-13.26-27.64c-7.04-7.7-16.33-13.37-26.73-15.42C60.24,0.87,39.51,7.68,20.79,32.23l8.13,3.55 c0.1,0.04,0.2,0.09,0.3,0.14l0.04,0.03c5.1,1.85,12.05-0.27,18.71-2.29c4.83-1.47,9.51-2.9,13.58-2.88 c0.22-0.02,0.45,0.01,0.67,0.08c0.91,0.3,1.41,1.28,1.11,2.2c-2.2,6.67-1.96,11.59-0.08,15.4c1.89,3.85,5.5,6.71,9.98,9.16 c0.84,0.46,1.15,1.51,0.69,2.35c-0.46,0.84-1.51,1.15-2.35,0.69c-5.07-2.77-9.18-6.08-11.44-10.67c-2.03-4.12-2.52-9.16-0.83-15.61 c-3.1,0.38-6.67,1.47-10.34,2.59c-6.79,2.07-13.88,4.23-19.84,2.58c-0.63,1.28-1.11,2.66-1.46,4.12c-0.48,1.99-0.73,4.13-0.8,6.39 c-0.06,1.95-0.01,3.29,0.03,4.33c0.13,3.14,0.16,3.93-2.51,9.38l-4.63,9.47c-0.04,0.09-0.08,0.17-0.14,0.26 c-0.75,1.14-1.08,2.18-1.1,3.06c-0.01,0.48,0.08,0.9,0.25,1.24c0.15,0.3,0.37,0.55,0.65,0.73c0.31,0.2,0.69,0.32,1.13,0.34 c0.05,0,0.09,0,0.14,0l5.37,0.32c0.17-0.06,0.34-0.09,0.53-0.09c0.06,0,0.12,0,0.18,0.01l0-0.01l4.92,0.42 c0.96,0.08,1.67,0.92,1.59,1.88c-0.08,0.96-0.92,1.67-1.88,1.59l-0.09-0.01l-2.93-0.17l0.01,0.52c0.03,2.49,0.07,4.96,0.27,7.45 c1.32,0.63,2.6,1.02,3.84,1.15c1.42,0.14,2.8-0.07,4.14-0.66c0.88-0.39,1.9,0.01,2.29,0.89c0.39,0.88-0.01,1.9-0.89,2.29 c-1.9,0.84-3.86,1.14-5.88,0.93c-1.06-0.11-2.13-0.35-3.2-0.73c0.05,0.47,0.1,0.94,0.16,1.41c0.18,1.35,0.43,2.74,0.74,4.15 c0.1,0.46,0.01,0.92-0.22,1.29c-1.06,2.13-1.59,3.92-1.69,5.39c-0.1,1.56,0.32,2.74,1.15,3.58c0.91,0.93,2.34,1.54,4.14,1.88 c2.84,0.54,6.48,0.37,10.44-0.34c3.77-0.68,8-1.76,11.89-3.27c3.17-1.23,6.11-2.74,8.35-4.53c2.21-1.77,3.22-4.64,4.08-7.1 c0.18-0.5,0.35-0.99,0.43-1.2l0.25-0.68c1.07-2.94,2.92-8.03,5.31-9.87c0.76-0.59,1.85-0.45,2.43,0.31 c0.59,0.76,0.45,1.85-0.31,2.43c-1.6,1.23-3.23,5.72-4.17,8.31c-0.19,0.51-0.14,0.39-0.25,0.69c-0.2,0.54-0.3,0.84-0.41,1.15 c-1.02,2.9-2.21,6.29-5.2,8.68c-2.52,2.02-5.77,3.69-9.26,5.04C56,112.28,55.17,112.58,54.33,112.86L54.33,112.86z M83.61,66.27 c0.17,0.94-0.45,1.85-1.39,2.02c-0.94,0.17-1.85-0.45-2.02-1.39c-0.21-1.17-0.15-2.28,0.14-3.29c0.4-1.43,1.24-2.66,2.34-3.59 c1.07-0.91,2.4-1.53,3.82-1.79c1.19-0.22,2.44-0.18,3.66,0.16c3.31,0.93,4.72,2.61,5.02,4.75c0.26,1.88-0.47,3.9-1.48,6.03 c-0.89,1.87-4.31,9-7.69,13.36c-4.74,6.12-9.34,8.33-10.05-4.64c-0.05-0.96,0.69-1.77,1.64-1.82c0.96-0.05,1.77,0.69,1.82,1.64 c0.31,5.63,2.05,5,3.84,2.69c3.15-4.06,6.44-10.92,7.29-12.72c0.76-1.6,1.32-3.05,1.18-4.07c-0.11-0.75-0.8-1.4-2.52-1.88 c-0.7-0.2-1.42-0.22-2.09-0.1c-0.82,0.15-1.58,0.51-2.2,1.03c-0.59,0.5-1.03,1.14-1.24,1.88C83.53,65.07,83.5,65.65,83.61,66.27 L83.61,66.27z"/></g></svg>